<?xml version="1.0" encoding="utf-8"?>
<!-- Generator: Adobe Illustrator 28.3.0, SVG Export Plug-In . SVG Version: 6.00 Build 0)  -->
<svg version="1.1" id="Layer_1" xmlns="http://www.w3.org/2000/svg" xmlns:xlink="http://www.w3.org/1999/xlink" x="0px" y="0px"
	 viewBox="0 0 128 128" style="enable-background:new 0 0 128 128;" xml:space="preserve">
<path d="M64,4C30.9,4,4,30.9,4,64c0,20.6,10.3,38.7,26.1,49.5c12.8,4.2,25.5,3.8,37.8-1.9c12.5-5.8,21-15.4,26.3-28.3
	c0.1,0.6,0.3,1.3,0.4,1.9c2.6,16.2-7.4,32.2-23.2,36.9c-3.8,1.1-7.5,1.6-11.2,1.7c1.3,0.1,2.5,0.1,3.8,0.1c33.1,0,60-26.9,60-60
	S97.1,4,64,4z M88.9,114.2c1.6-3.1,3.7-6.5,5.2-10.1c2.9-6.9,3.6-14.1,1.3-21.4c-3.3-10.4-12-16.5-23.1-16.5c-1.9,0-1.9-0.1-1.1-1.6
	c0.7-1.3,0.4-2.6-1.1-3.1c-0.9-0.3-2-0.2-3-0.2c-1.2,0-2.1-0.4-2.2-1.7c-0.1-1.2,0.6-1.7,1.8-1.9c11.9-2.1,24.1,3.3,30.4,13.6
	c3.4,5.6,4.2,11.8,3.7,18.2C100,98.5,95.2,108.2,88.9,114.2z M103.1,97.4c-1.4,2.2-3.1,4.2-4.6,6.3c-0.2,0.3-0.4,0.5-0.8,0.9
	c1.2-3.3,2.5-6.3,3.3-9.5c2.7-11.1,1-21.4-6.7-30.1c-7.6-8.5-17.4-11.1-28.3-9.2c-4.8,0.8-9.4,2.7-14.1,3.9
	c-4.6,1.1-8.9,0.4-12.1-3.5c-3.3-4-2.8-10.1,1.2-14.1c1.9-1.9,4.1-3.5,6.3-4.8c7.9-4.8,16.3-8.1,25.6-8.9
	c22.5-1.9,39,13.1,40.5,34.3C114.1,75.5,110,86.8,103.1,97.4z M114.6,61.9c-1.3-21-18.2-36.8-39.2-36.9c-8.6,0-16.6,2-24.4,5.5
	c-0.4,0.2-0.8,0.4-1.3,0.6c-1.5-2.4-3.6-3-6.5-2c-1.7,0.6-3.4,1.4-5.1,1.9c-2.6,0.8-4.8,0.2-5.6-1.3c-0.7-1.3,0-3.6,2.2-5.1
	c2.2-1.6,4.7-3,7.2-4.1c11.5-5.3,23.5-7.9,36-5.2c18.8,4,30.6,15.7,35.7,34.1c1.4,5.1,1.7,10.2,1.1,15.5
	C114.6,63.9,114.6,62.9,114.6,61.9z"/>
</svg>
