<svg xmlns="http://www.w3.org/2000/svg" width="24" height="24" viewBox="0 0 24 24"><path fill="#0078B9" d="M.301 17.615c-.13-.34-.522-1.512-.133-2.432l9.827 5.674a.33.33 0 0 0 .33 0L24 12.962v2.354l-13.84 7.99zm-.11-8.652c-.288.877.015 2.058.124 2.426l9.845 5.684L24 9.083V6.727l-13.675 7.895a.33.33 0 0 1-.33 0zm13.17-1.936a.332.332 0 0 1-.485-.207l-.28-1.133l-2.126-.176a.33.33 0 0 1-.138-.614l5.578-3.22l-1.702-.983l-13.51 7.8l9.462 5.462l13.51-7.8l-4.4-2.54zm-.182-1.729l.232.938l5.198-3.001l-2.04-1.178l-4.993 2.884l1.31.108a.33.33 0 0 1 .293.25M24 9.845L10.325 17.74a.33.33 0 0 1-.33 0L.168 12.067c-.39.919.003 2.091.133 2.43l9.859 5.693L24 12.2z"/></svg>