<?xml version="1.0" standalone="no"?>
<!DOCTYPE svg PUBLIC "-//W3C//DTD SVG 20010904//EN"
 "http://www.w3.org/TR/2001/REC-SVG-20010904/DTD/svg10.dtd">
<svg version="1.0" xmlns="http://www.w3.org/2000/svg"
 width="340.000000pt" height="340.000000pt" viewBox="0 0 340.000000 340.000000"
 preserveAspectRatio="xMidYMid meet">

<g transform="translate(0.000000,340.000000) scale(0.100000,-0.100000)" stroke="none">
<path fill="#F24D1D" d="M1385 2574 c-268 -38 -456 -142 -603 -335 -218 -286 -226 -755 -19
-1054 110 -159 268 -272 467 -336 67 -21 94 -24 240 -24 185 0 243 11 367 70
98 46 157 87 229 161 55 56 143 198 131 210 -8 8 -288 144 -296 144 -4 0 -16
-19 -28 -43 -34 -69 -117 -153 -186 -187 -214 -105 -484 -39 -620 152 -121
170 -141 455 -46 655 58 123 192 233 320 262 78 18 213 13 282 -10 101 -34
202 -120 248 -211 12 -24 23 -44 24 -46 2 -2 295 136 304 144 2 2 -12 33 -30
69 -82 165 -266 301 -477 356 -71 18 -247 31 -307 23z"/>
<path fill="#4162FE" d="M2575 1135 c-114 -40 -147 -185 -61 -271 65 -65 167 -65 232 0 83 83
59 213 -49 265 -50 24 -68 25 -122 6z"/>
</g>
</svg>
