<svg width="48" height="48" viewBox="0 0 48 48" fill="none" xmlns="http://www.w3.org/2000/svg">
<path d="M0 24C0 10.7452 10.7452 0 24 0C37.2548 0 48 10.7452 48 24C48 37.2548 37.2548 48 24 48C10.7452 48 0 37.2548 0 24Z" fill="white"/>
<path d="M12.8682 29.5623C12.6206 29.9661 12.3425 30.4347 12.1063 30.808C11.8949 31.1653 12.0084 31.626 12.3615 31.8442L17.3139 34.8919C17.4878 34.9992 17.6974 35.0322 17.8958 34.9835C18.0943 34.9348 18.2648 34.8084 18.3692 34.6328C18.5673 34.3014 18.8225 33.8709 19.1006 33.4099C21.0625 30.1719 23.0358 30.568 26.5939 32.2671L31.5044 34.6023C31.6904 34.6908 31.9043 34.7003 32.0973 34.6285C32.2904 34.5568 32.4462 34.4099 32.5292 34.2214L34.8873 28.888C35.0539 28.5071 34.8843 28.063 34.5063 27.8899C33.4701 27.4023 31.4092 26.4309 29.5539 25.5357C22.8796 22.2938 17.2073 22.5033 12.8682 29.5623Z" fill="url(#paint0_linear)"/>
<path d="M35.0739 17.4595C35.3215 17.0557 35.5996 16.5871 35.8358 16.2138C36.0472 15.8565 35.9338 15.3958 35.5806 15.1776L30.6282 12.13C30.453 12.0119 30.2366 11.972 30.0307 12.0196C29.8248 12.0673 29.648 12.1983 29.5425 12.3814C29.3444 12.7128 29.0892 13.1433 28.8111 13.6043C26.8492 16.8424 24.8758 16.4462 21.3177 14.7471L16.4225 12.4233C16.2365 12.3348 16.0226 12.3253 15.8296 12.3971C15.6365 12.4689 15.4807 12.6158 15.3977 12.8043L13.0396 18.1376C12.873 18.5185 13.0426 18.9627 13.4206 19.1357C14.4568 19.6233 16.5177 20.5947 18.373 21.49C25.0625 24.7281 30.7349 24.5109 35.0739 17.4595Z" fill="url(#paint1_linear)"/>
<defs>
<linearGradient id="paint0_linear" x1="43.3553" y1="32.7159" x2="37.8094" y2="19.9929" gradientUnits="userSpaceOnUse">
<stop offset="0.18" stop-color="#0052CC"/>
<stop offset="1" stop-color="#2684FF"/>
</linearGradient>
<linearGradient id="paint1_linear" x1="1892.63" y1="-18635.3" x2="1828.06" y2="-18930.7" gradientUnits="userSpaceOnUse">
<stop offset="0.18" stop-color="#0052CC"/>
<stop offset="1" stop-color="#2684FF"/>
</linearGradient>
</defs>
</svg>
