<svg xmlns="http://www.w3.org/2000/svg" width="192" height="192" fill="none" viewBox="0 0 192 192"><path fill="url(#a)" d="M146 44h38v110c0 6.627-5.373 12-12 12h-20a6 6 0 0 1-6-6z"/><path fill="#fc413d" d="M46 44H8v110c0 6.627 5.373 12 12 12h20a6 6 0 0 0 6-6z"/><path fill="url(#b)" d="M39.226 30.456c-8.033-6.752-20.018-5.714-26.77 2.319-6.752 8.032-5.714 20.017 2.319 26.77l76.078 63.949a8 8 0 0 0 10.295 0l76.078-63.95c8.032-6.752 9.07-18.737 2.318-26.77-6.752-8.032-18.737-9.07-26.769-2.318L96 78.18z"/><defs><linearGradient id="a" x1="165" x2="165" y1="44" y2="166" gradientUnits="userSpaceOnUse"><stop stop-color="#60d673"/><stop offset=".17" stop-color="#42c868"/><stop offset=".39" stop-color="#0ebc5f"/><stop offset=".62" stop-color="#00a9bb"/><stop offset=".86" stop-color="#3c90ff"/><stop offset="1" stop-color="#3186ff"/></linearGradient><linearGradient id="b" x1="8" x2="184" y1="46.13" y2="46.13" gradientUnits="userSpaceOnUse"><stop offset=".08" stop-color="#ff63a0"/><stop offset=".3" stop-color="#fc413d"/><stop offset=".5" stop-color="#fc413d"/><stop offset=".65" stop-color="#fc413d"/><stop offset=".72" stop-color="#fc5c30"/><stop offset=".86" stop-color="#feb10c"/><stop offset=".91" stop-color="#fec700"/><stop offset=".96" stop-color="#ffdb0f"/></linearGradient></defs></svg>