<?xml version="1.0" ?><svg id="Capa_1" style="enable-background:new 0 0 150 150;" version="1.1" viewBox="0 0 150 150" xml:space="preserve" xmlns="http://www.w3.org/2000/svg" xmlns:xlink="http://www.w3.org/1999/xlink"><style type="text/css">
	.st0{fill:#1A73E8;}
	.st1{fill:#EA4335;}
	.st2{fill:#4285F4;}
	.st3{fill:#FBBC04;}
	.st4{fill:#34A853;}
	.st5{fill:#4CAF50;}
	.st6{fill:#1E88E5;}
	.st7{fill:#E53935;}
	.st8{fill:#C62828;}
	.st9{fill:#FBC02D;}
	.st10{fill:#1565C0;}
	.st11{fill:#2E7D32;}
	.st12{fill:#F6B704;}
	.st13{fill:#E54335;}
	.st14{fill:#4280EF;}
	.st15{fill:#34A353;}
	.st16{clip-path:url(#SVGID_2_);}
	.st17{fill:#188038;}
	.st18{opacity:0.2;fill:#FFFFFF;enable-background:new    ;}
	.st19{opacity:0.3;fill:#0D652D;enable-background:new    ;}
	.st20{clip-path:url(#SVGID_4_);}
	.st21{opacity:0.3;fill:url(#_45_shadow_1_);enable-background:new    ;}
	.st22{clip-path:url(#SVGID_6_);}
	.st23{fill:#FA7B17;}
	.st24{opacity:0.3;fill:#174EA6;enable-background:new    ;}
	.st25{opacity:0.3;fill:#A50E0E;enable-background:new    ;}
	.st26{opacity:0.3;fill:#E37400;enable-background:new    ;}
	.st27{fill:url(#Finish_mask_1_);}
	.st28{fill:#FFFFFF;}
	.st29{fill:#0C9D58;}
	.st30{opacity:0.2;fill:#004D40;enable-background:new    ;}
	.st31{opacity:0.2;fill:#3E2723;enable-background:new    ;}
	.st32{fill:#FFC107;}
	.st33{opacity:0.2;fill:#1A237E;enable-background:new    ;}
	.st34{opacity:0.2;}
	.st35{fill:#1A237E;}
	.st36{fill:url(#SVGID_7_);}
	.st37{fill:#FBBC05;}
	.st38{clip-path:url(#SVGID_9_);fill:#E53935;}
	.st39{clip-path:url(#SVGID_11_);fill:#FBC02D;}
	.st40{clip-path:url(#SVGID_13_);fill:#E53935;}
	.st41{clip-path:url(#SVGID_15_);fill:#FBC02D;}
</style><g><path class="st6" d="M104.8,113.3c-2,1.2-4.3,1.8-6.7,1.8H51.8c-2.4,0-4.7-0.6-6.7-1.8c7.3-12.6,14.4-25,14.4-25h30.8   C90.4,88.4,99.2,103.6,104.8,113.3z"/><path class="st9" d="M89.4,36.7c2,1.2,3.7,2.8,4.9,4.9l23.2,40.1c1.2,2.1,1.8,4.4,1.8,6.7c-10.5,0.1-28.8,0-28.8,0L75,61.6   C75,61.6,83,47.8,89.4,36.7z"/><path class="st7" d="M119.3,88.4c0,2.3-0.6,4.6-1.8,6.7l-8.2,14.2c-1.2,1.7-2.7,3.1-4.4,4.1l-14.4-25H119.3z"/><path class="st5" d="M30.7,88.4c0-2.3,0.6-4.6,1.8-6.7l23.2-40.1c1.2-2.1,2.9-3.7,4.9-4.9c2-1.2,14.4,25,14.4,25L59.6,88.4   C59.6,88.4,39.4,88.4,30.7,88.4z"/><path class="st10" d="M59.6,88.4l-14.4,25c-1.7-1-3.3-2.4-4.4-4.1l-8.2-14.2c-1.2-2.1-1.8-4.4-1.8-6.7H59.6z"/><path class="st11" d="M89.4,36.7L75,61.6l-14.4-25c1.7-1,3.7-1.6,5.8-1.8l16.3,0C85.1,34.9,87.4,35.5,89.4,36.7z"/></g></svg>