<?xml version="1.0" ?><svg id="Capa_1" style="enable-background:new 0 0 150 150;" version="1.1" viewBox="0 0 150 150" xml:space="preserve" xmlns="http://www.w3.org/2000/svg" xmlns:xlink="http://www.w3.org/1999/xlink"><style type="text/css">
	.st0{fill:#1A73E8;}
	.st1{fill:#EA4335;}
	.st2{fill:#4285F4;}
	.st3{fill:#FBBC04;}
	.st4{fill:#34A853;}
	.st5{fill:#4CAF50;}
	.st6{fill:#1E88E5;}
	.st7{fill:#E53935;}
	.st8{fill:#C62828;}
	.st9{fill:#FBC02D;}
	.st10{fill:#1565C0;}
	.st11{fill:#2E7D32;}
	.st12{fill:#F6B704;}
	.st13{fill:#E54335;}
	.st14{fill:#4280EF;}
	.st15{fill:#34A353;}
	.st16{clip-path:url(#SVGID_2_);}
	.st17{fill:#188038;}
	.st18{opacity:0.2;fill:#FFFFFF;enable-background:new    ;}
	.st19{opacity:0.3;fill:#0D652D;enable-background:new    ;}
	.st20{clip-path:url(#SVGID_4_);}
	.st21{opacity:0.3;fill:url(#_45_shadow_1_);enable-background:new    ;}
	.st22{clip-path:url(#SVGID_6_);}
	.st23{fill:#FA7B17;}
	.st24{opacity:0.3;fill:#174EA6;enable-background:new    ;}
	.st25{opacity:0.3;fill:#A50E0E;enable-background:new    ;}
	.st26{opacity:0.3;fill:#E37400;enable-background:new    ;}
	.st27{fill:url(#Finish_mask_1_);}
	.st28{fill:#FFFFFF;}
	.st29{fill:#0C9D58;}
	.st30{opacity:0.2;fill:#004D40;enable-background:new    ;}
	.st31{opacity:0.2;fill:#3E2723;enable-background:new    ;}
	.st32{fill:#FFC107;}
	.st33{opacity:0.2;fill:#1A237E;enable-background:new    ;}
	.st34{opacity:0.2;}
	.st35{fill:#1A237E;}
	.st36{fill:url(#SVGID_7_);}
	.st37{fill:#FBBC05;}
	.st38{clip-path:url(#SVGID_9_);fill:#E53935;}
	.st39{clip-path:url(#SVGID_11_);fill:#FBC02D;}
	.st40{clip-path:url(#SVGID_13_);fill:#E53935;}
	.st41{clip-path:url(#SVGID_15_);fill:#FBC02D;}
</style><g><polygon class="st6" points="79.2,67.2 81.8,70.9 85.8,68 85.8,89 90.1,89 90.1,61.4 86.5,61.4  "/><path class="st6" d="M72.3,74.4c1.6-1.4,2.6-3.5,2.6-5.7c0-4.4-3.9-8-8.6-8c-4,0-7.5,2.5-8.4,6.2l4.2,1.1c0.4-1.7,2.2-2.9,4.2-2.9   c2.4,0,4.3,1.6,4.3,3.6c0,2-1.9,3.6-4.3,3.6h-2.5v4.4h2.5c2.7,0,5,1.9,5,4.1c0,2.3-2.2,4.1-4.9,4.1c-2.4,0-4.5-1.5-4.8-3.6   l-4.2,0.7c0.7,4.1,4.6,7.2,9.1,7.2c5.1,0,9.2-3.8,9.2-8.5C75.6,78.2,74.3,75.9,72.3,74.4z"/><polygon class="st9" points="100.2,120.3 49.8,120.3 49.8,100.2 100.2,100.2  "/><polygon class="st5" points="120.3,100.2 120.3,49.8 100.2,49.8 100.2,100.2  "/><path class="st6" d="M100.2,49.8V29.7h-63c-4.2,0-7.6,3.4-7.6,7.6v63h20.1V49.8H100.2z"/><polygon class="st7" points="100.2,100.2 100.2,120.3 120.3,100.2  "/><path class="st10" d="M112.8,29.7h-12.6v20.1h20.1V37.2C120.3,33,117,29.7,112.8,29.7z"/><path class="st10" d="M37.2,120.3h12.6v-20.1H29.7v12.6C29.7,117,33,120.3,37.2,120.3z"/></g></svg>