<?xml version="1.0" standalone="no"?>
<!DOCTYPE svg PUBLIC "-//W3C//DTD SVG 20010904//EN"
 "http://www.w3.org/TR/2001/REC-SVG-20010904/DTD/svg10.dtd">
<svg version="1.0" xmlns="http://www.w3.org/2000/svg"
 width="512.000000pt" height="130.000000pt" viewBox="0 0 512.000000 130.000000"
 preserveAspectRatio="xMidYMid meet">

<g transform="translate(0.000000,130.000000) scale(0.100000,-0.100000)"
fill="#000000" stroke="none">
<path d="M470 1287 c-73 -21 -118 -47 -176 -99 -168 -154 -270 -444 -290 -825
-9 -174 -12 -172 168 -104 215 79 557 174 779 214 l77 14 6 -36 c3 -20 6 -66
6 -102 0 -95 8 -128 34 -135 50 -12 368 132 447 204 56 51 68 81 45 117 -22
33 -72 45 -190 45 -89 0 -98 2 -91 17 34 89 46 269 23 347 -16 53 -81 118
-134 134 -52 15 -161 16 -221 1 -45 -12 -45 -12 -71 22 -114 150 -278 225
-412 186z m201 -74 c51 -23 105 -67 149 -124 l31 -38 -73 -37 c-121 -61 -245
-153 -371 -274 -107 -103 -297 -324 -327 -380 -6 -12 -14 -20 -16 -17 -9 8 17
220 37 316 68 312 196 513 362 567 55 18 151 12 208 -13z m509 -202 c21 -11
45 -35 60 -62 21 -38 25 -56 24 -129 0 -55 -9 -114 -23 -166 l-23 -81 -45 -7
c-93 -12 -88 -16 -107 82 -21 103 -65 242 -101 313 -15 28 -24 53 -22 55 9 9
124 21 162 17 22 -3 56 -13 75 -22z m-260 -98 c18 -42 38 -97 46 -122 17 -55
54 -215 54 -234 0 -9 -32 -19 -97 -31 -160 -30 -467 -110 -643 -169 -91 -30
-166 -54 -167 -53 -1 1 37 53 85 116 105 140 318 354 429 433 85 60 224 137
248 137 7 0 27 -34 45 -77z m584 -405 c17 -9 16 -12 -10 -39 -29 -30 -174
-109 -280 -152 l-62 -25 54 112 53 111 58 6 c69 6 161 0 187 -13z m-314 -3 c0
-10 -81 -167 -84 -164 -2 2 -6 39 -10 81 l-7 77 28 4 c45 7 73 7 73 2z"/>
<path d="M1880 645 l0 -415 45 0 45 0 0 415 0 415 -45 0 -45 0 0 -415z"/>
<path d="M3180 645 l0 -415 45 0 45 0 0 125 c0 82 4 125 11 125 6 0 72 -56
147 -125 l136 -125 59 0 c32 0 57 4 55 9 -1 5 -72 71 -155 146 -84 76 -153
141 -153 145 0 5 68 68 150 140 83 72 150 133 150 136 0 2 -28 4 -62 4 l-63 0
-125 -115 c-69 -63 -131 -114 -137 -114 -10 -1 -13 53 -13 239 l0 240 -45 0
-45 0 0 -415z"/>
<path d="M2184 1002 c-23 -15 -35 -51 -24 -72 31 -58 110 -39 110 26 0 35 -57
66 -86 46z"/>
<path d="M4774 820 c-43 -10 -102 -47 -121 -76 -23 -36 -33 -29 -33 21 l0 45
-45 0 -45 0 0 -405 0 -405 45 0 45 0 0 160 c0 88 3 160 6 160 4 0 26 -18 49
-39 53 -48 108 -65 197 -59 152 11 248 129 248 303 0 97 -23 158 -83 220 -72
73 -163 99 -263 75z m171 -114 c52 -40 75 -95 75 -184 0 -87 -15 -127 -63
-169 -74 -65 -176 -69 -260 -11 -59 42 -92 165 -68 256 14 49 63 109 106 129
19 8 57 12 101 11 60 -3 76 -8 109 -32z"/>
<path d="M2654 802 c-22 -11 -55 -37 -72 -58 l-32 -39 0 53 0 52 -50 0 -50 0
2 -287 3 -288 45 0 45 0 5 190 c5 199 11 226 57 267 29 26 88 48 130 48 49 -1
118 -32 135 -62 9 -16 14 -85 18 -233 l5 -210 45 0 45 0 3 193 c1 109 -2 210
-8 231 -14 54 -61 115 -106 136 -57 28 -168 31 -220 7z"/>
<path d="M2170 520 l0 -290 45 0 45 0 0 290 0 290 -45 0 -45 0 0 -290z"/>
<path d="M3800 619 c0 -212 8 -260 52 -313 46 -56 100 -79 184 -79 81 0 136
24 176 77 l23 31 5 -50 5 -50 45 0 45 0 3 288 2 287 -50 0 -50 0 0 -177 c0
-193 -9 -232 -61 -280 -52 -47 -158 -59 -216 -23 -58 35 -63 57 -63 280 l0
200 -50 0 -50 0 0 -191z"/>
</g>
</svg>
