<?xml version="1.0" ?><svg style="enable-background:new 0 0 100 100;" version="1.1" viewBox="0 0 100 100" xml:space="preserve" xmlns="http://www.w3.org/2000/svg" xmlns:xlink="http://www.w3.org/1999/xlink"><style type="text/css">
	.st0{fill:#FFFFFF;}
	.st1{fill:#F5BB41;}
	.st2{fill:#2167D1;}
	.st3{fill:#3D84F3;}
	.st4{fill:#4CA853;}
	.st5{fill:#398039;}
	.st6{fill:#D74F3F;}
	.st7{fill:#D43C89;}
	.st8{fill:#B2005F;}
	.st9{fill:none;stroke:#000000;stroke-width:3;stroke-linecap:round;stroke-linejoin:round;stroke-miterlimit:10;}
	
		.st10{fill-rule:evenodd;clip-rule:evenodd;fill:none;stroke:#000000;stroke-width:3;stroke-linecap:round;stroke-linejoin:round;stroke-miterlimit:10;}
	
		.st11{fill-rule:evenodd;clip-rule:evenodd;fill:none;stroke:#040404;stroke-width:3;stroke-linecap:round;stroke-linejoin:round;stroke-miterlimit:10;}
	.st12{fill-rule:evenodd;clip-rule:evenodd;}
	.st13{fill-rule:evenodd;clip-rule:evenodd;fill:#040404;}
	.st14{fill:url(#SVGID_1_);}
	.st15{fill:url(#SVGID_2_);}
	.st16{fill:url(#SVGID_3_);}
	.st17{fill:url(#SVGID_4_);}
	.st18{fill:url(#SVGID_5_);}
	.st19{fill:url(#SVGID_6_);}
	.st20{fill:url(#SVGID_7_);}
	.st21{fill:url(#SVGID_8_);}
	.st22{fill:url(#SVGID_9_);}
	.st23{fill:url(#SVGID_10_);}
	.st24{fill:url(#SVGID_11_);}
	.st25{fill:url(#SVGID_12_);}
	.st26{fill:url(#SVGID_13_);}
	.st27{fill:url(#SVGID_14_);}
	.st28{fill:url(#SVGID_15_);}
	.st29{fill:url(#SVGID_16_);}
	.st30{fill:url(#SVGID_17_);}
	.st31{fill:url(#SVGID_18_);}
	.st32{fill:url(#SVGID_19_);}
	.st33{fill:url(#SVGID_20_);}
	.st34{fill:url(#SVGID_21_);}
	.st35{fill:url(#SVGID_22_);}
	.st36{fill:url(#SVGID_23_);}
	.st37{fill:url(#SVGID_24_);}
	.st38{fill:url(#SVGID_25_);}
	.st39{fill:url(#SVGID_26_);}
	.st40{fill:url(#SVGID_27_);}
	.st41{fill:url(#SVGID_28_);}
	.st42{fill:url(#SVGID_29_);}
	.st43{fill:url(#SVGID_30_);}
	.st44{fill:url(#SVGID_31_);}
	.st45{fill:url(#SVGID_32_);}
	.st46{fill:url(#SVGID_33_);}
	.st47{fill:url(#SVGID_34_);}
	.st48{fill:url(#SVGID_35_);}
	.st49{fill:url(#SVGID_36_);}
	.st50{fill:url(#SVGID_37_);}
	.st51{fill:url(#SVGID_38_);}
	.st52{fill:url(#SVGID_39_);}
	.st53{fill:url(#SVGID_40_);}
	.st54{fill:url(#SVGID_41_);}
	.st55{fill:url(#SVGID_42_);}
	.st56{fill:url(#SVGID_43_);}
	.st57{fill:url(#SVGID_44_);}
	.st58{fill:url(#SVGID_45_);}
	.st59{fill:#040404;}
	.st60{fill:url(#SVGID_46_);}
	.st61{fill:url(#SVGID_47_);}
	.st62{fill:url(#SVGID_48_);}
	.st63{fill:url(#SVGID_49_);}
	.st64{fill:url(#SVGID_50_);}
	.st65{fill:url(#SVGID_51_);}
	.st66{fill:url(#SVGID_52_);}
	.st67{fill:url(#SVGID_53_);}
	.st68{fill:url(#SVGID_54_);}
	.st69{fill:url(#SVGID_55_);}
	.st70{fill:url(#SVGID_56_);}
	.st71{fill:url(#SVGID_57_);}
	.st72{fill:url(#SVGID_58_);}
	.st73{fill:url(#SVGID_59_);}
	.st74{fill:url(#SVGID_60_);}
	.st75{fill:url(#SVGID_61_);}
	.st76{fill:url(#SVGID_62_);}
	.st77{fill:none;stroke:#000000;stroke-width:3;stroke-miterlimit:10;}
	.st78{fill:none;stroke:#FFFFFF;stroke-miterlimit:10;}
	.st79{fill:#4BC9FF;}
	.st80{fill:#5500DD;}
	.st81{fill:#FF3A00;}
	.st82{fill:#E6162D;}
	.st83{fill:#F1F1F1;}
	.st84{fill:#FF9933;}
	.st85{fill:#B92B27;}
	.st86{fill:#00ACED;}
	.st87{fill:#BD2125;}
	.st88{fill:#1877F2;}
	.st89{fill:#6665D2;}
	.st90{fill:#CE3056;}
	.st91{fill:#5BB381;}
	.st92{fill:#61C3EC;}
	.st93{fill:#E4B34B;}
	.st94{fill:#181EF2;}
	.st95{fill:#FF0000;}
	.st96{fill:#FE466C;}
	.st97{fill:#FA4778;}
	.st98{fill:#FF7700;}
	.st99{fill-rule:evenodd;clip-rule:evenodd;fill:#1F6BF6;}
	.st100{fill:#520094;}
	.st101{fill:#4477E8;}
	.st102{fill:#3D1D1C;}
	.st103{fill:#FFE812;}
	.st104{fill:#344356;}
	.st105{fill:#00CC76;}
	.st106{fill-rule:evenodd;clip-rule:evenodd;fill:#345E90;}
	.st107{fill:#1F65D8;}
	.st108{fill:#EB3587;}
	.st109{fill-rule:evenodd;clip-rule:evenodd;fill:#603A88;}
	.st110{fill:#E3CE99;}
	.st111{fill:#783AF9;}
	.st112{fill:#FF515E;}
	.st113{fill:#FF4906;}
	.st114{fill:#503227;}
	.st115{fill:#4C7BD9;}
	.st116{fill:#69C9D0;}
	.st117{fill:#1B92D1;}
	.st118{fill:#EB4F4A;}
	.st119{fill:#513728;}
	.st120{fill:#FF6600;}
	.st121{fill-rule:evenodd;clip-rule:evenodd;fill:#B61438;}
	.st122{fill:#FFFC00;}
	.st123{fill:#141414;}
	.st124{fill:#94D137;}
	.st125{fill-rule:evenodd;clip-rule:evenodd;fill:#F1F1F1;}
	.st126{fill-rule:evenodd;clip-rule:evenodd;fill:#66E066;}
	.st127{fill:#2D8CFF;}
	.st128{fill:#F1A300;}
	.st129{fill:#4BA2F2;}
	.st130{fill:#1A5099;}
	.st131{fill:#EE6060;}
	.st132{fill-rule:evenodd;clip-rule:evenodd;fill:#F48120;}
	.st133{fill:#222222;}
	.st134{fill:url(#SVGID_63_);}
	.st135{fill:#0077B5;}
	.st136{fill:#FFCC00;}
	.st137{fill:#EB3352;}
	.st138{fill:#F9D265;}
	.st139{fill:#F5B955;}
	.st140{fill:#DD2A7B;}
	.st141{fill:#66E066;}
	.st142{fill:#EB4E00;}
	.st143{fill:#FFC794;}
	.st144{fill:#B5332A;}
	.st145{fill:#4E85EB;}
	.st146{fill:#58A45C;}
	.st147{fill:#F2BC42;}
	.st148{fill:#D85040;}
	.st149{fill:#464EB8;}
	.st150{fill:#7B83EB;}
</style><g id="Layer_1"/><g id="Layer_2"><g><g><path class="st149" d="M84.025,35.881c5.797,0,10.513-4.729,10.513-10.54c-0.577-13.983-20.45-13.979-21.026,0     C73.512,31.152,78.229,35.881,84.025,35.881z"/><path class="st149" d="M90.958,38.71H72.193h-0.036c-0.005,0-0.003,0-0.009,0c-1.123,0-15.805,0-20.538,0v-3.68     c0.784,0.139,1.605,0.232,2.467,0.268c0.093,0.001,0.186-0.006,0.279-0.007c0.358-0.006,0.713-0.023,1.063-0.053     c0.12-0.011,0.239-0.021,0.357-0.035c0.403-0.045,0.801-0.104,1.193-0.181c0.024-0.005,0.05-0.008,0.074-0.012     c1.858-0.379,3.61-1.12,5.167-2.17c1.44-0.971,2.687-2.203,3.693-3.615c0.26-0.341,0.497-0.697,0.718-1.061     c0.021-0.036,0.044-0.07,0.065-0.107c0.17-0.287,0.32-0.584,0.466-0.884c0.064-0.13,0.13-0.26,0.19-0.392     c0.154-0.345,0.296-0.696,0.421-1.053c0.011-0.03,0.022-0.059,0.032-0.088c1.427-4.208,0.774-9.156-1.676-12.856     c-0.648-0.949-1.417-1.806-2.268-2.574c-0.176-0.153-0.344-0.314-0.529-0.457c-0.714-0.588-1.485-1.109-2.304-1.552     c-0.41-0.222-0.831-0.425-1.263-0.607c-0.434-0.192-0.887-0.35-1.347-0.493c-0.264-0.081-0.538-0.141-0.808-0.207     c-0.239-0.058-0.475-0.121-0.717-0.166c-0.2-0.038-0.405-0.062-0.607-0.092c-0.352-0.05-0.704-0.096-1.06-0.121     c-0.122-0.009-0.245-0.012-0.368-0.018C54.486,6.479,54.123,6.48,53.76,6.49c-2.08,0.121-3.926,0.558-5.543,1.24     c-0.33,0.149-0.664,0.294-0.975,0.47C44,9.966,41.52,12.972,40.375,16.493c-0.794,2.629-0.862,5.468-0.187,8.129     c0.007,0.025,0.013,0.051,0.02,0.076c0.032,0.115,0.065,0.23,0.097,0.345c0.039,0.137,0.085,0.273,0.128,0.409     c0.039,0.11,0.08,0.219,0.121,0.329H8.774c-2.846,0-5.162,2.316-5.162,5.162v37.672c0,2.847,2.316,5.162,5.162,5.162h20.122     c0.026,0.118,0.059,0.232,0.087,0.349C31.753,85.025,41.446,92.733,52.9,93.011c9.503-0.231,17.666-5.721,21.753-13.592     c0.061,0.022,0.124,0.038,0.185,0.059c10.182,3.851,21.752-4.229,21.546-15.131V44.122C96.385,41.138,93.95,38.71,90.958,38.71z"/><g><g><path class="st150" d="M77.444,44.232c0.069-2.971-2.287-5.448-5.251-5.521c-0.012,0-21.432,0-21.432,0       c-0.789,0-1.429,0.641-1.429,1.433v29.095c0,1.342-1.089,2.433-2.428,2.433H30.199c-0.429,0-0.836,0.194-1.107,0.527       c-0.271,0.334-0.379,0.772-0.292,1.194c2.367,11.561,12.248,19.837,24.1,20.126c13.856-0.34,24.866-11.914,24.544-25.767       L77.444,44.232z"/></g><path class="st150" d="M54.077,35.298c0.093,0.001,0.186-0.006,0.279-0.007c0.358-0.005,0.713-0.023,1.064-0.053      c0.12-0.011,0.239-0.021,0.357-0.035c0.402-0.045,0.801-0.104,1.193-0.181c0.024-0.005,0.05-0.008,0.074-0.013      c1.858-0.379,3.61-1.12,5.167-2.17c1.441-0.971,2.687-2.203,3.694-3.615c0.26-0.341,0.497-0.697,0.718-1.061      c0.021-0.036,0.044-0.07,0.065-0.107c0.17-0.287,0.32-0.585,0.466-0.884c0.064-0.13,0.13-0.259,0.19-0.392      c0.154-0.345,0.297-0.696,0.421-1.053c0.011-0.03,0.022-0.059,0.032-0.088c1.427-4.208,0.774-9.157-1.676-12.856      c-0.648-0.949-1.417-1.806-2.268-2.574c-0.176-0.153-0.344-0.314-0.529-0.457c-0.714-0.588-1.485-1.109-2.304-1.552      c-0.41-0.222-0.831-0.425-1.263-0.607c-0.434-0.192-0.887-0.35-1.347-0.493c-0.264-0.081-0.538-0.14-0.808-0.207      c-0.239-0.058-0.475-0.121-0.717-0.166c-0.2-0.038-0.404-0.062-0.607-0.092c-0.352-0.05-0.704-0.096-1.06-0.121      c-0.122-0.009-0.245-0.012-0.367-0.018c-0.362-0.016-0.725-0.015-1.088-0.005c-2.08,0.121-3.926,0.557-5.543,1.24      c-0.33,0.149-0.664,0.294-0.975,0.47c-3.242,1.767-5.723,4.773-6.867,8.294c-0.794,2.629-0.862,5.468-0.187,8.129      c0.007,0.025,0.013,0.051,0.02,0.076c0.032,0.115,0.065,0.23,0.097,0.345c0.039,0.137,0.085,0.273,0.128,0.409      c0.06,0.171,0.123,0.34,0.187,0.51h-0.027C42.371,30.941,46.864,34.993,54.077,35.298z"/></g><g><path class="st149" d="M46.448,25.783H8.774c-2.846,0-5.162,2.316-5.162,5.162v37.672c0,2.847,2.316,5.162,5.162,5.162h37.674      c2.846,0,5.161-2.316,5.161-5.162V30.945C51.61,28.099,49.295,25.783,46.448,25.783z"/><path class="st0" d="M37.109,36.271h-19.28c-0.771,0-1.395,0.625-1.395,1.396l0,3.514c0,0.771,0.624,1.396,1.395,1.396h6.22      l0,19.575c0,0.771,0.624,1.396,1.395,1.396h4.134c0.771,0,1.395-0.625,1.395-1.396l0-19.575h6.136      c0.771,0,1.395-0.625,1.395-1.396l0-3.514C38.504,36.896,37.88,36.271,37.109,36.271z"/></g></g></g></g></svg>