<svg height="1em" style="flex:none;line-height:1" viewBox="0 0 24 24" width="1em" xmlns="http://www.w3.org/2000/svg"><title>Tavily</title><path d="M9.1.503l2.824 4.47a1.078 1.078 0 01-.911 1.655H9.858v6.692h-1.67V0c.35 0 .7.168.912.503z" fill="#8FBCFA"></path><path d="M4.453 4.974L7.277.503A1.07 1.07 0 018.189 0v13.32a2.633 2.633 0 00-1.67.48V6.628H5.364c-.85 0-1.366-.936-.912-1.654z" fill="#468BFF"></path><path d="M17.041 17.74h-7.028c.423-.457.67-1.049.7-1.67h12.956c0 .35-.168.7-.502.912l-4.472 2.823a1.078 1.078 0 01-1.654-.911v-1.155z" fill="#FDBB11"></path><path d="M18.695 12.334l4.47 2.824c.336.212.503.562.503.912H10.713a2.65 2.65 0 00-.493-1.67h6.822v-1.154c0-.85.935-1.366 1.653-.912z" fill="#F6D785"></path><path d="M4.394 19.605L.316 23.683a1.07 1.07 0 001 .29l5.158-1.165A1.078 1.078 0 007 20.994l-.816-.816 3.073-3.074a1.61 1.61 0 000-2.276l-.042-.043-4.82 4.82z" fill="#FF9A9D"></path><path d="M3.822 17.817l3.073-3.074a1.61 1.61 0 012.277 0l.042.043-4.818 4.819-4.08 4.079a1.07 1.07 0 01-.289-1l1.165-5.158A1.078 1.078 0 013.006 17l.816.817z" fill="#FE363B"></path></svg>