<svg xmlns="http://www.w3.org/2000/svg" viewBox="0 0 64 64" id="tiktok">
  <path fill="#070201" fill-rule="evenodd" d="m60,12c0-4.42-3.58-8-8-8H12C7.58,4,4,7.58,4,12v40c0,4.42,3.58,8,8,8h40c4.42,0,8-3.58,8-8V12h0Z"></path>
  <path fill="#fe2c55" fill-rule="evenodd" d="m47.64,27.65c0,.3-.13.58-.37.77-.23.19-.53.22-.83.21-1.86-.05-4.77-.69-6.14-2v12.54c0,5.78-4.68,10.46-10.46,10.46h-1.08c-2.42,0-4.72-.88-6.58-2.39,1.43.71,3,1.13,4.63,1.13h1.08c5.78,0,10.46-4.68,10.46-10.46v-12.54c1.37,1.3,4.28,1.95,6.14,2,.3,0,.6-.02.83-.21.23-.19.37-.47.37-.77,0-1.42,0-3.78,0-5.02.38.11.77.2,1.16.29.46.1.79.5.79.97,0,1.24,0,3.61,0,5.02Zm-19.58,4.43c-.19.19-.44.29-.71.29-2.76,0-5,2.24-5,5,0,2.17,1.39,4,3.33,4.69-.85-.9-1.38-2.1-1.38-3.43,0-2.76,2.24-5,5-5,.27,0,.52-.1.71-.29.19-.19.29-.44.29-.71v-3c0-.26-.11-.52-.29-.71s-.44-.29-.71-.29h-.54c-.14,0-.27.04-.41.04v2.7c0,.27-.11.52-.29.71Zm13.67-12.69c-.83-.75-1.53-1.74-2.03-3.09-.15-.39-.52-.67-.94-.67h-.74c.87,1.91,2.16,3.03,3.71,3.75Z"></path>
  <path fill="#25f4ee" fill-rule="evenodd" d="m21.37,46.57c.25.25.55.45.82.67-1.01-.5-1.96-1.12-2.77-1.93-1.96-1.96-3.06-4.62-3.06-7.4v-.08c0-5.78,4.68-10.46,10.46-10.46h.54c.27,0,.52.11.71.29.19.19.29.44.29.71v.3c-5.58.22-10.05,4.78-10.05,10.42v.08c0,2.77,1.1,5.43,3.06,7.4Zm24.31-25.2h0c0-.47-.33-.88-.79-.97-1.12-.25-2.19-.55-3.17-1.01,1.11,1,2.47,1.57,3.95,1.98Zm-16.38,22.27c1.33,0,2.6-.53,3.54-1.46s1.46-2.21,1.46-3.54v-22c0-.55.45-1,1-1h2.72c-.09-.2-.19-.38-.27-.6-.15-.39-.52-.67-.94-.67h-3.46c-.55,0-1,.45-1,1v22c0,1.33-.53,2.6-1.46,3.54s-2.21,1.46-3.54,1.46c-.59,0-1.15-.12-1.67-.31.91.96,2.19,1.57,3.62,1.57Z"></path>
  <path fill="#fff" fill-rule="evenodd" d="m27.9,48.37c5.78,0,10.46-4.68,10.46-10.46v-12.54c1.37,1.3,4.28,1.95,6.14,2,.3,0,.6-.02.83-.21.23-.19.37-.47.37-.77,0-1.42,0-3.78,0-5.02-1.48-.41-2.84-.98-3.95-1.98-1.54-.72-2.84-1.85-3.71-3.75h-2.72c-.55,0-1,.45-1,1v22c0,1.33-.53,2.6-1.46,3.54s-2.21,1.46-3.54,1.46c-1.43,0-2.71-.61-3.62-1.57-1.93-.69-3.33-2.52-3.33-4.69,0-2.76,2.24-5,5-5,.27,0,.52-.1.71-.29.19-.19.29-.44.29-.71v-2.7c-5.58.22-10.05,4.78-10.05,10.42v.08c0,2.77,1.1,5.43,3.06,7.4.25.25.55.45.82.67,1.43.71,3,1.13,4.63,1.13h1.08Z"></path>
</svg>
