<svg xmlns="http://www.w3.org/2000/svg" viewBox="0 0 48 48" width="48" height="48">
  <path fill="#212121" fill-rule="evenodd" d="M10.904,6h26.191C39.804,6,42,8.196,42,10.909v26.191C42,39.804,39.804,42,37.096,42H10.904C8.196,42,6,39.804,6,37.091V10.909C6,8.196,8.196,6,10.904,6z" clip-rule="evenodd"/>
  <path fill="#ec407a" fill-rule="evenodd" d="M29.208,20.607c1.576,1.126,3.507,1.788,5.592,1.788v-4.011c-0.395,0-0.788-0.041-1.174-0.123v3.157c-2.085,0-4.015-0.663-5.592-1.788v8.184c0,4.094-3.321,7.413-7.417,7.413c-1.528,0-2.949-0.462-4.129-1.254c1.347,1.376,3.225,2.23,5.303,2.23c4.096,0,7.417-3.319,7.417-7.413L29.208,20.607L29.208,20.607z M30.657,16.561c-0.805-0.879-1.334-2.016-1.449-3.273v-0.516h-1.113C28.375,14.369,29.331,15.734,30.657,16.561L30.657,16.561z M19.079,30.832c-0.45-0.59-0.693-1.311-0.692-2.053c0-1.873,1.519-3.391,3.393-3.391c0.349,0,0.696,0.053,1.029,0.159v-4.1c-0.389-0.053-0.781-0.076-1.174-0.068v3.191c-0.333-0.106-0.68-0.16-1.03-0.159c-1.874,0-3.392,1.518-3.392,3.392C17.213,29.156,17.972,30.31,19.079,30.832z" clip-rule="evenodd"/>
  <path fill="#fff" fill-rule="evenodd" d="M28.034,19.63c1.576,1.126,3.507,1.788,5.592,1.788v-3.157c-1.164-0.248-2.194-0.856-2.969-1.701c-1.326-0.827-2.282-2.191-2.561-3.789h-2.923v16.018c-0.007,1.867-1.523,3.379-3.393,3.379c-1.102,0-2.081-0.525-2.701-1.338c-1.107-0.522-1.866-1.678-1.866-3.011c0-1.874,1.518-3.392,3.392-3.392c0.359,0,0.705,0.056,1.03,0.159v-3.191c-4.024,0.083-7.26,3.369-7.26,7.411c0,2.018,0.806,3.847,2.114,5.183c1.18,0.792,2.601,1.254,4.129,1.254c4.096,0,7.417-3.319,7.417-7.413L28.034,19.63z" clip-rule="evenodd"/>
  <path fill="#81ecec" fill-rule="evenodd" d="M33.626,18.261v-0.854c-1.05,0.002-2.078-0.292-2.969-0.848C31.445,17.423,32.483,18.018,33.626,18.261z M28.095,12.771c-0.027-0.153-0.047-0.306-0.061-0.461v-0.516h-4.036v16.019c-0.006,1.867-1.522,3.379-3.393,3.379c-0.549,0-1.068-0.13-1.527-0.362c0.62,0.813,1.599,1.338,2.701,1.338c1.87,0,3.386-1.512,3.393-3.379V12.771H28.095z M21.35,21.657v-0.909c-0.337-0.046-0.677-0.069-1.017-0.069c-4.097,0-7.418,3.319-7.418,7.413c0,2.567,1.305,4.829,3.289,6.159c-1.308-1.336-2.114-3.165-2.114-5.183C14.09,25.026,17.326,21.74,21.35,21.657z"/>
</svg>
