<svg id="Layer_1" data-name="Layer 1" xmlns="http://www.w3.org/2000/svg" viewBox="0 0 141.73 27.81"><defs><style>.cls-1{fill:#bfd732;}</style></defs><path id="Trazado_157" data-name="Trazado 157" d="M11.32,25.26C4.32,25.26,0,19.38,0,13,0,6.27,3.86.89,11.24.89c5.44,0,9.62,3.25,10,7.8H16.41c-.24-2.13-2.53-3.86-5.14-3.86-3.81,0-6.37,3-6.37,8.39,0,3.76,1.89,8,6.32,8,4.13,0,5.56-2,5.56-5.22H11.72V12.21h9.51V16C21.25,21.48,18.94,25.26,11.32,25.26Z"/><path id="Trazado_158" data-name="Trazado 158" d="M24,24.49V1.39h4.48v23.1Z"/><path id="Trazado_159" data-name="Trazado 159" d="M30.58,14.71a8.68,8.68,0,0,1,7.49-7.53c6-.54,9.75,3.06,9.75,8.84,0,5.36-3.33,8.9-8.61,8.9C33.3,24.94,30,20.68,30.58,14.71Zm12.73,1.34c0-3.44-1.38-5.12-4.1-5.12s-4.1,1.68-4.1,5.12,1.39,5.16,4.1,5.16S43.31,19.49,43.31,16.05Z"/><path id="Trazado_160" data-name="Trazado 160" d="M50,24.49V1.39h4.39v8.4a5.86,5.86,0,0,1,5-2.64c4.37,0,6.95,3.62,6.93,8.74,0,5.7-3.07,9.08-7.33,9.08a5.15,5.15,0,0,1-4.71-2.5l0,2.05H50Zm11.83-8.31c0-3.46-1.23-5.22-3.84-5.22s-3.75,1.81-3.75,5.52c0,2.85,1.65,4.85,3.78,4.85s3.81-2.14,3.81-5.15Z"/><path id="Trazado_161" data-name="Trazado 161" d="M79.54,24.52A7.22,7.22,0,0,1,79.28,23a6.8,6.8,0,0,1-5.12,2c-3.86,0-5.64-1.89-5.64-4.64,0-4.87,3.27-5.43,7.77-6,2.24-.32,2.86-.75,2.86-1.92s-1.1-1.76-2.86-1.76c-2,0-2.85,1-3.06,2.51H69.05c.08-3.52,2-5.94,7.43-5.94s7.22,2.39,7.22,6.66V24.52Zm-.29-8.29c-.45.46-1.22.7-2.88,1-2.53.48-3.35,1.2-3.35,2.64,0,1.27.74,1.89,2.15,1.89a3.89,3.89,0,0,0,4-3.68Z"/><path id="Trazado_162" data-name="Trazado 162" d="M97.61,24.52V14.26c0-2.61-.75-3.33-2.88-3.33-2.35,0-3.47,1.31-3.47,3.89v9.7H86.79V7.6h4.26v2.48a5.66,5.66,0,0,1,5.46-2.93,5.23,5.23,0,0,1,5.6,4.84,5.47,5.47,0,0,1,0,.81V24.52Z"/><path id="Trazado_163" data-name="Trazado 163" d="M115,18.18c-.11,1.86-.93,2.9-2.61,2.9s-2.59-1.25-2.59-3.38V10.77h6.93V7.18h-6.9V3.05h-4.42V18.18c0,3.65,2,6.82,6.9,6.82,4.77,0,6.84-3.2,6.84-6.77v0Z"/><path id="Trazado_164" data-name="Trazado 164" class="cls-1" d="M124.48.14a1.06,1.06,0,0,0-1.43.37,1.06,1.06,0,0,0-.11.8l2,3a17.27,17.27,0,0,1,0,19.21l-2,3a1,1,0,0,0,.67,1.27h0a.91.91,0,0,0,.8-.11L141.21,15a1.29,1.29,0,0,0,.27-1.8,1.62,1.62,0,0,0-.27-.28Z"/></svg>