<?xml version="1.0" encoding="utf-8"?>
<!-- Generator: Adobe Illustrator 24.2.1, SVG Export Plug-In . SVG Version: 6.00 Build 0)  -->
<svg version="1.1" id="Layer_1" xmlns="http://www.w3.org/2000/svg" xmlns:xlink="http://www.w3.org/1999/xlink" x="0px" y="0px"
	 viewBox="0 0 208.9 58.9" style="enable-background:new 0 0 208.9 58.9;" xml:space="preserve">
<style type="text/css">
	.st0{opacity:0.75;fill:#13487D;}
	.st1{opacity:0.75;fill:#1C75BC;}
	.st2{opacity:0.75;fill:#6DCFF6;}
</style>
<g>
	<g>
		<polygon class="st0" points="24.4,14.3 36.5,34 48.7,53.7 24.4,53.7 0,53.7 12.2,34 		"/>
		<polygon class="st1" points="42.9,0 55.1,26.9 67.3,53.7 42.9,53.7 18.5,53.7 30.7,26.9 		"/>
		<polygon class="st2" points="33.6,7.7 45.8,30.7 58,53.7 33.6,53.7 9.3,53.7 21.5,30.7 		"/>
	</g>
	<g>
		<rect x="73.1" y="7.7" width="1.4" height="17.1"/>
		<path d="M88,16.8c2.6-0.4,4.1-2,4.1-4.5c0-2.8-2-4.6-5.3-4.6h-7.6v17.1h1.4v-7.9h5.7l5.5,7.8l0,0.1h1.7L88,16.8z M80.6,9h6.1
			c2.5,0,3.9,1.2,3.9,3.3c0,2.1-1.4,3.3-3.9,3.3h-6.1V9z"/>
		<path d="M103.9,7.4c-4.9,0-8.5,3.8-8.5,8.8c0,5,3.7,8.8,8.5,8.8c4.8,0,8.5-3.8,8.5-8.8C112.4,11.2,108.8,7.4,103.9,7.4z
			 M103.9,23.7c-4,0-7.1-3.2-7.1-7.5c0-4.2,3-7.4,7.1-7.4c4,0,7,3.2,7,7.4C111,20.5,108,23.7,103.9,23.7z"/>
		<polygon points="128.7,22.2 117.5,7.7 117.5,7.7 116.3,7.7 116.3,24.8 117.7,24.8 117.7,10.2 128.9,24.7 128.9,24.8 130.1,24.8 
			130.1,7.7 128.7,7.7 		"/>
		<polygon points="80.7,45 74.3,36.6 74.3,36.6 72.9,36.6 72.9,53.6 74.3,53.6 74.3,38.9 80.2,46.6 80.3,46.6 81.1,46.6 87,38.9 
			87,53.6 88.5,53.6 88.5,36.6 87.1,36.6 		"/>
		<path d="M100.8,36.3c-4.9,0-8.5,3.8-8.5,8.8c0,5,3.7,8.8,8.5,8.8c4.8,0,8.5-3.8,8.5-8.8C109.3,40.1,105.7,36.3,100.8,36.3z
			 M100.8,52.6c-4,0-7.1-3.2-7.1-7.5c0-4.2,3-7.4,7.1-7.4c4,0,7,3.2,7,7.4C107.8,49.4,104.8,52.6,100.8,52.6z"/>
		<path d="M125.2,46.3c0,3.9-2,6.2-5.4,6.2c-3.4,0-5.4-2.3-5.4-6.2v-9.8h-1.4v9.8c0,4.7,2.6,7.6,6.9,7.6c4.2,0,6.9-2.9,6.9-7.6v-9.8
			h-1.4V46.3z"/>
		<polygon points="143.3,51.1 132.1,36.6 132.1,36.6 130.9,36.6 130.9,53.6 132.3,53.6 132.3,39.1 143.5,53.6 143.5,53.6 
			144.7,53.6 144.7,36.6 143.3,36.6 		"/>
		<polygon points="161.1,36.6 147.6,36.6 147.6,37.9 153.7,37.9 153.7,53.6 155.1,53.6 155.1,37.9 161.1,37.9 		"/>
		<path d="M168.8,36.5h-1.3l-7.7,17l-0.1,0.2h1.5l2.2-4.9h9.3l2.2,4.9h1.5L168.8,36.5L168.8,36.5z M172.2,47.4h-8.2l4.1-9
			L172.2,47.4z"/>
		<rect x="179.4" y="36.6" width="1.4" height="17.1"/>
		<polygon points="197.9,51.1 186.8,36.6 186.8,36.6 185.5,36.6 185.5,53.6 187,53.6 187,39.1 198.1,53.6 198.2,53.6 199.4,53.6 
			199.4,36.6 197.9,36.6 		"/>
		<path d="M205.2,35.5c-1.7,0-3.2,1.4-3.2,3.2s1.4,3.2,3.2,3.2c1.8,0,3.2-1.4,3.2-3.2C208.4,37,207,35.5,205.2,35.5z M205.2,41.4
			c-1.5,0-2.7-1.2-2.7-2.7c0-1.5,1.2-2.7,2.7-2.7c1.5,0,2.7,1.2,2.7,2.7C207.9,40.2,206.7,41.4,205.2,41.4z"/>
		<path d="M206.6,38c0-0.6-0.4-1-1.1-1H204v3.4h0.6V39h0.8l1,1.4h0.7l-1.1-1.5C206.4,38.7,206.6,38.4,206.6,38z M204.6,37.5h0.9
			c0.2,0,0.5,0.1,0.5,0.4c0,0.3-0.2,0.4-0.5,0.4h-0.9V37.5z"/>
	</g>
</g>
</svg>
