<svg xmlns="http://www.w3.org/2000/svg" id="_레이어_1" version="1.1" viewBox="0 0 1907.3154585 291.1227888"><defs><style>.st2{fill-rule:evenodd;fill:#051766}</style><mask id="mask" width="275.8378804" height="291.1227888" x="0" y="0" maskUnits="userSpaceOnUse"><g id="mask0_407_41521"><path id="Clip_23" d="M.001 0h275.837v291.122H0z" style="fill:#fff;fill-rule:evenodd"/></g></mask></defs><g id="Logo"><g id="logo"><g id="Group_24" style="mask:url(#mask)"><path id="Fill_22" d="m19.215 217.032-1.165.801c23.727 43.74 68.633 73.29 119.869 73.29 76.201 0 137.919-65.212 137.919-145.56 0-22.128-9.17-40.759-20.014-54.878-14.41-18.778-34.934-27.802-55.386-27.948-16.885-.145-34.351 5.532-46.653 16.666-14.047 12.737-17.176 29.114-20.815 55.678-4.002 29.112-27.438 49.2-57.568 49.2-39.011 0-63.174-24.017-61.573-60.772.146-2.548.364-5.094.8-7.568 7.351-43.377 54.004-88.137 124.164-87.993 47.089 0 82.46 10.553 117.832 46.143l1.165-.8C234.063 29.552 189.23 0 137.92 0 61.79 0 0 65.211 0 145.563c0 22.124 9.17 40.756 20.016 54.874 14.337 18.778 34.935 27.73 55.386 27.95 16.885.217 34.352-5.534 46.651-16.668 14.048-12.737 17.177-29.112 20.816-55.677 4.003-29.113 27.51-49.2 57.569-49.2 39.082 0 63.246 24.017 61.644 60.771-.144 2.548-.364 5.096-.798 7.571-7.498 43.376-53.93 88.137-124.237 87.99-47.09 0-82.46-10.552-117.832-46.142" class="st2"/></g><path id="Fill_25" d="M535.32 217.34q6.47 6.823 11.79 10.75h-22.424q-11.79 0-20.575-4.161c-5.858-2.775-11.557-7.55-17.107-14.333l-55.711-69.582 71.895-76.98h36.987l-72.127 75.593 50.166 59.18q10.633 12.718 17.106 19.533m-141.71 10.75h32.827V63.034H393.61z" class="st2"/><path id="Fill_27" d="M662.236 198.038q12.251-6.933 19.187-20.344 6.937-13.407 6.936-32.132c-.001-18.725-2.311-23.194-6.936-32.133q-6.936-13.407-19.187-20.343-12.255-6.935-27.972-6.935-15.952 0-28.204 6.935c-8.17 4.622-14.564 11.406-19.186 20.343q-6.937 13.409-6.936 32.133c0 18.724 2.31 23.195 6.936 32.132q6.932 13.409 19.186 20.344 12.253 6.933 28.204 6.934 15.716 0 27.972-6.934m-73.052 22.076q-20.11-10.747-31.555-30.168-11.441-19.418-11.442-44.384c-.001-24.966 3.815-31.44 11.442-44.385q11.446-19.42 31.555-30.17 20.114-10.747 45.08-10.748 24.733.001 44.847 10.748 20.112 10.752 31.556 30.285 11.443 19.536 11.443 44.27 0 24.738-11.443 44.268-11.445 19.538-31.556 30.284-20.114 10.75-44.847 10.75-24.966 0-45.08-10.75" class="st2"/><path id="Fill_29" d="M904.504 228.09h-20.806q-12.717 0-21.497-4.392-8.789-4.39-16.183-14.102l-49.933-67.04h15.026c12.327 0 21.65-2.347 27.972-7.05q9.477-7.047 9.478-20.69 0-13.404-9.364-19.882-9.362-6.47-28.78-6.472h-20.573V228.09h-32.828V63.033h60.104q19.647 0 34.33 6.012 14.678 6.012 22.54 17.222c5.236 7.476 7.859 16.22 7.859 26.237 0 11.098-3.201 20.771-9.593 29.012q-9.596 12.369-26.931 18.379l30.282 37.912q15.487 19.42 28.897 30.284" class="st2"/><path id="Fill_31" d="M1033.496 202.198v25.893H924.847V63.033h106.339v25.89H957.67v41.15h61.731v25.429h-61.73v46.696z" class="st2"/><path id="Fill_33" d="m1161.098 169.604-26.348-60.798-26.358 60.798zm63.807 58.485h-19.644c-6.48 0-11.873-1.5-16.19-4.506-4.316-3.005-8.172-8.358-11.559-16.067l-5.55-12.945h-74.435l-14.564 33.518h-30.978l75.825-165.057h18.03l58.95 128.07c8.33 18.03 15.035 30.364 20.115 36.987" class="st2"/><path id="Fill_35" d="M1394.125 63.033v165.058h-18.03L1275.303 119.44v108.65h-28.208V63.034h18.038l100.785 108.651V63.034z" class="st2"/><path id="Fill_37" d="m1591.543 169.604-26.358-60.798-26.348 60.798zm63.807 58.485h-19.654c-6.47 0-11.873-1.5-16.189-4.506-4.307-3.005-8.163-8.358-11.55-16.067l-5.55-12.945h-74.435l-14.564 33.518h-30.978l75.825-165.057h18.03l58.95 128.07c8.32 18.03 15.025 30.364 20.115 36.987" class="st2"/><path id="Fill_39" d="M1677.539 228.089h32.828V63.032h-32.828z" class="st2"/><path id="Fill_41" d="M1907.315 228.09h-20.798c-8.477 0-15.651-1.463-21.504-4.392q-8.794-4.39-16.18-14.102l-49.936-67.04h15.024c12.332 0 21.65-2.347 27.973-7.05q9.485-7.047 9.485-20.69 0-13.404-9.367-19.882c-6.245-4.312-15.837-6.472-28.786-6.472h-20.574V228.09h-32.818V63.033h60.096c13.106 0 24.548 2.004 34.336 6.012 9.788 4.009 17.295 9.748 22.541 17.222 5.237 7.476 7.86 16.22 7.86 26.237q0 16.649-9.602 29.012-9.588 12.369-26.926 18.379l30.283 37.912q15.489 19.42 28.893 30.284" class="st2"/></g></g></svg>