<svg height="173.963093" viewBox="0 0 20.227233 6.1598755" width="574.83457" xmlns="http://www.w3.org/2000/svg"><g transform="translate(-128.981268 -191.110089)"><path d="m134.93847 197.0975c-.0917-.0526-.94227-.4886-2.10114-.56021-.37853-1.17828.28433-2.14595.30938-2.18158.0296-.0441.031-.0698.013-.0829-.0226-.0166-.0494-.002-.0776.0243 0 0-1.04316.92004-.46002 2.22991-.0614-.002-.40569-.004-.54751.007.24377-.36971.20038-.87771-.0205-1.16241-.0219-.0279-.0395-.0303-.0586-.0205-.0201.0106-.0229.0378-.0106.0681 0 0 .21802.58032-.10195 1.12854-1.09643.0963-1.90958.52105-1.95051.54927-.009.007-.0162.0166-.0113.0293.004.01.0148.0138.0353.006.0251-.009 1.05657-.375 2.47897-.37571.89429 0 1.73955.13653 2.48532.37818.018.005.0268.004.0332-.007.004-.009-.001-.0222-.0155-.0307m-4.6736-2.39959c-.002-.0303-.0257-.0487-.073-.0519-.26353-.018-.67064.10724-.87313.59478 0 0 .37359-.375.88124-.48366.0406-.009.067-.0236.0649-.0593m-.74648-.94333s.0716.21449.24342.38453c.25259.25047.7239.47201 1.17545.41169.0367-.005.0589-.0229.0586-.0519-.00071-.0328-.0311-.0399-.066-.0409-.63712-.0127-1.41147-.70344-1.41147-.70344m5.11316.77399c-.0423-.0007-.0639.0141-.0691.0356-.009.0374.0183.0607.0497.0713.51047.17957.82127.58173.82127.58173-.14746-.50658-.53728-.67945-.80187-.68862m-.89252-.0917c-.0166.002-.0406.0113-.0423.03 0 .0198.0198.036.0695.0441.77223.0843 1.5307-.42474 1.38324-.96273-.16334.35596-.70661.8121-1.4104.88865m.62335-1.15358c-.0385.031-.0399.0603-.0257.0794.0187.0243.0508.025.079.0155.54681-.18732 1.00401-.0734 1.00401-.0734-.43639-.2974-.84737-.1831-1.05728-.0215m-.81668.38029s-.0631.0399-.0346.0882c.0145.0261.049.0363.0917.0201.37324-.18168.65229-.51858.76377-.94262.09-.34607.0451-.69673-.10301-.99942.0356.25189.0219.52-.049.78917-.1143.43815-.35842.8008-.66887 1.04457m-.84631-1.42381s-.0106.054.0272.0727c.0258.0131.0529.006.0762-.0402.1143-.23883.14147-.66499-.23953-1.02941 0 0 .21343.45297.13617.99695m-.0709 1.79881c.0448-.0109.0346-.0804.0346-.0804-.11183-1.10631.72814-1.76142 1.06892-1.9244-.63077-.0321-1.19309.51011-1.26788 1.2386-.0279.25576.0106.5013.0967.71649.0173.037.0392.0568.0677.0497m-.76764-1.6704c.0314-.004.0307-.0388.0296-.0621-.0374-.59866.34149-.90523.34149-.90523l-.0787.0233c-.36583.11148-.41028.56303-.34043.88582.008.0416.0257.061.048.0582m.0642 1.10702c.01.0339.0307.072.0699.0684.0363-.004.0462-.0254.0469-.0801-.0286-.95356-.82515-1.70075-1.36631-1.52259.63677.25964 1.07139.92428 1.24954 1.53423m-1.21673-.30904c.0314.0261.0614.037.0804.0215.0123-.01.0152-.0314-.007-.0645-.28469-.42933-.19544-.9645-.19544-.9645s-.40463.56974.12171 1.00753m1.24354 1.20968c.0243-.0176.0282-.0437.001-.0931-.54151-.8382-1.51447-1.06151-1.9759-1.06151-.29457 0-.46567.133-.46567.133 1.38677.0303 2.35585 1.00294 2.35585 1.00294.03.0279.0586.0363.0843.0187m-2.50331.32103c.15276-.0293.25259-.17674.22296-.3295-.0289-.1531-.17674-.25259-.32914-.22331-.15205.0293-.25259.17675-.22296.32985.0286.15275.17568.25224.32914.22296m5.9877-.63394c-.15452-.0173-.29422.0935-.31221.24835-.0169.15346.0938.29316.248.31115.15417.018.29387-.0931.31115-.24765.0183-.15452-.0924-.29351-.24694-.31185m-.65652-1.11055c.15205.0314.30127-.066.33302-.21837.0314-.15205-.0667-.30127-.21801-.33302-.15276-.0314-.30198.0667-.33338.21802-.0314.15275.066.30197.21837.33337m-1.51906-1.07456c.15487.008.28716-.11112.29527-.26635.008-.15557-.11077-.28716-.26634-.29562-.15487-.008-.28787.11077-.29669.26634-.007.15487.11218.28716.26776.29563m-1.7847-.002c.15345-.0257.25717-.17039.23177-.32385-.0247-.15275-.17004-.25717-.32279-.23248-.15346.0261-.25682.17039-.23213.32385.0247.15346.16969.25718.32315.23248m-1.53212 1.07033c.15381-.0243.25929-.16827.23425-.32103-.024-.15451-.16793-.25929-.32174-.2353-.15381.0243-.25752.16863-.23459.32173.024.15417.16862.25894.32208.2346" fill="#47bb3b"/><g fill="#215332"><path d="m142.02229 194.07482c-.0466-.0109-.0691-.0109-.0808-.0109-.16686 0-.28786.11501-.28786.3168v1.55469c0 .31644.19544.51858.52352.51858.29422 0 .42051-.10901.42051-.248 0-.0349-.007-.0751-.0293-.10901-.0681.0339-.17745.0628-.25894.0628-.18309 0-.28716-.0801-.28716-.31045v-1.01388c.0691-.0169.17216-.0293.26352-.0293.10972 0 .22578.0123.33479.0473.0162-.0349.0222-.0808.0222-.11536 0-.14499-.09-.21978-.32138-.21978-.11572 0-.22543.0243-.29916.0462z"/><path d="m140.88733 194.53614c-.0286 0-.0699.006-.133.0229v1.34832c-.097.14922-.27516.25259-.47166.25259-.17956 0-.28787-.11536-.28787-.3228v-1.03646c0-.15451-.0811-.26458-.23107-.26458-.0339 0-.0857 0-.13793.0229v1.35396c0 .40817.27657.5528.54716.5528.22436 0 .45578-.10971.58137-.26564v.0113c0 .127.0526.21908.22014.21908.0452 0 .1016-.012.14887-.0339v-1.59597c0-.15451-.0748-.26458-.23601-.26458"/><path d="m148.70795 195.9301c-.0688.15593-.22542.25859-.40887.25859-.21272 0-.32808-.10266-.32808-.26988 0-.19614.15063-.32914.50094-.32914.0751 0 .15699.006.23601.0173zm-.37394-1.4411c-.40217 0-.66781.14006-.66781.31715 0 .0582.0173.10971.0684.13899.14393-.0808.3175-.13229.49494-.13229.32315 0 .47837.13229.47837.4953v.0402c-.0688-.0113-.16722-.018-.25859-.018-.53657 0-.8703.21907-.8703.60501 0 .32279.23742.53023.58879.53023.23565 0 .43744-.11536.53446-.26494-.0109.13758.0794.23036.23071.23036.0402 0 .10372-.0123.14323-.0342v-1.15887c0-.52282-.26917-.74895-.74224-.74895"/><path d="m146.32935 195.03729c0-.17851.15522-.24765.375-.24765.21273 0 .35596.0512.48401.12629.0342-.0229.0628-.0751.0628-.12629 0-.16792-.1263-.30057-.56374-.30057-.45544 0-.74436.22613-.74436.57679 0 .42052.33478.5013.623.56445.20744.0455.39123.0921.39123.28257 0 .17851-.1725.24695-.40252.24695-.20284 0-.36406-.0339-.52458-.1263-.0406.0349-.0579.0924-.0579.13759 0 .17392.15593.29457.55315.29457.53482 0 .80681-.23072.80681-.58068 0-.42192-.33373-.50235-.61137-.57185-.20743-.0515-.39158-.0921-.39158-.27587"/><path d="m143.81341 194.48902c-.17286 0-.40852.14499-.48366.35807.0346-.23601-.0861-.31115-.20214-.31115-.0505 0-.10936.0166-.15557.0282v1.64747c0 .0928.0526.21943.22542.21943.0462 0 .097-.0123.14323-.0346v-1.23296c.0642-.20108.21943-.37359.48965-.37359.0452 0 .10478 0 .16687.0109.0282-.0395.0402-.0857.0402-.13194 0-.0917-.0568-.17992-.22401-.17992"/><path d="m137.79957 196.43077c.0229 0 .0702-.005.133-.0226v-1.34796c.0924-.13829.28292-.254.46637-.254.21907 0 .34572.12171.34572.36336v.99624c0 .15523.0811.26494.23037.26494.0342 0 .0857 0 .13828-.0226v-1.31374c0-.40817-.28257-.59232-.60466-.59232-.25929 0-.45543.13194-.57608.26459v-.012c0-.12594-.0522-.21837-.21943-.21837-.0455 0-.10266.0117-.14887.0342v1.59526c0 .15523.0751.26494.2353.26494"/><path d="m144.95937 194.79517c.22966 0 .32844.10971.32844.25859 0 .17321-.17392.27657-.5006.27657-.0921 0-.20778-.0109-.29527-.0339.0134-.32244.20779-.5013.46743-.5013m.70167.27093c0-.33443-.24694-.57714-.70167-.57714-.508 0-.86325.38664-.86325.99765 0 .62195.35525.97896.93098.97896.36336 0 .62301-.115.62301-.30021 0-.0452-.018-.097-.0522-.12559-.13159.0861-.29881.12559-.46567.12559-.34502 0-.62688-.20108-.65123-.59831.10972.0282.22578.0459.33938.0459.508 0 .84066-.20144.84066-.54681"/><path d="m138.37139 193.03617h-.26599v-.13547h.42509v.54011c-.01.0109-.0265.025-.0494.0416-.024.018-.0547.0353-.0914.0529-.0381.0162-.0811.0307-.13088.0437-.0504.0117-.1083.0173-.17215.0173-.0974 0-.18203-.0162-.25259-.0487-.0706-.0332-.13018-.0808-.17709-.14006-.0452-.0593-.0797-.13017-.10302-.21131-.0208-.0832-.0325-.17251-.0325-.27128 0-.0949.0116-.18274.0342-.26282.0226-.0811.0572-.15064.10513-.20779.0469-.0579.10689-.10372.17956-.13688.0716-.0324.15981-.049.25823-.049.0455 0 .091.005.13618.0159.0437.0102.084.0243.11676.0416.0356.0173.0635.036.0843.0568.0212.0208.0325.0416.0325.06 0 .0162-.006.0328-.0162.0519-.01.0187-.0208.036-.0342.0511h-.0307c-.0116-.013-.0268-.0286-.0448-.043-.0208-.0159-.043-.03-.0677-.0427-.0236-.0134-.0526-.0243-.0833-.0328-.0307-.008-.0653-.012-.10477-.012-.0769 0-.14111.0141-.19121.0438-.0504.0286-.0917.067-.12206.115-.031.0473-.0519.10231-.0649.16334-.0113.0603-.0176.12347-.0176.18768 0 .0681.006.13299.0205.19684.0134.0631.0363.1203.0684.16969.0321.0494.0744.0896.12735.11995.0529.0307.11819.0459.19827.0459.0367 0 .0695-.003.097-.01.031-.006.0572-.0145.079-.0222.0226-.009.0402-.0183.0557-.0275.0145-.0106.0268-.0183.0342-.0265z"/><path d="m138.78626 192.6689c.0212-.002.0332-.003.0332-.003.0314 0 .0575.008.0804.0222.0254.0141.0388.0395.043.0734.0183-.0268.0441-.0519.0811-.0751.0346-.0233.0762-.0356.12418-.0356.0134 0 .0282.001.0434.004.0155.003.0314.008.0448.0123.0148.006.0265.0141.0339.0243.0102.01.0145.0233.0145.0395 0 .0201-.005.0434-.0155.0667-.0102.0233-.0205.0423-.0307.0579-.0166-.0155-.0332-.0272-.0533-.0346-.019-.009-.042-.0131-.0723-.0131-.0212 0-.042.004-.0624.0109-.0194.006-.0367.0159-.0519.0286-.0148.0113-.0272.0247-.0363.0406-.008.0152-.0131.031-.0131.0473v.63289h-.16298z"/><path d="m139.44278 192.66218c.0166-.00071.0286-.001.0349-.001.037 0 .0688.009.0917.0286.0243.0194.0363.0526.0363.10125v.44415c0 .049.002.0893.01.11853.007.0282.0212.0508.0423.066.0187.0141.0402.0233.0628.0286.0226.005.0476.008.0762.008.0349 0 .0653-.005.0949-.0148.0282-.01.0536-.0205.0737-.0353.0198-.0141.036-.0286.0462-.0445.0127-.0155.0183-.0303.0183-.0427v-.65652c.0159-.00071.0272-.001.0342-.001.0392 0 .0692.009.0924.0286.0236.0194.0353.0526.0353.10125v.77752h-.16193v-.0847c-.0264.0303-.0614.0561-.10689.0787-.0462.0229-.10618.0342-.1778.0342-.073 0-.12982-.0113-.17109-.0342-.0413-.0226-.0713-.0519-.0914-.0879-.019-.0349-.0318-.0751-.0342-.11641-.003-.043-.006-.0843-.006-.12312z"/><path d="m140.63672 193.35303c.007.01.0166.0212.0289.0328.012.0123.0293.0233.0487.0332.018.0109.0388.019.0624.0272.0236.008.0473.0113.0741.0113.0797 0 .13934-.0296.1785-.0871.0416-.0589.0593-.14323.0593-.25224 0-.0455-.003-.0889-.0109-.12982-.008-.0409-.0219-.0755-.0409-.10513-.0176-.0286-.042-.0519-.073-.0688-.0307-.0173-.0713-.0257-.11571-.0257-.061 0-.11183.0127-.15099.0374-.0413.0261-.0603.0557-.0603.0921zm-.16192-.68439c.0191-.002.0307-.002.0353-.002.0321 0 .0575.007.0787.0208.0233.0137.0392.0381.0452.0702.0243-.0286.0582-.0529.10089-.0744.043-.0208.0977-.0317.16263-.0317.0497 0 .0967.008.13935.025.0441.0159.0843.0434.11747.0794.0339.0353.06.0826.0797.14041.0183.0579.0293.12912.0293.21273 0 .0952-.0116.17462-.0349.23741-.0247.0628-.055.11289-.0924.14958-.0367.0367-.0787.0635-.12453.0783-.0448.0148-.09.0222-.13335.0222-.0691 0-.12277-.0123-.16263-.0349-.0395-.0233-.0646-.0441-.0787-.0635v.48189h-.16192z"/><path d="m141.74821 193.42931c.031.0198.0716.0307.12277.0307.049 0 .0907-.0109.12347-.0321.0353-.0205.0589-.0476.0773-.0801.018-.0325.031-.0684.0374-.10936.006-.0402.0102-.0811.0102-.12065 0-.0392-.004-.0787-.0102-.11677-.006-.0388-.0194-.0737-.0374-.10513-.0183-.031-.042-.0561-.0744-.0748-.0321-.0187-.0727-.0282-.12418-.0282-.0483 0-.0882.01-.12029.0282-.0321.0187-.0582.0437-.0776.0748-.0201.0314-.0335.0663-.0406.10513-.009.0381-.0138.0776-.0138.11677 0 .0395.004.0804.0113.12065.006.0409.0198.0769.0388.10936.0198.0324.0444.06.0773.0815m-.20108.0268c-.0325-.0441-.0572-.0935-.0716-.1531-.0159-.0565-.024-.11783-.024-.18098 0-.0639.01-.12453.0265-.18097.0187-.0579.0448-.1076.0808-.15029.0349-.042.0794-.0762.13335-.10124.0512-.0258.1143-.0385.18485-.0385.0744 0 .13865.0127.19015.0385.0529.025.0945.0593.12806.10124.0335.0427.0582.0924.0734.14852.0155.0557.0215.11465.0215.1771 0 .0628-.006.12206-.0215.17991-.0152.0582-.0399.10936-.0744.15346-.0332.0452-.0769.0801-.12947.10689-.0547.0268-.11853.0399-.19367.0399-.0773 0-.14182-.0127-.19403-.0374-.054-.0261-.0977-.0603-.12982-.10301"/></g></g></svg>