<?xml version="1.0" encoding="utf-8"?>
<!-- Generator: Adobe Illustrator 22.0.1, SVG Export Plug-In . SVG Version: 6.00 Build 0)  -->
<svg version="1.1" id="Layer_1" xmlns="http://www.w3.org/2000/svg" xmlns:xlink="http://www.w3.org/1999/xlink" x="0px" y="0px"
	 width="250.1px" height="250.1px" viewBox="0 0 250.1 250.1" enable-background="new 0 0 250.1 250.1" xml:space="preserve">
<path fill="#500000" d="M250.05,126.59c0-1.06,0-2.13,0-3.19h-3.56c-0.01-0.6-0.01-1.19-0.03-1.79l3.56-0.14
	c-0.05-1.07-0.09-2.13-0.13-3.2l-3.56,0.15c-0.03-0.59-0.07-1.19-0.11-1.78l3.56-0.29c-0.09-1.06-0.17-2.12-0.25-3.19l-3.56,0.29
	c-0.06-0.59-0.12-1.18-0.18-1.77l3.54-0.43c-0.13-1.06-0.26-2.12-0.39-3.18l-3.54,0.44c-0.08-0.59-0.16-1.17-0.25-1.76l3.51-0.58
	c-0.17-1.05-0.35-2.1-0.52-3.15l-3.51,0.58c-0.1-0.58-0.22-1.17-0.33-1.75l3.5-0.72c-0.22-1.04-0.44-2.09-0.66-3.13l-3.49,0.72
	c-0.13-0.58-0.26-1.16-0.39-1.73l3.46-0.87c-0.26-1.03-0.52-2.07-0.79-3.1l-3.45,0.87c-0.15-0.57-0.3-1.14-0.46-1.71l3.41-1
	c-0.3-1.02-0.6-2.05-0.9-3.07l-3.42,1.01c-0.17-0.56-0.36-1.13-0.54-1.69l3.37-1.15c-0.34-1.01-0.69-2.02-1.03-3.03l-3.37,1.15
	c-0.2-0.56-0.4-1.11-0.6-1.67l3.32-1.28c-0.39-0.99-0.77-1.99-1.16-2.98l-3.32,1.29c-0.22-0.55-0.44-1.1-0.67-1.64l3.28-1.42
	c-0.43-0.98-0.86-1.96-1.29-2.93l-3.26,1.42c-0.24-0.54-0.49-1.07-0.74-1.6l3.21-1.56c-0.46-0.96-0.93-1.92-1.39-2.88l-3.22,1.56
	c-0.26-0.53-0.53-1.05-0.8-1.58l3.13-1.69c-0.5-0.94-1-1.88-1.5-2.82l-3.14,1.69c-0.29-0.51-0.57-1.03-0.86-1.54l3.07-1.81
	c-0.55-0.92-1.09-1.84-1.64-2.75L228.88,62c-0.3-0.5-0.62-1-0.93-1.49l2.99-1.94c-0.58-0.89-1.16-1.79-1.74-2.68l-2.99,1.94
	c-0.33-0.49-0.65-0.98-0.99-1.46l2.9-2.06c-0.61-0.87-1.22-1.74-1.83-2.6l-2.91,2.06c-0.35-0.48-0.69-0.95-1.04-1.42l2.82-2.17
	c-0.64-0.85-1.3-1.69-1.95-2.53l-2.83,2.17c-0.36-0.46-0.74-0.92-1.11-1.38l2.73-2.28c-0.68-0.82-1.37-1.63-2.05-2.45l-2.73,2.28
	c-0.38-0.45-0.77-0.89-1.16-1.33l2.64-2.39c-0.72-0.79-1.43-1.58-2.15-2.37l-2.64,2.4c-0.4-0.43-0.8-0.86-1.21-1.29l2.54-2.5
	c-0.75-0.76-1.5-1.51-2.24-2.27l-2.54,2.5c-0.42-0.41-0.84-0.82-1.26-1.23l2.44-2.6c-0.78-0.73-1.55-1.45-2.33-2.18l-2.43,2.6
	c-0.43-0.4-0.88-0.79-1.32-1.18l2.34-2.7c-0.81-0.69-1.62-1.39-2.43-2.09l-2.33,2.7c-0.45-0.38-0.9-0.75-1.36-1.13l2.22-2.79
	c-0.83-0.66-1.67-1.32-2.5-1.98l-2.23,2.79c-0.46-0.36-0.93-0.72-1.4-1.07l2.11-2.88c-0.86-0.63-1.72-1.26-2.58-1.88L195.3,26
	c-0.48-0.34-0.96-0.67-1.45-1l1.99-2.96c-0.88-0.59-1.77-1.19-2.65-1.78l-1.99,2.97c-0.49-0.32-0.99-0.64-1.49-0.95l1.86-3.04
	c-0.9-0.56-1.81-1.11-2.72-1.67L187,20.58c-0.51-0.3-1.01-0.61-1.52-0.9l1.73-3.1c-0.93-0.52-1.86-1.04-2.79-1.55l-1.73,3.11
	c-0.52-0.28-1.04-0.55-1.56-0.82l1.62-3.19c-0.95-0.48-1.91-0.96-2.86-1.43l-1.6,3.18c-0.53-0.26-1.06-0.51-1.59-0.76l1.48-3.25
	c-0.97-0.44-1.93-0.88-2.9-1.32l-1.48,3.25c-0.54-0.23-1.07-0.47-1.61-0.7l1.34-3.29c-0.98-0.4-1.97-0.8-2.95-1.2l-1.35,3.29
	c-0.55-0.21-1.1-0.42-1.64-0.63l1.21-3.35c-1-0.36-2-0.72-3-1.08l-1.21,3.35c-0.55-0.19-1.11-0.37-1.67-0.56l1.06-3.4
	c-1.02-0.31-2.03-0.64-3.04-0.96l-1.06,3.41c-0.56-0.17-1.12-0.34-1.69-0.5l0.92-3.44c-1.03-0.28-2.05-0.56-3.08-0.84l-0.92,3.45
	c-0.57-0.14-1.13-0.28-1.7-0.42l0.77-3.49c-1.04-0.23-2.07-0.46-3.11-0.69l-0.77,3.48c-0.57-0.12-1.14-0.24-1.72-0.35l0.64-3.5
	c-1.04-0.2-2.09-0.39-3.13-0.59l-0.64,3.52c-0.57-0.1-1.15-0.2-1.73-0.29l0.49-3.52c-1.05-0.15-2.11-0.29-3.16-0.44l-0.49,3.51
	c-0.58-0.07-1.16-0.13-1.74-0.2l0.35-3.55c-1.06-0.1-2.11-0.21-3.17-0.31l-0.35,3.55c-0.58-0.05-1.16-0.1-1.74-0.14l0.21-3.56
	c-1.06-0.06-2.12-0.12-3.18-0.18l-0.22,3.56c-0.58-0.02-1.16-0.05-1.74-0.07l0.07-3.56c-1.06-0.02-2.13-0.04-3.19-0.06l-0.07,3.57
	c-0.58-0.01-1.16-0.01-1.74,0.01l-0.07-3.56c-1.06,0.02-2.12,0.04-3.19,0.06l0.07,3.57c-0.6,0.02-1.2,0.04-1.79,0.07l-0.22-3.55
	c-1.06,0.07-2.12,0.14-3.18,0.2l0.22,3.54c-0.6,0.05-1.19,0.1-1.79,0.16l-0.36-3.54c-1.06,0.11-2.11,0.21-3.17,0.32l0.36,3.55
	c-0.59,0.07-1.18,0.14-1.77,0.22l-0.51-3.52c-1.05,0.15-2.11,0.3-3.16,0.45L106,5.13c-0.59,0.09-1.17,0.19-1.76,0.29l-0.65-3.5
	c-1.05,0.19-2.09,0.39-3.14,0.58l0.64,3.5c-0.58,0.12-1.16,0.24-1.74,0.37l-0.8-3.47c-1.04,0.23-2.07,0.47-3.11,0.7l0.81,3.48
	c-0.58,0.14-1.16,0.28-1.74,0.43l-0.94-3.43c-1.02,0.28-2.05,0.56-3.07,0.84l0.94,3.43c-0.57,0.16-1.14,0.34-1.7,0.51l-1.08-3.4
	c-1.01,0.32-2.03,0.65-3.04,0.97l1.08,3.39c-0.57,0.19-1.13,0.38-1.69,0.58l-1.22-3.35c-1,0.36-2,0.73-3,1.1l1.22,3.35
	c-0.55,0.21-1.1,0.42-1.65,0.63L79,8.84c-0.98,0.41-1.97,0.81-2.95,1.22l1.36,3.3c-0.55,0.23-1.09,0.47-1.63,0.71l-1.5-3.24
	c-0.96,0.45-1.93,0.9-2.89,1.34l1.49,3.23c-0.54,0.25-1.07,0.52-1.6,0.78L69.65,13c-0.95,0.48-1.89,0.97-2.84,1.45l1.63,3.18
	c-0.52,0.28-1.05,0.55-1.57,0.84l-1.74-3.1c-0.92,0.53-1.85,1.04-2.78,1.56l1.75,3.1c-0.51,0.3-1.02,0.6-1.53,0.9l-1.88-3.02
	c-0.9,0.56-1.81,1.12-2.71,1.68l1.88,3.02c-0.5,0.32-0.99,0.64-1.48,0.97l-2-2.96c-0.88,0.6-1.76,1.2-2.64,1.8l2,2.95
	c-0.48,0.34-0.97,0.67-1.45,1.02l-2.12-2.86c-0.86,0.63-1.71,1.26-2.56,1.9l2.12,2.87c-0.47,0.36-0.94,0.71-1.4,1.08l-2.23-2.77
	c-0.83,0.67-1.66,1.33-2.49,2l2.22,2.77c-0.45,0.37-0.9,0.76-1.35,1.14l-2.35-2.69c-0.8,0.7-1.6,1.41-2.4,2.11l2.34,2.68
	c-0.44,0.39-0.87,0.79-1.31,1.19l-2.45-2.58c-0.77,0.73-1.55,1.46-2.32,2.19L40.44,38c-0.42,0.41-0.85,0.82-1.26,1.23l-2.55-2.48
	c-0.74,0.77-1.48,1.53-2.23,2.29l2.55,2.48c-0.4,0.43-0.8,0.86-1.2,1.29l-2.65-2.38c-0.71,0.79-1.42,1.58-2.14,2.38l2.65,2.38
	c-0.39,0.44-0.77,0.89-1.15,1.34l-2.74-2.27c-0.68,0.82-1.37,1.64-2.05,2.46L30.42,49c-0.37,0.46-0.74,0.91-1.1,1.38l-2.84-2.15
	c-0.64,0.85-1.28,1.7-1.93,2.55l2.83,2.15c-0.35,0.47-0.7,0.95-1.04,1.43l-2.92-2.04c-0.61,0.87-1.22,1.75-1.83,2.62l2.92,2.03
	c-0.33,0.49-0.65,0.98-0.98,1.47l-3-1.93c-0.57,0.9-1.15,1.79-1.73,2.69l3.01,1.93c-0.31,0.5-0.62,0.99-0.92,1.5l-3.08-1.79
	c-0.54,0.92-1.07,1.84-1.61,2.76l3.08,1.79c-0.29,0.51-0.58,1.02-0.86,1.54l-3.14-1.67c-0.5,0.94-1,1.89-1.49,2.83l3.14,1.66
	c-0.27,0.52-0.52,1.05-0.78,1.57l-3.21-1.54c-0.46,0.96-0.92,1.92-1.39,2.88l3.22,1.54c-0.25,0.53-0.49,1.07-0.73,1.6l-3.27-1.4
	c-0.42,0.97-0.84,1.95-1.26,2.93l3.27,1.41c-0.22,0.54-0.45,1.08-0.66,1.63L8.8,79.1c-0.38,0.99-0.76,1.99-1.14,2.98l3.32,1.27
	c-0.2,0.55-0.39,1.1-0.58,1.65L7,83.82c-0.34,1.01-0.68,2.02-1.01,3.03l3.38,1.13c-0.18,0.56-0.35,1.11-0.52,1.67l-3.43-0.99
	c-0.3,1.03-0.59,2.05-0.88,3.08l3.42,0.98c-0.15,0.56-0.31,1.12-0.46,1.69l-3.46-0.85c-0.25,1.04-0.51,2.07-0.76,3.11l3.46,0.85
	c-0.13,0.57-0.25,1.14-0.37,1.71l-3.49-0.7c-0.21,1.04-0.42,2.09-0.63,3.13l3.49,0.7c-0.11,0.57-0.22,1.14-0.32,1.72l-3.52-0.56
	c-0.17,1.05-0.33,2.1-0.5,3.15l3.51,0.57c-0.08,0.57-0.16,1.15-0.24,1.73l-3.54-0.42c-0.12,1.06-0.25,2.11-0.37,3.17l3.53,0.42
	c-0.06,0.58-0.11,1.16-0.17,1.74l-3.56-0.28c-0.08,1.06-0.17,2.12-0.25,3.18l3.56,0.29c-0.04,0.58-0.08,1.15-0.11,1.73l-3.56-0.14
	c-0.04,1.07-0.08,2.13-0.12,3.2l3.55,0.13c-0.01,0.58-0.01,1.16-0.02,1.75l-3.56,0.01c0,1.07,0,2.13,0.01,3.2l3.56-0.01
	c0.01,0.6,0.02,1.2,0.04,1.79l-3.56,0.15c0.05,1.07,0.09,2.13,0.14,3.2l3.56-0.16c0.03,0.59,0.07,1.19,0.11,1.78L0.35,134
	c0.09,1.06,0.18,2.13,0.27,3.19l3.55-0.31c0.06,0.59,0.12,1.19,0.19,1.78l-3.54,0.45c0.13,1.06,0.26,2.11,0.39,3.17l3.54-0.44
	c0.08,0.58,0.16,1.17,0.25,1.76l-3.52,0.59c0.18,1.05,0.36,2.1,0.54,3.15l3.51-0.58c0.1,0.58,0.22,1.16,0.33,1.74l-3.49,0.72
	c0.22,1.04,0.43,2.09,0.64,3.13l3.5-0.72c0.13,0.58,0.26,1.16,0.4,1.73l-3.45,0.87c0.26,1.03,0.52,2.06,0.79,3.1l3.45-0.87
	c0.15,0.57,0.3,1.15,0.46,1.72l-3.41,1.01c0.3,1.02,0.61,2.04,0.91,3.06l3.41-1.02c0.18,0.56,0.36,1.12,0.55,1.68l-3.37,1.15
	c0.35,1.01,0.69,2.01,1.04,3.02l3.37-1.14c0.2,0.56,0.4,1.11,0.61,1.67l-3.32,1.29c0.39,0.99,0.77,1.98,1.16,2.98l3.32-1.29
	c0.22,0.55,0.44,1.1,0.67,1.64l-3.26,1.43c0.43,0.98,0.86,1.95,1.29,2.93l3.26-1.43c0.24,0.54,0.5,1.07,0.75,1.61l-3.2,1.56
	c0.46,0.96,0.93,1.92,1.4,2.87l3.2-1.56c0.27,0.53,0.54,1.05,0.81,1.58l-3.14,1.7c0.51,0.94,1.01,1.88,1.52,2.82l3.14-1.7
	c0.29,0.52,0.57,1.03,0.86,1.54l-3.06,1.82c0.54,0.92,1.09,1.83,1.64,2.75l3.06-1.82c0.31,0.5,0.62,1,0.93,1.49l-2.99,1.94
	c0.58,0.89,1.16,1.79,1.74,2.68l2.99-1.94c0.33,0.49,0.66,0.98,0.99,1.46l-2.9,2.06c0.61,0.87,1.22,1.74,1.83,2.61l2.92-2.06
	c0.35,0.48,0.69,0.95,1.05,1.43l-2.82,2.17c0.65,0.84,1.31,1.69,1.96,2.53l2.81-2.18c0.36,0.46,0.73,0.92,1.11,1.38l-2.72,2.29
	c0.68,0.82,1.37,1.63,2.06,2.45l2.72-2.29c0.38,0.45,0.77,0.88,1.16,1.32l-2.64,2.41c0.72,0.78,1.44,1.57,2.16,2.35l2.63-2.4
	c0.4,0.43,0.8,0.85,1.21,1.28l-2.53,2.5c0.75,0.76,1.49,1.52,2.24,2.28l2.54-2.51c0.42,0.42,0.84,0.83,1.27,1.24l-2.43,2.61
	c0.78,0.73,1.56,1.45,2.34,2.17l2.42-2.6c0.43,0.39,0.88,0.78,1.32,1.17l-2.32,2.7c0.81,0.69,1.61,1.39,2.42,2.08l2.32-2.7
	c0.45,0.38,0.91,0.75,1.36,1.13l-2.21,2.79c0.83,0.66,1.67,1.33,2.5,1.99l2.22-2.8c0.47,0.36,0.93,0.72,1.4,1.07l-2.09,2.88
	c0.86,0.62,1.72,1.25,2.58,1.87l2.09-2.88c0.48,0.34,0.96,0.67,1.45,1.01l-1.98,2.97c0.88,0.59,1.77,1.18,2.66,1.76l1.97-2.95
	c0.49,0.32,0.99,0.63,1.48,0.94l-1.85,3.04c0.91,0.56,1.82,1.11,2.73,1.67l1.86-3.05c0.51,0.3,1.01,0.6,1.52,0.89l-1.73,3.12
	c0.93,0.52,1.86,1.04,2.79,1.55l1.73-3.12c0.52,0.28,1.04,0.55,1.55,0.82l-1.6,3.17c0.95,0.48,1.9,0.96,2.86,1.44l1.6-3.18
	c0.52,0.26,1.06,0.51,1.59,0.75l-1.47,3.24c0.97,0.44,1.94,0.87,2.91,1.31l1.46-3.24c0.54,0.23,1.08,0.47,1.62,0.7l-1.33,3.3
	c0.99,0.4,1.98,0.79,2.97,1.19l1.33-3.3c0.55,0.21,1.1,0.42,1.64,0.63l-1.19,3.35c1,0.36,2,0.72,3,1.07l1.19-3.35
	c0.55,0.19,1.11,0.37,1.67,0.55l-1.06,3.4c1.02,0.31,2.03,0.63,3.05,0.94l1.06-3.39c0.56,0.16,1.12,0.33,1.69,0.49l-0.91,3.44
	c1.03,0.27,2.06,0.55,3.08,0.83l0.91-3.45c0.57,0.14,1.13,0.28,1.7,0.42l-0.78,3.47c1.04,0.23,2.08,0.47,3.12,0.7l0.78-3.48
	c0.57,0.12,1.14,0.23,1.72,0.34l-0.64,3.5c1.05,0.19,2.09,0.38,3.14,0.57l0.64-3.51c0.58,0.1,1.15,0.2,1.73,0.28l-0.49,3.51
	c1.05,0.15,2.11,0.3,3.16,0.45l0.49-3.52c0.58,0.07,1.16,0.13,1.74,0.2l-0.34,3.54c1.06,0.11,2.12,0.21,3.18,0.32l0.34-3.54
	c0.58,0.05,1.16,0.1,1.74,0.13l-0.2,3.56c1.06,0.06,2.12,0.12,3.18,0.19l0.2-3.56c0.58,0.02,1.16,0.05,1.74,0.06l-0.06,3.55
	c1.06,0.03,2.13,0.04,3.19,0.06l0.07-3.56c0.43,0.01,0.86,0.01,1.3,0l0.08,3.56c1.06-0.02,2.12-0.04,3.18-0.06l-0.07-3.56
	c0.6-0.02,1.19-0.04,1.79-0.07l0.22,3.56c1.06-0.07,2.13-0.13,3.19-0.19l-0.22-3.56c0.6-0.04,1.19-0.1,1.78-0.15l0.36,3.55
	c1.06-0.11,2.12-0.22,3.18-0.33l-0.37-3.54c0.59-0.07,1.18-0.13,1.77-0.21l0.49,3.52c1.05-0.15,2.11-0.3,3.16-0.45l-0.5-3.52
	c0.59-0.09,1.17-0.19,1.76-0.29l0.64,3.5c1.05-0.19,2.09-0.38,3.14-0.57l-0.64-3.51c0.58-0.12,1.17-0.24,1.75-0.36l0.78,3.47
	c1.04-0.23,2.08-0.47,3.11-0.71l-0.79-3.47c0.58-0.14,1.15-0.28,1.73-0.43l0.93,3.42c1.03-0.27,2.05-0.55,3.08-0.82l-0.93-3.44
	c0.57-0.16,1.14-0.34,1.7-0.51l1.08,3.41c1.02-0.32,2.03-0.65,3.04-0.97l-1.08-3.39c0.56-0.19,1.12-0.37,1.68-0.57l1.21,3.35
	c1-0.36,2.01-0.72,3.01-1.08l-1.22-3.36c0.55-0.21,1.11-0.42,1.66-0.63l1.35,3.29c0.99-0.4,1.97-0.8,2.95-1.2l-1.34-3.3
	c0.54-0.23,1.08-0.47,1.62-0.71l1.49,3.23c0.97-0.44,1.93-0.88,2.9-1.32l-1.49-3.24c0.54-0.25,1.07-0.52,1.6-0.78l1.61,3.17
	c0.95-0.49,1.89-0.97,2.84-1.45l-1.61-3.17c0.52-0.27,1.04-0.55,1.56-0.83l1.74,3.11c0.93-0.52,1.86-1.04,2.79-1.57l-1.75-3.1
	c0.51-0.3,1.02-0.6,1.53-0.9l1.88,3.04c0.91-0.56,1.81-1.12,2.72-1.68l-1.88-3.03c0.5-0.32,0.99-0.64,1.49-0.96l1.99,2.96
	c0.88-0.6,1.76-1.19,2.65-1.78l-2-2.95c0.49-0.34,0.97-0.67,1.45-1.02l2.11,2.87c0.85-0.63,1.71-1.27,2.57-1.9l-2.11-2.86
	c0.47-0.36,0.94-0.72,1.41-1.08l2.22,2.79c0.83-0.67,1.67-1.34,2.5-2.01l-2.23-2.77c0.45-0.37,0.9-0.75,1.35-1.13l2.35,2.69
	c0.8-0.7,1.6-1.4,2.41-2.1l-2.34-2.69c0.44-0.39,0.88-0.79,1.31-1.19l2.45,2.59c0.77-0.73,1.54-1.46,2.32-2.19l-2.45-2.6
	c0.42-0.41,0.85-0.82,1.26-1.23l2.54,2.49c0.74-0.76,1.49-1.52,2.24-2.29l-2.55-2.48c0.41-0.43,0.8-0.86,1.2-1.29l2.65,2.38
	c0.72-0.79,1.43-1.58,2.14-2.37l-2.64-2.38c0.38-0.44,0.77-0.88,1.15-1.33l2.75,2.28c0.68-0.82,1.36-1.64,2.04-2.46l-2.74-2.28
	c0.37-0.46,0.74-0.91,1.1-1.37l2.83,2.16c0.65-0.85,1.29-1.69,1.93-2.54l-2.83-2.16c0.35-0.47,0.69-0.94,1.04-1.42l2.92,2.05
	c0.61-0.87,1.23-1.75,1.84-2.62l-2.92-2.05c0.33-0.49,0.66-0.98,0.98-1.47l3,1.93c0.58-0.9,1.15-1.79,1.73-2.68l-3.01-1.93
	c0.31-0.5,0.62-0.99,0.92-1.5l3.07,1.8c0.54-0.92,1.08-1.84,1.63-2.76l-3.08-1.81c0.29-0.51,0.58-1.02,0.86-1.53l3.14,1.68
	c0.51-0.94,1-1.88,1.5-2.83l-3.14-1.67c0.27-0.52,0.53-1.05,0.79-1.58l3.21,1.54c0.46-0.96,0.92-1.92,1.38-2.88l-3.21-1.53
	c0.25-0.53,0.49-1.07,0.73-1.6l3.27,1.41c0.42-0.98,0.84-1.96,1.27-2.94l-3.27-1.4c0.23-0.54,0.45-1.08,0.67-1.63l3.33,1.27
	c0.38-1,0.76-1.99,1.14-2.99l-3.32-1.27c0.2-0.55,0.39-1.1,0.58-1.65l3.38,1.13c0.34-1.01,0.69-2.01,1.03-3.02l-3.38-1.15
	c0.18-0.56,0.36-1.11,0.53-1.67l3.4,1c0.31-1.02,0.61-2.05,0.91-3.08l-3.42-0.99c0.15-0.56,0.31-1.13,0.46-1.69l3.45,0.86
	c0.26-1.03,0.52-2.06,0.77-3.1l-3.46-0.87c0.13-0.57,0.26-1.14,0.38-1.71l3.49,0.72c0.21-1.05,0.43-2.09,0.65-3.14l-3.5-0.71
	c0.11-0.57,0.22-1.14,0.32-1.72l3.5,0.57c0.18-1.05,0.36-2.1,0.53-3.15l-3.52-0.57c0.09-0.57,0.16-1.15,0.24-1.73l3.54,0.42
	c0.13-1.05,0.25-2.11,0.38-3.16l-3.53-0.44c0.06-0.58,0.12-1.15,0.17-1.73l3.55,0.28c0.09-1.06,0.17-2.12,0.26-3.18l-3.55-0.28
	c0.04-0.58,0.08-1.16,0.11-1.74l3.55,0.15c0.05-1.07,0.09-2.14,0.13-3.2l-3.56-0.14c0.01-0.58,0.02-1.16,0.02-1.74h3.55V126.59z
	 M125.05,245.69c-66.29,0-120.04-54.01-120.04-120.64C5.01,58.42,58.76,4.41,125.05,4.41s120.04,54.01,120.04,120.64
	S191.34,245.69,125.05,245.69z M125.05,24.61C69.57,24.61,24.6,69.58,24.6,125.05s44.97,100.44,100.45,100.44
	S225.5,180.52,225.5,125.05S180.53,24.61,125.05,24.61z M195.34,195.33c-17.99,17.99-42.84,29.12-70.29,29.12
	c-27.46,0-52.31-11.13-70.29-29.12c-17.99-17.99-29.12-42.83-29.12-70.28s11.12-52.29,29.12-70.28
	c17.99-17.99,42.84-29.11,70.29-29.11s52.3,11.12,70.29,29.11s29.11,42.83,29.11,70.28C224.46,152.49,213.33,177.34,195.34,195.33z
	 M125.05,192.79c3.8,0,5.32,2.4,8.6,2.25c12.95-1.59,24.79-6.72,34.57-14.4c2.41-2.22,1.8-4.99,4.48-7.69s5.44-2.09,7.65-4.51
	c7.64-9.83,12.74-21.74,14.33-34.74c0.16-3.3-2.24-4.82-2.24-8.64c0-3.82,2.39-5.35,2.24-8.65c-1.58-13.01-6.68-24.92-14.33-34.74
	c-2.21-2.42-4.96-1.81-7.65-4.51c-2.68-2.7-2.08-5.47-4.48-7.69c-9.78-7.68-21.63-12.81-34.57-14.4c-3.28-0.16-4.8,2.25-8.6,2.25
	c-3.8,0-5.32-2.4-8.6-2.25c-12.94,1.59-24.79,6.72-34.57,14.4c-2.41,2.22-1.8,4.99-4.49,7.69c-2.68,2.7-5.44,2.09-7.65,4.51
	C62.1,91.49,57,103.4,55.42,116.4c-0.15,3.29,2.24,4.82,2.24,8.65c0,3.82-2.39,5.35-2.24,8.64c1.58,13.01,6.68,24.92,14.33,34.74
	c2.21,2.42,4.96,1.81,7.65,4.51c2.68,2.7,2.08,5.47,4.49,7.69c9.78,7.68,21.62,12.81,34.57,14.4
	C119.73,195.19,121.25,192.79,125.05,192.79z M59.14,125.05c0-36.58,29.51-66.24,65.91-66.24s65.9,29.66,65.9,66.24
	s-29.51,66.24-65.9,66.24C88.65,191.29,59.14,161.63,59.14,125.05z M94.08,206.42c2.19-0.39,3.92-0.89,4.18-1.09
	c0.1-0.16,0.29-0.18,0.45-0.08c0.16,0.1,0.18,0.34,0.08,0.5c-0.17,0.27-1.44,0.69-3.17,1.07c0.04,0.08,0.06,0.2,0.01,0.36
	c-0.25,0.82-2.74,3.23-3.98,3.49l-0.07,0.01c-0.15,0-0.3-0.11-0.33-0.27c-0.04-0.19,0.08-0.37,0.26-0.41
	c0.9-0.19,2.73-1.93,3.3-2.72c-0.22-0.01-0.48-0.07-0.77-0.16c-1.72,0.29-3.65,0.51-5.38,0.51c-0.32,0-0.62-0.02-0.92-0.03
	l-0.1,0.04c-1.28,0.43-4.17,1.38-5.18,1.38c-0.1,0-0.18-0.01-0.24-0.03c-0.18-0.05-0.28-0.25-0.23-0.43
	c0.05-0.18,0.25-0.28,0.43-0.23c0.32,0.07,1.96-0.37,3.68-0.91c-2.04-0.39-4.46-1.31-6.58-2.25l-0.14,0.01
	c-0.61,0.02-1.13,0.03-1.58,0.03c-2.68,0-2.85-0.32-2.93-0.47c-0.09-0.17-0.03-0.37,0.14-0.46c0.14-0.08,0.31-0.04,0.42,0.07
	c0.27,0.12,1.43,0.17,2.68,0.17c-2.07-0.98-3.61-1.83-3.74-1.91c-0.16-0.09-0.23-0.3-0.13-0.47c0.09-0.16,0.3-0.22,0.46-0.13
	c0.04,0.02,1.68,0.93,3.88,1.96c-0.49-0.94-0.98-1.78-1.16-1.91c-0.17-0.09-0.22-0.3-0.13-0.46c0.09-0.17,0.3-0.22,0.47-0.13
	c0.45,0.25,1.34,1.99,1.81,2.96c2.18,0.98,4.73,1.97,6.79,2.35c0.02,0,0.05,0.01,0.07,0.01c-1.95-1.7-3.92-3.29-4.31-3.36
	c-0.19-0.01-0.33-0.18-0.31-0.37c0.01-0.19,0.18-0.33,0.37-0.32c0.73,0.05,3.93,2.84,5.44,4.18c1.61,0.11,3.46-0.03,5.17-0.28
	c-0.49-0.21-1.01-0.45-1.59-0.73c-0.74-0.36-1.67-0.81-1.89-0.81c-0.19-0.01-0.34-0.16-0.34-0.35s0.15-0.34,0.34-0.34
	c0.35,0,0.99,0.3,2.19,0.88C92.27,205.66,93.31,206.16,94.08,206.42z M222.46,125.04c0,53.98-43.7,97.9-97.41,97.9
	s-97.41-43.92-97.41-97.9s43.7-97.9,97.41-97.9S222.46,71.06,222.46,125.04z M56.11,62.65c0.06-0.83,0.14-1.86-0.15-2.08
	c-0.04-0.02-0.13-0.08-0.32-0.08c-0.22,0-1,0.1-1.83,1.41c-0.05,0.08-0.11,0.25-0.17,0.42c-0.26,0.78-0.75,2.22-2.86,2.22
	c-0.33,0-0.52,0.51-0.75,1.3c-0.3,0.99-0.68,2.22-1.92,2.24c-0.11,0-0.15,0.04-0.17,0.07c-0.29,0.39,0.09,1.9,0.36,3.02
	c0.39,1.58,0.61,2.57,0.24,3.05c-0.2,0.26-0.52,0.33-0.93,0.17c-0.67-0.24-1.2-0.4-1.57-0.4c-0.26,0-0.37,0.08-0.44,0.16
	c-0.28,0.29-0.39,1.1-0.33,2.45c0.09,2.11,1.46,5.29,2.46,7.61c0.91,2.11,1.3,3.06,1.14,3.51c-0.1,0.28-0.29,0.94-0.56,1.81
	c-0.53,1.76-1.34,4.42-2.16,6.75c-0.64,1.82-1.55,5.07-2.36,7.95c-1.76,6.26-1.8,6.26-2.19,6.26c-0.58-0.02-0.99-1.81-1.1-2.36
	c-0.24-1.17-0.44-3.23,0.82-3.83c1.32-0.62,1.87-3.28,1.85-3.98c-0.08-0.01-0.16-0.03-0.25-0.04c-0.42-0.06-0.94-0.13-1.1-0.57
	c-0.14-0.4,0.07-0.88,0.72-1.63c0.6-0.69,2.6-3.53,2.83-4.41l-0.08,0.04c-0.52,0.24-0.93,0.36-1.25,0.36
	c-0.45,0-0.64-0.24-0.73-0.38c-0.31-0.57,0.18-1.43,0.34-1.68c0.34-0.54,0.57-2.04,0.46-2.52l-0.08,0.07
	c-0.18,0.17-0.36,0.26-0.57,0.26c-0.79,0-1.2-1.24-1.77-3.27c-0.2-0.72-0.42-1.46-0.58-1.73c-0.05-0.07-0.1-0.15-0.16-0.22
	c-0.12,1.19-0.51,5.13-0.95,8.76c0.78-1.19,1.9-2.77,2.63-3.17c0.16-0.09,0.37-0.03,0.46,0.14s0.03,0.37-0.14,0.46
	c-0.8,0.44-2.49,3.06-3.16,4.18c-0.17,1.26-0.33,2.42-0.49,3.33c1.4-1.28,3.01-2.85,3.17-3.25c0.07-0.17,0.27-0.26,0.44-0.19
	c0.18,0.07,0.26,0.27,0.19,0.45c-0.3,0.75-3.17,3.35-3.95,4.06c-0.17,1.68-0.02,3.68,0.23,5.47c0.95-1.42,2.05-3.23,2.11-3.8
	c0.02-0.19,0.19-0.33,0.37-0.31c0.19,0.02,0.33,0.19,0.31,0.37c-0.09,0.99-2.01,3.82-2.64,4.73c0.32,2.06,0.71,3.62,0.72,3.65
	c0.33,0.72,0.52,1.32,0.53,1.37l0.01,0.09c0.01,0.42,0.29,10.3,0.24,12.35c-0.05,2.02,0.96,17.28,0.97,17.43l0.04,0.62l-0.54-0.29
	c-0.02-0.01-0.11-0.06-0.26-0.16c0.01,0.04,0.01,0.08,0.01,0.13c-0.03,0.17-0.17,0.29-0.33,0.29h-0.06c-1-0.17-1.87-0.77-2.64-1.59
	c-1.71-0.6-5.27-1.94-5.53-2.78c-0.06-0.18,0.04-0.37,0.22-0.43c0.18-0.05,0.36,0.04,0.42,0.22c0.19,0.36,2.06,1.21,4.04,1.96
	c-1.57-2.25-2.56-5.34-3.04-6.86c-0.01-0.04-0.02-0.07-0.04-0.11c-0.66-0.42-3.49-2.23-3.76-3.2c-0.05-0.18,0.05-0.37,0.24-0.42
	c0.18-0.05,0.37,0.05,0.42,0.24c0.11,0.42,1.41,1.45,2.8,2.37c-0.23-1.12-0.54-3.89-0.73-6.63l-0.01-0.01
	c-0.23-0.31-2.26-3.04-2.31-4.12c-0.01-0.19,0.13-0.35,0.32-0.36c0.19,0.01,0.35,0.14,0.36,0.33c0.02,0.51,0.82,1.82,1.57,2.89
	c-0.13-2.55-0.12-4.83,0.2-5.41c0.09-0.16,0.3-0.22,0.46-0.13c0.16,0.09,0.22,0.3,0.13,0.47c-0.25,0.45-0.24,2.6-0.11,5.04
	c1.06-1.54,2.01-3.12,1.98-3.48c-0.04-0.19,0.09-0.36,0.27-0.4c0.19-0.04,0.36,0.09,0.4,0.27c0.15,0.78-1.66,3.42-2.58,4.7
	c0.18,2.78,0.49,5.67,0.71,6.72c0.82-1.35,2.05-3.61,1.98-4.53c-0.01-0.19,0.13-0.35,0.32-0.36s0.35,0.13,0.36,0.32
	c0.09,1.4-1.85,4.58-2.39,5.45c0.02,0.06,0.03,0.11,0.05,0.17c0.48,1.52,1.5,4.69,3.07,6.84c-0.13-1.32-0.25-3.52,0.27-4.59
	c0.08-0.17,0.29-0.24,0.46-0.16s0.24,0.29,0.16,0.46c-0.54,1.12-0.24,4.16-0.08,5.24v0.01c0.6,0.61,1.27,1.04,2.01,1.19
	c-0.72-0.59-1.77-1.75-1.73-3.54c0.03-1.25,0.31-2.25,0.54-3.06c0.18-0.67,0.35-1.24,0.18-1.47c-0.04-0.06-0.1-0.11-0.28-0.11
	s-0.41,0.06-0.64,0.11c-0.54,0.13-1.13,0.2-1.47-0.09c-0.43-0.37-0.6-1.28-0.6-2.01c-0.01-0.47,0.05-1.62,0.65-2.14
	c0.66-0.57,2.14-3.11,1.32-4.16c-0.29-0.37-0.4-0.39-0.4-0.39l-0.17,0.08c-0.29,0.16-0.89,0.39-1.72,0.11
	c-0.29-0.1-0.5-0.28-0.61-0.53c-0.3-0.68,0.18-1.71,0.68-2.81c0.43-0.93,0.96-2.09,0.64-2.44c-0.25-0.28-0.43-0.28-0.48-0.28
	c-0.15,0-0.3,0.07-0.45,0.14c-0.17,0.08-0.33,0.15-0.52,0.15c-0.31,0-0.53-0.2-0.67-0.6l-0.1-0.32c-0.53-1.7-0.83-2.06-0.99-2.06
	c0,0-0.3,0.01-0.76,1.32c-0.64,1.83-1.31,2.2-2.11,2.2h-0.19c-0.24,0-0.38,0-0.52,0.72c-0.38,1.91,0.22,3.82,0.66,5.21
	c0.35,1.09,0.57,1.81,0.24,2.24c-0.16,0.2-0.34,0.31-0.54,0.31c-0.27,0-0.47-0.19-0.64-0.35c-0.3-0.28-0.49-0.4-0.82-0.22
	c-0.09,0.05-0.13,0.11-0.14,0.23c-0.1,0.79,1.24,2.6,2.16,3.45c1.22,1.12,2.01,4.28,1.85,5.25c-0.05,0.31-0.28,0.43-0.46,0.43
	c-0.27,0-0.53-0.22-0.96-0.61c-0.22-0.2-0.63-0.57-0.79-0.6c0.02,0.03-0.05,0.23,0.01,0.84c0.2,2.03,3.05,3.12,5.35,3.99
	c0.89,0.34,1.66,0.63,2.19,0.95c0.33,0.2,0.64,0.37,0.93,0.54c1.38,0.78,2.37,1.34,2.82,2.84c0.36,1.2,0.99,4.07,1.37,5.78
	c0.15,0.68,0.26,1.17,0.29,1.29c0.63,2.34,4.15,11.12,5.45,13.12l0.54,0.94c2.93,5.07,3.38,6.13,3.2,6.56l-0.07,0.16l-0.21,0.08
	c-0.3,0.07-0.6,0.05-0.9-0.04c0.01,0.02,0.02,0.05,0.02,0.07c0,0.1-0.04,0.18-0.1,0.24c0.1,0.05,0.18,0.1,0.24,0.16
	c2.86,2.74,11.65,11.29,14.38,14.46c1.2,1.39,3.79,3.05,5.69,4.26c2.27,1.45,2.79,1.81,2.61,2.27c-0.14,0.36-0.62,0.43-1.29,0.43
	c-0.63,0-1.45-0.08-2.21-0.16c0.02,0.04,0.03,0.1,0.02,0.14c-0.02,0.18-0.17,0.31-0.34,0.31h-0.03c-1.06-0.1-2.16-0.4-3.27-0.81
	c-0.54,0.19-3.4,1.17-4.75,1.17c-0.12,0-0.23-0.01-0.32-0.02c-0.18-0.03-0.31-0.21-0.28-0.4c0.03-0.19,0.2-0.32,0.39-0.28
	c0.7,0.12,2.68-0.45,3.98-0.86c-1.52-0.65-3.01-1.46-4.34-2.18c-0.2-0.11-0.38-0.2-0.56-0.31c-0.21,0.01-0.51,0.01-0.87,0.01
	c-1.39,0-3.57-0.07-4.08-0.5c-0.14-0.12-0.16-0.34-0.04-0.48s0.33-0.16,0.48-0.04c0.24,0.2,1.68,0.32,3.22,0.34
	c-0.33-0.16-0.64-0.31-0.9-0.4c-0.98-0.37-2.62-2.09-4.17-3.94c-0.94-0.25-4.15-1.11-5.09-1.7c-0.16-0.1-0.21-0.31-0.11-0.47
	s0.31-0.21,0.47-0.11c0.62,0.39,2.56,0.98,3.98,1.37c-1.64-2.02-3.02-3.94-3.13-4.1c-0.11-0.15-0.08-0.37,0.08-0.48
	c0.15-0.11,0.36-0.08,0.47,0.08c0.68,0.95,1.9,2.58,3.2,4.18c-0.18-1.38-0.52-3.79-0.75-4.47c-0.06-0.18,0.04-0.37,0.22-0.43
	s0.37,0.04,0.43,0.22c0.34,1.03,0.88,5.42,0.9,5.6l0.01,0.06c1.46,1.73,2.92,3.24,3.72,3.54c0.4,0.15,0.89,0.39,1.43,0.67
	c-0.62-2.23-1.33-4.45-1.57-4.72c-0.14-0.12-0.16-0.33-0.04-0.48c0.12-0.14,0.34-0.16,0.49-0.04c0.46,0.38,1.4,3.64,1.95,5.68
	c0.19,0.1,0.38,0.21,0.59,0.32c1.31,0.71,2.78,1.51,4.28,2.15c-0.54-1.19-1.37-2.59-2.05-2.82c-0.18-0.06-0.27-0.25-0.21-0.43
	s0.25-0.28,0.43-0.22c1.27,0.43,2.41,3.05,2.73,3.84c0.34,0.13,0.68,0.24,1.01,0.35c-0.47-0.53-0.9-1.42-1.37-2.4
	c-0.49-1.01-1.15-2.4-1.61-2.51c-0.93-0.22-1.03-0.19-1.65-0.05c-0.18,0.04-0.39,0.09-0.66,0.15l-0.14,0.01
	c-0.8,0-1.33-1.18-2.12-3.11c-0.39-0.94-1.11-2.69-1.5-2.69c-0.22,0-0.27,0.04-0.32,0.53c-0.03,0.38-0.17,1.33-1.43,0.47
	c-0.88-0.6-1.46-2.12-2.03-3.59c-0.35-0.92-0.88-2.3-1.22-2.35c-0.21-0.03-0.26-0.08-0.41,0.35c-0.14,0.39-0.35,0.97-1.21,1.24
	c-0.39,0.12-0.88-0.2-1.45-0.61c-0.42-0.3-0.95-0.67-1.27-0.67l-0.14,0.05c-0.2,0.17,0.11,0.96,0.34,1.54
	c0.34,0.85,0.68,1.74,0.42,2.43c-0.19,0.49-0.5,0.73-0.91,0.73c-0.19,0-0.37-0.05-0.53-0.1c-0.2-0.06-0.35-0.12-0.43-0.02
	c-0.05,0.06-0.05,0.18-0.02,0.33c0.15,0.7,1.05,1.79,2.15,2.31l0.4,0.19c2.93,1.38,4.55,2.28,4.69,3.09
	c0.05,0.29-0.04,0.47-0.12,0.57c-0.24,0.29-0.82,0.23-1.32,0.11c-0.11-0.02-0.24-0.05-0.33-0.07v0.04c0.06,0.48,1.11,1.45,1.93,1.94
	c0.51,0.3,1.96,0.6,3.13,0.83c0.67,0.14,1.31,0.26,1.77,0.39c0.15,0.04,0.63,0.17,0.76,0.59c0.14,0.46-0.23,0.91-0.6,1.34
	c-0.16,0.19-0.33,0.39-0.43,0.57c0.13,0.26,1.05,1.02,2.65,1.02h0.11c0.96-0.02,1.03-0.16,1.06-0.21c0.13-0.25,0.31-0.39,0.82-0.39
	c0.68,0.01,0.89,0.13,1.18,0.34c0.15,0.11,0.33,0.24,0.77,0.38c0.26,0.08,0.41-0.14,0.68-0.54c0.3-0.45,0.68-1,1.4-1
	c0.18,0,0.37,0.04,0.57,0.11c0.92,0.34,3.49,0.53,5.36,0.66l0.81,0.06c1.45,0.11,4.01,1.53,6.48,2.9c1.2,0.67,2.33,1.29,3.24,1.72
	c2.32,1.09,9.24,3.92,11.31,4.76l0.06,0.02l0.02,0.01l0,0c0.14,0.06,0.27,0.15,0.26,0.35l-0.01,0.24l-0.35,0.1l-0.15-0.06
	c-0.04-0.01-0.15-0.05-0.44-0.05c-0.51,0-1.26,0.1-1.98,0.2c-0.95,0.13-1.85,0.24-2.3,0.17c-0.53-0.08-0.91-0.53-1.31-1.01
	c-0.46-0.54-0.93-1.11-1.64-1.11c-1.12,0-1.99,0.28-2.83,0.55c-0.25,0.08-0.49,0.16-0.74,0.23c-0.7,0.2-1.61-0.69-2.95-2.14
	c-0.59-0.64-1.48-1.61-1.77-1.62c-0.24,0.01-0.29,0.09-0.4,0.65c-0.08,0.36-0.17,0.8-0.45,1.2c-0.05,0.07-0.2,0.29-0.46,0.29
	c-0.34,0-0.48-0.32-0.64-0.7c-0.31-0.73-0.63-1.33-1.44-1.33c-0.14,0-0.3,0.02-0.46,0.06l-0.3,0.07c-2.08,0.48-4.67,1.07-4.87,1.5
	c-0.05,0.42,1.6,2.58,4.4,4.35c0.63,0.4,1.21,0.6,1.74,0.6c0.46,0,0.79-0.15,1.06-0.26c0.19-0.08,0.36-0.16,0.53-0.16
	c0.53,0,0.6,0.6,0.63,0.83c0.17,1.32,1.3,2.9,3.44,3.44c1.07,0.27,2.36-0.35,3.32-0.86c0.61-0.32,1.09-0.58,1.5-0.58
	c0.18,0,0.34,0.05,0.47,0.16c0.61,0.48,0.3,1.01,0.1,1.35c-0.16,0.27-0.33,0.56-0.28,0.93c0.07,0.48,0.25,0.76,0.97,0.76
	c0.38,0,0.87-0.08,1.51-0.24c1.19-0.3,2.4-1.72,3.69-3.22c1.26-1.48,2.57-3.01,4.03-3.65c0.23-0.1,0.48-0.15,0.77-0.15
	c1.46,0,3.49,1.27,4.33,1.84l0.53-1.63l-2.74-1.8c-0.24-0.08-0.36-0.22-0.42-0.34c-0.11-0.2-0.12-0.45-0.07-0.72
	c-0.1-0.04-0.17-0.11-0.2-0.22c-0.01-0.04-0.82-3.86-2.65-5.08c-0.43,0.06-1.24,0.15-2.05,0.15c-0.84,0-1.69-0.1-2.12-0.44
	c-0.15-0.11-0.17-0.33-0.06-0.48c0.12-0.15,0.33-0.17,0.48-0.06c0.39,0.31,1.52,0.34,2.59,0.26c-1.08-0.51-2.67-1.32-4.29-2.17
	c-1.13,0.08-1.93,0.12-2.47,0.12c-1.15,0-1.22-0.15-1.3-0.29c-0.08-0.17-0.01-0.37,0.15-0.46c0.11-0.06,0.25-0.04,0.35,0.03
	c0.24,0.05,1.1,0.04,2.09-0.01c-2.52-1.33-4.82-2.59-5-2.68c-0.16-0.09-0.23-0.3-0.14-0.46c0.09-0.17,0.3-0.23,0.46-0.14
	c0.05,0.02,2.86,1.56,5.72,3.06c-0.45-1.27-0.98-2.55-1.18-2.74c-0.14-0.12-0.16-0.34-0.04-0.48s0.32-0.17,0.46-0.06
	c0.48,0.38,1.29,2.67,1.61,3.64l0.03,0.1c1.88,0.98,3.65,1.88,4.55,2.25c-0.17-1.25-0.42-2.53-0.61-2.73
	c-0.15-0.12-0.17-0.33-0.05-0.48c0.12-0.15,0.34-0.17,0.48-0.05c0.49,0.39,0.79,2.49,0.92,3.71c1.43,1.12,2.24,3.46,2.56,4.65
	c0.11-0.36,0.21-0.74,0.26-1.14c0.04-0.39-0.37-1.56-0.71-2.5c-0.45-1.26-0.71-1.99-0.63-2.37c0.38-1.82-1.43-2.88-2.57-3.23
	c-0.3-0.09-0.91-0.01-1.47,0.07c-0.38,0.06-0.74,0.11-1.06,0.11c-0.15,0-0.6,0-0.84-0.31c-1.37-1.7-2.73-2.47-3.56-2.64l-0.01,0.14
	c-0.03,0.33-0.1,1.11-1.06,1.11c-0.44,0-1.06-0.18-1.79-0.39c-1.21-0.35-2.72-0.69-3.11-0.31c0.16,0.84,4.06,4.89,5.26,5.98
	c0.27-0.01,0.72-0.2,1.12-0.36c0.82-0.34,1.66-0.62,2.05-0.22c0.18,0.19,0.21,0.37,0.2,0.49c-0.03,0.31-0.31,0.51-0.6,0.73
	c-0.37,0.26-0.79,0.55-0.8,1.05c-0.01,0.15,0.04,0.27,0.14,0.38c0.35,0.37,1.3,0.55,2.81,0.55c0.52,0,1.02-0.02,1.47-0.04
	c0.35-0.02,0.66-0.03,0.9-0.03c0.35,0,0.52,0.02,0.65,0.09c0.97,0.49,2.14,2.28,2.17,3.31c0.01,0.51-0.25,0.73-0.4,0.82
	c-0.18,0.1-0.43,0.15-0.74,0.15c-2.16,0-7.56-2.44-9.78-3.49c-0.07-0.03-7.15-3.39-7.57-4.34c-0.19-0.43-1.35-6.37-1.15-7.07
	c0.15-0.67-0.61-5.76-1.54-6.14c-0.53-0.22-0.82,0.23-1.06,0.76c-0.07,0.17-0.16,0.37-0.4,0.37h-0.3l-0.06-0.34
	c-0.13-0.61-2.39-5.98-3.45-6.27c-0.13-0.03-0.25-0.06-0.3,0c-0.08,0.08-0.07,0.37-0.06,0.5c0.01,0.17,0.01,0.32-0.11,0.44l-0.1,0.1
	l-0.15,0.01c-0.23,0-0.35-0.19-0.47-0.4c-0.43-0.7-3.54-3.02-4.65-3.02l-0.13,0.02c-0.13,0.36,0.9,2.28,1.52,3.42
	c1.18,2.2,1.69,3.19,1.15,3.58c-0.48,0.35-1.21,0.1-1.65-0.11l-0.09-0.04c0.08,0.71,1.86,1.97,2.97,2.76
	c1.35,0.95,2.12,1.52,2.24,2.04c0.04,0.16,0.07,0.4-0.07,0.59c-0.05,0.06-0.17,0.17-0.38,0.17c-0.14,0-0.28-0.04-0.43-0.09
	c-0.14-0.04-0.3-0.09-0.42-0.09c-0.08,0-0.25,0-0.3,0.58c-0.09,1.11,3.27,2.4,4.88,3.02c1.11,0.43,1.5,0.58,1.65,0.78
	c0.51,0.67,1.07,1.57,0.81,2.1c-0.08,0.17-0.39,0.47-1.11,0.29c-4.06-0.99-15.57-11.64-15.77-12.87c-0.31-1.91,0.36-5.02,0.9-7.52
	c0.34-1.59,0.77-3.58,0.57-3.91c-0.05-0.02-0.15-0.05-0.26-0.05c-0.25,0-0.53,0.15-0.77,0.28c-0.42,0.23-0.88,0.37-1.17,0.08
	c-0.33-0.34-0.13-1.11,0.69-3.42c0.24-0.69,0.55-1.55,0.55-1.74c-0.07-0.78-0.59-2.52-1.01-2.61l0,0c-0.14,0-0.33,0.35-0.44,0.55
	c-0.19,0.36-0.39,0.73-0.78,0.73c-0.12,0-0.24-0.04-0.36-0.13c-0.4-0.29-0.53-1.4-0.73-3.86c-0.08-1.06-0.18-2.26-0.3-2.53
	l-0.05-0.07l-0.16,0.16c-0.29,0.2-0.75,0.42-1.12,0.18c-0.29-0.19-0.44-0.69-0.71-1.73c-0.29-1.11-0.79-2.96-1.48-2.96
	c-0.23,0.23-0.17,2.02-0.14,2.99c0.07,1.91,0.07,2.69-0.42,2.84c-0.09,0.03-0.21,0.06-0.35,0.09c-0.38,0.09-1.16,0.28-1.33,0.51
	c-0.16,0.4,1.22,2.38,1.89,3.33c1.04,1.48,1.29,1.89,1.21,2.22c-0.11,0.41-0.61,0.41-0.85,0.41c-0.12,0-0.24-0.01-0.37-0.01
	c-0.13-0.01-0.26-0.01-0.39-0.01c-0.37,0-0.46,0.05-0.48,0.06c-0.06,0.23,0.32,1.28,3.76,5.36c0.51,0.61,0.57,0.68,0.61,0.76
	c0.06,0.15,0.06,0.3-0.02,0.43c-0.16,0.28-0.54,0.32-1.02,0.37c-0.21,0.02-0.61,0.07-0.7,0.13c-0.17,0.79,1.43,2.7,2.49,3.96
	c0.4,0.48,0.72,0.85,0.96,1.17c0.04-0.36,0.07-0.77,0.08-1.22l-0.06-0.07c-0.49-0.57-2.1-2.46-2.18-3.11
	c-0.02-0.19,0.11-0.35,0.29-0.37c0.18-0.02,0.36,0.11,0.38,0.29c0.04,0.26,0.77,1.25,1.55,2.19c-0.05-1.53-0.27-3.31-0.65-4.9
	l-0.01-0.01c-1.33-1.23-3.57-3.39-3.61-4.06c-0.01-0.19,0.13-0.35,0.32-0.36c0.21-0.01,0.34,0.13,0.36,0.31
	c0.09,0.33,1.29,1.61,2.58,2.85c-0.14-0.44-0.3-0.84-0.48-1.2c-0.49-1.03-1.03-2.78-1.53-4.67c-0.75-0.57-2.68-2.12-3.17-3.3
	c-0.07-0.17,0.01-0.37,0.18-0.45c0.17-0.07,0.37,0.01,0.44,0.18c0.3,0.73,1.38,1.74,2.26,2.47c-0.88-3.52-1.6-7.15-1.64-7.4
	c-0.04-0.19,0.08-0.37,0.27-0.4c0.19-0.04,0.36,0.08,0.4,0.27c0.01,0.06,0.76,3.86,1.67,7.47c0.35-1.55,0.63-3.07,0.56-3.35
	c-0.05-0.18,0.05-0.37,0.22-0.43c0.17-0.05,0.36,0.02,0.42,0.2c0.21,0.59-0.48,3.53-0.78,4.76l-0.05,0.21
	c0.46,1.7,0.94,3.23,1.37,4.14c0.18,0.39,0.35,0.81,0.5,1.27c0.59-1.8,1.07-3.59,0.98-3.92c-0.05-0.18,0.05-0.37,0.22-0.43
	c0.18-0.05,0.36,0.03,0.42,0.2c0.25,0.71-0.77,3.81-1.29,5.31c0.38,1.52,0.61,3.22,0.7,4.74c0.61-0.97,1.39-2.38,1.48-3.33
	c0.02-0.19,0.17-0.33,0.37-0.31c0.18,0.02,0.32,0.18,0.3,0.37c-0.13,1.44-1.58,3.67-2.12,4.45c0,1.01-0.06,1.88-0.2,2.44
	c0,0.02-0.02,0.03-0.03,0.05c0.04,0.16,0.04,0.29-0.01,0.42c-0.06,0.13-0.22,0.36-0.74,0.27c-1.53-0.24-4.61-4.92-8.49-11.02
	c-0.9-1.41-1.67-2.63-2.28-3.54c-0.88-1.29-2.57-9.88-1.26-10.88c0.43-0.33,0.91-0.49,1.43-0.49c0.59,0,1.01,0.22,1.05,0.25
	c0.13,0.07,0.72,0.19,1.53,0.19c0.78,0,1.23-0.11,1.39-0.21c0.01-0.01,0.02-0.02,0.03-0.03l-0.69-0.76l-0.33-0.74l-1.41-1.07
	l-0.24-0.64c-0.37,0.44-0.67,1.63-0.79,2.33l-0.04,0.23l-1.83,0.44l-0.13-0.11c-0.05-0.05-0.14-0.14-0.19-0.32
	c-0.01,0.27-0.03,0.52-0.08,0.72c-0.17,0.68-0.56,0.78-0.78,0.78c-0.21,0-0.42-0.09-0.65-0.27c-1.49-1.18-3.03-11.25-2.57-12.38
	c0.9-2.23,3.2-4.12,6.61-6.76c1.27-0.99,1.84-2.89,1.54-3.98c-0.11-0.4-0.31-0.62-0.6-0.66c-0.48-0.06-0.71-0.32-0.83-0.52
	c-0.39-0.7,0-1.82,0.48-2.93c0.05-0.11,0.09-0.2,0.1-0.24c0.01-0.07,0.05-0.16,0.19-0.42c0.42-0.8,1.53-2.93,0.8-4.22
	c-0.51-0.9-0.55-0.97-0.54-1.19c0.01-0.25-0.35-1.25-1.07-2.96c-0.45-1.07-0.72-1.43-0.84-1.56c-0.13,0.32-0.2,1.28-0.16,2.21
	l0.02,0.31l-0.3,0.05c-0.91,0.14-1.13,0.9-1.3,1.8c-0.1,0.5-0.19,1.02-0.67,1.02c-0.5-0.01-0.79-0.09-0.98-0.14
	c-0.09-0.03-0.15-0.04-0.2-0.04s-0.13,0.01-0.35,0.13c-0.09,0.21,0.06,1.71,0.17,2.8c0.31,3.06,0.42,4.94-0.6,5.12
	c-0.94,0.17-1.39-0.32-1.68-0.62l-0.19-0.18c-0.65,0.58,0.03,3.75,0.73,5.82l0.02,0.09c0.04,0.88,0.09,2.49-0.01,3.75
	c0.55-0.93,1.24-2.12,1.81-3.27c-0.5-0.99-1.88-3.84-1.67-4.72c0.04-0.18,0.23-0.3,0.41-0.25c0.18,0.04,0.3,0.23,0.25,0.41
	c-0.1,0.4,0.61,2.17,1.39,3.78c0.06-0.13,0.11-0.25,0.17-0.37c0.48-1.12,0.57-2.07,0.65-2.99c0.09-1.01,0.19-2.05,0.8-3.22
	c-0.31-0.34-0.83-1.44-1.85-4.98c-0.05-0.18,0.05-0.37,0.23-0.42c0.18-0.05,0.37,0.05,0.42,0.23c0.52,1.82,1.21,3.89,1.55,4.51
	c1.2-2.34,0.6-7.23,0.59-7.28c-0.02-0.19,0.11-0.36,0.29-0.38s0.36,0.11,0.38,0.3s0.47,3.79-0.2,6.42c0.95-1.07,2.12-2.6,2.12-3
	c0-0.19,0.15-0.34,0.34-0.34s0.34,0.15,0.34,0.34c0,0.79-2.23,3.63-3.39,4.5c-0.01,0.01-0.02,0.03-0.03,0.05
	c-0.75,1.22-0.84,2.25-0.94,3.34c-0.08,0.97-0.18,1.98-0.7,3.2c-0.02,0.05-0.05,0.1-0.07,0.15c1.62-0.67,3.65-1.69,4.02-2.36
	c0.09-0.17,0.29-0.23,0.46-0.14s0.23,0.3,0.14,0.47c-0.63,1.17-4.1,2.57-5.04,2.94c-1.16,2.35-2.82,4.94-2.9,5.07
	c-0.07,0.1-0.18,0.16-0.29,0.16l-0.18-0.05c-0.1-0.07-0.15-0.18-0.15-0.29c-0.02-0.02-0.05-0.03-0.07-0.05
	c-0.2-0.15-0.71-0.55-0.96-12.07c-0.12-5.32-0.12-11.79,0.08-12.97c0.1-0.56,0.78-1.31,1.91-2.23c0-0.12,0.06-0.24,0.17-0.31
	c0.94-0.51,2-1.78,3.11-3.38l0.02-0.31c0.06-0.74,0.39-4.5,0.86-5.28c0.1-0.16,0.31-0.22,0.47-0.12s0.21,0.31,0.12,0.47
	c-0.25,0.41-0.52,2.43-0.68,4.06c0.73-1.13,1.47-2.35,2.2-3.56c0.43-0.72,0.88-1.45,1.32-2.16l-0.01-0.07
	c-0.14-0.83-0.84-5.03-0.47-5.97c0.07-0.17,0.26-0.26,0.44-0.19c0.17,0.07,0.26,0.27,0.19,0.44c-0.2,0.53,0.1,3.06,0.4,4.92
	c0.32-0.5,0.64-1,0.95-1.46c2.32-3.4,2.85-8.12,2.98-9.98c-0.3,0.55-0.75,1.05-1.89,0.68c-0.14-0.05-0.23-0.04-0.27,0.01
	c-0.27,0.28-0.22,1.43-0.19,2.26c0.03,0.75,0.06,1.46-0.05,1.98c-0.12,0.6-0.52,0.67-0.68,0.67c-0.37,0-0.79-0.3-1.27-0.64
	c-0.6-0.43-1.3-0.93-1.7-0.67c-0.22,0.28-0.01,2.29,0.12,3.62c0.25,2.45,0.37,3.98-0.04,4.59c-0.27,0.39-0.63,0.59-1.08,0.59
	c-0.35,0-0.71-0.11-1.08-0.23c-0.46-0.14-0.92-0.3-1.38-0.23c-0.12,0.27-0.15,1.26-0.17,2c-0.04,1.38-0.08,2.95-0.49,3.99
	c-0.72,1.85-1.77,4.05-2.65,4.05l0,0c-0.39,0-0.65-0.32-0.78-0.94c-1.15-5.51,7.31-23.05,9.44-26.54c1.8-2.94,6.61-9.36,7.83-10.2
	c0.26-0.35,0.91-0.5,2.07-0.5c0.98,0,2.17,0.11,3.04,0.19c0.45,0.04,0.82,0.08,1.06,0.09c0.43,0.02,1.05,0.16,1.77,0.33
	c0.98,0.23,2.09,0.48,2.94,0.48c0.38,0,0.68-0.05,0.87-0.16c0.12-0.06,0.2-0.13,0.21-0.19c0.04-0.19-0.36-0.65-0.64-0.99
	c-0.38-0.44-0.81-0.94-0.98-1.49c-0.14-0.44-0.13-0.77,0.05-1.01c0.24-0.34,0.85-0.32,1.43-0.2c0.14,0.02,0.27,0.05,0.39,0.06
	c0.32,0.04,0.82,0.24,1.45,0.5c0.77,0.32,1.74,0.71,2.28,0.71c0.15,0,0.2-0.03,0.21-0.04c0.16-0.23,0.12-0.38,0.02-0.69
	c-0.1-0.31-0.24-0.73,0.01-1.28c0.31-0.66,1.53-0.83,2.82-1.02c0.69-0.1,1.56-0.22,1.79-0.4l0.14-0.17
	c0.01-0.14-0.24-0.42-0.43-0.64c-0.13-0.14-0.25-0.28-0.36-0.43c-0.39-0.52,0.29-1.19,1.14-2.04c0.43-0.43,1.34-1.34,1.26-1.59
	c-0.02-0.03-0.11-0.07-0.29-0.07c-1,0-3.18,1.14-3.79,1.6c-0.14,0.11-0.29,0.16-0.45,0.16c-0.46,0-0.74-0.43-1.07-0.94
	c-0.34-0.52-0.72-1.12-1.27-1.17c-0.33,0.06-1.53,1.49-2.32,2.43c-1.54,1.83-2.51,2.95-3.19,2.95l-0.18-0.03
	c-0.49-0.15-0.47-0.66-0.45-0.97c0.02-0.41,0-0.6-0.23-0.72c-0.57,0-2.35,2.31-3.02,3.17c-0.21,0.27-0.39,0.5-0.52,0.66
	c-0.76,0.93-2.27,1.47-2.33,1.5l-0.08,0.03l-0.09-0.01c-0.61-0.11-1.2-0.68-1.29-1.02l-0.06-0.21l0.17-0.2
	c0.03-0.03,0.16-0.18,0.36-0.42c5.95-7.01,10.32-10.58,12.97-10.62h0.43c4.3,0,5.53,1.06,6.26,1.7c0.24,0.21,0.37,0.32,0.51,0.34H84
	c0.29,0,0.38-0.13,0.55-0.55c0.13-0.3,0.27-0.64,0.59-0.81c0.41-0.22,1.02,0.16,2.27,1c0.82,0.55,1.94,1.31,2.42,1.31
	c0.67-0.23,0.32-1.74,0.14-2.46l-0.04-0.17c-0.05-0.21,0.02-0.35,0.08-0.43c0.07-0.08,0.18-0.17,0.4-0.17
	c0.28,0,0.68,0.16,1.35,0.45c0.74,0.31,1.67,0.7,2.28,0.7c0.17,0,0.3-0.03,0.38-0.09c0.42-0.28,0.36-0.47,0.14-0.95
	c-0.15-0.32-0.31-0.69-0.17-1.09s0.39-0.49,0.57-0.49c0.21,0,0.39,0.11,0.61,0.25c0.25,0.16,0.57,0.35,1.01,0.43l0,0
	c1.23,0,5.29-3.2,5.36-3.95c-0.05-0.25-0.84-0.69-4.28-1.42c-0.3-0.06-0.54-0.11-0.71-0.15h-0.01c-0.45,0-1.21,0.65-1.81,1.17
	c-0.87,0.75-1.7,1.44-2.35,1.28c-0.72-0.18-0.81-0.91-0.88-1.44c-0.08-0.6-0.14-0.79-0.38-0.82c-0.65,0-1.93,1.63-2.47,2.32
	c-0.34,0.43-0.48,0.61-0.6,0.69c-0.45,0.3-1.61,0.51-2.3,0.17c-0.54-0.27-0.51-0.69-0.49-0.97c0.02-0.26,0.04-0.49-0.26-0.82
	c-0.2,0.02-0.7,0.79-1.01,1.25c-0.6,0.9-1.22,1.84-1.95,2.06c-0.28,0.09-0.62,0.23-0.97,0.37c-0.16,0.07-0.32,0.13-0.48,0.19
	c0.64-0.05,1.42-0.13,2.29-0.2c0.55-0.39,1.79-1.34,2.07-1.84c0.1-0.17,0.3-0.22,0.47-0.13c0.16,0.09,0.22,0.3,0.13,0.46
	c-0.23,0.4-0.84,0.95-1.38,1.38c1.14-0.11,2.33-0.22,3.47-0.33l0.11-0.06c0.8-0.42,2.97-1.62,3.45-2.22
	c0.12-0.15,0.33-0.17,0.48-0.05s0.17,0.33,0.05,0.48c-0.37,0.47-1.42,1.14-2.31,1.65c3.93-0.57,8.28-3.22,8.33-3.25
	c0.16-0.1,0.37-0.05,0.47,0.11s0.05,0.37-0.11,0.47c-0.19,0.11-4.48,2.74-8.53,3.33c1.02,0.34,1.9,0.59,2.13,0.55
	c0.18-0.02,0.36,0.1,0.39,0.28c0.03,0.19-0.1,0.36-0.28,0.39L92.1,59.2c-0.73,0-2.78-0.72-3.68-1.05c-1.23,0.13-2.54,0.25-3.77,0.36
	c0.83,0.39,1.94,0.89,2.66,1.12c0.18,0.06,0.28,0.25,0.23,0.43c-0.05,0.15-0.18,0.24-0.33,0.24l-0.1-0.01
	c-1.2-0.37-3.35-1.43-3.78-1.65c-2.18,0.2-3.87,0.34-3.9,0.34H79.4c-0.17,0-0.32-0.14-0.34-0.31c0-0.04,0-0.08,0.02-0.12
	c-0.18-0.05-0.34-0.12-0.45-0.25c-0.19-0.23-0.24-0.56-0.16-1c0.42-2.21,10.79-6.4,12.46-6.69l0.2-0.04
	c1.99-0.35,3.16-0.53,3.88-0.24l0.68,0.28c1.46,0.58,1.8,0.72,2.71,0.76l0.14-0.02c0.1-0.12-0.02-0.68-0.07-0.94
	c-0.1-0.46-0.18-0.83-0.01-1.09c0.13-0.21,0.4-0.32,1.43-0.32c0.95,0,2.26,0.1,3.13,0.17c0.41,0.03,0.72,0.05,0.83,0.05
	c0.23,0,0.54,0.13,1.18,0.41c0.75,0.32,1.78,0.76,2.41,0.76c0.13,0,0.23-0.02,0.3-0.05c0.44-0.25,0.23-1.55-0.05-2.35l-0.04-0.1
	l0.2-0.68l0.23-0.02c3.88-0.34,7.08-2.81,7.5-3.51c-0.84-0.53-4.76-2.97-6.14-3.32c-0.61-0.15-0.79-0.02-1.2,0.47
	c-0.33,0.4-0.79,0.95-1.76,1.32c-0.21,0.08-0.41,0.12-0.58,0.12c-0.54,0-0.78-0.39-0.94-0.65c-0.16-0.26-0.23-0.34-0.4-0.34
	c-0.48,0-1.48,0.61-2.94,1.81c-1.28,1.05-2.1,1.51-2.68,1.51c-0.72,0-0.87-0.68-0.95-1.05c-0.02-0.11-0.06-0.27-0.09-0.33
	c0,0.03-0.23,0.1-0.92,0.75c-5.11,4.83-15.58,9.64-16.7,9.64h-0.14l-0.17-0.12c-0.1-0.1-0.15-0.23-0.14-0.38
	c0.01-0.49,0.64-1.15,1.96-2.36l0.33-0.3c0.28-0.26,1.32-0.66,3.13-1.33c1.64-0.6,4.37-1.61,4.63-2.02c0.07-0.23-0.32-0.6-0.61-0.87
	c-0.33-0.31-0.61-0.58-0.48-0.92c0.11-0.31,0.47-0.37,0.84-0.39c1.53-0.08,6.87-1.79,7.77-2.93c0.2-0.26,0.19-0.27-0.13-0.62
	c-0.25-0.28-0.59-0.65-0.78-1.28c-0.24-0.78,0.34-1.47,0.86-2.07c0.31-0.37,0.67-0.79,0.64-1.05c0-0.04-0.01-0.14-0.18-0.28
	c-0.03,0.01-0.31-0.04-0.97-0.04c-2.29,0-4.82,0.46-5.01,0.91c-0.29,0.67-1.09,1.03-2.32,1.03c-0.71,0-1.52-0.13-2.24-0.34l0,0
	c-0.5,0-1.05,1.9-1.38,3.03c-0.51,1.78-0.96,3.31-1.8,3.55c-0.99,0.28-1.24-0.33-1.35-0.68c-0.1-0.31-0.13-0.42-0.49-0.42
	c-0.7,0.02-1.35,3.73-1.59,5.12c-0.23,1.28-0.34,1.91-0.49,2.16c-0.41,0.67-3.56,4.49-5.71,6.02c-0.02,0.02-0.16,0.18-0.38,0.42
	c-4.1,4.58-6.55,6.72-7.73,6.72c-0.36,0-0.63-0.18-0.77-0.49c-0.58-1.27,1.95-3.52,5.31-6.34c0.91-0.76,1.92-1.61,2.22-1.97
	c-0.27-0.08-0.88-0.1-1.23-0.11c-0.89-0.03-1.38-0.05-1.46-0.46c-0.07-0.39,0.33-0.63,1.26-1.02c2.52-1.06,3.49-2.07,3.52-2.49
	l-0.07-0.12c-0.26-0.16-0.39-0.37-0.41-0.61c-0.04-0.52,0.47-0.96,1.24-1.64c1.01-0.88,2.33-2.05,2.82-3.73
	c-2.55,0.97-4.58,3.29-6.22,5.18c-0.36,0.41-0.7,0.8-1.02,1.15c0.93-0.06,2.18-0.19,2.83-0.52c0.17-0.08,0.37-0.02,0.46,0.15
	c0.08,0.17,0.02,0.38-0.15,0.46c-0.97,0.49-2.93,0.6-3.83,0.63c-0.18,0.17-0.35,0.32-0.52,0.44c-0.94,0.7-2.33,3.38-3.46,5.89
	c1.2-0.85,2.56-1.92,2.73-2.4c0.07-0.18,0.27-0.26,0.44-0.2c0.18,0.07,0.27,0.26,0.2,0.44c-0.36,0.99-3.23,2.91-3.9,3.35
	c-0.49,1.13-0.91,2.15-1.17,2.83c-0.04,0.1-0.14,0.16-0.23,0.19c-0.01,0.04-0.01,0.07-0.02,0.1c-0.01,0.06,0,0.17,0.02,0.31
	c0.12,0.98,0.35,2.8-4.84,8.59l-0.14,0.17l-0.98,0.88l-0.23-0.19l-0.07-0.08c0.02,0.24,0.03,0.47,0.04,0.67l0.01,0.14l-0.1,0.1
	c-3.57,3.9-5.51,8.4-6.68,11.08c-0.77,1.78-1.05,2.44-1.54,2.44c-0.48,0-0.61-0.63-0.71-1.27c-0.44-3.02,1.02-4.41,2.1-5.43
	c0.43-0.41,0.81-0.77,1.01-1.16c0.3-0.6-0.18-1.1-0.95-1.79c-0.56-0.5-1.08-0.97-1.03-1.56c0.07-0.7,1.14-1.47,2.89-2.65
	c0.94-0.64,2.51-1.7,2.52-2.07c-0.12-0.17-0.21-0.19-0.3-0.19c-0.11,0-0.25,0.03-0.41,0.07c-0.36,0.09-0.89,0.18-1.41,0.07
	c-0.28-0.06-0.38-0.24-0.42-0.35c-0.16-0.49,0.39-1.16,1.56-2.5c0.4-0.46,0.82-0.94,1.14-1.37c0.11-0.35,0.25-0.72,0.4-1.08
	C55.91,65.28,56.01,63.94,56.11,62.65z M56.98,67.13c-0.08,0.27-0.14,0.52-0.18,0.76l0.45,0.14l1.87-0.3L60,67.97l0.94-0.07
	c-0.04-1.2-0.54-2.62-1.13-3.56c-0.36-0.57-0.61-0.74-0.67-0.75c-0.25,0-0.91,0.69-1.55,1.99C57.74,66.02,57.38,66.6,56.98,67.13z
	 M56.73,68.59c0,0.59,0.28,0.92,1.14,1.37c0.33,0.17,0.52,0.8,0.64,1.51c0.03-0.18,0.08-0.39,0.15-0.64
	c0.24-0.84,0.79-0.88,1.19-0.92c0.43-0.04,0.76-0.07,1.01-1.12c0.02-0.07,0.02-0.14,0.03-0.21l-0.96,0.08l-0.85-0.22l-1.89,0.3
	L56.73,68.59z M59.91,70.6c-0.35,0.03-0.48,0.04-0.6,0.43c-0.09,0.3-0.13,0.53-0.15,0.7l0.38-0.38c0.25-0.27,0.48-0.54,0.7-0.79
	C60.14,70.58,60.02,70.59,59.91,70.6z M53.38,79.46c-0.25,0.5-0.68,0.91-1.15,1.35c-1.07,1.01-2.28,2.16-1.89,4.83
	c0.04,0.23,0.07,0.39,0.1,0.5c0.21-0.37,0.54-1.11,0.85-1.84c1.17-2.7,3.12-7.2,6.7-11.16c-0.06-1.22-0.27-2.4-0.46-2.58
	c-0.92-0.48-1.5-0.99-1.49-2c0-0.1,0.01-0.2,0.02-0.31c-0.11,0.13-0.22,0.26-0.33,0.38c-0.49,0.57-1.21,1.38-1.38,1.76
	c0.35,0.05,0.68-0.02,0.98-0.1c0.2-0.05,0.38-0.09,0.57-0.09c0.36,0,0.65,0.17,0.88,0.51c0.53,0.79-0.83,1.72-2.71,2.99
	c-1.02,0.69-2.56,1.73-2.6,2.15c-0.02,0.25,0.42,0.64,0.8,0.99C52.97,77.48,53.94,78.34,53.38,79.46z M72.09,48.65
	c-0.43,0.66-0.85,1.73-1.12,2.49c0.33-0.36,0.68-0.76,1.06-1.19c1.66-1.91,3.7-4.23,6.32-5.3c-0.2-0.02-0.43-0.03-0.7-0.03
	c-0.76,0-2.14,0.1-2.86,0.8c-1.44,1.39-1.97,1.67-2.32,1.67c-0.51,0-0.59-0.51-0.64-0.78c-0.06-0.37-0.09-0.37-0.17-0.37l-0.11,0.02
	c-1.13,0.23-1.4,1.97-1.66,3.64c-0.18,1.17-0.35,2.27-0.85,2.87c-0.32,0.4-0.68,0.59-1.09,0.59c-0.45,0-0.86-0.23-1.3-0.48
	c-0.5-0.28-1.01-0.57-1.59-0.5c-0.56,0.07-0.65,2.89-0.28,8.38c0.02,0.39,0.05,0.7,0.07,0.98c0.21-0.53,0.51-1.25,0.86-2.06
	c-0.04-0.85-0.2-4.41,0.2-5.34c0.07-0.17,0.27-0.26,0.45-0.18c0.17,0.07,0.26,0.28,0.18,0.45c-0.2,0.47-0.23,2.15-0.19,3.67
	c1.1-2.4,2.48-5.05,3.53-5.83c0.01-0.01,0.02-0.02,0.04-0.03l0.09-0.29c0.03-0.1,0.73-2.37,1.5-3.56c0.1-0.16,0.31-0.2,0.47-0.1
	C72.15,48.28,72.2,48.49,72.09,48.65z M90.51,47.37c-0.18,0.55-1.47,1.11-5.03,2.43c-1.2,0.45-2.7,1-2.9,1.19l-0.33,0.31
	c-0.36,0.33-1.2,1.1-1.56,1.57c2.14-0.69,11.21-4.99,15.84-9.36l0.1-0.09c-2.09,1.12-5.76,2.16-6.96,2.23h-0.06l0.13,0.12
	C90.15,46.17,90.72,46.71,90.51,47.37z M58.46,87.89c0,0.27-0.1,6.7-3.13,11.15c-0.12,0.17-0.24,0.36-0.36,0.54
	c1.42-0.94,2.64-1.87,2.76-2.2c0.07-0.18,0.26-0.27,0.43-0.21c0.18,0.06,0.27,0.26,0.21,0.44c-0.29,0.82-3.04,2.58-4.29,3.35
	c-0.52,0.83-1.04,1.69-1.55,2.54c-0.37,0.61-0.74,1.21-1.1,1.8c1.21-0.94,2.47-1.73,3.08-1.48c0.17,0.07,0.26,0.27,0.19,0.45
	c-0.07,0.17-0.27,0.26-0.44,0.19c-0.39-0.15-2.19,1.11-4.05,2.79c-0.49,0.75-0.96,1.45-1.44,2.07c0.92-0.63,1.93-1.3,3.02-2.01
	c2.02-1.34,4.55-3,4.73-3.43c0.12-0.42,0.07-0.52,0.07-0.54c-0.02-0.04-0.21-0.09-0.33-0.13c-0.18-0.05-0.42-0.11-0.66-0.24
	c-0.14-0.07-0.23-0.19-0.26-0.34c-0.09-0.46,0.45-1.1,1.67-2.5c1.17-1.34,2.78-3.18,2.68-4.06c-0.03-0.23-0.07-0.23-0.17-0.23
	s-0.2,0.02-0.29,0.04c-0.6,0.1-1.01-0.09-1.04-0.63c-0.02-0.45,0.4-0.95,1.14-1.79c0.56-0.64,1.41-1.6,1.3-2
	c-0.03-0.11-0.2-0.18-0.34-0.22c-1.37-0.41-1.07-2.06-0.86-3.16c0.07-0.4,0.18-0.99,0.11-1.13c0,0.03-0.08,0.04-0.22,0.1
	c-0.43,0.17-0.71,0.39-0.93,0.63C58.42,87.72,58.46,87.8,58.46,87.89z M44.98,137.94c0.16-0.85,0.18-2.79,0.11-4.51
	c-0.12-0.35-0.36-1.11-0.58-2C44.63,134.45,44.79,136.95,44.98,137.94z M47.7,148.01c0.07,0.47,0.36,0.77,1.13,1.17
	c0.33,0.18,0.55,0.91,0.62,1.65c0.02-0.22,0.08-0.47,0.17-0.78c0.24-0.84,0.79-0.88,1.19-0.92c0.43-0.04,0.76-0.07,1.01-1.12
	c0.01-0.02,0.01-0.05,0.01-0.07l-1.08,0.09l-0.85-0.22l-1.89,0.3L47.7,148.01z M48.06,147.41l1.87-0.3l0.88,0.23l1.09-0.09
	c0-1.23-0.52-2.73-1.14-3.7c-0.36-0.57-0.61-0.74-0.67-0.75c-0.53,0-2.11,2.52-2.37,4.5L48.06,147.41z M50.86,149.82
	c-0.35,0.03-0.48,0.04-0.6,0.43c-0.14,0.49-0.17,0.79-0.16,0.96l0.92-0.22c0.05-0.28,0.16-0.76,0.32-1.25
	C51.19,149.78,51.03,149.81,50.86,149.82z M53.03,148.59l0.23,0.61l1.4,1.06l0.37,0.85l0.53,0.57c0.55-0.89,1.07-2.52,1.05-3.56
	c-0.01-0.39-0.1-0.58-0.17-0.63c-0.11-0.06-0.27-0.1-0.46-0.1c-0.86,0-2.16,0.6-2.97,1.15C53.01,148.56,53.02,148.57,53.03,148.59z
	 M68.09,190.17c0.5,1.04,1.19,2.47,1.63,2.51c0.26,0.02,0.62,0.06,1.02,0.1c0.88,0.1,1.97,0.22,2.73,0.22
	c0.19,0,0.34-0.01,0.44-0.02c-0.42-0.33-1.31-0.9-2.12-1.42c-1.46-0.93-3.32-2.11-4.69-3.27C67.43,188.8,67.74,189.46,68.09,190.17z
	 M46.56,164.96c0.17-0.08,0.37-0.02,0.46,0.15c0.33,0.67,0.38,2.9,0.38,4.02c1.28,1.1,2.61,2.05,3.68,2.31
	c-0.18-0.09-0.36-0.19-0.54-0.29c-0.42-0.24-0.85-0.49-1.3-0.65c-0.92-0.32-1.16-2.19-1.4-4c-0.1-0.79-0.24-1.86-0.41-2.12
	c-0.25,0.01-0.44,0.04-0.65,0.08c-0.36,0.07-0.73,0.14-1.39,0.04c-0.79-0.12-0.68-1.52-0.52-3.65c0.08-1.08,0.26-3.34-0.09-3.53
	c-0.49-0.12-0.87,0.08-1.24,0.31c-0.35,0.21-0.71,0.43-1.19,0.35c-0.6-0.11-0.73-1.05-0.93-3.7c-0.1-1.29-0.27-3.45-0.61-3.72
	c-0.38-0.31-0.91-0.01-1.37,0.26c-0.15,0.09-0.3,0.17-0.42,0.23l-0.07,0.03l-0.14,0.01c-0.4,0-0.7-0.42-1.11-1.01
	c-0.29-0.4-0.77-1.08-1.03-1.08l-0.11,0.06c-0.37,0.35-0.12,1.43,0.08,2.3c0.21,0.9,0.39,1.68,0.13,2.19
	c-0.29,0.58-0.86,0.58-1.04,0.58c-0.12,0-0.24-0.01-0.35-0.02c-0.1-0.01-0.19-0.01-0.28-0.01c-0.24,0-0.27,0.04-0.3,0.21
	c-0.34,2.03,1.65,3.93,3.11,5.32c1.07,1.01,1.83,1.75,1.3,2.32c-0.15,0.16-0.38,0.37-0.69,0.37c-0.18,0-0.31-0.07-0.42-0.12
	c-0.09-0.04-0.14-0.07-0.2-0.07c-0.12,0-0.32,0.12-0.56,0.34c0.01,0.61,1.84,1.94,3.06,2.82c1.87,1.37,2.52,1.89,2.39,2.4
	c-0.05,0.2-0.22,0.54-0.77,0.54c-0.17,0-0.38-0.04-0.58-0.07c-0.17-0.03-0.34-0.06-0.49-0.06c-0.18,0-0.19,0.02-0.2,0.18
	c-0.03,0.58,0.92,1.21,1.84,1.83c0.55,0.37,1.11,0.75,1.59,1.18c0.34,0.31,2.28,0.36,3.7,0.4c0.81,0.02,1.5,0.04,2.09,0.09
	c-0.83-0.4-1.7-1.02-2.57-1.73v0.02l-0.3,0.03c-0.04,0.01-0.43,0.05-1,0.05c-1.07,0-2.76-0.15-4.02-0.96
	c-0.16-0.1-0.21-0.31-0.1-0.48c0.1-0.16,0.32-0.2,0.47-0.1c1.39,0.9,3.46,0.88,4.25,0.84c-1.02-0.9-2.01-1.88-2.83-2.7
	c-0.36-0.36-0.67-0.66-0.92-0.91c-0.05,0.02-0.1,0.04-0.14,0.04l-0.15,0.02c-0.54,0-1.12-0.55-1.83-1.24
	c-0.51-0.49-1.1-1.05-1.6-1.29c-0.17-0.08-0.24-0.29-0.16-0.46c0.08-0.17,0.29-0.24,0.46-0.16c0.6,0.29,1.2,0.86,1.77,1.41
	c0.29,0.28,0.69,0.66,0.99,0.87c-0.9-1.34-1.88-3.76-2.75-6.23c-1.82-1.15-3.79-2.61-3.53-3.41c0.06-0.18,0.25-0.27,0.43-0.22
	c0.18,0.06,0.28,0.25,0.22,0.43c0.04,0.28,1.12,1.19,2.52,2.13c-1.16-3.41-2.04-6.62-2.11-6.88c-0.05-0.18,0.05-0.37,0.24-0.42
	c0.18-0.05,0.37,0.06,0.42,0.24c0.02,0.07,0.91,3.32,2.07,6.76c0.15-1.4,0.27-3.35-0.02-4.19c-0.06-0.18,0.04-0.37,0.21-0.43
	s0.37,0.03,0.43,0.21c0.52,1.52-0.07,5.53-0.1,5.7l-0.02,0.17c0.84,2.37,1.77,4.62,2.59,5.81c0.33-1.32,0.45-4.38,0.46-5.57
	c0-0.19,0.15-0.34,0.34-0.34h0.01c0.19,0,0.34,0.16,0.34,0.35c0,0.2-0.07,4.82-0.63,6.18c0.26,0.25,0.58,0.57,0.95,0.94
	c0.64,0.64,1.48,1.47,2.37,2.29c-0.02-1.28-0.11-2.71-0.3-3.11C46.32,165.25,46.39,165.04,46.56,164.96z M52.43,171.19
	c-0.3-0.96-2.17-4.19-3.1-5.81l-0.54-0.93c-0.71-1.1-2.03-4.06-3.21-6.98c0.16,0.73,0.09,1.9-0.03,3.43
	c-0.08,1.07-0.21,2.7,0.01,2.95l0,0c0.13,0,0.3,0.01,0.45,0.01c0.25,0,0.45-0.04,0.66-0.08c0.23-0.04,0.49-0.09,0.84-0.09
	c0.66,0,0.79,1.02,1.01,2.72c0.16,1.22,0.42,3.26,0.95,3.44c0.51,0.18,0.97,0.45,1.41,0.7C51.43,170.88,51.96,171.19,52.43,171.19z
	 M36.93,101.82c-0.25,0.29-0.61,0.29-0.73,0.29c-0.1,0-0.21-0.01-0.32-0.02c-0.35-0.03-0.67-0.07-0.87,0.33
	c-0.82,1.62,2.48,3.98,3.56,4.75l0.08,0.06c0.18,0.13,0.34,0.28,0.5,0.46c-0.09-0.45-0.18-0.97-0.27-1.53l-0.05-0.05
	c-0.83-0.79-2.76-2.7-2.76-3.47c0-0.19,0.15-0.34,0.34-0.34l0,0c0.19,0,0.34,0.15,0.34,0.34c0.03,0.31,0.95,1.39,1.96,2.4
	c-0.26-1.86-0.43-3.99-0.24-5.79c-0.83-1.29-2.52-4.14-1.92-5.01c0.11-0.15,0.31-0.19,0.46-0.08c0.15,0.1,0.2,0.32,0.1,0.48
	c-0.18,0.29,0.5,1.87,1.52,3.57c0.15-0.87,0.32-1.99,0.48-3.21v-0.02c-0.16-0.66-0.95-4-0.74-4.89c0.05-0.19,0.23-0.3,0.41-0.25
	c0.18,0.04,0.3,0.23,0.26,0.41c-0.09,0.37,0.1,1.55,0.34,2.74c0.5-4.1,0.92-8.51,0.95-8.82c0,0,0,0-0.01,0
	c-0.29,0-1.31,0.37-2.08,5.17c-0.45,2.76-1.03,3.94-1.95,3.94c-0.27,0-0.51-0.11-0.7-0.19l-0.25-0.1c-0.23,0.44,0.12,1.32,0.55,2.45
	c0.43,1.12,0.97,2.51,1.23,4.22C37.28,100.82,37.23,101.47,36.93,101.82z M28.66,125.04c0,0.42,0.03,0.83,0.03,1.24
	c0.08-0.11,0.18-0.2,0.3-0.27c0.21-0.12,0.43-0.17,0.63-0.17c0.46,0,0.76,0.29,0.98,0.5l0.2,0.17c0.08-0.21-0.18-1.05-0.37-1.66
	c-0.46-1.46-1.1-3.46-0.68-5.55c0.21-1.05,0.63-1.27,1.19-1.27h0.19c0.34,0,0.85,0,1.46-1.75c0.43-1.23,0.87-1.78,1.4-1.78
	c0.79,0,1.23,1.2,1.64,2.54l0.1,0.31c0.04,0.11,0.07,0.15,0.07,0.15l0.18-0.11c0.2-0.09,0.44-0.21,0.74-0.21
	c0.36,0,0.69,0.17,0.99,0.51c0.62,0.68,0.06,1.9-0.53,3.18c-0.38,0.82-0.85,1.85-0.68,2.25c0.02,0.05,0.07,0.11,0.2,0.16
	c0.57,0.19,0.91,0.08,1.18-0.06c0.14-0.08,0.3-0.17,0.5-0.17c0.37,0,0.67,0.31,0.93,0.65c1.18,1.48-0.6,4.4-1.4,5.1
	c-0.26,0.22-0.42,0.87-0.42,1.62c0.01,0.75,0.19,1.34,0.36,1.49c0.03,0.03,0.09,0.06,0.24,0.06c0.18,0,0.42-0.05,0.64-0.11
	c0.26-0.07,0.54-0.13,0.8-0.13c0.37,0,0.65,0.13,0.83,0.4c0.35,0.49,0.17,1.15-0.09,2.05c-0.21,0.77-0.48,1.72-0.51,2.89
	c-0.04,1.5,0.86,2.49,1.47,2.98c-0.2-3.08-0.97-14.96-0.92-16.79c0.05-1.96-0.22-11.5-0.24-12.26c-0.11-0.33-0.83-2.48-1.84-3.2
	l-0.08-0.06c-1.33-0.95-4.86-3.47-3.78-5.62c0.37-0.72,0.98-0.72,1.19-0.72c0.12,0,0.24,0.01,0.35,0.02
	c0.09,0.01,0.18,0.02,0.26,0.02c0.16,0,0.19-0.04,0.21-0.05c0.07-0.08,0.2-0.39,0.02-1.61c-0.25-1.63-0.77-2.99-1.19-4.07
	c-0.52-1.35-0.89-2.32-0.46-3.05c0.23-0.39,0.7-0.34,1.07-0.17c0.15,0.07,0.3,0.13,0.42,0.13c0.22,0,0.79-0.33,1.28-3.36
	c0.62-3.87,1.52-5.75,2.75-5.75c0.71,0,1.21,0.66,1.39,0.95c0.22,0.35,0.43,1.08,0.66,1.91c0.23,0.81,0.77,2.7,1.12,2.78l0.08-0.06
	c0.45-0.45,0.9-0.42,1.11-0.03c0.38,0.69-0.06,2.71-0.44,3.32c-0.29,0.47-0.37,0.88-0.32,0.99c0.01,0.02,0.26,0.11,1.09-0.27
	c0.53-0.25,0.88-0.16,1.02,0.16c0.45,1-2.94,5.25-2.97,5.3c-0.63,0.72-0.6,0.93-0.6,0.94c0.05,0.06,0.38,0.11,0.56,0.13
	c0.18,0.03,0.36,0.05,0.51,0.1c0.19,0.06,0.3,0.23,0.32,0.51c0.07,0.91-0.59,3.93-2.23,4.71c-0.26,0.12-0.44,0.41-0.53,0.85
	c-0.23,1.12,0.19,2.82,0.5,3.65c0.35-1.01,0.99-3.31,1.57-5.38c0.81-2.88,1.72-6.15,2.37-7.99c0.82-2.31,1.61-4.97,2.15-6.72
	c0.27-0.89,0.47-1.56,0.57-1.85c0.05-0.29-0.58-1.73-1.12-3.01c-1.02-2.37-2.42-5.61-2.52-7.85c-0.07-1.62,0.08-2.5,0.52-2.95
	c0.51-0.53,1.33-0.42,2.73,0.08c0.09,0.03,0.14,0.04,0.16,0.04c0.19-0.22-0.15-1.62-0.36-2.46c-0.38-1.52-0.73-2.95-0.24-3.59
	c0.11-0.15,0.32-0.33,0.69-0.34c0.7-0.01,0.96-0.7,1.28-1.76c0.1-0.32,0.21-0.64,0.34-0.92C36.55,81.28,28.66,102.25,28.66,125.04z
	 M221.44,125.04c0-53.42-43.24-96.88-96.39-96.88c-30.14,0-57.08,13.98-74.77,35.82c0.14-0.08,0.3-0.14,0.49-0.14
	c1.63,0,1.96-0.97,2.23-1.76c0.08-0.23,0.14-0.42,0.24-0.57c0.99-1.56,2.01-1.72,2.4-1.72c0.28,0,0.54,0.07,0.73,0.22
	c0.6,0.45,0.51,1.53,0.42,2.68c-0.08,1-0.17,2.14,0.27,2.42c0.4-0.78,1.24-2.21,2.07-2.21l0.12,0.01c0.32,0.05,0.67,0.37,1.05,0.94
	c0.87,1.31,1.6,3.55,1.23,5.11l-0.02,0.08c2.97-3.75,2.8-5.06,2.72-5.74c-0.02-0.19-0.05-0.37,0-0.56c0.03-0.18-0.04-1.22-0.11-2.22
	c-0.4-5.92-0.38-8.95,0.88-9.11c0.79-0.1,1.45,0.27,2.01,0.58c0.36,0.2,0.69,0.39,0.96,0.39c0.12,0,0.32-0.04,0.56-0.34
	c0.37-0.46,0.54-1.52,0.7-2.54c0.28-1.82,0.6-3.89,2.2-4.21c0.93-0.19,1.03,0.58,1.08,0.91l0.04,0.19c0.17-0.06,0.62-0.34,1.78-1.46
	c0.85-0.82,2.28-0.99,3.33-0.99c0.07,0,1.6,0.01,1.87,0.3l0.1,0.11l-0.01,0.16c-0.27,2.38-2.04,3.93-3.21,4.95
	c-0.4,0.36-1.02,0.9-1.01,1.07l0.1,0.08c0.27,0.17,0.41,0.44,0.38,0.76c-0.08,0.91-1.55,2.05-3.94,3.06
	c-0.14,0.06-0.26,0.11-0.36,0.16c0.11,0.01,0.22,0.01,0.32,0.01c0.99,0.03,1.6,0.08,1.86,0.41c0.1,0.13,0.13,0.28,0.09,0.44
	c-0.09,0.38-0.73,0.94-2.52,2.44c-1.8,1.5-5.53,4.63-5.12,5.52c0.03,0.07,0.06,0.09,0.15,0.09c0.65,0,2.43-1.13,7.23-6.49
	c0.4-0.45,0.43-0.48,0.48-0.52c2.07-1.48,5.17-5.25,5.53-5.83c0.1-0.17,0.26-1.1,0.4-1.92c0.58-3.3,1.08-5.65,2.19-5.68l0,0
	c0.92,0,1.11,0.58,1.2,0.9c0.09,0.28,0.1,0.28,0.21,0.28l0,0c0.08,0,0.18-0.02,0.3-0.05c0.48-0.14,0.97-1.84,1.33-3.08
	c0.55-1.9,1.02-3.54,1.99-3.54l0.24,0.04c0.66,0.2,1.4,0.31,2.05,0.31c0.91,0,1.53-0.22,1.7-0.62c0.55-1.29,5.58-1.32,5.64-1.32
	c1.17,0,1.32,0.13,1.41,0.2c0.26,0.22,0.4,0.47,0.42,0.75c0.05,0.55-0.36,1.04-0.8,1.56c-0.42,0.49-0.85,1.01-0.72,1.43
	c0.15,0.49,0.41,0.77,0.63,1.02c0.32,0.35,0.72,0.8,0.16,1.51l-0.15,0.16c0.63-0.16,0.81,0.47,0.89,0.82
	c0.1,0.46,0.16,0.51,0.29,0.51c0.22,0,0.8-0.17,2.25-1.36c2.13-1.74,2.92-1.96,3.37-1.96c0.57,0,0.82,0.4,0.98,0.67
	c0.26,0.42,0.34,0.39,0.7,0.25c0.8-0.31,1.16-0.74,1.47-1.12c0.4-0.48,0.86-0.96,1.89-0.7c1.63,0.42,6.26,3.35,6.45,3.48
	c0.17,0.07,0.27,0.28,0.23,0.52c-0.16,0.97-3.81,3.7-7.92,4.15l-0.01,0.03c0.17,0.53,0.73,2.5-0.3,3.08
	c-0.7,0.39-2.18-0.19-3.3-0.67c-0.36-0.15-0.8-0.34-0.92-0.35c-0.11,0-0.44-0.02-0.88-0.06c-0.86-0.07-2.16-0.16-3.08-0.16
	c-0.51,0-0.75,0.03-0.85,0.05c0.01,0.11,0.06,0.36,0.1,0.53c0.11,0.54,0.24,1.14-0.06,1.52c-0.1,0.13-0.29,0.27-0.64,0.27
	c-1.08-0.05-1.49-0.21-2.99-0.82l-0.68-0.27c-0.55-0.22-1.68-0.04-3.52,0.28l-0.21,0.04c-2.31,0.4-11.61,4.62-11.9,6.15
	c-0.06,0.32,0,0.42,0.01,0.43c0.03,0.04,0.11,0.05,0.22,0.05c0.45,0,1.2-0.31,1.86-0.58c0.38-0.16,0.74-0.3,1.03-0.39
	c0.49-0.15,1.09-1.06,1.58-1.79c0.58-0.88,1.04-1.57,1.58-1.57c0.13,0,0.33,0.04,0.51,0.25c0.48,0.55,0.45,1.01,0.42,1.32
	c-0.02,0.25-0.02,0.25,0.12,0.32c0.48,0.24,1.38,0.03,1.61-0.13c0.05-0.04,0.26-0.31,0.44-0.54c1.02-1.31,2.1-2.58,2.98-2.58
	l0.13,0.01c0.79,0.11,0.89,0.87,0.96,1.41s0.13,0.8,0.37,0.86h0.01c0.42,0,1.14-0.63,1.73-1.14c0.89-0.77,1.75-1.48,2.42-1.32
	c0.16,0.04,0.4,0.09,0.69,0.15c3.17,0.66,4.87,1.2,4.82,2.12c-0.06,1.16-4.55,4.6-6,4.6l-0.16-0.02c-0.57-0.1-0.98-0.35-1.24-0.52
	l-0.18-0.11c-0.05,0.14,0.05,0.36,0.15,0.58c0.2,0.44,0.54,1.18-0.38,1.8c-0.2,0.14-0.46,0.2-0.77,0.2c-0.75,0-1.75-0.42-2.55-0.75
	c-0.28-0.12-0.6-0.25-0.83-0.33c0.24,1.01,0.59,2.71-0.54,3.12c-0.66,0.24-1.9-0.57-3.09-1.37c-0.59-0.4-1.4-0.95-1.63-0.95
	c-0.05,0.04-0.13,0.25-0.22,0.46c-0.17,0.42-0.42,1.07-1.27,0.97c-0.36-0.04-0.61-0.25-0.89-0.5c-0.66-0.57-1.76-1.53-5.81-1.53
	l-0.42,0.01c-1.68,0.02-5.21,1.85-12.46,10.38c-0.1,0.12-0.19,0.22-0.26,0.3c0.12,0.14,0.34,0.34,0.59,0.41
	c0.32-0.13,1.39-0.59,1.94-1.25c0.12-0.15,0.3-0.38,0.51-0.64c1.96-2.53,3.12-3.74,3.86-3.36c0.65,0.33,0.62,0.97,0.61,1.36
	c-0.01,0.11-0.01,0.27,0.01,0.32c0.35-0.05,1.77-1.74,2.62-2.75c1.56-1.86,2.3-2.67,2.86-2.67c0.93,0.09,1.43,0.86,1.83,1.49
	c0.14,0.22,0.39,0.6,0.49,0.63c0.71-0.53,3.01-1.76,4.24-1.76c0.4,0,0.68,0.12,0.85,0.36c0.45,0.66-0.42,1.54-1.35,2.46
	c-0.4,0.41-1.02,1.02-1.04,1.23c0.07,0.05,0.18,0.17,0.29,0.29c0.32,0.35,0.65,0.71,0.61,1.16c-0.02,0.25-0.15,0.47-0.39,0.66
	c-0.37,0.29-1.18,0.41-2.11,0.54c-0.8,0.12-2.15,0.31-2.3,0.63c-0.14,0.29-0.07,0.49,0.02,0.77c0.11,0.32,0.25,0.76-0.1,1.29
	c-0.15,0.23-0.41,0.35-0.77,0.35c-0.67,0-1.66-0.4-2.54-0.76c-0.51-0.21-1.04-0.43-1.26-0.45c-0.14-0.01-0.29-0.04-0.44-0.07
	c-0.36-0.07-0.75-0.06-0.76-0.06c0,0-0.03,0.1,0.06,0.39c0.13,0.41,0.49,0.84,0.85,1.25c0.48,0.56,0.89,1.05,0.79,1.56
	c-0.05,0.27-0.24,0.5-0.56,0.66c-0.86,0.45-2.72,0.09-4.28-0.27c-0.66-0.15-1.29-0.29-1.65-0.31c-0.25-0.01-0.64-0.05-1.1-0.09
	c-0.85-0.08-2.02-0.19-2.98-0.19c-1.36,0-1.53,0.23-1.54,0.24l-0.3-0.1l0.1,0.24c-0.5,0.31-5.02,5.81-7.58,9.99
	c-2.36,3.86-10.42,20.95-9.36,26.04c0.07,0.34,0.15,0.41,0.15,0.41c0.27-0.07,1.13-1.47,1.98-3.63c0.37-0.93,0.41-2.5,0.44-3.76
	c0.05-1.63,0.07-2.53,0.65-2.64c0.64-0.12,1.26,0.08,1.78,0.24c0.64,0.2,1.11,0.34,1.4-0.09c0.3-0.45,0.08-2.58-0.07-4.13
	c-0.28-2.76-0.35-3.92,0.18-4.26c0.19-0.12,0.4-0.18,0.63-0.18c0.63,0,1.27,0.46,1.84,0.87c0.29,0.21,0.69,0.5,0.85,0.51l0.03-0.12
	c0.09-0.44,0.06-1.14,0.04-1.82c-0.05-1.17-0.09-2.27,0.38-2.76c0.24-0.25,0.58-0.32,0.97-0.19c0.21,0.07,0.4,0.11,0.54,0.11
	c0.29,0,0.39-0.13,0.64-0.64c0.28-0.56,0.66-1.32,1.81-1.78c0.54-0.22,0.87-0.05,1,0.11c0.28,0.34,0.17,0.93,0.03,1.69
	c-0.23,1.22-0.34,2.16,0.38,2.38c0.44,0.13,0.71,0.36,0.8,0.69c0.21,0.76-0.63,1.71-1.45,2.64c-0.38,0.44-0.97,1.1-0.97,1.31
	c0.07,0.02,0.15,0.01,0.24-0.01c0.14-0.02,0.28-0.05,0.41-0.05c0.28,0,0.76,0.11,0.84,0.84c0.14,1.18-1.45,2.99-2.84,4.59
	c-0.58,0.67-1.3,1.49-1.47,1.84c0.14,0.05,0.27,0.09,0.4,0.13c0.29,0.08,0.59,0.16,0.75,0.46c0.14,0.25,0.13,0.57-0.01,1.06
	c-0.17,0.57-1.58,1.55-5.01,3.81c-3,1.97-7.54,4.97-7.72,6.04c-0.21,1.25-0.21,7.45-0.06,13.3c0.07-0.11,0.14-0.2,0.23-0.28
	c0.14-0.12,0.29-0.17,0.44-0.17c0.29,0,0.48,0.2,0.65,0.38c0.26,0.27,0.51,0.52,1.07,0.42c0.47-0.09,0.15-3.21,0.04-4.38
	c-0.24-2.41-0.28-3.21,0.17-3.47c0.48-0.27,0.76-0.24,1.07-0.16c0.16,0.04,0.35,0.1,0.69,0.11c0.04-0.1,0.07-0.3,0.1-0.46
	c0.14-0.74,0.36-1.93,1.57-2.29c-0.02-0.71,0.01-2.09,0.41-2.52c0.14-0.15,0.3-0.18,0.4-0.18c0.39,0,0.8,0.35,1.51,2.03
	c1.14,2.72,1.13,3.04,1.13,3.25c0.02,0.07,0.27,0.51,0.45,0.84c0.91,1.61-0.33,3.99-0.79,4.88c-0.07,0.13-0.12,0.23-0.14,0.28
	c-0.01,0.05-0.04,0.13-0.14,0.34c-0.2,0.45-0.79,1.81-0.51,2.32c0.04,0.06,0.11,0.15,0.32,0.18c0.57,0.08,0.99,0.49,1.17,1.16
	c0.36,1.32-0.28,3.53-1.79,4.7c-3.32,2.56-5.56,4.4-6.39,6.47c-0.37,0.99,1.14,10.62,2.36,11.59c0.16,0.13,0.23,0.13,0.23,0.13
	c0.02-0.01,0.11-0.13,0.15-0.46c0.11-0.83-0.14-1.98-0.3-2.15c-0.91-0.47-1.48-0.98-1.48-1.99c0-0.04,0-0.08,0.01-0.12
	c-0.03-0.07-0.04-0.15-0.01-0.23c0.01-0.02,0.02-0.04,0.03-0.06c0.23-2.05,1.89-5.25,3.05-5.25l0.11,0.01
	c0.32,0.05,0.68,0.37,1.05,0.94c0.85,1.28,1.56,3.44,1.26,4.99c0.91-0.64,2.41-1.34,3.47-1.34c0.32,0,0.59,0.06,0.8,0.19
	c0.33,0.19,0.5,0.59,0.51,1.2c0.02,1.17-0.57,3.09-1.29,4.12c0.04,0.12,0.03,0.25-0.07,0.35c-0.07,0.06-0.15,0.09-0.23,0.09
	c-0.02,0-0.05-0.01-0.07-0.02c-0.06,0.05-0.11,0.12-0.17,0.15c-0.41,0.27-1.18,0.32-1.76,0.32c-0.52,0-1.51-0.06-1.87-0.29l0,0
	c0,0-0.31-0.15-0.71-0.15c-0.37,0-0.71,0.12-1.02,0.36c-0.72,0.55,0.4,8.46,1.41,9.95c0.62,0.91,1.39,2.14,2.29,3.55
	c2.44,3.84,6.49,10.21,7.92,10.69c-0.22-0.37-0.78-1.04-1.25-1.59c-1.36-1.61-2.89-3.44-2.59-4.64c0.11-0.45,0.69-0.51,1.25-0.57
	c0.1-0.01,0.22-0.02,0.33-0.04c-0.09-0.1-0.2-0.24-0.34-0.4c-3.35-3.97-4.32-5.61-3.73-6.27c0.3-0.34,0.89-0.28,1.39-0.27
	c0.18,0.01,0.37,0.01,0.48,0.01c-0.16-0.28-0.65-0.97-1.05-1.54c-1.49-2.13-2.36-3.47-1.88-4.13c0.29-0.4,0.98-0.59,1.72-0.77
	l0.22-0.05c0.09-0.31,0.05-1.38,0.03-2.18c-0.08-2.29-0.09-3.59,0.68-3.69c1.3-0.17,1.84,1.86,2.27,3.46
	c0.14,0.51,0.33,1.22,0.44,1.34c0.09,0,0.24-0.11,0.35-0.18c0.18-0.13,0.38-0.26,0.61-0.26c0.18,0,0.43,0.08,0.6,0.45
	c0.17,0.36,0.25,1.28,0.37,2.76c0.08,1.06,0.23,2.79,0.41,3.28c0.06-0.08,0.12-0.2,0.17-0.29c0.22-0.42,0.55-1.03,1.18-0.9
	c1.16,0.23,1.55,3.2,1.55,3.23c0.02,0.27-0.15,0.8-0.59,2.03c-0.3,0.84-0.78,2.19-0.81,2.66c0.09-0.04,0.22-0.11,0.32-0.16
	c0.45-0.25,1.15-0.52,1.72-0.2c0.61,0.34,0.36,1.66-0.27,4.62c-0.52,2.44-1.18,5.48-0.89,7.26c0.38,1.17,11.33,11.36,15.25,12.32
	c0.12,0.03,0.21,0.04,0.29,0.04c0.08-0.1-0.16-0.66-0.7-1.35c-0.1-0.08-0.76-0.33-1.35-0.56c-2.87-1.11-5.44-2.22-5.32-3.72
	c0.08-1,0.58-1.21,0.98-1.21c0.19,0,0.38,0.05,0.54,0.1c-0.3-0.36-1.19-0.99-1.87-1.47c-1.85-1.31-3.77-2.66-3.15-3.85
	c0.16-0.3,0.53-0.26,0.96-0.05c0.28,0.14,0.65,0.31,0.88,0.21c-0.03-0.42-0.78-1.81-1.28-2.74c-1.27-2.37-1.97-3.74-1.37-4.27
	c0.15-0.13,0.34-0.19,0.58-0.19c1.2,0,3.82,1.82,4.86,2.91c0.04-0.12,0.1-0.23,0.19-0.33c0.14-0.15,0.47-0.31,0.97-0.18
	c1.28,0.34,3.04,4.39,3.7,6.09c0.23-0.35,0.58-0.69,1.12-0.69c0.17,0,0.35,0.04,0.53,0.11c1.52,0.61,2.12,6.3,1.94,6.95
	c-0.1,0.54,0.9,6.08,1.12,6.62c0.53,0.79,13.37,7.43,16.73,7.43c0.26,0,0.37-0.04,0.41-0.07l0.06-0.21
	c-0.02-0.78-1.04-2.33-1.79-2.71c0.01,0-0.05-0.01-0.34-0.01c-0.23,0-0.54,0.01-0.88,0.02c-0.45,0.02-0.97,0.04-1.49,0.04
	c-1.78,0-2.8-0.23-3.3-0.76c-0.23-0.24-0.34-0.54-0.33-0.87c0.03-0.83,0.67-1.28,1.09-1.58l0.25-0.19h-0.04
	c-0.28,0-0.77,0.21-1.21,0.39c-0.77,0.32-1.48,0.56-1.83,0.24c-0.06-0.06-6.21-5.78-5.39-6.86c0.25-0.33,0.68-0.5,1.27-0.5
	c0.77,0,1.75,0.28,2.61,0.52c0.65,0.18,1.26,0.36,1.6,0.36c0.32,0,0.35-0.08,0.39-0.49c0.02-0.25,0.07-0.78,0.6-0.78l0.12,0.01
	c0.95,0.15,2.52,0.99,4.06,2.9c0,0,0.06,0.05,0.32,0.05s0.6-0.05,0.95-0.11c0.65-0.1,1.34-0.19,1.77-0.05
	c1.82,0.55,3.46,2.01,3.03,4.02c-0.04,0.23,0.33,1.25,0.6,1.99c0.49,1.36,0.81,2.29,0.75,2.8c-0.06,0.57-0.22,1.09-0.37,1.55
	c-0.1,0.33-0.27,0.87-0.2,0.98l0.16,0.07l3.22,2.11l-0.98,3.01l-0.38-0.28c-0.02-0.02-2.69-1.97-4.31-1.97
	c-0.2,0-0.36,0.03-0.5,0.09c-1.32,0.58-2.57,2.04-3.79,3.46c-1.36,1.59-2.64,3.09-4.04,3.44c-0.69,0.17-1.24,0.26-1.67,0.26
	c-0.98,0-1.52-0.44-1.65-1.35c-0.08-0.61,0.17-1.05,0.36-1.37c0.21-0.36,0.2-0.36,0.07-0.47c-0.24-0.01-0.75,0.23-1.23,0.49
	c-0.85,0.45-1.91,1.01-3.04,1.01c-0.26,0-0.52-0.03-0.76-0.09c-2.46-0.62-3.76-2.47-3.95-4.02c-0.01-0.1-0.02-0.16-0.04-0.21
	L80,207.37c-0.29,0.13-0.73,0.32-1.33,0.32c-0.65,0-1.36-0.24-2.1-0.7c-2.46-1.55-5.1-4.22-4.67-5.2c0.31-0.71,2.04-1.13,5.34-1.89
	l0.3-0.07c0.21-0.05,0.42-0.07,0.62-0.07c1.33,0,1.81,1.14,2.07,1.75l0.03,0.07c0.12-0.25,0.18-0.5,0.23-0.74
	c0.11-0.51,0.24-1.15,1.03-1.19l0,0c0.57,0,1.21,0.66,2.3,1.84c0.72,0.78,1.8,1.95,2.24,1.95c0.26-0.07,0.49-0.14,0.74-0.22
	c0.85-0.28,1.82-0.59,3.03-0.59c1.03,0,1.66,0.75,2.17,1.35c0.32,0.37,0.61,0.73,0.89,0.77c0.4,0.06,1.27-0.06,2.11-0.17
	c0.31-0.04,0.62-0.08,0.93-0.12c-2.88-1.18-7.92-3.26-9.84-4.16c-0.94-0.44-2.08-1.07-3.29-1.74c-2.3-1.28-4.9-2.73-6.2-2.82
	l-0.81-0.06c-2.02-0.15-4.54-0.33-5.55-0.7c-0.54-0.2-0.79,0.07-1.18,0.63c-0.27,0.4-0.58,0.85-1.13,0.85
	c-0.11,0-0.21-0.02-0.32-0.05c-0.54-0.17-0.78-0.35-0.96-0.48c-0.19-0.13-0.28-0.2-0.74-0.21l0,0c-0.21,0-0.26,0.02-0.26,0.02
	c-0.18,0.36-0.48,0.55-1.63,0.58h-0.13c-1.57,0-2.83-0.69-3.22-1.33c-0.18-0.3-0.12-0.53-0.07-0.63c0.13-0.25,0.34-0.5,0.54-0.74
	c0.17-0.2,0.48-0.58,0.47-0.7c0,0-0.05-0.07-0.29-0.13c-0.44-0.12-1.06-0.24-1.72-0.38c-1.35-0.27-2.74-0.55-3.34-0.91
	c-0.45-0.26-2.14-1.46-2.26-2.44c-0.03-0.26,0.05-0.5,0.22-0.67c0.18-0.18,0.5-0.14,0.93-0.05c0.29,0.06,0.68,0.08,0.68,0.08
	c-0.16-0.6-3.22-2.03-4.37-2.58l-0.4-0.19c-1.34-0.63-2.33-1.91-2.53-2.79c-0.1-0.48,0.03-0.76,0.16-0.92
	c0.28-0.34,0.77-0.31,1.15-0.2c0.12,0.04,0.24,0.07,0.34,0.07c0.05,0,0.16,0,0.27-0.3c0.17-0.44-0.14-1.23-0.41-1.93
	c-0.37-0.93-0.72-1.82-0.15-2.31c0.17-0.14,0.36-0.21,0.59-0.21c0.53,0,1.11,0.4,1.66,0.79c0.29,0.2,0.73,0.51,0.87,0.51
	c0.52-0.16,0.63-0.47,0.76-0.82c0.13-0.36,0.3-0.91,1.15-0.79c0.74,0.1,1.19,1.28,1.76,2.78c0.5,1.31,1.07,2.79,1.77,3.27
	c0.17,0.11,0.28,0.17,0.35,0.2l0.02-0.17c0.03-0.37,0.1-1.15,0.99-1.15c0.8,0,1.33,1.19,2.13,3.11c0.39,0.94,1.11,2.69,1.49,2.69
	c0.27-0.05,0.48-0.1,0.65-0.14c0.64-0.15,0.87-0.22,1.96,0.05l0.04,0.01l-0.11-0.12c-2.51-2.91-10.74-10.97-14.33-14.41
	c-0.34-0.32-2.32-0.37-3.77-0.41c-2.24-0.06-3.63-0.12-4.13-0.57c-0.44-0.4-0.99-0.76-1.52-1.12c-1.13-0.76-2.19-1.47-2.14-2.43
	c0.02-0.53,0.34-0.83,0.88-0.83c0.19,0,0.4,0.04,0.61,0.07c0.26,0.05,0.58,0.05,0.58,0.05c-0.1-0.2-1.28-1.06-2.13-1.69
	c-2-1.46-3.32-2.47-3.36-3.29c-0.01-0.23,0.07-0.44,0.24-0.59c0.38-0.35,0.71-0.51,1.02-0.51c0.22,0,0.38,0.08,0.5,0.13l0.13,0.05
	c0,0,0.06-0.01,0.19-0.16c-0.03-0.17-0.75-0.85-1.27-1.35c-1.48-1.41-3.71-3.53-3.31-5.93c0.09-0.52,0.41-0.78,0.97-0.78
	c0.11,0,0.22,0.01,0.34,0.02c0.1,0.01,0.2,0.02,0.3,0.02c0.28,0,0.37-0.07,0.43-0.2c0.14-0.28-0.03-1.05-0.19-1.73
	c-0.26-1.14-0.54-2.33,0.12-2.95c0.17-0.16,0.37-0.25,0.58-0.25c0.61,0,1.11,0.69,1.58,1.36c0.17,0.24,0.42,0.6,0.56,0.7
	c0.09-0.04,0.18-0.1,0.29-0.16c0.37-0.22,0.84-0.5,1.34-0.5c0.3,0,0.57,0.1,0.81,0.29c0.53,0.43,0.68,1.87,0.86,4.2
	c0.09,1.11,0.22,2.77,0.43,3.09h0.04c0.19,0,0.39-0.12,0.62-0.26c0.42-0.26,1.03-0.58,1.77-0.39c0.17,0.04,0.31,0.14,0.41,0.29
	c-0.97-2.42-1.82-4.72-2.1-5.8c-0.03-0.12-0.14-0.63-0.3-1.32c-0.37-1.71-1-4.56-1.35-5.74c-0.37-1.23-1.17-1.69-2.5-2.44
	c-0.3-0.17-0.61-0.34-0.94-0.54c-0.48-0.29-1.22-0.57-2.08-0.9c-2.47-0.94-5.55-2.11-5.78-4.56c-0.07-0.73-0.01-1.16,0.21-1.4
	c0.11-0.13,0.27-0.19,0.44-0.19c0.4,0,0.82,0.38,1.27,0.78c0.09,0.08,0.2,0.18,0.3,0.27c-0.04-1.07-0.76-3.5-1.65-4.32
	c-0.65-0.6-1.68-1.83-2.14-2.92c1.5,52.11,44.11,94.05,96.32,94.05C178.2,221.92,221.44,178.46,221.44,125.04z M219.38,138.36
	c0.03,0.33,0.19,8.3-4.81,14.17c-3.99,4.67-7.83,5.65-8.34,5.76l-3.83,2.08c-0.49,0.85-4.02,6.91-4.43,7.59
	c-0.79,1.23-7.8,11.44-10,14.67c0.35-0.19,0.76-0.49,1.03-0.87c0.87-1.23,1.58-2.27,2.2-3.2c1.93-2.89,3.21-4.81,6.36-7.18
	c4.08-3.09,12.06-8.06,12.15-8.11l0.9-0.55l-0.38,0.98c-0.05,0.08-4.29,10.24-7.99,15.35c-2.36,3.25-7.88,4.32-11.9,5.08
	c-1.87,0.36-3.51,0.68-3.99,1.09c-1.03,0.87-8.99,8.11-9.08,8.17l-9.97,6.06c0.6,0.16,1.58,0.25,2.36-0.05
	c0.43-0.16,1.22-0.79,2.23-1.58c1.33-1.04,3.13-2.49,5.38-3.85c1.77-1.09,5.49-2.46,6.55-2.59c6.74-0.93,11.14-2.76,11.2-2.79
	l0.9-0.38l-0.49,0.87c-0.03,0.05-3.37,5.98-8.86,9.86c-4.13,2.89-10,4.42-12.66,4.42c-0.35,0-0.65-0.03-0.9-0.08
	c-4.29-0.98-5.82-1.37-5.87-1.37c0,0-1.03-0.08-2.09-0.08c-0.35,0-0.71,0-1.06,0.03c-3.64,0.25-11.68,4.62-14.02,5.93
	c0.35,0.03,0.73-0.05,1.09-0.33c0.71-0.55,4.35-2.29,6.01-2.76c0.68-0.16,1.44-0.27,2.34-0.27c1.74,0,3.29,0.38,3.34,0.38
	c0,0,0.49,0,2.45,0.36c2.01,0.36,8.94,0.76,9.02,0.76l0.87,0.05l-0.68,0.57c-0.3,0.22-7.15,5.68-13.29,6.88
	c-0.41,0.08-0.9,0.11-1.44,0.11c-2.39,0-5.38-0.71-5.52-0.74l-0.08-0.05l-2.91-1.86c-0.03-0.03-1.11-1.64-2.83-1.97
	c-1.85-0.36-2.58-0.27-2.61-0.25l-0.38,0.03l0.05-2.62l0.27-0.05c0.87-0.22,2.69-0.87,2.64-1.58c-0.11-1.26,0.71-9.31,4.21-11.74
	c3.86-2.65,13.75-7.18,14.16-7.37l0.84-0.36l-0.38,0.82c-0.14,0.33-3.72,8.22-6.85,10.95c-1.77,1.53-4.65,3.71-6.79,5.27
	c2.26-1.04,5.14-2.38,6.63-3.11l0.33-0.16c3.7-1.78,5.9-3.09,6.58-3.88c1.03-1.23,0.68-2.21,0.65-2.27l-0.03-0.05v-0.08
	c0.03-0.41,0.52-9.75,3.89-11.93c3.78-2.46,9.62-8.14,9.67-8.19l0.71-0.68l-0.14,0.96c-0.05,0.38-1.25,9.56-3.15,13.3
	c-1.82,3.52-7.28,6.53-8.15,7.02l-0.14,0.27c1.71-0.98,5.71-3.5,9.13-6.69c5.76-5.35,6.09-6.86,6.03-7.18
	c-0.6-4.62-0.92-7.95-0.27-12.13c0.62-4.21,7.58-16.55,7.88-17.07l0.54-0.93l0.08,1.07c0.03,0.05,0.68,6.99,0.38,13.19
	c-0.3,6.01-5.49,12.4-6.14,13.19l-0.08,0.44c1.79-2.46,5.9-8.22,7.12-10.68c1.47-2.95,3.89-7.16,4.29-7.81l-0.24-2.79
	c-0.46-0.82-4.4-7.81-3.78-13.85c0.24-2.43,2.34-16.14,2.36-16.28l0.14-1.01l0.49,0.9c0.03,0.05,3.02,5.79,4.13,8.71
	c1.22,3.14,1.93,7.35,1.82,8.58c-0.3,3.06-2.31,9.91-2.39,10.21c-0.35,0.85-0.6,1.75-0.57,2.08c0.05-0.03,0.14-0.05,0.24-0.14
	c1.74-1.2,3.1-9.59,3.7-13.16c0.57-3.47,1.3-11.91,0.82-13.85c-0.3-1.28-0.52-1.42-1.17-1.86c-0.33-0.22-0.76-0.49-1.3-0.98
	c-0.3-0.27-0.62-0.55-0.95-0.82c-2.26-1.94-5.35-4.59-6.01-8.06c-0.35-1.8-2.8-14.12-2.8-14.12l-0.22-1.12l0.79,0.79
	c0.24,0.25,4.1,4.1,6.96,7.51c-0.24-0.36-0.41-0.79-0.38-1.31c0-0.96,0.52-1.75,1.2-1.94c0.08,0,0.22-0.05,0.33-0.05
	c0.33,0,0.63,0.14,0.87,0.33c0.41,0.36,0.68,0.96,0.68,1.67c0,0.3-0.05,0.57-0.14,0.82c0.27,0.3,0.71,0.79,1.09,1.28
	c-0.11-0.55-0.19-1.12-0.3-1.64l-0.05-0.25c-0.22-0.79-0.79-1.45-1.28-1.88c-0.24-0.27-0.46-0.46-0.62-0.57
	c-0.16,0.14-0.38,0.27-0.57,0.3c-0.11,0.03-0.19,0.03-0.3,0.03c-0.87,0-1.55-0.87-1.55-1.99c0-1.12,0.68-1.99,1.55-1.99
	s1.52,0.87,1.52,1.99c0,0.41-0.08,0.82-0.24,1.12c0.24,0.19,0.62,0.49,1.01,0.93c-0.82-3.2-1.74-5.38-1.9-5.74l-2.39-2.32
	c-0.92-0.33-9.08-3.22-10.62-5.79c-2.61-4.34-8.18-13.41-8.23-13.52l-0.6-0.93l1.03,0.44c0.49,0.22,12.04,5.41,14.43,7.35
	c3.7,2.95,5.82,10.24,5.9,10.54c0.05,0.22,0.11,0.44,0.14,0.66v-0.16c-0.33-5.38-7.99-15.81-12.06-18.54
	c-1.49-1.01-2.15-1.17-2.93-1.17c-0.41,0-0.9,0.05-1.49,0.11c-0.49,0.08-1.03,0.14-1.71,0.19c-3.51,0.33-16.22-9.94-16.74-10.35
	l-0.9-0.71l1.14,0.08c0.41,0.05,10.19,0.96,14.29,2.38c3.94,1.34,7.5,5.76,7.99,6.39l0.46,0.22c-1.9-1.97-5.49-5.63-7.36-7.46
	c-0.03-0.03-4.29-3.85-5.84-4.48c-0.57-0.22-1.55,0.08-2.72,0.46c-1.58,0.52-3.59,1.17-6.17,1.07c-3.29-0.14-14.48-5.87-14.95-6.12
	l-0.84-0.41l0.92-0.22c0.3-0.05,7.8-1.8,11.2-1.69c3.29,0.11,9.59,4.04,10.41,4.56l0.87,0.03l-6.28-4.56
	c-0.03,0-5.76-2.29-7.83-3.09c-0.14-0.05-0.27-0.08-0.41-0.08c-0.95,0-2.39,0.74-4.08,1.61c-2.39,1.23-5.08,2.62-7.72,2.68H149
	c-3.12,0-11.68-3.99-12.04-4.18l-0.87-0.38l0.92-0.25c0.08-0.03,8.64-2.32,15.9-2.4h0.27c1.49,0,3.53,0.14,5.14,0.25
	c-1.93-0.68-4.16-1.42-4.84-1.47c-0.49-0.03-1.17,0.05-2.04,0.16c-1.25,0.19-2.85,0.38-4.76,0.33c-4.57-0.14-10.76-2.32-12.26-4.29
	c-0.65-0.85-4.43-1.42-6.66-1.58l-1.2-0.08l1.06-0.57c0.24-0.11,6.33-3.33,11.44-3.33h0.24c5.19,0.11,9.05,1.88,9.84,2.76l5.57,4.1
	l9.73,4.59L164,50.56c-0.65-0.41-5.87-3.77-7.42-5.41c-1.77-1.91-3.1-4.94-3.75-6.55c-0.76-1.88-3.94-3.96-3.97-3.99l0.24-0.63
	c0.43,0.08,10.92,2.1,13.72,6.01c1.66,2.29,4.32,11.12,4.7,12.34l4.86,2.87l7.64,6.14c-0.24-0.57-0.54-1.26-0.87-1.83
	c-0.22-0.33-1.03-0.98-1.98-1.72c-2.26-1.78-5.65-4.45-6.36-7.13c-0.73-2.7-5.11-10.51-5.16-10.6l-0.52-0.96l0.95,0.46
	c0.52,0.25,12.28,5.9,14.48,12.21c1.06,3.03,2.42,10.79,2.58,11.83c0.43,0.46,2.85,3.03,4.35,4.64c-0.24-1.01-0.65-2.68-1.22-3.85
	c-0.16,0.08-0.35,0.14-0.54,0.14c-0.84,0-1.52-0.87-1.52-1.99c0-1.12,0.68-1.99,1.55-1.99c0.84,0,1.52,0.87,1.52,1.99
	c0,0.57-0.16,1.07-0.46,1.42c0.92,1.88,1.52,4.92,1.55,5.05l0.03,0.19c0.11,0.11,0.22,0.22,0.27,0.27c0.6,0.6,4.54,6.23,5.57,7.76
	c0.24-0.36,0.54-0.98,0.27-1.8c-0.49-1.45-3.7-5.13-3.72-5.19c-0.14-0.16-2.99-3.91-3.1-7.89c-0.14-5.41-2.12-10.05-2.15-10.11
	l0.54-0.41c0.46,0.44,11.22,10.24,11.09,17.81c-0.08,5.38-0.98,9.2-1.2,10.02c0.6,0.82,3.75,5.13,5.19,7.67
	c1.14,2.02,3.53,8.77,4.51,11.61l0.16-1.07c-0.41-0.87-3.23-7.02-3.21-10.46c0-0.11,0.52-3.74,0.46-6.69
	c-0.05-2.38-1.28-11.66-1.28-11.74l-0.16-1.23l0.76,0.96c0.35,0.44,8.51,10.79,8.15,17.97c-0.27,5.24-2.45,9.67-2.74,10.24
	l-0.38,3.55c0,0.05-0.49,4.04,0.16,7.57c0.62,3.2,1.93,15.46,2.26,18.54c0.22-0.22,0.46-0.55,0.57-0.85
	c0.05-0.22-0.08-1.42-0.22-2.62c-0.41-3.47-1.01-8.74,0.11-11.28c3.64-8.22,4.76-14.78,4.76-14.86l0.22-1.26l0.43,1.2
	c0.19,0.52,4.76,12.97,2.88,20.35c-1.63,6.42-8.15,12.51-9.1,13.36c-0.08,0.98-0.65,7.1-0.79,9.31c-0.41,6.2-3.8,14.5-5.08,17.42
	c0.11-0.08,0.22-0.16,0.35-0.27l-0.05-0.03c0.03,0,0.62-0.63,1.55-1.64c0.46-0.96,1.17-3.06,1.85-5.13c1.09-3.22,2.2-6.55,3.02-7.67
	c3.99-5.38,8.45-14.91,8.51-15.02l0.65,0.16L219.38,138.36z M186.61,62.55c0-0.71-0.38-1.31-0.84-1.31c-0.49,0-0.87,0.6-0.87,1.31
	c0,0.71,0.38,1.31,0.84,1.31c0.08,0,0.16-0.03,0.22-0.05c-0.11-0.16-0.22-0.33-0.33-0.44l-0.22-0.25l0.49-0.46l0.22,0.22
	c0.11,0.14,0.22,0.27,0.33,0.41C186.56,63.09,186.61,62.82,186.61,62.55z M202.67,104.14c0-0.71-0.38-1.31-0.84-1.31
	s-0.84,0.6-0.84,1.31c-0.03,0.71,0.38,1.31,0.84,1.31c0.19,0,0.35-0.11,0.52-0.27l0.19-0.3
	C202.62,104.69,202.67,104.41,202.67,104.14z M206.83,153.95c2.17-2.51,5.08-6.14,7.07-9.72c2.09-3.8,3.13-9.39,3.56-12.21
	c-1.68,3.28-4.18,7.84-6.55,11.01c-0.73,1.01-1.9,4.45-2.91,7.48C207.56,151.8,207.18,152.97,206.83,153.95z M215.39,114.14
	c-0.65,3.06-3.42,11.25-4.35,14.01c2.28-2.43,5.82-6.72,6.93-11.03c1.17-4.64-0.35-11.58-1.6-15.92
	C216.37,104.19,216.23,110.04,215.39,114.14z M210.9,123.07c0.19,1.56,0.24,2.29,0.22,2.68c1.2-3.58,3.07-9.34,3.59-11.77
	c1.2-5.63,0.98-14.67,0.98-14.75s0.03-0.14,0.05-0.19c-0.08-0.25-0.16-0.46-0.22-0.68c-0.52,2.32-1.82,7.59-4.57,13.76
	C209.9,114.46,210.52,119.84,210.9,123.07z M205.85,96.17c0.27-1.34,1.44-7.73,0.11-13.96c-0.08-0.36-0.16-0.87-0.3-1.47
	c-0.52-2.73-1.55-8.06-2.96-10.35c0.35,2.76,1.03,8.49,1.09,10.32c0.05,3.03-0.46,6.72-0.46,6.75
	C203.32,89.91,204.9,93.98,205.85,96.17z M194.74,74.34c0.16-0.93,0.3-2.68-0.08-5.33c-0.62-4.29-7.5-14.97-7.58-15.05
	c-0.05-0.08-0.05-0.16-0.03-0.27c-0.11-0.08-0.24-0.22-0.33-0.3c0.62,1.8,1.58,5.19,1.68,8.96c0.08,3.74,2.88,7.43,2.91,7.46
	C191.42,69.95,193.7,72.57,194.74,74.34z M179.93,59.49c-0.54-2.35-2.8-6.69-5-10.3c-1.44-2.32-5.98-6.31-7.77-7.84
	c1.33,2.49,3.78,7.1,4.32,9.12c0.68,2.49,3.94,5.05,6.11,6.77c1.09,0.87,1.87,1.47,2.15,1.91
	C179.79,59.27,179.85,59.38,179.93,59.49z M164.19,49.87c-1.14-2.02-3.26-5.79-4.89-8.25c-2.2-3.41-7.69-6.25-7.74-6.28
	c-0.08-0.03-0.11-0.08-0.14-0.14c-0.3-0.08-0.6-0.14-0.84-0.19c1.03,0.82,2.39,2.08,2.88,3.3c0.62,1.61,1.93,4.53,3.61,6.36
	C158.46,46.13,163.11,49.16,164.19,49.87z M129.71,42.91c2.47-0.16,8.59-0.57,10.38-0.22c2.17,0.41,8.75,2.35,14.1,4.37l-5.46-4.01
	c-0.71-0.74-4.32-2.46-9.4-2.57h-0.24C135.74,40.48,131.88,41.95,129.71,42.91z M160.28,50.64c-3.97-2.59-17.15-6.69-20.33-7.29
	c-1.44-0.27-5.95-0.03-8.83,0.16c1.63,0.27,3.32,0.74,3.86,1.45c1.36,1.8,7.42,3.88,11.74,4.01c1.85,0.05,3.42-0.14,4.65-0.3
	c0.9-0.14,1.63-0.25,2.17-0.19C154.6,48.56,158.6,50.01,160.28,50.64z M139.11,52.99c2.53,0,8.48,0.03,10.11,0.27
	c1.9,0.27,7.96-1.2,10.43-1.8c-1.63-0.16-4.51-0.38-6.47-0.38h-0.27C147.81,51.13,142.02,52.3,139.11,52.99z M155.14,58.37
	c2.53,0.76,9.95,2.87,12.39,2.57c0.11-0.03,2.88,0.08,5.87,0.19c-1.9-1.17-6.68-3.91-9.29-3.99
	C161.88,57.08,157.64,57.85,155.14,58.37z M169.49,67.27c3.32,1.15,10.05,3.58,12.8,5.05c2.09,1.15,4.57,2.05,6.09,2.57
	c-1.2-1.39-4.1-4.51-7.17-5.57C178.43,68.36,172.73,67.63,169.49,67.27z M183.35,80c2.58,2.13,8.29,6.83,9.95,8.52
	c1.71,1.72,6.14,6.55,7.88,8.44c-0.03-0.16-0.05-0.36-0.11-0.57c0-0.05-2.15-7.35-5.65-10.19C193.7,84.83,186.94,81.64,183.35,80z
	 M201.61,108.05c0,0.71,0.38,1.31,0.84,1.31c0.24,0,0.43-0.14,0.6-0.38c-0.14-0.14-0.14-0.35,0-0.46c0.05-0.05,0.14-0.08,0.22-0.08
	c0.03-0.14,0.05-0.25,0.05-0.38c0-0.71-0.41-1.31-0.87-1.31C201.99,106.73,201.61,107.34,201.61,108.05z M201.58,109.71
	c1.33,1.61,2.39,3.09,2.72,4.01c1.98,5.82,1.55,9.64,1.44,10.46l0.84,0.98c-0.16-2.1-0.65-7.24-1.41-13.46
	c-0.05-0.03-0.08-0.08-0.11-0.14c-0.3-0.63-1.06-1.53-1.55-2.08c-0.27,0.36-0.65,0.55-1.06,0.55
	C202.13,110.04,201.83,109.93,201.58,109.71z M195.17,103.65c0.9,2.38,3.51,9.26,4.76,11.74c1.25,2.46,4.16,6.66,5.19,8.08
	c0.11-1.42,0.14-4.81-1.47-9.53C202.94,111.81,197.64,106.19,195.17,103.65z M199.87,142.92c0.05-4.23-1.28-11.69-1.9-14.94
	c-0.6,3.99-1.82,12.21-2.01,14.07c-0.49,4.75,2.07,10.32,3.21,12.51C199.38,152.34,199.84,147.13,199.87,142.92z M189.79,164.47
	c-0.43,3.09-1.25,8.28-1.66,10.87c1.55-2.08,5.05-7.21,5.3-11.91c0.19-4.07-0.03-8.41-0.19-10.95
	C192.37,155.07,190.2,161.71,189.79,164.47z M165.91,186.81c-2.42,1.94-9.67,7.78-11.06,9.01c-1.3,1.15-3.04,5.35-3.75,7.1
	c1.87-1.34,6.36-4.62,8.75-6.69C162.13,194.24,164.74,189.19,165.91,186.81z M151.56,207.92c1.49,0.44,4.86,1.28,8.61,1.2
	c4.57-0.08,10.35-1.5,12.53-2.59c-2.15-0.14-6.14-0.44-7.66-0.68c-1.93-0.36-2.36-0.36-2.39-0.36c-0.08-0.03-1.6-0.38-3.26-0.38
	c-0.82,0-1.55,0.08-2.15,0.25C155.8,205.76,152.45,207.35,151.56,207.92z M170.61,199.65c2.55-0.08,6.66-0.49,10.19-2.08
	c4.1-1.83,9.37-5.57,11.98-7.48c-1.98,0.63-5.05,1.42-8.89,1.94c-0.87,0.14-4.48,1.42-6.28,2.51c-2.2,1.37-3.99,2.79-5.3,3.82
	C171.61,198.91,171.07,199.32,170.61,199.65z M189.68,181.98c2.77-1.31,7.77-3.91,10.38-6.64c2.85-2.98,6.6-8.08,8.26-10.38
	c-2.58,1.64-7.47,4.78-10.35,6.96c-3.04,2.29-4.32,4.18-6.22,7.02C191.18,179.82,190.5,180.83,189.68,181.98z M218.7,138.39
	l0.11-9.09c-0.14,0.3-0.3,0.63-0.49,1.01h0.03c-0.03,0.35-0.9,8.88-3.86,14.26c-2.42,4.4-6.28,8.9-8.42,11.28
	c-0.11,0.19-0.22,0.38-0.3,0.49c-1.03,1.28-2.69,2.24-2.74,2.29l-0.95,0.52l0.46-0.98c0.05-0.08,5-10.79,5.52-18.27
	c0.16-2.4,0.82-9.39,0.82-9.48v-0.14l0.11-0.08c0.03-0.03,0.46-0.41,1.14-1.09c-0.05-0.08-0.05-0.16-0.03-0.27
	c0-0.03,0.35-1.07,0.87-2.59c-0.38,0.74-1.09,1.34-1.14,1.37l-0.49,0.41l-0.05-0.63c-0.03-0.16-1.63-15.65-2.31-19.23
	c-0.71-3.63-0.22-7.56-0.19-7.73l0.43-3.74c0.03-0.05,2.42-4.7,2.69-10.02c0.22-4.4-3.02-10.19-5.43-13.87
	c0.87,2.54,1.47,5.74,1.87,7.84c0.11,0.57,0.19,1.06,0.27,1.45c1.55,7.13-0.14,14.45-0.16,14.53c-0.03,0.14-0.16,0.25-0.3,0.25
	c0.22,0.52,0.35,0.82,0.38,0.85l0.03,0.08l-0.41,2.62l-0.68,0.05c-0.03-0.08-3.48-10.3-4.89-12.78c-1.58-2.76-5.19-7.67-5.22-7.73
	l-0.11-0.14l0.05-0.14c0-0.05,1.11-4.07,1.2-10.02c0.08-4.59-4.18-10.19-7.39-13.76c2.09,3.44,5.76,9.83,6.22,13.05
	c0.57,3.96,0.03,5.95-0.14,6.42c0.43,1.61-0.71,2.65-0.76,2.7l-0.27,0.25L193.95,78c-1.41-2.05-5.24-7.48-5.76-8
	c-0.62-0.66-5.38-5.74-5.6-5.95l-0.05-0.08l-0.03-0.11c-0.03-0.08-1.47-8.68-2.58-11.83c-1.47-4.21-7.69-8.25-11.36-10.35
	c2.15,1.88,5.65,5.11,6.93,7.18c0.57,0.96,5.71,9.39,5.16,11.99c0,0.05-0.03,0.08-0.05,0.14c0.27,0.68,0.43,1.26,0.46,1.31
	l0.33,1.04l-9.37-7.54l-5.08-2.98l-0.03-0.14c-0.03-0.08-2.96-9.94-4.62-12.26c-1.44-2.02-5.24-3.52-8.42-4.51
	c1.87,1.17,4.57,3.14,6.01,5.35c2.28,3.5,5.62,9.59,5.65,9.64c0.11,0.19,0.05,0.38-0.14,0.46v0.03l1.03,1.53l-5.33-2.51
	c0.08,0.14,0.11,0.3,0,0.41c-0.03,0.03-0.05,0.08-0.11,0.08l-0.05,0.33c0.08,0.03,0.16,0.11,0.19,0.22
	c0.03,0.16-0.08,0.36-0.24,0.41c-0.35,0.08-8.02,2.13-11.14,2.13c-0.22,0-0.43,0-0.63-0.03c-1.55-0.22-7.42-0.27-9.97-0.27
	c2.74,1.2,7.74,3.25,9.86,3.25c2.58-0.05,5.19-1.42,7.5-2.59c2.15-1.12,3.97-1.99,5.05-1.58c2.07,0.79,7.85,3.11,7.91,3.14
	l8.21,5.95l-1.39-0.05c-0.05,0.05-0.16,0.11-0.24,0.11h-0.03c-3.23-0.11-8.18-0.3-8.42-0.27c-2.64,0.36-10.43-1.91-12.83-2.65
	c3.26,1.61,10.62,5.13,13.07,5.24c2.47,0.11,4.4-0.52,5.92-1.04c1.33-0.44,2.42-0.76,3.21-0.44c1.63,0.68,5.87,4.45,6.06,4.62
	c2.61,2.54,8.59,8.71,8.64,8.79l-0.38,0.55l-1.47-0.71c-0.03,0-0.05,0.03-0.08,0.03l-0.11-0.03c-0.03,0-4.29-1.23-7.66-3.06
	c-2.69-1.45-9.46-3.88-12.74-5.03c3.67,2.84,11.6,8.74,14.24,8.74l0.14-0.03c0.65-0.05,1.2-0.11,1.68-0.16
	c2.04-0.27,2.77-0.27,4.89,1.15c4.29,2.89,12.01,13.41,12.36,19.12c0,1.39-0.11,1.88-0.54,1.88c-0.14,0-0.27,0-0.41-0.3
	c-0.08,0-0.14-0.03-0.19-0.08c-0.05-0.08-6.47-7.07-8.59-9.2c-1.66-1.72-7.72-6.69-10.14-8.71c1.77,2.9,5.22,8.55,7.12,11.69
	c1.47,2.43,10.24,5.49,10.33,5.52l0.11,0.08l2.58,2.51c0.03,0.05,1.52,3.39,2.5,8.22l0.03,0.11c0.19,0.98,0.35,1.99,0.49,3.06
	c1.03,8.22,1.52,14.58,1.52,14.67l0.08,1.01l-2.45-2.76l0.03-0.05l-0.08,0.05c-0.16-0.22-4.08-5.65-5.6-8.71
	c-1.06-2.1-3.02-7.07-4.18-10.13c0.76,3.77,1.87,9.42,2.12,10.62c0.6,3.22,3.59,5.76,5.76,7.65c0.35,0.27,0.68,0.55,0.95,0.82
	c0.54,0.46,0.92,0.74,1.25,0.93c0.79,0.52,1.11,0.79,1.47,2.27c0.52,2.21-0.33,11.12-0.84,14.12c-1.41,8.71-2.55,12.64-3.97,13.6
	c-0.54,0.38-0.95,0.35-1.17,0.05c-0.35-0.57,0.22-2.13,0.49-2.76c0-0.05,2.04-7.07,2.34-10.08c0.11-1.01-0.57-5.11-1.77-8.25
	c-0.71-1.83-2.17-4.81-3.12-6.75c0.6,3.25,1.96,10.82,1.9,15.13c-0.05,5.41-0.76,12.4-0.82,12.78l0.24,3.03l-0.05,0.11
	c-0.03,0.03-2.72,4.7-4.29,7.87c-1.6,3.2-7.77,11.55-8.02,11.91l-0.63-0.25l0.27-1.56h-0.05c0-0.08,1.3-8.25,1.93-12.43
	c0.38-2.68,2.31-8.66,3.26-11.55c-2.09,3.88-6.06,11.47-6.49,14.47c-0.6,3.74-0.38,6.72,0.27,11.91c0.14,1.2-1.96,3.82-6.22,7.78
	c-4.57,4.23-10.05,7.26-10.11,7.29l-0.82,0.44l0.27-0.74l0.62-1.56l0.11-0.05c0.05-0.03,6.14-3.2,7.96-6.77
	c1.44-2.81,2.5-8.96,2.91-11.72c-0.98,1.37-3.51,4.94-5.65,7.97c-2.88,4.01-5.62,11.2-5.95,12.13c-0.03,0.08-0.05,0.11-0.05,0.11
	l-0.62-0.25c0.03-0.05,2.96-8.03,6.06-12.4c1.52-2.13,3.26-4.56,4.48-6.28c-2.07,1.88-5.03,4.45-7.28,5.93
	c-2.91,1.88-3.51,10.49-3.56,11.33c0.11,0.33,0.38,1.53-0.79,2.87c-1.11,1.31-5.38,3.36-6.79,4.04l-0.33,0.16
	c-2.66,1.34-9.76,4.59-9.84,4.62l-0.33-0.6c0,0,0.03,0,0.05-0.03l-0.14-0.05c0.11-0.27,2.47-6.58,4.21-8.14
	c1.25-1.09,6.87-5.63,9.92-8.08c-3.32,1.58-8.83,4.29-11.39,6.06c-3.04,2.08-4.05,9.59-3.94,11.12c0.11,1.31-2.12,2.02-2.91,2.24
	L146,208c0.46,0,1.25,0.05,2.42,0.27c1.85,0.36,2.99,1.88,3.23,2.21l2.69,1.69c0.43,0.11,3.15,0.71,5.3,0.71
	c0.52,0,0.95-0.03,1.3-0.11c3.86-0.74,8.1-3.3,10.65-5.05c-2.88,1.04-7.66,2.05-11.41,2.1h-0.43c-4.37,0-8.15-1.15-9.05-1.42
	c-0.19,0.05-0.38,0.08-0.57,0.08c-0.68,0-1.2-0.33-1.2-0.36l-0.46-0.3l0.46-0.27c0.43-0.25,10.57-6.06,15-6.36
	c1.47-0.08,3.23,0.05,3.29,0.05c0.05,0.03,1.55,0.38,5.92,1.39c0.16,0.03,0.43,0.05,0.73,0.05c2.55,0,8.26-1.5,12.26-4.32
	c3.86-2.7,6.63-6.45,7.91-8.38c-2.09,1.58-8.29,6.12-12.99,8.22c-4.21,1.88-9.13,2.16-11.52,2.16c-0.84,0-1.36-0.03-1.44-0.05
	c-1.01-0.08-1.71-0.46-1.74-0.49l-0.52-0.27l11.03-6.69c0.27-0.25,7.96-7.24,9.02-8.14c0.6-0.52,2.15-0.82,4.29-1.26
	c3.91-0.74,9.29-1.78,11.49-4.81c2.55-3.52,5.35-9.5,6.85-12.84c-1.79,2.49-5.27,7.18-7.99,10c-3.8,3.99-12.23,7.57-12.58,7.7
	l-0.03-0.08c-0.46,0.19-0.79,0.3-0.84,0.3l-0.87,0.25l0.52-0.76c0.11-0.14,9.76-14.17,10.62-15.62c0.43-0.68,4.43-7.57,4.48-7.62
	l0.03-0.08l4.16-2.24c0.03-0.03,3.99-0.82,8.02-5.57C218.89,146.42,218.7,138.47,218.7,138.39z M81.02,50.98
	c0.09,0,0.18-0.04,0.25-0.11c0.02-0.02,0.86-0.92,1.95-2.07c0.63-0.08,2.11-0.29,2.52-0.6c0.15-0.11,0.18-0.33,0.07-0.48
	c-0.11-0.15-0.33-0.18-0.48-0.07c-0.13,0.1-0.7,0.23-1.35,0.34c0.88-0.93,1.83-1.92,2.59-2.7c1.32-0.45,4.55-1.46,5.59-1.34
	c0.19,0.02,0.36-0.11,0.37-0.3c0.02-0.19-0.11-0.36-0.3-0.38c-0.92-0.1-3.12,0.5-4.6,0.96c0.09-0.08,0.17-0.16,0.24-0.22
	c2.59-2.35,8.23-5.19,8.29-5.21c0.17-0.08,0.24-0.29,0.15-0.46c-0.08-0.17-0.29-0.24-0.46-0.16c-0.22,0.11-5.29,2.66-8.06,4.99
	c0.71-1.31,1.47-2.88,1.44-3.61c-0.01-0.19-0.15-0.35-0.35-0.33c-0.19,0.01-0.33,0.17-0.33,0.36c0.03,0.8-1.52,3.64-2.51,5.24
	L86,44.89c-0.82,0.84-1.82,1.89-2.73,2.85c-0.07-0.63-0.09-1.31,0.01-1.54c0.08-0.17,0-0.37-0.17-0.45s-0.37,0-0.45,0.17
	c-0.25,0.55-0.08,1.95,0,2.47c-1.02,1.08-1.81,1.93-1.9,2.02c-0.13,0.14-0.12,0.36,0.01,0.48C80.85,50.95,80.93,50.98,81.02,50.98z
	 M90.68,50.2l0.17-0.05c0.03-0.01,1.38-0.77,3.15-1.58c0.56,0.41,1.93,1.32,3.4,1.53h0.05c0.17,0,0.31-0.12,0.34-0.29
	c0.03-0.19-0.1-0.36-0.29-0.39c-1.09-0.15-2.15-0.76-2.77-1.18c1.72-0.75,3.7-1.49,5.22-1.66c0.03-0.01,0.06-0.01,0.09-0.01
	c0.59,0.91,3.47,1.84,5.94,2.48l0.09,0.01c0.15,0,0.29-0.1,0.33-0.25c0.05-0.18-0.06-0.37-0.24-0.42c-2.19-0.57-4.6-1.42-5.33-1.93
	c3.96-0.62,12.03-2.69,12.4-2.78c0.18-0.05,0.29-0.23,0.24-0.42c-0.05-0.18-0.23-0.29-0.41-0.25c-0.09,0.02-8.01,2.05-12.06,2.73
	c0.69-0.64,2.23-1.64,3.94-2.56c0.17-0.09,0.23-0.3,0.14-0.46c-0.09-0.17-0.3-0.23-0.46-0.14c-1.26,0.67-4.01,2.23-4.58,3.3
	c-0.05,0.01-0.11,0.01-0.16,0.02c-1.73,0.2-3.96,1.05-5.8,1.88c-0.13-0.05-0.29-0.02-0.38,0.1c-0.03,0.03-0.04,0.07-0.06,0.1
	c-1.7,0.79-2.99,1.51-3.11,1.57c-0.17,0.09-0.22,0.3-0.13,0.47C90.45,50.14,90.56,50.2,90.68,50.2z M54.26,64.1
	c-0.15,0.26-2.93,4.89-4.42,8.34c-0.1-0.82,0.02-2.37,0.33-3.98c0.04-0.19-0.08-0.36-0.27-0.4c-0.18-0.03-0.36,0.09-0.4,0.27
	c-0.24,1.27-0.69,4.09-0.04,5.05c-0.27,0.71-0.47,1.34-0.53,1.82c-0.16,1.25-0.26,3.26-0.32,5.11c-0.66-1.61-1.17-3.15-1.03-3.47
	c0.07-0.17-0.01-0.38-0.18-0.45c-0.17-0.08-0.37,0-0.45,0.17c-0.38,0.88,1.12,4.29,1.6,5.31l0.01,0.03
	c-0.04,1.52-0.05,2.68-0.05,2.79c0,0.19,0.15,0.34,0.34,0.35l0,0c0.19,0,0.34-0.15,0.34-0.34c0-0.03,0.01-1.26,0.05-2.87
	c0.73-0.69,2.46-2.38,2.51-3.15c0.01-0.19-0.13-0.35-0.32-0.37c-0.2-0.01-0.35,0.13-0.36,0.32c-0.02,0.3-0.86,1.28-1.8,2.21
	c0.06-1.98,0.16-4.24,0.33-5.57c0.05-0.4,0.21-0.94,0.44-1.54c0.1,0.02,0.21,0.03,0.33,0.03c1.29,0,3.28-1.16,3.98-1.73
	c0.15-0.12,0.17-0.34,0.05-0.48c-0.12-0.14-0.33-0.17-0.48-0.05c-0.81,0.67-2.74,1.65-3.61,1.58c1.43-3.44,4.5-8.57,4.54-8.63
	c0.1-0.16,0.05-0.37-0.11-0.47C54.57,63.89,54.36,63.94,54.26,64.1z M80.95,193.51c-0.12,0.14-0.11,0.36,0.04,0.48l0.22,0.08
	c0.1,0,0.19-0.04,0.26-0.12c0.63-0.74-0.15-2.47-1.59-4.89c0.4-1.58,0.07-4.61,0.02-5c-0.02-0.19-0.18-0.32-0.38-0.3
	c-0.18,0.02-0.32,0.19-0.3,0.38c0.13,1.11,0.22,2.8,0.09,4c-0.32-0.52-0.66-1.06-1.02-1.62c-0.1-0.16-0.2-0.31-0.29-0.46
	c0.09-0.01,0.12-0.01,0.01-0.01c-0.01-0.01-0.02-0.01-0.04-0.02c-0.55-0.86-1.01-1.59-1.21-2.03c-0.18-0.4-0.5-0.91-0.88-1.48
	c0.57-0.87,0.01-3.48-0.29-4.65c-0.05-0.18-0.23-0.29-0.41-0.25c-0.18,0.05-0.29,0.23-0.24,0.42c0.39,1.58,0.59,3.17,0.49,3.82
	c-1.81-2.58-4.6-5.9-4.76-6.09c-0.12-0.14-0.34-0.16-0.48-0.04c-0.14,0.12-0.16,0.34-0.04,0.48c0.04,0.04,2.89,3.45,4.71,6.03
	c-0.97,0.04-2.98-0.29-3.64-0.66c-0.16-0.09-0.37-0.04-0.46,0.13c-0.1,0.16-0.04,0.37,0.13,0.47c0.6,0.34,2.45,0.75,3.72,0.75
	c0.26,0,0.49-0.02,0.68-0.05c0.37,0.55,0.68,1.05,0.86,1.43c0.26,0.56,0.87,1.5,1.57,2.6c0.38,0.59,0.88,1.38,1.39,2.21
	c-0.04,0.09-0.07,0.18-0.11,0.25c-0.55,0.11-2.18-0.99-3.05-1.59c-0.47-0.32-0.84-0.58-1.09-0.7c-0.17-0.08-0.37-0.02-0.46,0.15
	c-0.08,0.17-0.02,0.37,0.15,0.46c0.21,0.11,0.58,0.36,1.01,0.66c1.41,0.96,2.57,1.71,3.36,1.71l0.21-0.02
	c0.01,0,0.01-0.01,0.02-0.01v0.08c0.04,0.01,0.05-0.02,0.06-0.1c0.12-0.04,0.22-0.1,0.31-0.19C80.48,191.46,81.3,193.1,80.95,193.51
	z M64.3,72.95h0.02c0.85-0.05,1.94-0.37,3.09-0.8c0.8,0.19,2.33,0.52,3.32,0.52c0.26,0,0.49-0.02,0.65-0.08
	c0.18-0.06,0.27-0.26,0.21-0.43c-0.06-0.18-0.25-0.27-0.43-0.21c-0.38,0.13-1.52-0.03-2.6-0.25c1.02-0.43,2.07-0.92,3.01-1.36
	c1.21-0.57,2.26-1.05,2.8-1.2c0.55-0.15,1.47-0.62,2.46-1.19c1.21-0.15,3.23-0.5,3.99-1.19c0.14-0.13,0.15-0.34,0.03-0.48
	c-0.13-0.14-0.34-0.15-0.48-0.03c-0.34,0.31-1.1,0.55-1.91,0.73c1.51-0.93,2.83-1.82,2.93-1.9c0.16-0.11,0.2-0.32,0.09-0.48
	c-0.1-0.16-0.32-0.2-0.47-0.09c-0.03,0.02-2.37,1.6-4.39,2.77c-0.07,0.01-0.15,0.02-0.22,0.03c0.34-0.85,0.92-2.17,1.38-2.63
	c0.13-0.13,0.13-0.35,0-0.48c-0.13-0.14-0.35-0.14-0.48,0c-0.8,0.8-1.7,3.29-1.74,3.39l-0.13,0.35c-0.51,0.26-0.94,0.46-1.25,0.54
	c-0.6,0.16-1.62,0.64-2.91,1.24c-1.01,0.48-2.2,1.02-3.35,1.49c0.72-0.83,1.89-2.14,2.49-2.59c0.15-0.11,0.18-0.32,0.07-0.48
	c-0.11-0.15-0.32-0.18-0.48-0.07c-0.98,0.72-3.13,3.31-3.22,3.42l-0.19,0.22c-0.88,0.31-1.69,0.52-2.33,0.55
	c-0.19,0.01-0.33,0.17-0.32,0.36C63.97,72.8,64.12,72.95,64.3,72.95z M166.36,111.96h12.23v7.47h-2.97v23.1h2.97V150h-13.5v-7.47
	h2.88v-16.44l-9.59,19.73l-9.5-19.69v16.39h2.97v7.47h-13.5v-7.47h2.88v-23.1h-2.73v-7.47h11.86l8,16.69L166.36,111.96z
	 M97.02,142.5h2.24l-1.65-3.86H85.6l-1.66,3.86h2.12v7.47H71.51v-7.47h4.15l9.98-23.2h-2.21v-7.47h16.06v7.47h-1.93l9.99,23.2h4.05
	v7.47H97.02V142.5z M94.39,131.17l-2.79-6.48l-2.79,6.48H94.39z M142.18,171.34h-34.53v-16.3h9.15v-57.3H99.53v9.2H83.31V82.96
	h83.21v23.88H150.2v-9.09h-17.17v57.29h9.15V171.34z M163.25,88.12l-3.42,3.54v8.76l3.42,3.29V88.12z M157.01,89.74l4.43-3.44H86.53
	l3.52,3.44H157.01z M129.65,94.42l-3.43-3.43v70.91l3.43-3.39V94.42z M138.78,158.25l-3.42,3.54v2.89l3.42,3.29V158.25z
	 M139.5,205.57c-1.11,0.05-1.69,0.42-2.32,1.11c0.24-2.22,1.14-5.3,3.88-5.32c0.17,0,0.36,0.02,0.54,0.04l0.58-0.77
	c-0.35-0.3-0.7-0.61-1.04-0.91c-1.7-0.06-3.03,0.53-4.25,1.71c-1.95,1.89-2.87,4.57-2.88,7.59c0,2.86,0.61,7.1,4.35,7.11
	c3.07,0.01,4.31-3.32,4.31-5.92C142.66,208.29,141.91,205.59,139.5,205.57z M138.51,214.33c-0.76-0.01-1.12-0.96-1.26-1.53
	c-0.15-0.59-0.22-1.31-0.22-2.05c0-0.94,0.11-2.48,1.36-2.51c0.77,0.02,1.11,1.01,1.25,1.59c0.13,0.55,0.18,1.16,0.18,1.63
	C139.81,212.02,139.73,214.31,138.51,214.33z M133.85,199.87v1.47c-0.67,1.31-1.23,2.67-1.76,4.04c-1.35,3.44-2.8,6.85-3.71,10.44
	c-0.44-0.03-0.91-0.09-1.33-0.09c-0.39,0-0.78,0.05-1.17,0.08c-0.09-0.2-0.18-0.4-0.26-0.61l5.49-11.86l-3.8-0.01
	c-0.24,0-0.41,0.02-0.51,0.05c-0.14,0.06-0.23,0.16-0.25,0.31c-0.13,0.77-0.22,1.55-0.27,2.34h-1.35c0.02-1.96,0.04-3.91-0.05-5.86
	c0.13-0.13,0.26-0.26,0.39-0.39C128.15,199.9,131,199.99,133.85,199.87z M122.04,206.58c0.89-0.82,1.5-1.85,1.5-3.14
	c-0.09-2.37-1.27-3.62-3.55-3.75c-2.66-0.01-4.26,2.06-4.27,4.65c-0.02,1.47,0.51,2.66,1.6,3.57c-1.09,0.78-1.92,2.15-1.93,3.78
	c-0.03,2.38,1.59,4.4,4.05,4.42c2.91-0.06,4.63-2.76,4.63-5.47C124.09,209.05,123.45,207.44,122.04,206.58z M119.75,201.57
	c0.45,0.02,0.87,0.21,1.14,0.58c0.32,0.44,0.44,1.09,0.44,1.63c0,0.76-0.29,1.43-0.85,2.05c-0.59-0.31-1.26-0.63-1.7-1.14
	c-0.29-0.34-0.48-0.75-0.48-1.38C118.28,202.44,118.72,201.57,119.75,201.57z M119.73,214.25c-1.39-0.02-2.02-1.57-2.02-2.76
	c-0.03-1.12,0.31-1.91,1.03-2.71c0.69,0.35,1.74,0.94,2.15,1.49c0.36,0.47,0.52,1.08,0.5,1.66
	C121.39,212.89,120.88,214.24,119.73,214.25z M114.59,214.28v1.51c-1.2-0.02-2.41-0.08-3.61-0.08c-1.36,0.01-2.73,0.05-4.09,0.07
	v-1.51l1.64-0.08c0.53-0.04,0.75-0.27,0.75-0.76c0.01-3.58,0.15-7.18,0.01-10.76c-0.91,0.53-1.82,1.05-2.73,1.58
	c-0.29-0.75-0.43-1.56-0.39-2.37c2.05-0.6,4.03-1.54,5.93-2.5c0.16,0.17,0.32,0.34,0.49,0.51c-0.27,4.51-0.21,9.03-0.21,13.54
	c0,0.49,0.22,0.72,0.75,0.76L114.59,214.28z M65.82,212.04l-3.43,2.57l1.33,4.09l-3.42-2.52l-3.42,2.52l1.35-4.09l-3.46-2.57h4.24
	l1.3-3.98l1.25,3.98H65.82z M191.1,212.04l-1.26-3.98l-1.29,3.98h-4.26l3.47,2.57l-1.34,4.09l3.42-2.52l3.41,2.52l-1.33-4.09
	l3.43-2.57H191.1z M128.5,230.77l-3.42,2.52l-3.43-2.52l1.35,4.09l-3.46,2.57h4.24l1.29,3.98l1.26-3.98h4.25l-3.43-2.57
	L128.5,230.77z M34.96,178.08l-0.91,0.49c-0.24-0.45-0.59-1.09-0.77-1.34c-0.38-0.56-0.49-0.56-1.1-0.22l-6.17,3.34
	c-0.14,0.08-0.14,0.07-0.18,0.12c-0.01,0.07,0.06,0.23,0.13,0.35c0.92,1.71,2.33,2.76,4.34,3.15l0.33,0.99l-3.5,0.69l-0.54-1.02
	c0.02-0.05,0.03-0.1,0.05-0.15c-0.01-0.18-0.19-0.56-0.31-0.77l-4.61-8.6c-0.17-0.33-0.33-0.59-0.49-0.7l-0.14-0.03l-0.54-1.02
	l2.5-2.56l0.64,0.82c-0.75,1.83-0.75,3.55,0.22,5.38c0.06,0.11,0.14,0.24,0.22,0.3c0,0,0.08-0.01,0.2-0.08l6.17-3.34
	c0.63-0.36,0.69-0.37,0.42-1.06c-0.19-0.45-0.51-1.02-0.68-1.37l0.91-0.49L34.96,178.08z M23.03,148.12l-3.39-0.41
	c-0.03,0.47-0.05,0.68-0.07,1.03c2.37,1.4,3.08,1.82,3.95,4.81l0.57,2c0.04,0.13,0.08,0.29,0.08,0.39c-0.08,0.05-0.16,0.07-0.25,0.1
	l-3.29,0.95l-0.22-0.78c-0.56-2.08-0.79-3.63,0.73-4.29l0.27-0.12l-0.31-1.06l-4.93,1.43l0.31,1.07c0.08-0.01,0.29-0.05,0.47-0.05
	c1.36,0.01,2.16,2.21,2.48,3.32l0.22,0.78l-3.29,0.95l-0.8-2.79c-0.66-2.28,0.04-3.66,0.8-5.49c-0.23-0.4-0.31-0.52-0.5-0.86
	l-2.44,2.62l3.34,11.63c0.56-0.17,0.66-0.19,0.98-0.29c-0.12-0.46-0.27-0.92-0.26-1.18c0.02-0.15-0.04-0.26,0.74-0.48l6.11-1.78
	c0.75-0.22,0.81-0.14,0.94,0.12c0.13,0.28,0.25,0.69,0.35,1.04c0.65-0.19,0.66-0.19,0.99-0.29L23.03,148.12z M20.97,134.26
	c-0.34,0.02-0.68,0.04-1.02,0.06l0.01,0.33c0,0.19,0.02,0.58-0.04,0.86l-3.04-3.59l2.66-3.26c0.05,0.2,0.12,0.57,0.15,1.22
	l0.02,0.34c0.34-0.02,0.69-0.04,1.03-0.06l-0.47-8.34c-0.34,0.02-0.69,0.04-1.03,0.06l0.02,0.34c0.04,1.06,0.05,1.88-0.55,2.62
	l-3.82,4.66l-2.74-3.32c-0.66-0.81-0.91-1.51-1.01-2.82l-0.03-0.33c-0.8,0.05-0.81,0.05-1.02,0.06l0.29,5.21
	c0.34-0.02,0.68-0.04,1.02-0.06l-0.01-0.33c-0.01-0.22,0-0.49,0.03-0.68c0.06,0.05,0.15,0.13,0.24,0.24l2.5,2.93
	c0,0-2.21,2.74-2.4,2.96c-0.09-0.33-0.12-0.94-0.15-1.41c-0.79,0.05-0.83,0.05-1.02,0.06l0.47,8.28c0.68-0.04,0.68-0.05,1.02-0.06
	l-0.01-0.34c-0.09-1.85,0.04-2.04,0.64-2.78l3.45-4.26l2.8,3.42h0c0.8,0.97,1.15,1.79,1.29,3.37l0.03,0.33
	c0.34-0.02,0.68-0.04,1.02-0.06C21.25,139.17,21.1,136.67,20.97,134.26z M21.45,104.91c0.14-0.8,0.14-1.24,0.04-1.44
	c-0.21,0.01-0.62,0.25-0.84,0.36h0l-0.94,0.47l-1.04,5.93l0.72,0.65c0.21,0.2,0.5,0.43,0.69,0.53c0.24-0.2,0.4-0.89,0.47-1.32
	l0.06-0.34c0.34,0.06,0.68,0.12,1.01,0.18c-0.18,1.03-0.84,4.77-0.91,5.23c-0.33-0.06-0.65-0.11-0.98-0.17l0.01-0.29
	c0.03-1.38-0.14-1.74-1.47-3l-4.62-4.47c-0.04,0.02-0.05,0.02-0.11,0.08l-0.35,0.75l-0.28-0.78c-0.25-0.71-0.51-1.42-0.84-1.98
	c-0.39-0.7,0.11-0.91,0.37-1.04l9.07-4.46c0.76-0.37,0.87-0.69,1.14-1.79l0.08-0.31c0.33,0.05,0.66,0.11,0.99,0.17l-1.32,7.54
	c-0.34-0.06-0.68-0.12-1.02-0.18L21.45,104.91z M18.43,105l-3.5,1.7l2.74,2.66L18.43,105z M27.57,78.62
	c-1.91-0.8-3.64,1.42-4.81,2.97c-1.13,1.49-2.27,3.14-3.03,3.14l-0.18-0.04c-0.69-0.28-0.51-1.66-0.15-2.5
	c0.74-1.84,2.55-2.91,4.47-2.94l0.4-0.98l-3.69-1.51l-0.34,0.86c0.18,0.35,0.15,0.76,0.06,0.97c-0.01,0.03-0.1,0.17-0.22,0.35
	c-0.66,0.98-1.13,1.66-1.63,2.89c-0.8,1.99-1.08,4.85,0.96,5.72c1.98,0.81,3.59-1.4,4.79-2.93c1.61-2.15,2.54-3.28,3.37-2.95
	c0.54,0.21,0.7,1.46,0,3.2c-0.92,2.25-2.46,2.8-4.53,3.1c-0.27,0.65-0.31,0.77-0.36,0.9l3.74,1.53l0.39-0.97
	c-0.15-0.6-0.1-0.67-0.09-0.79c0.02-0.06,0.12-0.24,0.25-0.45c0.35-0.55,1.14-1.89,1.56-2.92C29.32,83.2,30.37,79.77,27.57,78.62z
	 M56.1,44.55c0.61-0.55,0.88-0.89,0.92-1.1c-0.17-0.12-0.64-0.18-0.88-0.23l0,0L55.1,43l-4.49,4.01l0.16,0.95
	c0.04,0.28,0.13,0.65,0.21,0.84c0.31-0.01,0.86-0.45,1.19-0.74l0.26-0.23c0.23,0.26,0.46,0.51,0.68,0.77
	c-0.78,0.69-3.61,3.22-3.96,3.54c-0.22-0.25-0.44-0.49-0.66-0.74l0.19-0.22c0.88-1.07,0.97-1.46,0.71-3.26l-0.86-6.38
	c-0.05-0.01-0.05-0.01-0.14-0.01l-0.74,0.38l0.27-0.79c0.24-0.71,0.48-1.43,0.57-2.08c0.13-0.79,0.65-0.65,0.94-0.59l9.88,2.12
	c0.83,0.18,1.11,0,2.01-0.7l0.25-0.19c0.23,0.25,0.45,0.5,0.67,0.75l-5.71,5.1c-0.23-0.26-0.46-0.51-0.69-0.77L56.1,44.55z
	 M53.68,42.74l-3.8-0.84l0.51,3.78L53.68,42.74z M79.53,27.21l0.08,0.41c0.3,1.58-0.57,3.01-1.92,3.73
	c-0.79,0.44-1.66,0.72-2.58,0.36c-0.6,1.01-1.47,1.89-2.72,2.58c-2.46,1.37-4.22,1.1-4.95-0.24c-0.87-1.57,0.29-3.38,1.64-4.67
	c-0.78-0.27-1.35-0.6-1.8-1.43c-0.64-1.15-0.22-2.89,1.72-3.97c1.81-1.01,3.45-0.93,4.19,0.4c0.59,1.05-0.17,2.12-0.62,2.69
	c0.8,0.26,1.62,0.5,2.39,0.86c0.24-1.51,0.14-1.39,0.05-1.53c-0.15-0.06-0.37,0.07-1.21,0.38l-0.47-0.86l3.87-2.15l0.48,0.88
	l-0.26,0.17c-0.62,0.42-0.92,0.74-1.01,1.39l-0.34,2.28c0.92,0.55,1.45,0.99,2.02,0.67c0.57-0.32,0.44-0.89,0.52-1.58L79.53,27.21z
	 M74.13,31.24c-0.47-0.21-1.07-0.43-1.71-0.67c-0.71-0.25-1.45-0.51-2.07-0.74c-0.49,0.48-0.98,1.25-0.6,1.94
	c0.69,1.22,1.87,1.32,3.01,0.84C73.42,32.28,73.85,31.78,74.13,31.24z M71.54,25.09c-0.4-0.7-1.12-0.69-1.83-0.3
	c-0.61,0.34-0.54,0.81-0.43,1c0.26,0.47,1.26,0.84,2.05,0.94C71.69,26.14,71.85,25.65,71.54,25.09z M106.07,20.02
	c-0.53,0.14-1.3,0.37-1.67,0.37c-0.24,0-0.33-0.05-0.51-0.71l-1.7-6.16c-0.21-0.76-0.15-0.77,0.29-0.97
	c0.32-0.14,0.94-0.31,1.41-0.45l-0.28-1l-5.39,1.51l-2.06,7.38l-5.59-5.24l-5.26,1.47l0.27,0.98c1.2-0.27,1.51-0.32,1.83-0.28
	l1.9,6.86c0.04,0.22,0.1,0.44-0.26,0.77c-0.36,0.31-0.89,0.48-1.36,0.63l0.27,0.99l5.44-1.52l-0.28-1
	c-0.49,0.14-1.02,0.29-1.52,0.29c-0.5,0-0.81-0.14-0.92-0.54l-1.52-5.49l6.54,6.11l0.69-0.19l2.53-8.87l1.57,5.68
	c0.2,0.71,0.16,0.78-0.28,0.98c-0.34,0.15-0.93,0.31-1.4,0.45l0.27,1l7.28-2.03L106.07,20.02z M153.57,13.02
	c-0.09,0.4-0.17,0.77-0.23,1.01c1.24,0.26,1.54,0.43,1.71,0.53c0.31,0.2,0.36,0.41,0.27,0.83l-1.09,4.94
	c-0.48,2.14-4.36,1.55-5.57,1.26c-1.86-0.42-3.91-1.31-3.36-3.68l1-4.53c0.14-0.63,0.22-0.65,0.31-0.7
	c0.29-0.12,1.34,0.14,1.85,0.25l0.22-1.01l-7.05-1.58l-0.22,1.01c0.42,0.08,1.01,0.22,1.28,0.45c0.24,0.19,0.23,0.47,0.16,0.81
	l-1,4.53c-0.77,3.43,3.45,4.76,5.99,5.33c2.24,0.51,7.09,1.3,7.79-1.88l1.08-4.89c0.12-0.52,0.24-0.71,0.68-0.7
	c0.34,0,0.91,0.12,1.33,0.22c0.09-0.39,0.17-0.77,0.23-1.01L153.57,13.02z M179.47,23.16l-0.46,0.93c0.5,0.24,1.09,0.54,1.45,0.84
	c0.32,0.3,0.37,0.51,0.15,0.96l-2.11,4.25l-4.9-9.93l-5.15-2.58L168,18.54c0.48,0.29,1.27,0.68,1.54,1.02l-3.17,6.37
	c-0.15,0.28-0.37,0.39-0.68,0.39c-0.44,0.01-1-0.23-1.45-0.45l-0.46,0.92l5.05,2.54l0.46-0.93c-0.48-0.23-1.02-0.51-1.38-0.86
	c-0.31-0.3-0.45-0.6-0.27-0.97l2.88-5.8l6.44,12.85l1.11,0.56l3.8-7.64c0.23-0.45,0.39-0.55,0.58-0.55
	c0.33-0.01,1.04,0.35,1.47,0.58l0.46-0.93L179.47,23.16z M192.52,31.4l-0.63,0.82l0.27,0.21c0.43,0.34,0.74,0.6,0.91,0.79
	c0.3,0.35,0.28,0.41-0.15,0.97l-3.91,5.05c-0.49,0.62-0.53,0.58-0.98,0.33c-0.22-0.13-0.51-0.35-0.9-0.65l-0.27-0.21l-0.63,0.82
	l5.96,4.67l0.63-0.82l-0.26-0.21c-0.44-0.34-0.74-0.6-0.91-0.79c-0.31-0.33-0.26-0.42,0.15-0.97l3.91-5.04
	c0.48-0.62,0.52-0.58,0.98-0.33c0.22,0.13,0.51,0.35,0.9,0.65l0.27,0.2l0.63-0.81L192.52,31.4z M214.01,51.81l-0.77,0.67
	c0.34,0.44,0.73,0.89,0.73,1.17c-0.02,0.07-0.02,0.14-1.05,0.27l-5.82,0.67l1.67-7.09c0.28,0.18,0.86,0.86,1.24,1.29l0.78-0.68
	l-4.98-5.74l-0.78,0.68c0.28,0.32,0.6,0.68,0.78,1.04c0.23,0.47,0.14,0.92-0.01,1.6l-2.28,10l0.47,0.55l10.14-1.08
	c0.88-0.1,1.41,0.15,2.14,0.86l0.22,0.22l0.76-0.66L214.01,51.81z M219.91,80.2l3.4-0.32c-0.07-0.46-0.1-0.68-0.15-1.02
	c-2.61-0.86-3.39-1.13-4.89-3.86l-0.99-1.83c-0.07-0.12-0.14-0.27-0.16-0.36c0.07-0.06,0.14-0.1,0.23-0.15l3.01-1.63l0.38,0.71
	c0.99,1.91,1.54,3.38,0.21,4.35l-0.23,0.18l0.53,0.97l4.51-2.45l-0.53-0.98c-0.08,0.03-0.28,0.11-0.45,0.15
	c-1.33,0.28-2.58-1.7-3.13-2.72l-0.38-0.71l3.01-1.63l1.38,2.56c1.13,2.09,0.74,3.59,0.39,5.53c0.31,0.34,0.41,0.44,0.67,0.73
	l1.83-3.08l-5.74-10.66c-0.52,0.28-0.6,0.33-0.9,0.49c0.21,0.42,0.46,0.84,0.51,1.1c0.01,0.15,0.1,0.24-0.62,0.62l-5.59,3.04
	c-0.68,0.37-0.76,0.31-0.94,0.09c-0.19-0.25-0.39-0.62-0.56-0.94c-0.59,0.32-0.6,0.32-0.9,0.49L219.91,80.2z M235.83,96.23
	c0,1.32-0.32,2.88-1.81,3.31c-1.32,0.37-2.29-1.01-2.79-2.01l-2.54,4.16c-0.17,0.27-0.21,0.64,0.09,1.72l0.09,0.33
	c-0.27,0.08-0.62,0.18-0.99,0.29l-1.42-5.01l2.87-3.88c0.33-0.42,0.63-0.86,0.46-1.45l-0.36-1.29l-2.61,0.75
	c-0.69,0.19-0.7,0.3-0.7,0.51c0,0.35,0.22,1.14,0.37,1.66l-0.99,0.28l-1.99-7.02l0.99-0.28c0.12,0.41,0.27,0.95,0.4,1.23
	c0.2,0.46,0.36,0.34,0.95,0.2l6.11-1.75c0.77-0.21,0.7-0.33,0.72-0.5c0-0.3-0.19-0.97-0.32-1.43c0.24-0.07,0.6-0.18,0.99-0.29
	l1.73,6.13C235.6,93.64,235.83,95.08,235.83,96.23z M234.1,92.16l-0.29-1.02l-3.39,0.97l0.29,1.02c0.45,1.51,1.2,3.28,2.64,2.85
	C234.41,95.68,234.77,94.56,234.1,92.16z M232.92,123.01c2.07-0.13,2.64-2.88,3.01-4.79c0.36-1.83,0.65-3.81,1.34-4.15l0.18-0.05
	c0.74-0.05,1.19,1.27,1.24,2.18c0.15,1.98-1,3.73-2.71,4.61l0.08,1.06l3.98-0.27l-0.07-0.92c-0.32-0.23-0.47-0.61-0.48-0.85
	c-0.01-0.03,0.01-0.2,0.04-0.41c0.16-1.17,0.28-1.99,0.19-3.32c-0.16-2.14-1.17-4.83-3.38-4.71c-2.13,0.14-2.61,2.84-3.01,4.74
	c-0.5,2.64-0.83,4.07-1.72,4.13c-0.57,0.05-1.27-1.01-1.41-2.88c-0.17-2.42,0.97-3.6,2.7-4.78c-0.05-0.7-0.06-0.83-0.07-0.97
	l-4.03,0.28l0.07,1.04c0.4,0.48,0.39,0.56,0.43,0.67c0.01,0.06,0,0.26-0.03,0.52c-0.07,0.65-0.18,2.2-0.11,3.31
	C229.34,119.67,229.91,123.22,232.92,123.01z M239.66,132.88l-1.03-0.11l-0.04,0.34c-0.06,0.55-0.12,0.94-0.19,1.19
	c-0.14,0.44-0.2,0.45-0.9,0.38l-6.35-0.66c-0.78-0.09-0.77-0.14-0.8-0.66c0-0.26,0.02-0.62,0.08-1.11l0.03-0.34l-1.03-0.1
	l-0.82,7.53l1.03,0.11l0.04-0.33c0.06-0.55,0.12-0.95,0.19-1.19c0.12-0.44,0.22-0.44,0.9-0.39l6.34,0.66
	c0.78,0.08,0.77,0.14,0.8,0.66c0,0.26-0.02,0.62-0.08,1.11l-0.03,0.33l1.02,0.11L239.66,132.88z M224.24,158.31l0.99,0.29
	c0.12-0.37,0.29-1,0.47-1.45c0.29-0.68,0.34-0.65,1.04-0.46l6.74,1.94c0.13,0.04,0.19,0.08,0.2,0.08c0.02,0.1-0.01,0.25-0.05,0.37
	c-0.58,1.98-1.79,3.22-3.61,4l-0.11,1.04l3.57-0.08l0.33-1.11l-0.08-0.12c-0.03-0.19,0.04-0.48,0.14-0.84l2.73-9.36
	c0.07-0.24,0.2-0.64,0.32-0.77c0.05-0.03,0.1-0.05,0.14-0.07l0.33-1.11l-2.98-1.96l-0.46,0.94c1.17,1.68,1.44,3.42,0.89,5.28
	c-0.04,0.14-0.1,0.3-0.15,0.34c-0.07,0-0.06,0-0.21-0.04l-6.74-1.93c-0.68-0.19-0.76-0.26-0.63-0.93c0.05-0.3,0.25-1,0.39-1.49
	l-0.99-0.29L224.24,158.31z M228.65,172.88c-0.28,0.52-0.71,1.3-0.96,1.54c-0.18,0.17-0.31,0.21-0.61,0.32l-5.95,1.96l-2.22-1.25
	c-0.58-0.33-0.57-0.43-0.57-0.52c-0.01-0.36,0.58-1.38,0.87-1.9l-0.9-0.5l-3.91,7.05l0.9,0.5c0.34-0.59,0.84-1.56,1.16-1.74
	c0.13-0.05,0.17-0.1,0.74,0.21l2.64,1.48l0.96,4.4c0.29,1.32,0.4,1.88-0.37,3.28l-0.17,0.3l0.9,0.5l2.57-4.63l-0.9-0.5
	c-0.23,0.41-0.49,0.91-0.8,1.18l-0.07-0.26v0l-0.92-4.25l4.27-1.45l0.06-0.02c-0.08,0.32-0.42,0.96-0.67,1.41l0.9,0.5l3.95-7.12
	L228.65,172.88z"/>
</svg>
