<?xml version="1.0" encoding="UTF-8" standalone="no"?>
<svg
   xmlns:dc="http://purl.org/dc/elements/1.1/"
   xmlns:cc="http://creativecommons.org/ns#"
   xmlns:rdf="http://www.w3.org/1999/02/22-rdf-syntax-ns#"
   xmlns:svg="http://www.w3.org/2000/svg"
   xmlns="http://www.w3.org/2000/svg"
   xmlns:xlink="http://www.w3.org/1999/xlink"
   xmlns:sodipodi="http://sodipodi.sourceforge.net/DTD/sodipodi-0.dtd"
   xmlns:inkscape="http://www.inkscape.org/namespaces/inkscape"
   width="526px"
   height="160px"
   viewBox="0 0 526 160"
   version="1.1"
   id="SVGRoot"
   sodipodi:docname="TPBank.svg"
   inkscape:version="1.0.1 (3bc2e813f5, 2020-09-07)">
  <defs
     id="defs1899">
    <linearGradient
       inkscape:collect="always"
       xlink:href="#linearGradient1087"
       id="linearGradient1089"
       x1="-411.2204"
       y1="292.81415"
       x2="-300.75488"
       y2="292.81415"
       gradientUnits="userSpaceOnUse"
       gradientTransform="matrix(1.0376277,0,0,1.0376277,437.66109,-281.97626)" />
    <linearGradient
       inkscape:collect="always"
       id="linearGradient1087">
      <stop
         style="stop-color:#fbb413;stop-opacity:0.78431374"
         offset="0"
         id="stop1083" />
      <stop
         style="stop-color:#df5f27;stop-opacity:1"
         offset="1"
         id="stop1085" />
    </linearGradient>
    <linearGradient
       inkscape:collect="always"
       xlink:href="#linearGradient1173"
       id="linearGradient1089-6"
       x1="-411.17194"
       y1="272.67972"
       x2="-317.44183"
       y2="291.452"
       gradientUnits="userSpaceOnUse"
       gradientTransform="matrix(1.0376277,0,0,1.0376277,437.66109,-281.97626)" />
    <linearGradient
       inkscape:collect="always"
       id="linearGradient1173">
      <stop
         style="stop-color:#fbb413;stop-opacity:1"
         offset="0"
         id="stop1169" />
      <stop
         style="stop-color:#de5d27;stop-opacity:1"
         offset="1"
         id="stop1171" />
    </linearGradient>
    <linearGradient
       inkscape:collect="always"
       xlink:href="#linearGradient1173"
       id="linearGradient1155"
       gradientUnits="userSpaceOnUse"
       x1="-413.39755"
       y1="360.36148"
       x2="-395.10248"
       y2="280.91547"
       gradientTransform="matrix(1.0376277,0,0,1.0376277,437.66109,-281.97626)" />
    <linearGradient
       inkscape:collect="always"
       xlink:href="#linearGradient1087"
       id="linearGradient2568"
       gradientUnits="userSpaceOnUse"
       gradientTransform="matrix(1.0376277,0,0,1.0376277,437.66109,-281.97626)"
       x1="-411.2204"
       y1="292.81415"
       x2="-300.75488"
       y2="292.81415" />
    <linearGradient
       inkscape:collect="always"
       xlink:href="#linearGradient1173"
       id="linearGradient863"
       gradientUnits="userSpaceOnUse"
       gradientTransform="matrix(1.0376277,0,0,1.0376277,437.66109,-281.97626)"
       x1="-302.69223"
       y1="321.39151"
       x2="-370.15887"
       y2="352.82648" />
  </defs>
  <sodipodi:namedview
     id="base"
     pagecolor="#ffffff"
     bordercolor="#666666"
     borderopacity="1.0"
     inkscape:pageopacity="0.0"
     inkscape:pageshadow="2"
     inkscape:zoom="2.1888837"
     inkscape:cx="47.914719"
     inkscape:cy="90.228116"
     inkscape:document-units="px"
     inkscape:current-layer="layer1"
     inkscape:document-rotation="0"
     showgrid="false"
     inkscape:window-width="1920"
     inkscape:window-height="1001"
     inkscape:window-x="-9"
     inkscape:window-y="-9"
     inkscape:window-maximized="1" />
  <metadata
     id="metadata1902">
    <rdf:RDF>
      <cc:Work
         rdf:about="">
        <dc:format>image/svg+xml</dc:format>
        <dc:type
           rdf:resource="http://purl.org/dc/dcmitype/StillImage" />
        <dc:title />
      </cc:Work>
    </rdf:RDF>
  </metadata>
  <g
     inkscape:label="Lớp 1"
     inkscape:groupmode="layer"
     id="layer1">
    <path
       style="fill:url(#linearGradient1089);fill-opacity:1;stroke:none;stroke-width:0.254914;stroke-linecap:butt;stroke-linejoin:miter;stroke-miterlimit:4;stroke-dasharray:none;stroke-opacity:1"
       d="m 117.33409,0.96173829 c 0,2.0102e-4 0.0104,0.002015 0.0123,0.002015 h 0.0613 c -0.0312,-0.002015 -0.0435,-4.5239e-4 -0.0728,-0.002015 z"
       id="path1134" />
    <path
       style="fill:url(#linearGradient2568);fill-opacity:1;stroke:none;stroke-width:0.254914;stroke-linecap:butt;stroke-linejoin:miter;stroke-miterlimit:4;stroke-dasharray:none;stroke-opacity:1"
       d="m 116.77065,0.95160519 c 0.13229,-0.004021 0.33546,-0.002015 0.56344,0.0103531 -0.23461,-0.0131684 -0.42835,-0.0142743 -0.56344,-0.0103531 z"
       id="path856" />
    <path
       id="rect905"
       style="fill:#5e2e86;fill-opacity:1;fill-rule:evenodd;stroke:none;stroke-width:0.254914;stroke-miterlimit:4;stroke-dasharray:none;stroke-opacity:1"
       d="M 233.11259,14.969712 C 220.57161,15.133589 208.548,19.707944 208.548,19.707944 v 77.299214 h 15.45297 V 66.782201 c 3.87783,1.28111 9.99777,1.8345 19.51228,-0.36885 21.29793,-4.932146 19.95411,-25.109778 19.95411,-25.109778 0,0 1.45693,-14.684824 -14.01213,-22.979809 -4.83398,-2.592187 -10.64212,-3.428531 -16.34264,-3.354052 z m 67.37287,0.255355 c -8.02025,0.06052 -16.20018,1.763242 -22.08405,3.718841 v 73.87018 0.002 0 c 0.024,0.01036 21.08222,9.120182 39.1056,1.51997 18.03347,-7.604463 12.60157,-25.419861 12.60157,-25.419861 0,0 -2.93286,-10.756172 -15.31723,-14.44977 0,0 17.2716,-5.431448 12.16575,-24.659876 C 323.5842,18.553933 312.20339,15.13664 300.48141,15.225082 Z m 146.84468,0.02422 v 81.692915 h 9.01636 v -30.78627 l 28.02808,30.786324 h 11.29844 L 466.66601,65.981683 495.7804,35.673637 H 484.48208 L 456.3465,64.763693 V 15.249395 Z m -306.83185,0.04866 v 13.706004 h 18.83337 V 97.0152 h 15.46915 V 29.004024 h 18.71777 V 15.298009 Z M 302.3094,22.71131 c 2.59199,0.06112 5.12598,0.469295 7.27159,1.447008 8.58211,3.910865 8.58066,9.993247 8.58066,9.993247 0,0 3.15191,15.644181 -13.79517,16.839161 -9.14066,0.644531 -14.06232,0.495773 -16.72975,0.224957 V 25.015584 c 2.62995,-0.802246 8.74418,-2.444033 14.67267,-2.304262 z m -68.77118,4.693649 c 16.47784,0.224192 13.89851,16.589888 13.89851,16.589888 0,0 -1.00827,10.199595 -13.78708,10.984259 -4.46615,0.274235 -7.52724,-0.004 -9.64868,-0.476261 V 28.661533 c 2.55515,-0.797904 5.67811,-1.309027 9.53725,-1.256512 z m 181.09242,7.832877 c 0,0 -11.51643,-0.434925 -21.83678,4.888206 v 56.816185 h 9.3427 V 46.209934 c 0,0 9.88674,-5.430794 18.79486,-2.063091 8.90805,3.367654 8.25517,11.732031 8.36379,12.275212 v 40.520174 h 9.23533 V 53.923246 c 0,0 1.30346,-18.468132 -23.8999,-18.685408 z m -51.60176,0.109442 c 0,0 -13.36256,-0.324648 -20.09792,4.563931 l 2.60622,6.408155 c 0,0 12.71135,-6.518312 23.46616,-2.498809 0,0 7.16981,2.171809 6.84387,11.405804 v 3.368227 c 0,0 -29.95826,-1.410628 -35.19819,13.470921 -5.43178,15.426202 8.25641,22.487343 8.25641,22.487343 0,0 3.50333,2.478935 15.75492,2.515034 5.84673,0.01718 12.76688,-0.938358 19.76961,-4.144426 V 55.335804 c 0,0 1.19503,-19.988514 -21.40108,-19.988524 z m -66.552,23.066954 c 8.17403,-0.05509 18.26277,1.12442 21.68477,6.807393 5.44962,9.050341 1.52199,15.534022 1.52199,15.534012 0,0 -4.77962,9.887151 -19.98854,8.692171 -5.64627,-0.44364 -9.46846,-1.022738 -12.05837,-1.574685 V 58.928997 c 2.1211,-0.226555 5.18326,-0.490124 8.84015,-0.514763 z m 79.37033,6.697951 v 22.596781 c 0,0 -17.27338,5.975483 -24.76931,-1.846246 -7.49582,-7.821729 0.9789,-15.643458 0.9789,-15.643458 0,0 4.77932,-5.215705 23.79041,-5.107077 z" />
    <g
       aria-label="Vì chúng tôi hiểu bạn"
       id="text962"
       style="font-style:italic;font-size:9.42695px;line-height:1.25;font-family:'UTM Neo Sans Intel';-inkscape-font-specification:'UTM Neo Sans Intel Italic';letter-spacing:0px;word-spacing:0px;stroke-width:0.220944"
       transform="matrix(3.921743,0,0,3.921743,437.66109,-281.97626)">
      <path
         id="path1058"
         style="fill:#5e2e86;fill-opacity:1;stroke-width:0.835064"
         d="m 4.8671875,383.0625 c -0.5683079,0 -1.1367705,0.0637 -1.7050781,0.19141 -0.5683079,0.12774 -1.0191233,0.26119 -1.3554688,0.40039 -0.1275791,0.0465 -0.2552334,0.11638 -0.3828125,0.20898 -0.1275791,0.093 -0.2093463,0.22075 -0.2441406,0.38281 l -0.15625,0.71289 c -0.11598123,0.56841 0.1792336,0.74195 0.8867187,0.52149 0.568308,-0.17424 1.0370634,-0.29569 1.4082032,-0.36524 0.3827379,-0.0813 0.8195196,-0.12109 1.3066406,-0.12109 0.487121,0 0.7065488,0.22525 0.6601562,0.67774 L 5.25,385.8457 c -0.057989,0.26646 -0.1617271,0.51193 -0.3125,0.73242 -0.1391773,0.20863 -0.4184048,0.50397 -0.8359375,0.88672 L 3.25,388.21289 c -0.3247476,0.28989 -0.5920153,0.55715 -0.8007812,0.80078 -0.2087664,0.2434 -0.3703472,0.49289 -0.4863282,0.74805 -0.1159812,0.2434 -0.2097082,0.53874 -0.2792968,0.88672 l -0.15625,0.73047 c -0.034794,0.1508 0.00511,0.30239 0.1210937,0.45312 0.1159812,0.13909 0.2974553,0.20703 0.5410156,0.20703 h 0.6425781 c 0.2435607,0 0.4529815,-0.0679 0.6269532,-0.20703 0.1855699,-0.13909 0.2952841,-0.29068 0.3300781,-0.45312 l 0.15625,-0.73047 c 0.034809,-0.17424 0.086661,-0.31974 0.15625,-0.43555 0.069589,-0.12737 0.1393957,-0.22538 0.2089844,-0.29492 0.069589,-0.0813 0.2730291,-0.27851 0.609375,-0.5918 l 0.8183593,-0.74805 c 0.4755232,-0.44069 0.8465245,-0.81171 1.1132813,-1.11328 0.2783546,-0.3016 0.4798428,-0.58078 0.6074219,-0.83593 0.1391773,-0.25512 0.2388857,-0.51449 0.296875,-0.78125 l 0.035156,-0.17383 c 0.1971666,-0.90467 0.017651,-1.56681 -0.5390625,-1.98438 -0.545111,-0.41752 -1.3409349,-0.62695 -2.3847654,-0.62695 z m -204.6757775,7.2207 c -0.25516,0 -0.40076,0.0797 -0.43555,0.24219 -0.0231,0.093 0.005,0.1867 0.0859,0.2793 l 3.0625,4.48828 c 0.0928,0.1508 0.16261,0.26053 0.20898,0.33008 0.058,0.0695 0.12183,0.12343 0.19141,0.1582 0.0812,0.034 0.17893,0.0508 0.29492,0.0508 h 1.93164 c 0.20874,0 0.33046,-0.0797 0.36523,-0.24219 0.0348,-0.1508 0.017,-0.27421 -0.0527,-0.36718 l -2.52148,-4.41797 c -0.22035,-0.3481 -0.48166,-0.52149 -0.78321,-0.52149 z m 62.74609,0 c -0.19718,0 -0.34677,0.0266 -0.45117,0.0859 -0.10439,0.0578 -0.2739,0.20333 -0.50586,0.43555 l -4.43555,4.41992 c -0.11599,0.093 -0.19179,0.21481 -0.22656,0.36523 -0.0348,0.16215 0.0529,0.24219 0.26172,0.24219 h 1.92969 c 0.17397,0 0.30761,-0.0266 0.40039,-0.0859 0.10439,-0.0695 0.28392,-0.2211 0.53906,-0.45312 l 4.99414,-4.48828 c 0.10439,-0.093 0.16824,-0.18437 0.19141,-0.27735 0.0348,-0.16214 -0.0809,-0.24414 -0.34766,-0.24414 z m 72.984375,0 c -0.19714,0 -0.348738,0.0266 -0.453125,0.0859 -0.104391,0.0578 -0.277947,0.20337 -0.521484,0.43555 l -4.367188,4.41797 c -0.10439,0.093 -0.174213,0.21638 -0.208984,0.36718 -0.03477,0.16215 0.05294,0.24219 0.261718,0.24219 h 1.861329 c 0.162368,0 0.296011,-0.034 0.40039,-0.10351 0.115994,-0.0695 0.295525,-0.21505 0.539063,-0.43555 l 3.6875,-3.44531 2.193359,3.44531 c 0.150765,0.23206 0.260497,0.38358 0.330078,0.45312 0.06958,0.0578 0.191225,0.0859 0.365235,0.0859 h 1.84375 c 0.220384,0 0.348018,-0.0797 0.382812,-0.24219 0.03477,-0.1508 0.01286,-0.27263 -0.06836,-0.36523 l -2.453125,-4.41992 c -0.208781,-0.3481 -0.464076,-0.52149 -0.765625,-0.52149 z m 60.7167969,0.52149 c -0.1971682,0 -0.3487418,0.0301 -0.453125,0.0879 -0.104383,0.0578 -0.2779241,0.20145 -0.5214844,0.43359 l -4.3671875,4.41992 c -0.104383,0.093 -0.1722369,0.21481 -0.2070312,0.36524 -0.034809,0.16214 0.051,0.24219 0.2597656,0.24219 h 1.8613281 c 0.1623723,0 0.2960088,-0.034 0.4003906,-0.10352 0.104383,-0.0695 0.2839032,-0.21509 0.5390625,-0.43555 l 3.6894532,-3.44336 2.1914062,3.44336 c 0.15077571,0.23207 0.2604895,0.38355 0.33007812,0.45313 0.0695887,0.0578 0.19126269,0.0859 0.36523438,0.0859 h 1.84375 c 0.2203642,0 0.3480181,-0.0797 0.3828125,-0.24219 0.034794,-0.15081 0.012828,-0.27264 -0.068359,-0.36524 l -2.45312498,-4.41992 c -0.20876621,-0.34809 -0.46407391,-0.52148 -0.765625,-0.52148 z m -47.4999999,0.22656 c -0.208781,0 -0.394276,0.0699 -0.556641,0.20898 -0.162368,0.13947 -0.266125,0.30692 -0.3125,0.50391 l -0.609375,2.83594 c -0.03477,0.19729 0.0011,0.36474 0.105469,0.5039 0.115994,0.13909 0.271599,0.20899 0.46875,0.20899 h 1.808594 c 0.197178,0 0.378647,-0.0637 0.541015,-0.19141 0.173972,-0.13946 0.277729,-0.31297 0.3125,-0.52148 l 0.609375,-2.83594 c 0.04637,-0.22035 0.01665,-0.394 -0.08789,-0.52148 -0.09279,-0.12737 -0.248392,-0.19141 -0.46875,-0.19141 z m 34.779297,0 c -0.208766,0 -0.394268,0.0699 -0.556641,0.20898 -0.162376,0.13947 -0.26611,0.30692 -0.3125,0.50391 l -0.609375,2.83594 c -0.03481,0.19729 0.0011,0.36474 0.105469,0.5039 0.115982,0.13909 0.271582,0.20899 0.46875,0.20899 h 1.810547 c 0.197166,0 0.37669,-0.0637 0.539062,-0.19141 0.173972,-0.13946 0.277706,-0.31297 0.3125,-0.52148 l 0.609375,-2.83594 c 0.04639,-0.22035 0.01648,-0.394 -0.08789,-0.52148 -0.09278,-0.12737 -0.248387,-0.19141 -0.46875,-0.19141 z m -149.222659,0.20898 c -0.19717,0 -0.37669,0.0699 -0.53906,0.20899 -0.15078,0.12744 -0.24255,0.29502 -0.27734,0.5039 l -5.39453,25.36524 c -0.0464,0.19727 -0.0165,0.36482 0.0879,0.50391 0.11596,0.13908 0.26156,0.20898 0.43554,0.20898 h 1.73828 c 0.18559,0 0.36511,-0.0699 0.53907,-0.20898 0.17398,-0.15066 0.28564,-0.31821 0.33203,-0.50391 l 3.26953,-15.39648 c 0.76547,-0.32487 1.64709,-0.56821 2.64453,-0.73047 0.99744,-0.17386 1.82121,-0.26172 2.4707,-0.26172 1.241,0 2.11066,0.34903 2.60938,1.04492 0.51032,0.69589 0.5861,1.90065 0.22656,3.61719 l -2.48828,11.72656 c -0.0464,0.19727 -0.0165,0.36482 0.0879,0.50391 0.11598,0.13908 0.27158,0.20898 0.46875,0.20898 h 1.70508 c 0.17398,0 0.34752,-0.0699 0.52148,-0.20898 0.18558,-0.13932 0.30322,-0.30687 0.34961,-0.50391 l 2.48633,-11.72656 c 0.34796,-1.67013 0.37784,-3.06236 0.0879,-4.17578 -0.28995,-1.12502 -0.8644,-1.94282 -1.72266,-2.45313 -0.85826,-0.52193 -1.93136,-0.78125 -3.21875,-0.78125 -0.84666,0 -1.78014,0.0916 -2.80078,0.27734 -1.00903,0.18558 -1.96644,0.46482 -2.87109,0.83594 l 1.56641,-7.3418 c 0.0348,-0.20883 0.005,-0.37641 -0.0879,-0.5039 -0.0928,-0.13909 -0.24242,-0.20899 -0.45118,-0.20899 z m 130.36719,0 c -0.197168,0 -0.376689,0.0699 -0.539062,0.20899 -0.150776,0.12744 -0.244503,0.29502 -0.279297,0.5039 l -5.392579,25.36524 c -0.04639,0.19727 -0.01845,0.36482 0.08594,0.50391 0.115994,0.13908 0.261588,0.20898 0.435547,0.20898 h 1.740234 c 0.185557,0 0.365078,-0.0699 0.539063,-0.20898 0.173984,-0.15066 0.28369,-0.31821 0.330078,-0.50391 l 3.271484,-15.39648 c 0.765476,-0.32487 1.647093,-0.56821 2.644532,-0.73047 0.997438,-0.17386 1.821208,-0.26172 2.470703,-0.26172 1.240998,0 2.110656,0.34903 2.609375,1.04492 0.510317,0.69589 0.584151,1.90065 0.224609,3.61719 l -2.486328,11.72656 c -0.04639,0.19727 -0.01845,0.36482 0.08594,0.50391 0.115982,0.13908 0.273536,0.20898 0.470704,0.20898 h 1.705078 c 0.173972,0 0.347512,-0.0699 0.521484,-0.20898 0.18557,-0.13932 0.301264,-0.30687 0.347656,-0.50391 l 2.488282,-11.72656 c 0.347943,-1.67013 0.37589,-3.06236 0.08594,-4.17578 -0.289953,-1.12502 -0.864395,-1.94282 -1.722656,-2.45313 -0.858261,-0.52193 -1.929406,-0.78125 -3.216797,-0.78125 -0.846663,0 -1.7821,0.0916 -2.802734,0.27734 -1.009037,0.18558 -1.964488,0.46482 -2.869141,0.83594 l 1.564453,-7.3418 c 0.03479,-0.20883 0.0068,-0.37641 -0.08594,-0.5039 -0.09278,-0.13909 -0.244359,-0.20899 -0.453124,-0.20899 z m 71.824219,0 c -0.208755,0 -0.382297,0.0699 -0.521485,0.20899 -0.139188,0.13946 -0.230953,0.29481 -0.277343,0.46875 l -5.289063,24.92969 c -0.05799,0.26683 -0.05799,0.4583 0,0.57422 0.06959,0.10469 0.261067,0.19217 0.574219,0.26171 1.994876,0.39432 4.129112,0.5918 6.402344,0.5918 2.609575,0 4.719892,-0.77789 6.332031,-2.33203 1.623738,-1.55418 2.730766,-3.71036 3.322266,-6.4707 l 0.539062,-2.5586 c 0.301569,-1.42658 0.407225,-2.67917 0.314453,-3.75781 -0.08118,-1.0786 -0.372359,-1.98219 -0.871094,-2.71289 -0.487124,-0.7307 -1.177259,-1.28916 -2.070312,-1.67188 -0.881458,-0.39435 -1.976521,-0.58984 -3.287109,-0.58984 -0.719082,0 -1.44913,0.0266 -2.191407,0.0859 -0.730684,0.0582 -1.41679,0.15192 -2.054687,0.2793 l 1.410156,-6.62891 c 0.04641,-0.18558 0.01661,-0.34131 -0.08789,-0.46875 -0.10439,-0.13909 -0.248011,-0.20899 -0.433593,-0.20899 z m -256.962889,0.3125 c -0.16238,0 -0.32396,0.0579 -0.48633,0.17383 -0.15078,0.10424 -0.2445,0.24985 -0.2793,0.43555 -0.0232,0.0927 -0.0292,0.16262 -0.0176,0.20898 l 1.66993,23.20703 c 0.12758,1.79772 1.14881,2.69727 3.0625,2.69727 0.81186,0 1.58975,-0.19747 2.33203,-0.5918 0.75388,-0.39435 1.38019,-1.09643 1.8789,-2.10547 l 11.48047,-23.20703 c 0.0348,-0.0464 0.0647,-0.11626 0.0879,-0.20898 0.0812,-0.40592 -0.0804,-0.60938 -0.48632,-0.60938 h -2.10547 c -0.28995,0 -0.52732,0.17953 -0.71289,0.53907 l -11.06641,22.70312 c -0.24356,0.49872 -0.52084,0.74805 -0.83398,0.74805 -0.33635,0 -0.52185,-0.24933 -0.55665,-0.74805 l -1.35742,-22.70312 c -0.0116,-0.15086 -0.0754,-0.2785 -0.1914,-0.38282 -0.10439,-0.10431 -0.22009,-0.15625 -0.34766,-0.15625 z m 141.527342,2.40039 -1.931641,0.27735 c -0.429132,0.0812 -0.68444,0.32051 -0.765625,0.71484 l -0.748047,3.4961 h -3.460937 c -0.452339,0 -0.725585,0.20941 -0.81836,0.62695 l -0.208984,0.97461 c -0.08119,0.39435 0.09833,0.60781 0.539063,0.64258 l 3.392578,0.38281 -2.644531,12.43945 c -0.405939,1.86729 -0.30623,3.13188 0.296874,3.79297 0.603102,0.6495 1.773956,0.97266 3.513672,0.97266 0.753878,0 1.541766,-0.0579 2.365235,-0.17383 0.440723,-0.058 0.696031,-0.25948 0.765625,-0.60742 l 0.261718,-1.23633 c 0.06959,-0.33635 -0.145812,-0.50391 -0.644531,-0.50391 h -2 c -0.742289,0 -1.217025,-0.13363 -1.425781,-0.40039 -0.208756,-0.27835 -0.208756,-0.89272 0,-1.84375 l 2.644531,-12.43945 h 3.84375 c 0.173985,0 0.347526,-0.0699 0.521485,-0.20898 0.185574,-0.13929 0.297234,-0.30687 0.332031,-0.50391 l 0.259765,-1.20117 c 0.04639,-0.19727 0.01247,-0.36482 -0.103515,-0.50391 -0.104388,-0.13909 -0.25596,-0.20898 -0.453125,-0.20898 h -3.84375 l 0.816406,-3.89649 c 0.04639,-0.17403 0.0304,-0.31365 -0.05078,-0.41797 -0.06959,-0.1159 -0.187241,-0.17383 -0.349609,-0.17383 z m -97.167972,4.20508 c -1.64693,0 -3.12093,0.34709 -4.41992,1.04297 -1.28739,0.69589 -2.34853,1.69319 -3.18359,2.99219 -0.83507,1.28738 -1.44343,2.83119 -1.82617,4.62891 l -0.5918,2.7832 c -0.28994,1.36857 -0.3877,2.57531 -0.29492,3.61914 0.0928,1.04383 0.37604,1.94142 0.85156,2.69531 0.48712,0.75387 1.17128,1.33429 2.05273,1.74024 0.88146,0.39433 1.92466,0.59179 3.13086,0.59179 0.97425,0 1.90773,-0.11559 2.80078,-0.34765 0.89306,-0.23186 1.58918,-0.46924 2.08789,-0.71289 0.22038,-0.10457 0.37793,-0.20415 0.47071,-0.29688 0.0928,-0.0929 0.1626,-0.24254 0.20898,-0.45117 l 0.25977,-1.28711 c 0.10438,-0.49882 -0.13299,-0.65042 -0.71289,-0.45313 -1.65853,0.54511 -3.16646,0.81836 -4.52344,0.81836 -1.44977,0 -2.45306,-0.49461 -3.00977,-1.48046 -0.5451,-0.99745 -0.60893,-2.47549 -0.1914,-4.43555 l 0.5918,-2.7832 c 0.83506,-3.94339 2.73791,-5.91602 5.70703,-5.91602 1.35698,0 2.74725,0.27323 4.17382,0.81836 0.51031,0.18555 0.81944,0.03 0.92383,-0.46875 l 0.27735,-1.27148 c 0.0348,-0.20884 0.0288,-0.35246 -0.0176,-0.4336 -0.0348,-0.093 -0.14451,-0.19855 -0.33008,-0.31445 -0.37114,-0.24348 -0.96352,-0.48083 -1.77539,-0.71289 -0.80027,-0.24366 -1.68592,-0.36524 -2.66016,-0.36524 z m 172.2851594,0.0215 c -2.5051936,0 -4.6095298,0.74797 -6.3144532,2.24414 -1.7049232,1.48456 -2.8298882,3.51504 -3.3750002,6.08984 l -0.695312,3.21875 c -0.440719,2.09926 -0.428762,3.78672 0.03516,5.0625 0.475523,1.26422 1.263413,2.1618 2.365234,2.69531 1.101822,0.52192 2.3943479,0.78321 3.8789066,0.78321 2.3544185,0 4.6801352,-0.54456 6.97656252,-1.63477 0.3595417,-0.18557 0.5689627,-0.4009 0.62695313,-0.64453 l 0.3125,-1.46094 c 0.0463926,-0.22034 0.006486,-0.37607 -0.12109375,-0.46875 -0.12757928,-0.10318 -0.3310202,-0.0976 -0.609375,0.0195 -0.47552281,0.17386 -1.1018322,0.38938 -1.8789063,0.64454 -0.7770737,0.24378 -1.564964,0.4411 -2.3652343,0.59179 -0.7886722,0.15081 -1.5785158,0.22461 -2.3671875,0.22461 -1.6933251,0 -2.8462371,-0.4508 -3.4609374,-1.35547 -0.603102,-0.90463 -0.690851,-2.39058 -0.261719,-4.45507 l 0.121094,-0.50391 H 1.3710938 c 0.4523266,0 0.7296013,-0.26118 0.8339843,-0.7832 l 0.4179688,-1.93165 c 0.3479535,-1.67013 0.3599027,-3.13816 0.035156,-4.40234 -0.3131493,-1.26421 -0.9853455,-2.23162 -2.0175781,-2.9043 -1.0322324,-0.68432 -2.3905385,-1.02734 -4.0722656,-1.02734 z m 62.7109376,0 c -1.159816,0 -2.302717,0.13378 -3.427735,0.40039 -1.125014,0.25512 -1.988693,0.50438 -2.591796,0.74804 -0.359547,0.13909 -0.572986,0.35266 -0.642578,0.64258 l -0.296876,1.39258 c -0.03477,0.19729 0.01096,0.34284 0.138672,0.43555 0.139163,0.0937 0.342616,0.0993 0.609375,0.0195 1.067025,-0.30161 2.000512,-0.52107 2.800782,-0.66016 0.811869,-0.1508 1.757309,-0.22656 2.835937,-0.22656 1.403373,0 2.324898,0.28913 2.765625,0.86914 0.452319,0.56833 0.516166,1.59552 0.191406,3.08008 l -0.294921,1.42578 h -2.644532 c -2.076064,0 -3.787429,0.20939 -5.132812,0.62695 -1.345384,0.40596 -2.388579,1.03226 -3.13086,1.87891 -0.74228,0.84665 -1.258874,1.93769 -1.548828,3.27148 l -0.05078,0.3125 c -0.440727,2.05289 -0.157492,3.54885 0.851563,4.48829 1.020634,0.92787 2.917502,1.39257 5.689453,1.39257 1.194606,0 2.277711,-0.0699 3.251953,-0.20898 0.974241,-0.13909 1.955565,-0.34243 2.941406,-0.60938 0.37115,-0.0813 0.60254,-0.34243 0.695312,-0.7832 l 2.50586,-11.79687 c 0.951046,-4.46529 -0.887979,-6.69727 -5.515625,-6.69727 z m -181.287107,0.002 c -2.01807,0 -4.54528,0.37101 -7.58399,1.11328 -0.46393,0.1276 -0.74316,0.41085 -0.83593,0.85156 l -3.63477,17.17188 c -0.0464,0.19727 -0.0185,0.36482 0.0859,0.50391 0.11597,0.13908 0.26156,0.20898 0.43554,0.20898 h 1.74024 c 0.18556,0 0.36508,-0.0699 0.53906,-0.20898 0.17399,-0.15066 0.28369,-0.31821 0.33008,-0.50391 l 3.35742,-15.81445 c 1.69333,-0.42913 3.27106,-0.64258 4.73242,-0.64258 0.97424,0 1.73419,0.14961 2.2793,0.45117 0.54512,0.30156 0.88024,0.80021 1.00781,1.49609 0.13918,0.69589 0.0813,1.63535 -0.17383,2.81836 l -2.4707,11.69141 c -0.0464,0.19727 -0.0165,0.36482 0.0879,0.50391 0.11599,0.13908 0.27159,0.20898 0.46875,0.20898 h 1.70508 c 0.17396,0 0.34945,-0.0699 0.52344,-0.20898 0.18557,-0.13932 0.30127,-0.30687 0.34765,-0.50391 l 2.47071,-11.69141 c 0.26676,-1.25261 0.38245,-2.32569 0.34765,-3.21875 -0.0348,-0.90464 -0.24421,-1.6686 -0.62695,-2.29492 -0.38274,-0.62629 -1.00307,-1.103 -1.86133,-1.42773 -0.84666,-0.33636 -1.9377,-0.50391 -3.27148,-0.50391 z m 17.56054,0 c -1.7745,0 -3.32233,0.31901 -4.64453,0.95703 -1.31059,0.62631 -2.39563,1.58176 -3.2539,2.86914 -0.84666,1.28739 -1.48493,2.92295 -1.91407,4.90625 l -0.55664,2.60938 c -1.241,5.83385 0.78951,8.75195 6.08985,8.75195 0.54511,0 1.24122,-0.0519 2.08789,-0.15625 0.84666,-0.10469 1.51288,-0.21638 2,-0.33203 l -0.0527,0.24414 c -0.24355,1.19463 -0.57868,2.11018 -1.00781,2.74805 -0.42913,0.6494 -0.99161,1.09617 -1.6875,1.33984 -0.68429,0.24378 -1.60776,0.36524 -2.76758,0.36524 -1.12501,-4e-5 -2.00663,-0.0914 -2.64453,-0.27735 -0.6379,-0.18557 -1.51353,-0.51067 -2.62695,-0.97461 -0.22035,-0.10431 -0.41585,-0.10431 -0.58984,0 -0.17398,0.10432 -0.27965,0.26192 -0.31446,0.4707 l -0.25976,1.18165 c -0.0696,0.33637 0.0401,0.6095 0.33007,0.81835 0.46393,0.31333 1.19397,0.61434 2.19141,0.9043 1.00904,0.28989 2.134,0.43555 3.375,0.43555 2.53999,0 4.56451,-0.53453 6.07227,-1.60156 1.50776,-1.05544 2.52898,-2.85856 3.0625,-5.41016 l 3.878902,-18.21484 c 0.05802,-0.26684 0.04603,-0.45233 -0.03516,-0.55664 -0.06958,-0.11604 -0.249108,-0.20194 -0.539062,-0.25977 -2.26163,-0.54512 -4.32605,-0.81836 -6.19336,-0.81836 z m 40.142582,0 c -2.551589,0 -4.67386,0.78191 -6.367187,2.34766 -1.693327,1.55414 -2.824269,3.67045 -3.392578,6.34961 l -0.574219,2.71484 c -0.568309,2.66755 -0.336907,4.78383 0.695313,6.34961 1.03223,1.55414 2.825363,2.33203 5.376953,2.33203 2.563185,0 4.691443,-0.77789 6.384765,-2.33203 1.693327,-1.56578 2.82427,-3.68206 3.392579,-6.34961 l 0.574218,-2.71484 c 0.568305,-2.67916 0.33498,-4.79547 -0.697265,-6.34961 -1.032235,-1.56575 -2.829397,-2.34766 -5.392579,-2.34766 z m 142.667969,0 c -2.018073,0 -4.54723,0.37101 -7.585937,1.11328 -0.463935,0.1276 -0.74121,0.41085 -0.833985,0.85156 l -3.636718,17.17188 c -0.04641,0.19727 -0.0165,0.36482 0.08789,0.50391 0.115996,0.13908 0.259635,0.20898 0.433594,0.20898 h 1.740234 c 0.185583,0 0.365104,-0.0699 0.539063,-0.20898 0.173984,-0.15066 0.283691,-0.31821 0.330078,-0.50391 l 3.359375,-15.81445 c 1.693324,-0.42913 3.269107,-0.64258 4.730469,-0.64258 0.974244,0 1.734185,0.14961 2.279297,0.45117 0.545118,0.30156 0.882194,0.80021 1.009765,1.49609 0.139178,0.69589 0.08133,1.63535 -0.173828,2.81836 l -2.470703,11.69141 c -0.04639,0.19727 -0.0165,0.36482 0.08789,0.50391 0.115983,0.13908 0.271584,0.20898 0.46875,0.20898 h 1.705078 c 0.173984,0 0.347525,-0.0699 0.521484,-0.20898 0.185575,-0.13932 0.301269,-0.30687 0.347656,-0.50391 l 2.470704,-11.69141 c 0.266759,-1.25261 0.382453,-2.32569 0.347656,-3.21875 -0.0348,-0.90464 -0.242263,-1.6686 -0.625,-2.29492 -0.38274,-0.62629 -1.003068,-1.103 -1.861328,-1.42773 -0.846662,-0.33636 -1.937702,-0.50391 -3.271484,-0.50391 z m -276.171871,0.25977 c -0.19718,0 -0.38268,0.0699 -0.55664,0.20898 -0.16237,0.13947 -0.26207,0.3088 -0.29688,0.50586 l -3.86133,18.16211 c -0.0464,0.19729 -0.0125,0.36471 0.10352,0.50391 0.12756,0.13908 0.27916,0.20898 0.45312,0.20898 h 1.70508 c 0.19718,0 0.37671,-0.064 0.53906,-0.19141 0.17401,-0.13908 0.28371,-0.31255 0.33008,-0.52148 l 3.86328,-18.16211 c 0.0464,-0.22035 0.0166,-0.39595 -0.0879,-0.52344 -0.10435,-0.12737 -0.26596,-0.1914 -0.48633,-0.1914 z m 49.4375,0 c -0.20878,0 -0.39428,0.0699 -0.55664,0.20898 -0.16237,0.13947 -0.26015,0.30876 -0.29493,0.50586 l -2.48828,11.67187 v 0.002 c -0.34794,1.63532 -0.42776,2.99768 -0.24218,4.08789 0.18557,1.07864 0.73011,1.90839 1.63476,2.48828 0.91625,0.57993 2.25063,0.86914 4.00195,0.86914 2.06446,0 4.59765,-0.36512 7.60157,-1.0957 0.46393,-0.12737 0.74315,-0.41275 0.83593,-0.85352 l 3.65235,-17.16992 c 0.0348,-0.19729 8.7e-4,-0.36658 -0.10352,-0.50586 -0.0928,-0.13909 -0.23838,-0.20703 -0.43554,-0.20703 h -1.74024 c -0.20878,0 -0.39427,0.0742 -0.55664,0.22461 -0.16237,0.13909 -0.26011,0.30237 -0.29492,0.48828 l -3.375,15.8125 c -0.70748,0.17424 -1.53724,0.32579 -2.48828,0.45313 -0.95105,0.12737 -1.69903,0.1914 -2.24414,0.1914 -1.46136,0 -2.44074,-0.35907 -2.93946,-1.07812 -0.48713,-0.71906 -0.54497,-1.95572 -0.17382,-3.70704 l 2.48632,-11.67187 c 0.0348,-0.19729 -0.005,-0.36658 -0.12109,-0.50586 -0.10439,-0.13909 -0.25596,-0.20898 -0.45313,-0.20898 z m 95.960934,0 c -0.19714,0 -0.382654,0.0699 -0.556641,0.20898 -0.162368,0.13947 -0.260112,0.30876 -0.294922,0.50586 l -3.861328,18.16211 c -0.04637,0.19729 -0.01248,0.36474 0.103516,0.50391 0.127559,0.13908 0.279153,0.20898 0.453125,0.20898 h 1.705078 c 0.197178,0 0.376705,-0.0637 0.539062,-0.19141 0.173972,-0.13908 0.283704,-0.31259 0.330078,-0.52148 l 3.861329,-18.16211 c 0.04641,-0.22035 0.01853,-0.39592 -0.08594,-0.52344 -0.104353,-0.12737 -0.267893,-0.1914 -0.488281,-0.1914 z m 34.78125,0 c -0.197167,0 -0.38267,0.0699 -0.556641,0.20898 -0.162372,0.13947 -0.262081,0.30876 -0.296875,0.50586 l -3.861328,18.16211 c -0.04639,0.19729 -0.01247,0.36474 0.103516,0.50391 0.127578,0.13908 0.279152,0.20898 0.453125,0.20898 h 1.705078 c 0.197166,0 0.37669,-0.0637 0.539062,-0.19141 0.173972,-0.13908 0.283685,-0.31259 0.330078,-0.52148 l 3.863282,-18.16211 c 0.04639,-0.22035 0.01648,-0.39592 -0.08789,-0.52344 -0.104383,-0.12737 -0.265965,-0.1914 -0.486328,-0.1914 z m 25.6718748,0 c -0.2087663,0 -0.3942671,0.0699 -0.5566407,0.20898 -0.1623735,0.13931 -0.2620806,0.30882 -0.296875,0.50586 l -2.4882812,11.67187 v 0.002 c -0.3479433,1.63535 -0.4277573,2.99767 -0.2421875,4.08789 0.1855697,1.07863 0.7301122,1.90837 1.6347656,2.48828 0.9162512,0.57991 2.2506372,0.86914 4.001953,0.86914 2.064465,0 4.59765,-0.36502 7.601563,-1.0957 0.463924,-0.12757 0.743152,-0.41277 0.835937,-0.85352 l 3.652344,-17.16992 c 0.03479,-0.19727 8.67e-4,-0.36677 -0.103516,-0.50586 -0.09278,-0.13909 -0.238379,-0.20703 -0.435547,-0.20703 H 19.90625 c -0.208766,0 -0.394267,0.0739 -0.556641,0.22461 -0.162373,0.13906 -0.260127,0.30258 -0.294921,0.48828 l -3.375,15.8125 c -0.707486,0.17406 -1.537236,0.32563 -2.488282,0.45313 -0.951046,0.12749 -1.699029,0.1914 -2.24414,0.1914 -1.4613633,0 -2.4407345,-0.35903 -2.9394535,-1.07812 -0.4871209,-0.71907 -0.5449679,-1.9557 -0.1738281,-3.70704 l 2.4882816,-11.67187 c 0.03479,-0.19727 -0.0071,-0.36677 -0.123047,-0.50586 -0.104383,-0.13909 -0.2540043,-0.20898 -0.4511721,-0.20898 z m -113.0468788,2.38476 c 1.2526,0 2.5511,0.12777 3.89649,0.38281 l -2.99219,14.03907 c -0.55671,0.11603 -1.22891,0.21404 -2.01758,0.29492 -0.78867,0.0695 -1.46685,0.10547 -2.03515,0.10547 -1.09022,0 -1.94987,-0.19729 -2.57618,-0.5918 -0.62629,-0.39432 -1.01927,-1.03858 -1.18164,-1.93164 -0.16236,-0.89306 -0.0866,-2.09383 0.22657,-3.60156 l 0.55664,-2.60938 c 0.23195,-1.10184 0.51521,-2.03531 0.85156,-2.80078 0.34794,-0.76547 0.75482,-1.39176 1.21875,-1.8789 0.47552,-0.487 1.04801,-0.84009 1.7207,-1.06055 0.67269,-0.23206 1.45058,-0.34766 2.33203,-0.34766 z m 40.125004,0.10352 c 1.090223,0 1.935959,0.23735 2.539062,0.71289 0.614695,0.4755 0.997657,1.15967 1.148438,2.05273 0.162368,0.88146 0.110509,1.94263 -0.15625,3.1836 l -0.574219,2.71484 c -0.405933,1.90209 -1.118037,3.37012 -2.138672,4.40234 -1.009035,1.03227 -2.319506,1.54688 -3.931641,1.54688 -3.189486,0 -4.362288,-1.98268 -3.515624,-5.94922 l 0.574218,-2.71484 c 0.405933,-1.89049 1.114012,-3.35055 2.123047,-4.38282 1.009036,-1.04383 2.319502,-1.5664 3.931641,-1.5664 z m 60.8574216,0 c 1.0554289,0 1.883226,0.18556 2.4863282,0.55664 0.60310207,0.37115 0.98606403,0.97354 1.14843745,1.80859 0.17397188,0.83509 0.12210472,1.90816 -0.15625,3.21875 l -0.0703125,0.33203 H -10.058594 l 0.06836,-0.33203 c 0.7886718,-3.72302 2.7792683,-5.58398 5.9687496,-5.58398 z m 45.4843754,0 c 1.681731,0 2.772764,0.49266 3.271484,1.47851 0.498724,0.98586 0.532639,2.48778 0.103516,4.50586 l -0.539063,2.5586 c -0.429127,2.04128 -1.101326,3.56519 -2.017578,4.57422 -0.916252,0.99745 -2.22074,1.49609 -3.914062,1.49609 -1.032234,0 -2.402499,-0.0761 -4.107422,-0.22656 l 2.992187,-14.14258 c 0.939449,-0.16214 2.343643,-0.24414 4.210938,-0.24414 z m 16.773437,7.65429 h 2.644531 l -1.46289,6.92579 c -0.23195,0.0578 -0.533159,0.11014 -0.904297,0.15625 -0.359547,0.0465 -0.764471,0.0883 -1.216797,0.12304 -0.440731,0.0227 -0.899479,0.0332 -1.375,0.0332 -1.206206,0 -2.127731,-0.1156 -2.765625,-0.34766 -0.626298,-0.23206 -1.015235,-0.597 -1.166016,-1.0957 -0.150765,-0.51032 -0.138777,-1.18452 0.03516,-2.01953 l 0.06836,-0.3125 c 0.139162,-0.66112 0.336641,-1.19967 0.591797,-1.61719 0.266759,-0.42913 0.625802,-0.78418 1.078125,-1.0625 0.463926,-0.27855 1.044348,-0.47592 1.740234,-0.5918 0.695887,-0.12737 1.6074,-0.19141 2.732422,-0.19141 z m -4.402344,10.96094 c -0.173971,0 -0.353499,0.0758 -0.539062,0.22656 -0.173972,0.15081 -0.277728,0.31259 -0.3125,0.48633 l -0.626953,2.88867 c -0.03477,0.1973 0.0053,0.3587 0.121093,0.48633 0.127597,0.12737 0.279158,0.19141 0.453126,0.19141 h 1.392578 c 0.197178,0 0.376705,-0.0637 0.539062,-0.19141 0.173972,-0.12775 0.277728,-0.28915 0.3125,-0.48633 l 0.626953,-2.88867 c 0.03477,-0.17386 -0.0072,-0.33564 -0.123047,-0.48633 -0.10439,-0.1508 -0.254024,-0.22656 -0.451172,-0.22656 z"
         transform="scale(0.26458333)" />
    </g>
    <path
       style="fill:url(#linearGradient1089-6);fill-opacity:1;stroke:none;stroke-width:0.254914;stroke-linecap:butt;stroke-linejoin:miter;stroke-miterlimit:4;stroke-dasharray:none;stroke-opacity:1"
       d="m 116.77065,0.95161531 c -0.14933,0.005023 -0.23099,0.0121638 -0.23099,0.0121638 H 11.017693 L 108.14133,42.728294 124.03613,15.188597 c 1.71258,-3.596551 1.75991,-7.0779791 0.77416,-8.9799367 -2.6443,-5.1022054 -6.99372,-5.28984676 -8.03964,-5.25703516 z"
       id="path856-3" />
    <path
       id="path875"
       style="fill:url(#linearGradient863);fill-opacity:1;stroke:none;stroke-width:0.254914;stroke-linecap:butt;stroke-linejoin:miter;stroke-miterlimit:4;stroke-dasharray:none;stroke-opacity:1"
       d="m 116.77065,0.95160519 c -0.14943,0.005023 -0.23109,0.0121638 -0.23109,0.0121638 h 0.86747 c -0.2697,-0.0180943 -0.48695,-0.0167869 -0.63638,-0.0121638 z M 124.30963,14.538044 39.8018,78.552789 56.430201,107.1909 c 0,0 1.911725,3.82017 7.20259,3.82017 5.290761,0 7.642338,-4.40789 7.642338,-4.40789 L 124.03613,15.188587 c 0.10387,-0.218202 0.18178,-0.433498 0.2735,-0.650543 z" />
    <path
       style="fill:url(#linearGradient1155);fill-opacity:1;stroke:none;stroke-width:0.254914;stroke-linecap:butt;stroke-linejoin:miter;stroke-miterlimit:4;stroke-dasharray:none;stroke-opacity:1"
       d="M 44.537947,15.379093 11.017693,0.9637688 c 0,0 -6.9061394,0.001002 -8.9636515,5.8488204 C 0.26444447,11.898801 3.523322,16.072188 3.523322,16.072188 l 52.882495,91.076152 z"
       id="path1153" />
  </g>
</svg>
