<svg width="144" height="58" xmlns="http://www.w3.org/2000/svg" xmlns:xlink="http://www.w3.org/1999/xlink" xml:space="preserve" overflow="hidden"><defs><clipPath id="clip0"><rect x="2128" y="1208" width="144" height="58"/></clipPath></defs><g clip-path="url(#clip0)" transform="translate(-2128 -1208)"><path d="M2171 1208 2171 1233.38C2171.02 1251.37 2156.61 1265.98 2138.82 1266 2138.8 1266 2138.77 1266 2138.75 1266L2128 1266 2128 1208 2138.75 1208 2138.75 1255.26C2150.68 1255.26 2160.35 1245.48 2160.35 1233.41 2160.35 1233.4 2160.35 1233.39 2160.35 1233.38L2160.35 1208Z" fill="#E65A26" fill-rule="evenodd"/><path d="M2222 1224.33 2222 1266 2211 1266 2211 1224.3C2211 1221.3 2208.55 1218.88 2205.52 1218.88 2205.51 1218.88 2205.49 1218.88 2205.48 1218.88L2189 1218.88 2189 1266 2178 1266 2178 1208 2205.48 1208C2207.36 1207.99 2209.23 1208.31 2211 1208.93 2215.65 1210.61 2219.3 1214.26 2220.95 1218.88 2221.61 1220.62 2221.96 1222.47 2222 1224.33Z" fill="#E65A26" fill-rule="evenodd"/><path d="M2246.88 1242.54 2261.22 1242.54C2261.22 1242.54 2261.22 1249.45 2261.22 1249.8 2261.22 1252.81 2258.8 1255.26 2255.82 1255.26L2245.14 1255.26C2242.22 1255.26 2239.82 1252.9 2239.75 1249.94L2239.75 1224.37C2239.75 1221.38 2242.15 1218.95 2245.11 1218.95L2264.83 1218.95 2264.83 1208 2245.11 1208C2243.28 1207.99 2241.47 1208.3 2239.75 1208.93 2235.16 1210.59 2231.54 1214.24 2229.89 1218.88 2229.29 1220.64 2228.99 1222.48 2229 1224.34L2229 1249.66C2228.99 1251.52 2229.29 1253.36 2229.89 1255.12 2231.52 1259.77 2235.15 1263.43 2239.75 1265.07 2241.47 1265.69 2243.28 1266.01 2245.11 1266L2255.86 1266C2257.68 1266.01 2259.5 1265.69 2261.22 1265.07 2265.82 1263.43 2269.45 1259.78 2271.08 1255.12 2271.67 1253.4 2271.98 1251.59 2272 1249.76L2272 1231.63 2246.88 1231.63Z" fill="#E65A26" fill-rule="evenodd"/></g></svg>