<?xml version="1.0" encoding="UTF-8" standalone="no"?>
<svg xmlns:rdf="http://www.w3.org/1999/02/22-rdf-syntax-ns#" xmlns="http://www.w3.org/2000/svg" version="1.0" xmlns:cc="http://creativecommons.org/ns#" xmlns:dc="http://purl.org/dc/elements/1.1/" viewBox="0 0 300 300">
 <g style="">
  <path d="m158.63 164.75a139.7 141.93 0 1 1 -279.41 0 139.7 141.93 0 1 1 279.41 0z" fill-rule="evenodd" transform="matrix(1.0522 0 0 1.0357 130.09 -20.635)" fill="#fff"/>
  <path d="m141.42 297.4c-4.61-0.25-10.62-0.92-13.76-1.52-0.84-0.17-2.14-0.39-2.87-0.49-3.62-0.52-5.42-0.91-9.14-1.97-0.9-0.26-2.15-0.61-2.77-0.78-3.25-0.89-5.42-1.53-9.24-2.74-2.31-0.74-4.481-1.46-4.82-1.6-0.338-0.14-0.975-0.38-1.415-0.52s-1.641-0.64-2.669-1.12c-1.028-0.47-2.238-0.98-2.69-1.13-0.451-0.14-1.19-0.48-1.642-0.74s-1.744-0.86-2.871-1.33c-1.128-0.46-2.283-1.01-2.566-1.21-0.284-0.21-1.671-0.94-3.082-1.63-3.161-1.54-5.075-2.57-5.515-2.97-0.185-0.16-0.956-0.57-1.713-0.91-0.758-0.34-1.682-0.85-2.053-1.13s-1.23-0.8-1.907-1.15-1.765-0.98-2.417-1.41c-0.652-0.42-2.084-1.35-3.182-2.06s-2.378-1.59-2.845-1.95-1.807-1.36-2.977-2.23c-1.17-0.86-2.82-2.13-3.667-2.82s-2.14-1.72-2.874-2.3c-0.734-0.57-1.473-1.21-1.642-1.41s-1.236-1.23-2.371-2.29c-1.959-1.82-4.6-4.63-6.315-6.7-0.431-0.52-1.497-1.71-2.37-2.64s-2.137-2.41-2.809-3.29c-0.673-0.87-1.597-2.01-2.055-2.52-0.457-0.51-0.997-1.2-1.2-1.52-0.204-0.33-0.846-1.12-1.427-1.77-1.132-1.25-2.963-3.69-4.198-5.58-0.418-0.64-1.453-2.17-2.299-3.38-2.122-3.06-2.645-3.92-4.111-6.75-0.702-1.35-1.437-2.69-1.633-2.98-0.795-1.14-6.778-13.3-6.778-13.77 0-0.11-0.361-1.06-0.803-2.09-0.441-1.04-1.092-2.82-1.447-3.95-0.355-1.12-0.996-3.16-1.4248-4.51-2.2983-7.26-2.8286-9.03-2.9916-9.96-0.0693-0.39-0.4361-2.01-0.8153-3.59-1.2853-5.36-2.7163-14.77-2.8729-18.9-0.0427-1.12-0.1282-2.27-0.1899-2.55-0.0618-0.28-0.2159-4.12-0.3426-8.52-0.2172-7.55-0.2054-8.3 0.2064-13.14 0.5729-6.73 0.7663-8.42 1.2492-10.88 0.2214-1.13 0.5865-3.11 0.8113-4.41 0.6145-3.55 1.8455-8.97 2.6591-11.7 0.2183-0.74 0.6386-2.17 0.934-3.19 1.5051-5.17 4.1141-12.635 5.8501-16.726 2.327-5.485 2.77-6.417 5.562-11.701 0.09-0.169 0.699-1.224 1.354-2.345 0.655-1.12 1.653-2.922 2.218-4.003 0.992-1.897 2.386-4.157 3.619-5.866 0.326-0.451 1.183-1.698 1.904-2.771s1.481-2.151 1.691-2.397c0.209-0.246 0.934-1.256 1.612-2.245 0.677-0.989 1.561-2.173 1.964-2.632s1.502-1.758 2.443-2.887c4.561-5.475 11.423-12.702 15.681-16.517 1.444-1.293 2.826-2.487 3.072-2.653 0.246-0.165 1.186-0.959 2.089-1.764 2.302-2.05 5.403-4.398 9.238-6.994 1.806-1.223 3.645-2.483 4.085-2.801 0.44-0.317 0.896-0.577 1.013-0.577s0.403-0.167 0.636-0.372c0.583-0.513 3.826-2.398 6.788-3.946 1.355-0.708 3.295-1.788 4.311-2.4 2.858-1.721 8.751-4.592 12.347-6.015 10.313-4.0807 19.663-6.6775 29.943-8.3176 1.13-0.1801 2.6-0.4168 3.28-0.5261 0.68-0.1092 1.79-0.2443 2.47-0.3002 0.67-0.0559 1.69-0.188 2.25-0.2935 1.93-0.3599 7.39-0.8223 10.78-0.9129 4.3-0.1148 12.14-0.1198 12.32-0.008 0.08 0.0468 1.93 0.1821 4.12 0.3007 5.2 0.2813 10.87 0.9432 12.14 1.4173 0.26 0.0953 1.16 0.237 2.01 0.3149 1.41 0.1297 2.94 0.4353 7.8 1.5537 0.96 0.2211 2.81 0.6458 4.1 0.9438 3.84 0.8804 8.14 2.3036 8.92 2.9489 0.12 0.1029 0.96 0.4335 1.86 0.7346 0.91 0.3014 3.49 1.3354 5.75 2.2974 6.02 2.567 7.85 3.322 9.34 3.85 0.73 0.261 1.8 0.677 2.36 0.925 0.56 0.247 1.44 0.592 1.95 0.765 1.74 0.594 7.31 3.641 10.57 5.788 5.08 3.335 6.19 4.099 7.23 4.947 0.35 0.283 1.3 0.976 2.11 1.54 1.34 0.937 3.19 2.37 7 5.44 4.63 3.726 9.77 8.564 14.56 13.717 1.3 1.391 3.1 3.291 4 4.223 4.63 4.775 6.9 7.748 10.98 14.392 0.49 0.79 1.42 2.268 2.06 3.284 0.65 1.016 1.71 2.817 2.36 4.003 0.65 1.185 1.3 2.338 1.46 2.56 0.15 0.223 0.28 0.53 0.28 0.683s0.55 1.264 1.22 2.469c1.39 2.501 2.94 5.862 4.1 8.918 0.44 1.155 1.26 3.135 1.83 4.4 1.15 2.606 2.73 7.155 3.8 10.945 0.4 1.41 0.97 3.39 1.27 4.41 1.02 3.42 2.21 8.42 2.66 11.19 0.14 0.84 0.45 2.69 0.68 4.1 0.45 2.72 0.97 6.75 1.18 9.14 0.07 0.79 0.16 1.85 0.22 2.36 0.58 5.8 0.76 20.52 0.3 24.53-0.38 3.35-0.61 5.5-0.94 8.93-0.44 4.47-1.15 7.92-3.35 16.22-1.03 3.84-1.25 4.62-2.16 7.39-0.39 1.18-0.94 2.89-1.22 3.79-0.83 2.64-2.13 6.19-3.2 8.73-0.55 1.3-1.34 3.19-1.77 4.21-0.42 1.01-0.88 1.98-1.02 2.15-0.15 0.17-0.65 1.19-1.12 2.26s-1 2.17-1.17 2.43-0.8 1.42-1.4 2.56c-1.75 3.38-5.96 10.38-7.03 11.7-0.26 0.31-0.61 0.87-0.78 1.23s-0.72 1.17-1.23 1.79-1.31 1.68-1.79 2.36c-1.61 2.3-4.16 5.4-9.57 11.68-3.48 4.04-11.2 11.41-16.5 15.76-1.16 0.96-2.86 2.25-3.76 2.86-0.91 0.62-2.33 1.7-3.16 2.4-0.83 0.69-2.03 1.55-2.66 1.91-0.64 0.36-1.61 1.05-2.16 1.53s-1.48 1.13-2.05 1.44c-0.58 0.31-1.7 0.98-2.49 1.49-0.79 0.5-1.76 1.12-2.16 1.37-1.42 0.9-9.59 5.23-9.88 5.23-0.11 0-2.06 0.92-4.34 2.04-2.28 1.13-4.98 2.34-6 2.7-1.01 0.35-2.19 0.82-2.61 1.03-0.42 0.22-1.62 0.67-2.67 1.01-1.04 0.33-2.09 0.7-2.31 0.81-0.23 0.11-1.1 0.38-1.95 0.6s-2.37 0.68-3.39 1.02c-1.97 0.66-5.44 1.54-7.8 1.98-0.79 0.15-1.67 0.37-1.97 0.48-0.88 0.34-4.51 1.05-7.51 1.47-1.56 0.22-3.94 0.59-5.3 0.82-1.35 0.23-2.67 0.37-2.93 0.31-0.25-0.06-1.06 0.03-1.8 0.2s-1.88 0.31-2.52 0.31c-0.64 0.01-1.74 0.1-2.45 0.21-1.49 0.25-14.24 0.37-17.7 0.17zm2.56-3.75c0.91-0.3 2.2-0.92 2.88-1.39 1.6-1.1 4.44-3.88 5.35-5.24 0.4-0.6 0.81-1.08 0.91-1.08 0.11 0 0.35-0.24 0.53-0.52 0.32-0.48 0.32-0.55 0-0.89-0.18-0.21-0.69-0.48-1.12-0.61-2.52-0.76-6.54 0.66-9.49 3.33-2.04 1.85-3.55 3.12-4.6 3.87-1.16 0.83-2.04 1.9-1.83 2.23 0.07 0.13 0.52 0.4 0.98 0.62 1.2 0.57 4.12 0.42 6.39-0.32zm11.87 0.06c1.49-0.47 3.94-2.15 5.29-3.62 1.03-1.13 2.86-3.57 2.86-3.83 0-0.07 0.37-0.63 0.83-1.24 0.7-0.93 0.8-1.17 0.62-1.52-0.52-0.97-3.03-0.73-4.96 0.48-2.37 1.47-3.34 2.31-4.56 3.9-0.7 0.9-2.04 2.44-2.97 3.4-0.93 0.97-1.69 1.91-1.69 2.09 0 0.99 2.05 1.14 4.58 0.34zm12.18-0.91c1.13-0.54 1.79-1.05 2.89-2.23 0.79-0.84 1.75-2.04 2.13-2.66s1.3-2.08 2.03-3.23c0.74-1.16 1.4-2.27 1.48-2.47 0.41-1.03-1.66-1.34-3.43-0.51-1.15 0.54-3.51 2.78-4.49 4.26-0.35 0.53-1.71 2.29-3.02 3.91-2.88 3.57-2.78 3.42-2.24 3.62 0.95 0.35 3.13 0.03 4.65-0.69zm-37.7-0.87c2.86-1.12 4.81-2.4 7.24-4.75 0.76-0.74 1.66-1.61 2.01-1.93 0.34-0.33 0.6-0.74 0.56-0.93-0.09-0.46-1.23-0.94-2.95-1.24-1.21-0.2-1.76-0.19-3.21 0.06-2.14 0.37-3.55 1.07-6.51 3.21-0.71 0.51-1.99 1.4-2.86 1.98-0.86 0.58-1.84 1.29-2.18 1.57l-0.61 0.52 0.4 0.45c0.97 1.07 3.7 1.89 5.65 1.7 0.62-0.07 1.73-0.35 2.46-0.64zm47.74-0.36c1.2-0.33 3.19-1.58 4.12-2.58 0.36-0.38 1.1-1.38 1.64-2.23 1.05-1.62 3.77-6.9 3.77-7.31 0-0.4-0.59-0.76-1.21-0.74-0.75 0.02-2.66 0.98-4.16 2.1-1.34 1-3.4 3.66-4.67 6.05-0.49 0.9-0.95 1.69-1.04 1.75-0.09 0.05-0.59 0.68-1.11 1.38-1.37 1.86-1.29 2.2 0.49 2 0.62-0.07 1.6-0.26 2.17-0.42zm10.66-2.46c2.86-0.74 4.37-1.85 6.21-4.56 1.13-1.67 3.48-6.23 4.4-8.56l0.41-1.03-0.47-0.37c-0.56-0.46-1.62-0.33-3.16 0.38-2.28 1.06-4.24 3.51-6.5 8.13-0.9 1.84-2 3.88-2.44 4.53-0.87 1.27-0.95 1.5-0.55 1.66 0.44 0.18 0.85 0.15 2.1-0.18zm-73.82-0.41c3.31-0.78 5.71-1.89 8.55-3.96 0.72-0.53 1.62-1.14 1.99-1.37 0.9-0.56 0.98-1.21 0.2-1.62-2.03-1.05-6.49-1.51-8.5-0.87-0.48 0.15-1.44 0.44-2.11 0.63-0.68 0.2-1.51 0.53-1.85 0.73s-1.45 0.7-2.46 1.12c-2.52 1.01-5.27 2.43-5.52 2.83-0.32 0.51 0.27 1.03 1.88 1.68 2.62 1.05 5.56 1.37 7.82 0.83zm85.26-3.87c0.6-0.15 1.42-0.42 1.83-0.59 0.88-0.37 2.4-1.88 3.37-3.33 0.86-1.3 2.25-4.28 2.86-6.16 0.15-0.45 0.61-1.61 1.02-2.57s0.72-1.93 0.68-2.15c-0.07-0.56-0.92-0.63-2.27-0.19-2.08 0.69-5.26 4.66-6.92 8.66-0.46 1.1-1.24 2.83-1.75 3.85-1.41 2.81-1.27 3.12 1.18 2.48zm-96.94-1.56c3.47-1.29 7.68-3.54 7.95-4.26 0.2-0.51-0.96-1.39-2.43-1.84-1.04-0.33-1.84-0.4-3.98-0.38-2.8 0.03-3.56 0.23-6.793 1.77-0.464 0.22-0.977 0.4-1.141 0.4-0.163 0-0.604 0.23-0.981 0.5-0.376 0.28-1.178 0.62-1.782 0.75-1.182 0.27-1.802 0.76-1.607 1.26 0.172 0.45 2.235 1.78 3.472 2.25 1.634 0.61 4.982 0.4 7.292-0.45zm108.86-3.11c1.15-0.59 3.59-3.16 5.06-5.34 1.21-1.79 1.69-2.99 2.79-6.95 0.91-3.28 0.91-3.26 0.58-3.6-0.47-0.46-1.17-0.36-2.79 0.43-3 1.46-3.99 2.98-6.34 9.74-0.34 0.96-0.71 2.07-0.83 2.46-0.12 0.4-0.39 0.94-0.6 1.2-0.42 0.54-0.7 1.72-0.52 2.19 0.17 0.46 1.63 0.39 2.65-0.13zm-52.92-0.88c1.6-0.07 4.04-0.42 10.99-1.57 3.78-0.63 5.38-0.95 8.72-1.77 1.13-0.28 2.7-0.64 3.49-0.81s2.91-0.77 4.72-1.34 4.26-1.34 5.44-1.71c1.19-0.37 3.22-1.05 4.52-1.52 1.3-0.46 2.5-0.84 2.67-0.84 0.43 0 10.11-4.87 11.36-5.71 0.55-0.37 1.54-0.95 2.21-1.28 0.67-0.34 1.7-0.92 2.29-1.3s1.54-0.92 2.1-1.21c0.86-0.43 2.95-1.81 7.39-4.87 3.71-2.56 7.32-5.39 9.44-7.4 1.02-0.96 2.45-2.27 3.18-2.9 2.83-2.42 8.47-8.23 9.33-9.6 0.29-0.46 0.61-0.83 0.7-0.83 0.18 0 3.85-4.35 6.91-8.19 2.17-2.73 4.68-6.42 5.89-8.65 1.49-2.74 1.77-3.22 2.94-5.01 1.29-1.98 3.79-6.77 4.67-8.94 1.7-4.21 2.67-6.56 3.02-7.29 0.85-1.76 3.63-9.9 4.28-12.52 0.22-0.91 0.78-3.08 1.23-4.83 1.26-4.92 1.68-6.98 2.22-11.08 0.74-5.64 1.48-15.29 1.36-17.66-0.03-0.51-0.14-2.72-0.26-4.92-0.21-4.11-0.34-5.54-1.04-11.6-0.49-4.28-0.93-7.33-1.44-10.16-0.22-1.19-0.48-2.67-0.58-3.29-0.31-1.85-0.8-3.87-1.47-6.05-0.34-1.13-0.86-2.84-1.15-3.8s-0.7-2.16-0.91-2.67-0.85-2.17-1.42-3.7c-2.03-5.404-2.96-7.535-4.98-11.491-2.42-4.75-3.05-5.889-4.05-7.39-0.74-1.108-1.51-2.41-3.31-5.602-0.49-0.88-1.38-2.282-1.96-3.117-0.59-0.834-1.2-1.777-1.37-2.095s-0.89-1.287-1.61-2.152c-0.71-0.865-1.76-2.154-2.32-2.864s-1.4-1.711-1.87-2.225c-0.46-0.513-1.21-1.418-1.67-2.01s-1.21-1.469-1.67-1.95c-0.45-0.48-1.59-1.751-2.52-2.824-2.18-2.521-8.33-8.634-10.01-9.956-0.72-0.564-1.74-1.442-2.27-1.95-0.52-0.508-1.91-1.616-3.07-2.463-1.16-0.846-2.4-1.838-2.75-2.204-0.36-0.367-0.77-0.667-0.92-0.668s-0.8-0.453-1.44-1.005c-0.64-0.551-1.49-1.162-1.88-1.358-0.4-0.196-0.91-0.514-1.13-0.708-0.63-0.539-2.86-1.876-5.13-3.083-1.13-0.598-2.44-1.352-2.92-1.676-0.47-0.324-0.9-0.589-0.96-0.589-0.19 0-5.48-2.614-7.31-3.609-0.96-0.522-2.23-1.12-2.83-1.329-0.59-0.208-1.33-0.513-1.64-0.677-0.71-0.38-4.88-1.9-5.69-2.078-0.34-0.075-1.47-0.499-2.52-0.942-1.04-0.444-2.03-0.808-2.19-0.808s-1.39-0.366-2.74-0.813c-1.34-0.447-2.85-0.867-3.35-0.933s-1.41-0.247-2.03-0.401c-2.45-0.609-4.89-1.148-6.06-1.341-1.81-0.3-3.18-0.594-3.4-0.731-0.22-0.135-2.06-0.355-6.76-0.812-1.75-0.169-3.31-0.356-3.47-0.414-1.31-0.489-15.29-0.691-20.55-0.297-3.77 0.282-9.66 0.948-11.8 1.333-0.91 0.162-2.48 0.434-3.49 0.604-3.48 0.582-5.14 0.923-6.57 1.356-0.79 0.238-2.78 0.788-4.41 1.222-1.64 0.433-3.9 1.13-5.03 1.548-2.31 0.855-6 2.196-7.7 2.799-2.11 0.748-4.821 1.865-6.16 2.537-0.734 0.369-1.935 0.927-2.669 1.241s-2.027 1-2.874 1.524c-3.137 1.942-4.551 2.781-5.699 3.383-0.648 0.34-1.455 0.797-1.794 1.017-3.815 2.472-5.852 3.846-6.363 4.293-0.339 0.296-0.714 0.539-0.834 0.539-0.119 0-0.686 0.393-1.259 0.873-0.975 0.816-3.233 2.537-4.242 3.233-0.814 0.561-5.566 4.39-5.879 4.738-0.17 0.187-1.031 0.96-1.915 1.716-1.798 1.54-6.665 6.489-8.985 9.137-1.528 1.744-1.706 1.95-3.255 3.777-0.464 0.547-1.153 1.47-1.53 2.052-0.378 0.582-0.971 1.37-1.319 1.751-0.347 0.382-1.614 2.137-2.814 3.901-1.201 1.764-2.603 3.807-3.116 4.541-2.228 3.185-6.473 10.876-8.158 14.78-0.219 0.508-1.132 2.448-2.029 4.311-0.896 1.863-1.841 3.989-2.099 4.719-0.259 0.74-0.921 2.54-1.472 4.01-1.077 2.86-2.387 6.93-3.14 9.75-0.257 0.96-0.736 2.62-1.064 3.69-1.135 3.71-2.541 11.52-3.013 16.73-0.394 4.36-0.399 16.97-0.008 22.69 0.395 5.77 1.058 12.3 1.436 14.16 0.126 0.62 0.301 1.68 0.388 2.36 0.17 1.32 1.358 5.85 2.151 8.21 0.266 0.79 0.733 2.36 1.038 3.49s0.77 2.61 1.035 3.29c1.207 3.08 1.534 3.98 1.534 4.22 0 1.03 3.732 10.34 5.177 12.92 0.348 0.62 1.224 2.27 1.946 3.66 0.723 1.4 1.91 3.46 2.638 4.58s1.324 2.08 1.324 2.12c0 0.19 4.609 6.87 5.452 7.91 0.507 0.62 1.309 1.63 1.781 2.25 0.472 0.63 1.235 1.55 1.696 2.06 0.46 0.51 1.109 1.29 1.441 1.74 0.581 0.79 2.948 3.52 4.726 5.44 0.47 0.51 1.583 1.71 2.476 2.68 0.892 0.96 1.907 2.07 2.255 2.46 1.124 1.26 4.243 4.18 6.141 5.74 1.016 0.84 2.205 1.87 2.642 2.3 0.691 0.68 1.759 1.47 4.238 3.14 0.335 0.23 2.065 1.36 3.844 2.51 1.78 1.16 3.466 2.26 3.748 2.46 1.496 1.07 3.197 2.09 5.079 3.06 1.157 0.59 2.358 1.26 2.669 1.48 0.868 0.61 4.466 2.5 4.774 2.5 0.15 0 0.696 0.27 1.214 0.6s1.993 1.03 3.278 1.55 2.902 1.21 3.589 1.53c0.69 0.32 1.49 0.65 1.77 0.73 0.76 0.21 3.06 1.11 4.02 1.56 0.46 0.22 0.99 0.39 1.19 0.39s0.61 0.13 0.91 0.28 1.39 0.48 2.4 0.74c1.02 0.26 2.19 0.65 2.61 0.86s1 0.38 1.28 0.38 0.87 0.14 1.29 0.3c0.43 0.16 1.47 0.44 2.31 0.63 0.85 0.18 2.1 0.47 2.78 0.64 0.67 0.17 1.69 0.39 2.25 0.49 0.57 0.09 2.05 0.37 3.29 0.61 2.19 0.43 3.54 0.62 7.39 1.02 1.01 0.11 2.67 0.3 3.68 0.42 3.58 0.45 6.67 0.55 13.46 0.46 3.78-0.05 7.34-0.12 7.9-0.14zm-13.64-20.43c-2.7-1.07-3.93-5.58-2.43-8.86 0.97-2.11 3.71-3.57 6.42-3.41 1.81 0.1 2.56 0.49 3.57 1.85 1.69 2.27 1.85 4.1 0.62 7.04-0.55 1.34-0.79 1.66-1.78 2.38-0.62 0.47-1.55 0.97-2.06 1.12-1.24 0.38-3.22 0.32-4.34-0.12zm64.99-8.34c-0.07-0.18-0.03-0.51 0.1-0.75 0.12-0.23 0.18-0.86 0.13-1.4-0.1-1.05-1.33-3.27-4.3-7.74-0.82-1.25-1.75-2.67-2.06-3.16s-1.12-1.59-1.81-2.43c-0.68-0.85-1.38-1.82-1.56-2.16-0.19-0.34-0.59-0.94-0.9-1.33-0.87-1.11-1.48-2.4-1.34-2.85 0.07-0.21 0.4-0.51 0.74-0.64 0.7-0.29 1.36-0.09 2.76 0.84 1.85 1.22 11.44 5.42 11.94 5.23 0.36-0.14 0.17-0.63-0.75-1.86-0.41-0.57-1.09-1.51-1.5-2.1-0.88-1.26-1.05-1.46-2.77-3.46-1.31-1.51-2.28-2.1-3.12-1.88-0.22 0.06-0.55-0.01-0.74-0.15-0.48-0.35-0.19-0.8 1.43-2.25 1.55-1.39 2.44-1.97 3.01-1.97 0.49 0 0.54 0.73 0.09 1.33-0.17 0.21-0.3 0.72-0.3 1.12 0 0.87 0.94 2.94 1.78 3.93 0.33 0.39 0.74 0.94 0.92 1.22s0.78 1.03 1.33 1.67c0.55 0.63 1.69 2.05 2.54 3.15 5.26 6.85 6.39 7.86 8.1 7.29 1.41-0.46 1.52 0.22 0.23 1.44-1.18 1.13-2.58 2.05-3.1 2.05-0.23 0-1.48-0.66-2.76-1.46-1.29-0.81-2.76-1.64-3.27-1.86s-1.45-0.72-2.09-1.1c-0.64-0.39-1.25-0.71-1.36-0.71-0.1 0-1.03-0.45-2.07-1.01-3.04-1.61-3.95-1.87-3.95-1.12 0 0.44 0.89 2.05 2 3.61 0.54 0.76 1.79 2.53 2.77 3.93 1.53 2.16 1.93 2.6 2.66 2.89 0.57 0.23 1.11 0.3 1.64 0.21 0.6-0.1 0.81-0.06 0.91 0.18 0.2 0.52-0.14 0.86-2.27 2.27-2.06 1.36-2.84 1.63-3.06 1.03zm-125.97-2.02c-1.065-0.62-2.907-1.93-4.876-3.45-1.29-0.99-1.119-1.51 0.372-1.11 1.099 0.29 1.863-0.11 3.045-1.59 0.551-0.69 1.475-1.81 2.052-2.49s1.304-1.63 1.614-2.12 1.072-1.55 1.693-2.35c3.207-4.14 5.754-8.25 5.743-9.28-0.009-0.82-1.426-1.95-2.457-1.95-0.906 0-2.087 0.89-4.035 3.04-2.448 2.7-4.084 4.58-4.839 5.57-0.31 0.4-0.911 1.16-1.337 1.69-1.722 2.14-3.709 4.83-4.027 5.45-0.389 0.75-0.434 1.55-0.122 2.13 0.267 0.5 0.05 1.28-0.316 1.14-0.515-0.2-2.73-1.98-3.376-2.72-0.358-0.41-0.615-0.85-0.571-0.98 0.046-0.13 0.513-0.24 1.088-0.24 0.555 0 1.161-0.09 1.347-0.2 0.354-0.21 3.264-3.42 3.972-4.38 0.226-0.31 1.565-1.88 2.977-3.5 1.411-1.63 3.305-3.81 4.208-4.86 2.29-2.65 3.446-3.53 4.847-3.7 0.985-0.11 1.196-0.06 1.927 0.44 0.452 0.32 1.199 0.83 1.66 1.15 0.959 0.65 1.849 1.84 2.145 2.86s0.019 3.02-0.569 4.09c-0.47 0.85-0.869 1.47-2.726 4.21-0.383 0.56-1.762 2.45-3.065 4.2-2.151 2.89-3.891 5.51-4.686 7.05-0.265 0.52-0.262 0.68 0.027 1.42 0.549 1.39 0.068 1.53-1.715 0.48zm-14.089-10.79c-3.093-2.58-2.802-2.22-2.663-3.27 0.069-0.52 0.412-1.68 0.762-2.58 2.136-5.51 4.289-11.92 4.289-12.78 0-0.14-0.119-0.26-0.265-0.26-0.534 0-3.521 2.18-6.004 4.38-3.051 2.7-3.503 3.42-3.294 5.27 0.241 2.13-0.382 1.95-2.927-0.83-1.311-1.43-1.88-2.21-1.88-2.56 0-0.56 0.178-0.61 1.222-0.31 0.472 0.14 0.967 0.13 1.496-0.01 1.026-0.28 3.631-1.98 5.095-3.33 0.633-0.59 1.959-1.72 2.947-2.51 2.579-2.06 6.34-5.32 8.005-6.92 1.436-1.39 1.876-1.61 2.338-1.14 0.453 0.45 0.301 1.03-1.904 7.24-0.521 1.47-1.041 2.99-1.156 3.39-0.116 0.39-0.428 1.32-0.694 2.05-0.266 0.74-0.636 1.97-0.822 2.74-0.707 2.93-0.069 2.71 3.923-1.35 1.802-1.84 3.549-3.71 3.883-4.16 0.333-0.45 0.664-0.87 0.734-0.92 0.07-0.06 0.33-0.51 0.579-1 0.431-0.85 0.437-0.93 0.13-1.83-0.44-1.29-0.411-1.48 0.218-1.48 0.409 0 1.057 0.51 2.669 2.09 1.171 1.16 2.129 2.21 2.129 2.34 0 0.56-0.567 0.73-1.242 0.39-0.433-0.23-0.887-0.3-1.338-0.22-0.79 0.15-2.72 1.55-4.401 3.19-0.642 0.62-1.931 1.87-2.865 2.78-0.933 0.9-1.87 1.86-2.082 2.12-0.211 0.27-1.268 1.44-2.349 2.59-1.08 1.16-2.206 2.46-2.501 2.89-0.714 1.06-0.93 2.27-0.537 3.03 0.374 0.72 0.288 1.66-0.161 1.75-0.184 0.03-0.784-0.32-1.334-0.78zm157.58-2.45c-0.73-0.32-1.89-0.91-2.57-1.31-1.43-0.84-5.6-4.96-6.41-6.33-0.3-0.49-1.01-1.54-1.59-2.33-2.05-2.8-3.23-6.22-2.89-8.37 0.3-1.88 1.68-3.52 3.7-4.4 2.48-1.08 5.72-0.25 9.07 2.33 5.79 4.46 9.56 10.28 9.61 14.85 0.02 1.58-0.62 3.15-1.83 4.48-1.56 1.73-4.55 2.19-7.09 1.08zm5.64-2.72c0.53-0.41 0.56-0.52 0.43-1.46-0.32-2.4-1.95-4.65-7.09-9.77-4.79-4.77-7.45-6.8-8.92-6.8-0.62 0-1.47 0.69-1.63 1.32-0.23 0.91 0.89 3.14 2.7 5.35 1.25 1.53 8.87 9.27 9.94 10.09 1.35 1.04 2.7 1.7 3.47 1.71 0.3 0 0.79-0.19 1.1-0.44zm-82.66 1.97c-0.76-0.41-0.98-0.9-0.98-2.18 0-1.37 0.53-2.3 1.49-2.61 1.56-0.52 2.54 0.61 2.35 2.71-0.18 2-1.39 2.88-2.86 2.08zm-6.9-0.4c-0.58-0.49-0.65-0.66-0.65-1.64 0-1.47 0.24-2.01 1.12-2.56 1.47-0.91 2.84-0.07 2.75 1.69-0.09 1.68-0.74 2.6-2.04 2.93-0.4 0.09-0.7-0.01-1.18-0.42zm13.39 0.11c-0.85-0.34-1.26-2.43-0.68-3.54 0.68-1.32 1.66-1.73 2.6-1.07 1.02 0.71 1.11 3.36 0.15 4.32-0.51 0.51-1.27 0.61-2.07 0.29zm-19.72-0.37c-0.36-0.22-0.68-1.19-0.68-2.01 0-1.72 0.95-2.65 2.58-2.51 1.03 0.08 1.36 0.67 1.26 2.27-0.1 1.57-0.83 2.41-2.09 2.41-0.46 0-0.94-0.07-1.07-0.16zm25.59-1.04c-1.21-1.21-1.32-3.34-0.22-4.13 0.83-0.59 1.39-0.52 2.18 0.27 1.13 1.13 1.22 3.2 0.16 4.03-0.73 0.57-1.43 0.52-2.12-0.17zm-31.15 0.04c-0.39-0.16-0.87-1.2-0.87-1.88 0-0.34 0.29-1.04 0.66-1.61 0.58-0.85 0.78-1 1.43-1.06 2.04-0.17 2.57 1.98 0.98 3.92-0.5 0.6-0.78 0.76-1.29 0.75-0.36-0.01-0.77-0.06-0.91-0.12zm37.36-0.62c-0.15-0.06-0.46-0.48-0.69-0.94-0.62-1.2-0.47-2.9 0.31-3.57 0.68-0.59 1.25-0.61 2.12-0.08 1.23 0.75 1.37 2.93 0.26 4.12-0.55 0.59-1.29 0.76-2 0.47zm-43.09-1.08c-1.2-1.11-0.44-3.67 1.22-4.13 1.07-0.3 1.72 0.03 1.98 0.98 0.29 1.05 0.28 1.19-0.18 2.09-0.71 1.39-2.14 1.89-3.02 1.06zm48.59-1.03c-1.29-1.38-1.04-3.61 0.51-4.44 0.82-0.44 1.59-0.27 2.38 0.53 0.52 0.51 0.59 0.74 0.59 1.81 0 1.4-0.52 2.3-1.34 2.3-0.26 0-0.54 0.09-0.61 0.2-0.24 0.39-0.97 0.2-1.53-0.4zm-54.39-0.81c-0.22-0.22-0.46-0.82-0.54-1.33-0.12-0.81-0.06-1.06 0.44-1.85 0.61-0.97 0.94-1.14 2.17-1.15 0.99 0 1.4 0.44 1.4 1.48 0 2.27-2.22 4.09-3.47 2.85zm60.64-1.26c-0.75-0.48-1.33-1.51-1.33-2.37 0-0.76 0.72-1.91 1.45-2.32 1.59-0.89 3.5 1.41 2.88 3.48-0.48 1.59-1.65 2.07-3 1.21zm-66.38-1.14c-0.43-0.31-0.47-0.46-0.39-1.49 0.09-1.05 0.17-1.21 1.07-2.02 1.15-1.05 1.92-1.15 2.69-0.38 0.57 0.57 0.64 1.25 0.22 2.22-0.66 1.55-2.54 2.43-3.59 1.67zm71.91-1.81c-0.91-0.91-1-2.01-0.28-3.43 0.73-1.42 2.69-1.33 3.45 0.17 0.13 0.24 0.23 0.97 0.23 1.6 0 1.01-0.08 1.24-0.6 1.76-0.87 0.87-1.87 0.83-2.8-0.1zm-77.55-0.75c-1.45-1.14 0.2-4.3 2.24-4.3 1.03 0 1.3 0.18 1.53 1.05 0.35 1.28-0.03 2.3-1.12 3.05-1.06 0.73-1.9 0.79-2.65 0.2zm-52.858-1.73c-0.45-0.4-1.219-1.3-1.708-1.98-0.489-0.69-1.137-1.55-1.44-1.91-0.302-0.35-0.707-1.04-0.9-1.52-0.486-1.22-0.208-1.46 1.058-0.91 0.78 0.34 1.103 0.38 1.704 0.22 0.407-0.11 0.88-0.33 1.049-0.47 0.169-0.15 1.555-1.11 3.079-2.14 7.585-5.08 11.269-7.69 12.073-8.53 0.847-0.89 0.879-0.97 0.746-1.86-0.092-0.61-0.054-1.02 0.111-1.22 0.407-0.49 1.051 0.01 2.458 1.91 0.696 0.95 1.616 2.1 2.045 2.57 0.96 1.05 1.284 1.65 1.122 2.07-0.158 0.41-0.55 0.41-1.356-0.01-1.003-0.52-2.144-0.28-3.671 0.76-0.722 0.5-1.637 1.07-2.032 1.28s-1.018 0.67-1.383 1.02-1.259 1.05-1.988 1.57-2.047 1.48-2.929 2.13c-0.882 0.66-2.472 1.82-3.534 2.57-2.504 1.78-3.212 2.64-3.166 3.84 0.052 1.34-0.333 1.52-1.338 0.61zm136.65 0.2c-0.77-0.42-1.29-1.87-1.12-3.11 0.35-2.58 2.95-2.59 3.72-0.02 0.44 1.49 0.39 1.9-0.33 2.72-0.7 0.8-1.34 0.91-2.27 0.41zm-89.34-1.96c-1.02-1.21-0.56-3.23 0.86-3.83 1.65-0.69 3.13-0.15 3.11 1.15-0.01 0.8-0.87 2.07-1.86 2.73-1.1 0.74-1.46 0.73-2.11-0.05zm139.3-0.17c-2.88-1.77-3.08-2.59-0.66-2.66 1.59-0.04 3.71-0.67 4.44-1.31 0.92-0.81 1.15-1.25 1.33-2.59 0.2-1.39-0.27-2.57-1.38-3.49-1.74-1.43-3.92-1.27-7.45 0.54-1.2 0.62-2.4 1.28-2.68 1.48-0.74 0.51-2.68 1.19-3.68 1.29-1.23 0.13-2.85-0.21-3.67-0.77-0.9-0.62-2.61-2.64-3.12-3.7-0.22-0.45-0.51-1.47-0.65-2.27-0.21-1.27-0.2-1.66 0.12-2.98 0.51-2.11 1.28-3.62 2.36-4.65 0.5-0.48 0.97-0.88 1.05-0.88s0.54-0.51 1.02-1.15c0.79-1.05 0.92-1.14 1.49-1.02 0.34 0.07 1.04 0.39 1.56 0.72s1.67 1.03 2.55 1.56c1.68 1.01 2.42 1.8 2.05 2.18-0.15 0.14-0.89 0.04-2.38-0.33-1.91-0.48-2.31-0.52-3.34-0.33-1.52 0.28-3.52 1.55-4.23 2.69-0.56 0.88-0.84 2.51-0.59 3.43 0.29 1.08 1.93 2.64 2.98 2.84 1.9 0.35 3.32-0.12 7.95-2.66 1.94-1.06 4.14-1.6 5.6-1.36 1.37 0.22 2.9 1.18 4.37 2.74 1.4 1.48 1.85 2.44 2.02 4.29 0.11 1.29 0.06 1.81-0.32 3.06-0.43 1.42-0.57 1.62-2.44 3.5-1.09 1.1-2.1 2.13-2.24 2.31-0.39 0.46-0.62 0.41-2.06-0.48zm-44.92-2.01c-0.76-0.83-1.02-1.73-0.81-2.85 0.2-1.07 0.76-1.53 1.86-1.53 0.85 0 0.97 0.08 1.54 0.86 0.53 0.72 0.62 1.03 0.62 2.11 0 1.61-0.43 2.17-1.68 2.17-0.7 0-0.94-0.12-1.53-0.76zm-98.955-1.24c-0.636-0.11-1.504-1.05-1.504-1.63 0-1.39 1.396-2.94 2.649-2.94 1.98 0 2.68 1.56 1.46 3.25-0.34 0.47-0.66 0.85-0.7 0.85s-0.39 0.12-0.77 0.27c-0.377 0.15-0.889 0.24-1.135 0.2zm104.36-2.42c-0.83-0.57-1.59-1.83-1.59-2.64 0-0.54 0.81-1.64 1.47-1.99 0.6-0.32 1.73 0.13 2.33 0.92 1.02 1.33 0.94 3.15-0.16 3.83-0.86 0.52-1.13 0.5-2.05-0.12zm-153.79-1.2c-0.46-0.5-1.151-1.49-1.536-2.21s-1.005-1.75-1.378-2.3c-0.727-1.05-1.079-2.3-0.746-2.63 0.135-0.13 0.585-0.09 1.331 0.12 0.801 0.24 1.276 0.28 1.643 0.14 0.688-0.27 2.658-1.85 4.082-3.28 0.633-0.64 1.69-1.57 2.347-2.08 1.663-1.29 4.65-4.29 4.554-4.59-0.209-0.63-2.691-0.19-7.335 1.32-1.298 0.42-3.053 0.97-3.9 1.22-2.125 0.64-3.172 1.26-3.481 2.09-0.542 1.45-0.626 1.6-0.917 1.6-0.396 0-1.64-1.89-2.279-3.46-0.889-2.19-0.576-2.94 0.828-1.99 0.426 0.29 0.923 0.53 1.105 0.54 0.654 0.05 1.573-0.04 2.178-0.21 0.338-0.09 1.17-0.28 1.847-0.42 1.568-0.31 6.076-1.34 8.212-1.86 1.609-0.4 2.874-0.75 4.926-1.37 3.073-0.93 5.683-1.53 6.15-1.41 0.284 0.07 0.668 0.36 0.853 0.64 0.538 0.82 0.048 1.69-1.996 3.53-0.972 0.88-2.782 2.52-4.022 3.65s-2.811 2.52-3.49 3.09c-0.68 0.57-1.641 1.5-2.136 2.05-0.496 0.56-1.429 1.46-2.075 2-0.645 0.53-1.547 1.52-2.003 2.19-0.676 1-0.855 1.47-0.96 2.52-0.139 1.39-0.362 2.01-0.732 2.01-0.129 0-0.611-0.41-1.07-0.9zm43.335-1.17c-0.789-0.62-0.906-1.61-0.314-2.66 0.494-0.88 1.624-1.64 2.446-1.64 0.668 0 1.585 0.63 1.85 1.27 0.845 2.04-2.249 4.4-3.982 3.03zm115.74-2.12c-0.84-0.37-1.74-1.77-1.74-2.7 0-0.55 0.16-0.9 0.62-1.37 0.54-0.53 0.73-0.6 1.36-0.5 1.3 0.21 2.12 1.37 2.12 2.98 0 0.65-0.12 0.92-0.63 1.34-0.72 0.61-0.87 0.63-1.73 0.25zm-120.17-2.71c-1.14-0.48-1.578-1.82-1.008-3.07 0.27-0.59 1.913-1.53 2.673-1.53 0.594 0 1.71 0.67 1.993 1.2 0.341 0.64 0.033 1.6-0.829 2.57-0.88 1-1.784 1.27-2.829 0.83zm124.07-1.72c-1.53-0.63-1.98-3.87-0.61-4.39 0.92-0.36 1.74-0.14 2.54 0.69 0.94 0.97 1.13 1.7 0.7 2.62-0.49 1.04-1.61 1.5-2.63 1.08zm42.03-1.29c-0.11-0.14-0.27-0.62-0.35-1.06-0.22-1.26-0.63-1.68-2.64-2.7-1.04-0.52-2.12-1.12-2.41-1.33-0.49-0.35-7.07-3.77-10.76-5.6-1.66-0.82-2.28-0.92-4.42-0.72-0.7 0.07-0.72 0.05-0.7-0.67 0.02-0.44 0.41-1.51 0.98-2.63 0.52-1.04 0.95-2.05 0.96-2.24 0-0.58 0.78-1.68 1.2-1.68 0.5 0 0.76 0.34 0.95 1.23 0.34 1.65 1.08 2.33 4.06 3.72 0.88 0.41 1.76 0.89 1.95 1.06s0.58 0.38 0.87 0.46c0.53 0.16 2.24 0.94 5.44 2.47 5.17 2.48 6.67 2.83 8.08 1.86 1.29-0.9 1.88-0.33 1.38 1.32-0.31 1.04-2.41 5.31-3.04 6.2-0.42 0.6-1.19 0.76-1.55 0.31zm-170.33-1.99c-0.226-0.1-0.718-0.5-1.093-0.89-0.647-0.67-0.671-0.75-0.464-1.52 0.357-1.33 1.457-2.09 3.106-2.15 0.962-0.04 1.373 0.27 1.888 1.43l0.394 0.89-0.516 0.78c-0.299 0.45-0.896 0.97-1.416 1.22-0.967 0.47-1.26 0.5-1.899 0.24zm132.18-1.85c-0.23-0.1-0.67-0.47-0.97-0.83-0.68-0.8-0.72-1.87-0.12-2.85 0.39-0.65 0.47-0.68 1.34-0.59 1.33 0.15 2.07 0.93 2.63 2.75 0.09 0.31-0.03 0.63-0.41 1.08-0.43 0.51-0.69 0.63-1.29 0.62-0.41 0-0.94-0.09-1.18-0.18zm-136.81-4.3c-1.423-1.43-0.255-3.52 2.148-3.85 0.871-0.11 0.983-0.07 1.659 0.6 0.991 0.99 0.956 1.57-0.16 2.69-1.309 1.31-2.684 1.52-3.647 0.56zm-39.003-0.71c-0.289-0.27-0.73-1.08-0.979-1.8-0.25-0.72-0.641-1.77-0.87-2.33-0.488-1.21-2.411-7.4-2.701-8.7-0.168-0.76-0.14-0.98 0.182-1.4 0.556-0.73 4.342-2.23 4.71-1.86 0.233 0.23-0.128 0.9-0.956 1.76-1.38 1.44-1.764 3.62-0.998 5.67 0.51 1.36 0.652 1.39 3.27 0.61 0.96-0.29 2.341-0.66 3.07-0.82 2.395-0.55 3.11-1.2 2.614-2.39-0.378-0.9-1.022-1.35-2.219-1.56-0.708-0.12-0.913-0.25-0.963-0.6-0.056-0.38 0.098-0.49 1.129-0.77 0.656-0.18 1.614-0.46 2.129-0.62 1.492-0.46 2.586-0.59 2.751-0.32 0.084 0.14-0.211 0.63-0.693 1.15-0.927 1-1.097 1.89-0.519 2.72 0.427 0.61 1.32 0.59 3.046-0.06 0.749-0.28 2.353-0.84 3.566-1.24 1.212-0.4 2.758-1.03 3.435-1.39 1.143-0.61 1.237-0.71 1.296-1.44 0.089-1.07-0.936-2.66-2.093-3.26-0.892-0.46-3.882-1.17-4.99-1.18-0.36 0-0.705-0.09-0.767-0.19-0.231-0.37 0.531-0.68 2.675-1.06 1.212-0.22 2.535-0.49 2.939-0.6 0.404-0.12 0.985-0.21 1.291-0.21 0.514 0 0.588 0.11 0.987 1.49s1.458 4.56 2.461 7.4c0.232 0.66 0.694 1.77 1.027 2.47 0.764 1.62 0.85 2.25 0.324 2.36-0.261 0.05-0.606-0.18-1.03-0.68-1.004-1.2-2.144-1.19-5.762 0.02-7.041 2.35-8.501 2.88-12.009 4.33-3.922 1.63-4.135 1.81-4.311 3.73-0.056 0.62-0.195 1.15-0.309 1.19s-0.444-0.15-0.733-0.42zm178.99-0.26c-0.98-0.4-1.49-1.42-1.35-2.68 0.15-1.32 0.64-1.77 1.81-1.66 1.18 0.12 1.91 0.63 2.46 1.75 1.02 2.06-0.64 3.54-2.92 2.59zm-143.54-5.07c-1.009-1.01-0.541-2.72 0.902-3.29 0.847-0.34 2.163-0.44 2.765-0.21 0.433 0.17 0.933 1.14 0.933 1.83 0 1.23-0.88 1.87-2.85 2.08-1.123 0.11-1.261 0.08-1.75-0.41zm147.02-0.76c-0.98-0.52-1.39-1.14-1.39-2.08 0-2.3 1.94-2.85 3.81-1.09 0.72 0.67 0.75 0.76 0.65 1.77-0.16 1.72-1.39 2.28-3.07 1.4zm-74.17 0c-4.79-0.2-8.88-0.55-11.18-0.96-0.96-0.17-2.26-0.39-2.88-0.48-0.62-0.1-1.87-0.38-2.77-0.62s-1.96-0.51-2.36-0.59c-1.62-0.35-4.12-1.13-5.98-1.88-2.11-0.85-2.78-0.93-4.82-0.58-1.54 0.27-2.52 0.03-3.16-0.78-0.65-0.83-0.54-1.59 0.29-1.98 0.38-0.19 0.99-0.33 1.34-0.33 0.69 0 2.21-0.7 3.71-1.7 1.57-1.05 2.84-2.41 4.64-4.98 3.45-4.93 4.93-6.58 8.29-9.31 3.45-2.81 6.32-4.04 11.19-4.84 2.15-0.35 6.78-0.25 8.86 0.2 2.56 0.55 5.82 1.68 7.05 2.45 0.62 0.38 1.62 0.94 2.23 1.22 0.95 0.46 2.17 1.23 4.56 2.89 0.32 0.23 2.65 2.53 5.16 5.12 2.52 2.58 5.2 5.21 5.97 5.85 2.88 2.37 3.35 2.72 4.45 3.31 2.92 1.55 3.46 2.39 2.03 3.16-0.69 0.37-0.85 0.38-2.84 0.12-1.7-0.23-2.23-0.23-2.75-0.02-1.73 0.69-6.63 2.13-9.88 2.9-6.39 1.51-13.63 2.14-21.15 1.83zm6.24-3.88c0.72-0.23 1.42-0.42 1.55-0.42 0.94 0 4.6-3.27 6.05-5.41 1.93-2.82 3.21-9.83 2.07-11.28-0.68-0.86-3.55-2.4-6.46-3.45-1.4-0.51-1.68-0.55-1.93-0.3-0.24 0.24-0.14 0.42 0.75 1.24 1.83 1.68 2.44 4.08 1.81 7.03-0.69 3.19-2.19 5.18-4.84 6.43-1.61 0.76-1.99 0.82-3.87 0.61-2.27-0.26-3.73-1.15-5.11-3.09-1.04-1.47-1.35-2.68-1.23-4.79 0.14-2.47 0.44-2.88 2.19-2.97 1.25-0.06 2.66 0.27 3.88 0.91 0.85 0.44 1.47 0.37 1.47-0.16 0-0.64-1.94-2.46-3.24-3.05-1.43-0.64-1.44-1.13-0.05-2.07 0.56-0.38 0.99-0.79 0.96-0.9-0.1-0.32-2.9-0.37-4.96-0.1-2.02 0.27-2.74 0.52-5.01 1.73-1.76 0.94-2.08 1.46-2.49 4.07-0.94 5.93 1.83 12.12 6.48 14.47 0.69 0.35 2.3 1 3.9 1.59 1.61 0.59 6.12 0.54 8.08-0.09zm-18.11-0.73c0.06-0.17-0.08-0.61-0.31-0.97-0.24-0.37-0.93-1.65-1.55-2.85-1.35-2.62-1.97-4.95-1.97-7.41 0-2.11-0.28-2.69-1.06-2.18-0.27 0.18-0.95 0.94-1.51 1.7-0.56 0.75-1.78 2.31-2.72 3.46-0.93 1.15-1.95 2.41-2.27 2.81-1.25 1.53-1.21 1.86 0.27 2.61s4.91 2.04 6.06 2.28c0.62 0.13 1.73 0.37 2.46 0.53 1.78 0.39 2.45 0.39 2.6 0.02zm30.48-0.09c4.43-0.92 9.62-3.08 9.62-4.01 0-0.35-8-8.32-8.36-8.32-0.15 0-0.31 0.11-0.35 0.25-0.03 0.15-0.31 1.28-0.61 2.51-0.58 2.41-2.11 5.82-3.61 8.07-1.13 1.69-1.1 1.9 0.28 1.9 0.61 0 1.97-0.18 3.03-0.4zm82.91 3.67c-2.27-0.31-4.99-1.49-7.13-3.09-2.1-1.57-3.81-4.64-4.17-7.49-0.27-2.14-0.04-3.6 1.23-7.78 0.2-0.68 0.53-1.75 0.71-2.39 0.45-1.52 0.75-1.91 1.31-1.73 0.5 0.16 0.75 1.11 0.61 2.32-0.16 1.29 0.09 1.55 1.85 1.96 0.87 0.21 2.55 0.64 3.74 0.95 1.18 0.32 3.68 0.93 5.54 1.35s4.48 1.08 5.82 1.46c1.33 0.38 2.59 0.7 2.78 0.7 0.2 0 0.56-0.36 0.82-0.82 0.99-1.78 2.09-2.58 2.41-1.76 0.18 0.48-0.68 4.34-1.63 7.33-1.62 5.04-3.2 7.08-6.48 8.37-1.44 0.57-5.37 0.9-7.41 0.62zm5.75-4.6c2.05-0.7 3.67-1.98 4.39-3.45 0.3-0.61 0.57-1.38 0.59-1.7 0.05-0.62 0.14-0.57-2.11-1.11-0.51-0.12-1.94-0.54-3.19-0.92-1.24-0.39-3.27-0.94-4.51-1.22s-3.37-0.79-4.72-1.14c-3.02-0.77-3.71-0.8-3.88-0.17-0.23 0.86-0.13 1.54 0.52 3.55 0.6 1.83 0.77 2.13 1.99 3.43 1.54 1.63 2.56 2.28 4.62 2.95 1.91 0.63 4.06 0.55 6.3-0.22zm-152.47 0.81c-0.25-0.18-0.49-0.63-0.57-1.09-0.24-1.42 1.33-7.76 2.44-9.89 0.29-0.56 0.76-1.7 1.04-2.52 0.5-1.49 2.15-4.89 2.67-5.49 0.15-0.17 0.46-0.67 0.7-1.13 0.24-0.45 0.9-1.46 1.46-2.25 3.7-5.18 3.7-5.15 1.28-4.95-4.02 0.34-6.51 0.57-8.98 0.85-1.47 0.16-3.31 0.35-4.094 0.41-0.786 0.07-1.485 0.16-1.554 0.2-0.161 0.1-3.631 0.45-7.077 0.71-1.468 0.11-4.1 0.34-5.85 0.51-3.803 0.37-4.857 0.39-5.042 0.09-0.433-0.7 0.996-1 6.708-1.42 1.65-0.12 3.313-0.31 3.695-0.42 0.382-0.12 2.865-0.34 5.518-0.51 2.654-0.16 5.476-0.39 6.266-0.51 0.79-0.11 2.54-0.29 3.9-0.4 2.77-0.2 8.87-0.79 9.92-0.95 0.52-0.08 1.08-0.49 2.21-1.63 0.83-0.84 1.52-1.63 1.52-1.74 0-0.48-1.33-0.61-6.43-0.66-5.29-0.05-5.38-0.06-5.44-0.48s0.04-0.44 3.29-0.57c1.84-0.07 4.9-0.13 6.81-0.13 2.9 0 3.59-0.06 4.21-0.36 1.39-0.68 0.97-1.35-1.07-1.7-1.89-0.33-7.57-0.99-10.16-1.18-1.95-0.14-2.6-0.26-2.87-0.54-0.33-0.33-0.33-0.37 0.01-0.62 0.25-0.19 0.62-0.22 1.23-0.11 0.48 0.09 2.06 0.26 3.51 0.39 1.45 0.12 2.7 0.26 2.78 0.31 0.17 0.1 3.01 0.49 4.74 0.65 0.62 0.06 1.63 0.19 2.25 0.3 1.99 0.34 2.84 0.25 3.44-0.35 0.47-0.47 0.5-0.57 0.23-0.77-0.53-0.38-5.1-1.81-9.2-2.87-1.07-0.28-2.41-0.64-2.98-0.8-0.56-0.16-2.32-0.63-3.9-1.05-1.58-0.43-4.21-1.13-5.85-1.57s-3.48-0.9-4.1-1.04c-0.626-0.13-1.365-0.31-1.647-0.41-0.282-0.09-0.836-0.22-1.232-0.29-0.727-0.13-3.633-0.99-6.261-1.86-0.79-0.26-2.268-0.67-3.284-0.92-3.133-0.75-5.768-1.61-6.131-2.01-0.303-0.34-0.308-0.42-0.044-0.64 0.325-0.27 1.919 0.14 5.764 1.47 1.016 0.35 3.557 1.07 5.646 1.61 2.088 0.53 4.629 1.21 5.645 1.52 1.014 0.3 3.744 1.04 6.054 1.64 2.32 0.6 4.95 1.3 5.85 1.54 4.39 1.21 6.25 1.7 7.29 1.95 2.12 0.5 6.82 1.79 8.71 2.39 1.5 0.48 2.64 0.5 3.31 0.06 0.81-0.53 0.64-1.03-0.47-1.38-0.97-0.31-4.09-1.54-5.29-2.08-0.34-0.16-1.31-0.51-2.16-0.79-0.84-0.28-1.77-0.6-2.05-0.71-0.28-0.12-2.61-0.89-5.18-1.72-3.52-1.13-4.71-1.6-4.79-1.88-0.07-0.21-0.08-0.42-0.03-0.48 0.14-0.13 3.56 0.8 5.79 1.58 1.02 0.36 2.64 0.86 3.6 1.12 0.96 0.25 2.67 0.8 3.79 1.21 1.13 0.42 3.03 1.08 4.21 1.48 1.19 0.4 2.55 0.9 3.03 1.12 1.24 0.57 1.76 0.51 1.33-0.14-0.08-0.12-1.03-0.66-2.1-1.2-1.07-0.53-2.13-1.12-2.36-1.32-0.23-0.19-1.65-0.95-3.17-1.67-1.52-0.73-4.89-2.39-7.49-3.69-3.86-1.93-4.75-2.45-4.8-2.82-0.1-0.66 0.59-0.59 2.16 0.22 0.71 0.36 3.99 2.02 7.29 3.7 3.31 1.67 6.33 3.21 6.73 3.42 2.83 1.5 3.7 1.84 3.69 1.49 0-0.37-3.71-3.03-8.09-5.8-1.16-0.74-2.7-1.81-3.43-2.38-0.73-0.58-1.55-1.17-1.83-1.32s-1-0.65-1.6-1.11c-0.61-0.46-1.39-1.02-1.75-1.23-0.35-0.22-1.2-0.83-1.87-1.35-1.12-0.86-3.22-2.31-4.91-3.38-0.35-0.23-1.42-0.95-2.38-1.61-0.96-0.65-2.41-1.65-3.23-2.21-0.81-0.56-1.54-1.01-1.61-1.01s-0.41-0.24-0.76-0.53c-0.34-0.29-1.139-0.8-1.771-1.13-1.106-0.58-2.54-1.56-6.142-4.19-1.253-0.91-1.68-1.34-1.68-1.69 0-0.71 0.51-0.58 1.888 0.45 1.504 1.13 6.238 4.33 7.445 5.03 0.48 0.29 1.19 0.76 1.57 1.07 0.38 0.3 1.2 0.85 1.83 1.23 1.45 0.88 2.65 1.7 3.97 2.74 1 0.79 2.44 1.82 5.47 3.88 0.73 0.5 1.66 1.18 2.05 1.52 0.76 0.64 4.2 2.95 7.7 5.17 2.78 1.76 5.08 3.24 7.93 5.11 2.28 1.48 2.9 1.88 5.44 3.48 1.01 0.63 1.72 0.74 1.72 0.25 0-0.26-1.82-2.04-3.89-3.82-0.92-0.79-2-1.73-2.41-2.09-0.4-0.36-1.47-1.19-2.38-1.84-0.91-0.66-2.82-2.22-4.24-3.46-2.41-2.12-5.22-4.35-7.19-5.71-0.59-0.4-0.83-0.72-0.83-1.07 0-0.42 0.1-0.5 0.59-0.5 0.55 0 2.07 1.2 7.31 5.79 3.5 3.07 10.89 8.78 11.35 8.78 0.24 0 0.23-0.1-0.06-0.56-0.2-0.31-0.46-0.66-0.59-0.77-0.34-0.3-4.96-5.48-6.21-6.96-0.58-0.69-2.91-3.13-5.19-5.43s-4.11-4.29-4.07-4.42c0.05-0.13 0.26-0.26 0.48-0.29 0.43-0.06 1.34 0.83 5.32 5.18 2.74 2.99 11.36 11.96 12.41 12.92 0.47 0.41 0.93 0.7 1.04 0.63 0.21-0.12-0.26-1.2-0.61-1.42-0.11-0.07-0.48-0.65-0.83-1.3-0.34-0.64-0.99-1.63-1.43-2.2-0.45-0.56-1.26-1.67-1.8-2.46-1.59-2.33-2.99-4.27-3.7-5.14-1.02-1.25-5-6.6-5.78-7.78-0.38-0.57-1.02-1.42-1.43-1.88-0.41-0.47-1.16-1.38-1.67-2.03s-1.39-1.74-1.95-2.42-1.4-1.72-1.85-2.31c-1.58-2.07-3.47-4.44-5.43-6.81-0.74-0.88-1.41-1.69-1.49-1.81-0.09-0.11-0.52-0.66-0.97-1.229-1.58-1.987-3.07-4.176-3.21-4.702-0.11-0.445-0.06-0.532 0.29-0.532 0.51 0 0.39-0.136 2.76 3.079 1.04 1.411 2.63 3.434 3.54 4.494 3.53 4.16 6.1 7.4 10.32 13.04 1.61 2.15 3.27 4.33 3.69 4.83s1.18 1.51 1.69 2.25c1.28 1.87 2.62 3.68 3.37 4.56 0.35 0.41 1.02 1.29 1.5 1.96 1.1 1.55 1.9 2.33 1.9 1.86 0-0.34-2.26-4.83-3.22-6.41-0.27-0.45-0.96-1.61-1.51-2.57-0.56-0.96-1.11-1.88-1.22-2.05-0.9-1.38-2.64-4.77-2.65-5.17-0.02-0.47 0.27-0.62 0.64-0.31 0.18 0.13 1.03 1.63 1.91 3.33 1.76 3.38 6.08 10.99 6.69 11.77 0.22 0.27 0.39 0.58 0.39 0.68s0.4 0.8 0.89 1.56 1.1 1.75 1.36 2.2 0.63 1.1 0.83 1.44c1.64 2.86 2.15 3.59 2.49 3.59 0.31 0 0.19-0.61-0.33-1.76-0.29-0.62-0.76-1.7-1.05-2.4-0.3-0.7-0.89-1.97-1.31-2.82-0.42-0.84-0.83-1.79-0.9-2.09-0.07-0.31-1.09-2.53-2.27-4.93-1.17-2.4-2.82-5.8-3.67-7.55-1.46-3.02-2.15-4.84-1.91-5.08 0.29-0.29 0.81 0.27 1.33 1.43 0.32 0.71 0.79 1.75 1.04 2.31 0.25 0.57 0.86 1.86 1.34 2.88 0.48 1.01 1.64 3.51 2.57 5.54 1.99 4.36 1.48 3.32 4.8 9.9 0.64 1.28 1.09 1.7 0.89 0.83-0.28-1.24-1.88-6.07-2.52-7.65-0.28-0.68-0.5-1.38-0.5-1.55 0-0.34-0.73-2.41-2.47-6.97-0.58-1.52-1.35-3.65-1.72-4.73-0.38-1.08-0.8-2.19-0.95-2.47-0.27-0.49-1.16-2.94-2.55-7.07-0.85-2.51-1.87-5.298-2.13-5.79-0.1-0.201-0.3-0.874-0.45-1.495-0.14-0.621-0.57-1.912-0.96-2.868-1.19-2.987-3.14-9.132-3.14-9.924 0-0.836 0.35-1 0.85-0.397 0.29 0.347 0.45 0.827 1.41 4.157 0.82 2.835 0.99 3.378 1.6 5.132 0.66 1.877 1.03 2.989 2.32 6.975 0.46 1.42 0.96 2.89 1.12 3.29 0.15 0.39 0.6 1.64 1 2.77 0.96 2.75 3.29 9.12 3.96 10.78 0.57 1.45 2.31 6.33 2.95 8.31 0.22 0.68 0.53 1.51 0.69 1.85s0.7 1.77 1.21 3.18c0.5 1.41 1.16 3.21 1.46 4 0.31 0.79 0.74 1.95 0.97 2.57 0.53 1.44 0.75 1.85 1 1.85 0.27 0 0.14-0.85-0.91-5.75-0.28-1.3-0.57-2.81-0.64-3.35-0.08-0.55-0.28-1.38-0.45-1.85s-0.39-1.5-0.48-2.29c-0.1-0.79-0.32-2.09-0.51-2.88-0.18-0.79-0.41-1.9-0.51-2.46-0.1-0.57-0.28-1.4-0.41-1.85-0.14-0.45-0.51-2.02-0.83-3.49s-0.73-3.2-0.9-3.86c-0.4-1.48-0.41-1.78-0.02-1.78 0.42 0 0.81 1.03 1.32 3.42 0.23 1.11 0.6 2.89 0.83 3.97 0.82 3.92 1.07 5.07 1.55 7.08 0.27 1.13 0.59 2.7 0.71 3.49 0.28 1.83 1.14 5.77 1.64 7.49 0.21 0.74 0.45 1.64 0.52 2 0.18 0.9 0.52 1.05 0.52 0.24 0-1.09-0.61-7.52-0.93-9.83-0.16-1.19-0.35-3.22-0.42-4.52-0.14-2.64-0.33-4.6-0.81-8.52-0.75-6.03-0.75-6.26-0.12-6.26 0.32 0 0.4 0.47 0.7 3.75 0.75 8.19 0.96 10.34 1.08 11.03 0.07 0.4 0.21 1.73 0.31 2.98 0.27 3.54 0.54 6.13 0.67 6.46 0.12 0.33 0.72 4.45 0.93 6.45 0.07 0.67 0.23 1.25 0.36 1.29 0.28 0.1 0.56-1.56 0.4-2.36-0.06-0.3-0.16-3.14-0.23-6.3-0.25-10.84-0.28-11.92-0.48-17.65-0.12-3.17-0.22-8.34-0.23-11.5-0.04-10.508-0.21-21.489-0.32-21.679-0.18-0.288 0.11-1.005 0.4-1.005 0.7 0 0.81 1.545 0.86 12.009 0.03 5.645 0.11 11.835 0.17 13.755 0.07 1.92 0.16 6.54 0.22 10.26 0.06 3.73 0.15 8.07 0.21 9.65s0.16 4.54 0.22 6.57 0.19 4.02 0.27 4.41c0.09 0.4 0.09 0.96 0.01 1.26-0.16 0.6 0.11 1.34 0.29 0.79 0.05-0.17 0.21-1.23 0.34-2.35 0.13-1.13 0.33-2.57 0.44-3.19 0.18-1.06 0.78-5.84 1.2-9.54 0.1-0.91 0.28-2.83 0.39-4.27 0.12-1.44 0.26-2.7 0.31-2.79 0.06-0.09 0.15-0.71 0.2-1.38 0.33-4.23 0.57-6.13 0.8-6.27 0.47-0.3 0.85 0.39 0.83 1.52-0.02 1.04-0.12 1.86-1.21 9.6-0.28 1.97-0.69 5.3-0.92 7.39-0.23 2.08-0.46 3.94-0.51 4.12-0.06 0.18-0.14 0.78-0.19 1.33-0.04 0.56-0.19 2.37-0.34 4.03-0.27 3.26-0.15 4.06 0.61 4.06s0.92-0.55 1.65-5.64c0.13-0.9 0.33-2.24 0.44-2.98 0.11-0.73 0.28-1.89 0.38-2.56 0.1-0.68 0.5-3.18 0.9-5.55 0.39-2.37 0.87-5.6 1.05-7.18s0.44-3.52 0.56-4.31c0.13-0.79 0.29-1.85 0.36-2.36 0.1-0.75 0.21-0.93 0.54-0.93 0.32 0 0.4 0.13 0.39 0.62-0.03 0.84-0.66 5.69-0.92 7.08-0.44 2.33-0.58 3.24-0.8 5.24-0.12 1.13-0.4 2.97-0.61 4.1s-0.48 2.7-0.6 3.49-0.35 2.32-0.52 3.39c-0.87 5.4-0.6 6.16 0.69 1.95 0.14-0.45 0.51-1.52 0.83-2.36 0.73-1.91 2-6.03 2.17-6.99 0.06-0.39 0.24-1.03 0.39-1.43 0.16-0.39 0.94-2.84 1.75-5.44s2.1-6.66 2.87-9.03c0.76-2.37 1.64-5.14 1.95-6.16s0.72-2.31 0.92-2.87c0.2-0.567 0.72-2.138 1.14-3.493 0.42-1.354 1.37-4.264 2.11-6.466s1.52-4.557 1.75-5.235c0.45-1.382 0.68-1.744 1.09-1.744 0.66 0 0.44 0.817-2.42 9.134-0.89 2.597-1.91 5.6-2.26 6.672s-0.76 2.272-0.91 2.672c-0.14 0.39-0.51 1.55-0.8 2.56-0.3 1.02-0.62 2.03-0.72 2.26-0.17 0.4-0.57 1.66-2.56 8.01-0.53 1.69-1.28 3.95-1.66 5.03-0.38 1.07-0.84 2.59-1.02 3.37s-0.47 1.75-0.63 2.16c-0.17 0.4-0.67 1.97-1.1 3.5-1.21 4.23-2.24 7.62-2.55 8.41-0.34 0.88-0.62 2.78-0.45 3.07 0.23 0.36 0.69 0 1.01-0.77 0.17-0.42 0.84-2 1.48-3.53 0.64-1.52 1.52-3.62 1.95-4.65 0.43-1.04 0.92-2.1 1.08-2.37 0.17-0.26 0.37-0.7 0.45-0.98s0.64-1.67 1.24-3.08c1.61-3.81 2.13-5.1 2.59-6.47 0.23-0.68 0.67-1.83 0.99-2.56 0.31-0.74 0.68-1.65 0.83-2.02 0.28-0.74 1.07-1.39 1.42-1.17 0.26 0.16 0.29 1.47 0.04 1.63-0.19 0.11-1.33 2.66-3.11 6.89-1.53 3.65-2.45 5.8-2.67 6.19-0.1 0.19-0.5 1.16-0.89 2.16s-0.98 2.41-1.3 3.15c-0.33 0.73-0.72 1.75-0.87 2.26-0.24 0.8-0.73 2.08-0.97 2.5-0.04 0.07 0.01 0.19 0.11 0.26 0.11 0.06 0.31-0.23 0.45-0.66 0.14-0.42 0.59-1.28 1.01-1.9s1.16-1.82 1.64-2.67c0.49-0.84 1.44-2.46 2.12-3.59 1.76-2.91 3.62-6.31 4.44-8.11 0.38-0.84 0.91-1.86 1.16-2.26 0.26-0.39 0.52-0.95 0.59-1.24 0.08-0.29 0.48-0.93 0.9-1.42 0.58-0.67 0.87-0.86 1.15-0.76 0.53 0.21 0.3 1.11-0.66 2.56-1.23 1.88-1.28 1.96-1.59 2.65-0.17 0.35-0.59 1.14-0.95 1.74s-0.96 1.69-1.35 2.43c-0.77 1.45-1.2 2.2-2.99 5.2-0.65 1.09-1.25 2.14-1.32 2.34-0.08 0.2-0.48 0.92-0.89 1.59-1.1 1.82-3.48 6.47-3.48 6.82 0 0.72 0.74-0.01 2.25-2.2 0.89-1.3 3.35-4.95 5.46-8.11 2.12-3.16 5.56-8.31 7.66-11.45s4.11-6.19 4.47-6.77c0.36-0.59 0.99-1.53 1.42-2.08 0.42-0.56 1.52-2.13 2.44-3.49 1.67-2.46 4.03-5.83 5.22-7.416 0.34-0.454 0.86-1.24 1.15-1.744 1.52-2.612 2.08-3.385 2.52-3.447 0.86-0.124 0.58 0.967-0.76 2.968-0.67 1-1.41 2.049-1.64 2.332-0.23 0.282-0.42 0.59-0.42 0.684-0.01 0.095-0.41 0.693-0.89 1.333-2.07 2.71-3.06 4.12-4.13 5.86-0.22 0.35-0.72 1.06-1.13 1.56-0.76 0.95-1.27 1.63-2.16 2.88-0.28 0.39-0.97 1.36-1.54 2.16-0.57 0.79-1.21 1.76-1.43 2.15-0.22 0.4-0.58 0.92-0.81 1.16-0.23 0.25-0.89 1.22-1.47 2.16-2.39 3.89-3.1 5-3.46 5.4-0.36 0.39-2.03 2.94-3.11 4.73-0.27 0.45-1.14 1.69-1.94 2.77-1.7 2.29-2.72 3.92-2.91 4.66-0.19 0.78 0.26 0.45 2.02-1.49 0.83-0.9 1.82-1.98 2.22-2.38 0.39-0.41 1.27-1.37 1.95-2.14s1.94-2.14 2.8-3.05c0.87-0.91 2.28-2.49 3.15-3.51 2.47-2.9 3.8-3.87 3.8-2.78 0 0.46-0.77 1.38-4.2 5.04-1.37 1.47-3.37 3.64-4.44 4.82-1.06 1.18-2.4 2.62-2.97 3.19-0.58 0.58-1.75 1.92-2.62 2.99-0.86 1.06-1.96 2.38-2.43 2.91-0.63 0.72-0.8 1.04-0.64 1.21 0.17 0.16 0.73-0.24 2.05-1.49 1-0.95 2.97-2.73 4.38-3.97 3.24-2.85 7.44-6.65 8.51-7.69 1.52-1.48 4.41-3.51 5.02-3.51 0.6 0 0.04 0.84-1.17 1.75-1.32 0.98-5.52 4.58-7.44 6.37-0.51 0.47-1.9 1.74-3.08 2.82-2.67 2.42-4.93 4.73-4.93 5.05 0 0.42 0.5 0.23 1.85-0.7 0.73-0.51 1.84-1.26 2.46-1.68 0.62-0.41 2.18-1.45 3.46-2.3 1.28-0.86 2.96-1.97 3.74-2.48 1.89-1.23 8.99-6.06 9.64-6.55 0.28-0.21 1.39-0.95 2.46-1.63s2.5-1.66 3.18-2.17c3.07-2.32 11.84-8.37 13.89-9.58 1.25-0.74 2.11-1.04 2.54-0.87 0.78 0.3 0.04 1.12-1.99 2.18-0.74 0.39-2.45 1.44-3.79 2.33s-2.67 1.74-2.95 1.88-1.13 0.69-1.88 1.23c-0.75 0.53-2.09 1.46-2.98 2.08-0.88 0.61-1.84 1.26-2.12 1.46-0.28 0.19-2.04 1.37-3.9 2.61-1.86 1.23-4.4 2.96-5.65 3.83-1.24 0.87-2.52 1.73-2.85 1.93-0.32 0.19-1.01 0.65-1.54 1.02-0.52 0.37-1.21 0.83-1.52 1.03-0.32 0.19-1.45 0.95-2.5 1.68-1.05 0.74-2.86 1.98-4.01 2.77s-2.29 1.63-2.53 1.86-0.84 0.67-1.32 0.98c-0.97 0.62-1.06 0.85-0.45 1.17 0.35 0.19 0.72 0.06 2.21-0.75 1.74-0.95 2.94-1.56 7.43-3.75 1.19-0.58 2.3-1.14 2.46-1.24 0.17-0.11 0.59-0.32 0.93-0.47 0.51-0.24 4.58-2.35 6.76-3.51 0.68-0.36 0.94-0.29 0.94 0.27 0 0.42-0.94 1.05-3.08 2.06-2.03 0.96-3.35 1.67-3.71 1.98-0.18 0.15-0.45 0.28-0.59 0.28s-0.5 0.16-0.8 0.37-2.12 1.12-4.04 2.03c-4.79 2.28-5.94 2.95-6.02 3.5-0.1 0.75 0.75 0.94 2.17 0.48 1.16-0.38 5.1-1.95 6.73-2.68 1.7-0.77 3.38-1.45 3.58-1.45 0.12 0 0.79-0.26 1.5-0.59 0.7-0.33 2.28-0.99 3.5-1.47 1.8-0.71 2.26-0.83 2.4-0.6 0.32 0.52-0.17 0.95-1.68 1.48-0.83 0.29-1.83 0.65-2.22 0.79-0.97 0.34-3.47 1.39-4.11 1.72-0.28 0.14-1.39 0.61-2.46 1.04-2.85 1.13-5.75 2.51-5.75 2.74 0 0.46 0.52 0.4 3.63-0.4 1.79-0.46 3.94-1.01 4.79-1.21 0.84-0.21 2.09-0.52 2.77-0.7 1.27-0.33 6.02-1.46 8.72-2.08 0.85-0.19 2.19-0.52 2.98-0.72 0.79-0.21 2.36-0.58 3.49-0.82 2.11-0.45 5-1.11 6.26-1.43 1.93-0.5 5.36-1.24 5.76-1.24 0.25 0 1.7-0.33 3.23-0.73 2.76-0.72 3.74-0.77 3.74-0.19 0 0.65-1.48 1.12-5.44 1.74-0.79 0.12-2.22 0.4-3.18 0.62-0.96 0.21-2.76 0.54-4.01 0.73-1.24 0.18-2.76 0.48-3.37 0.65-1.44 0.41-4.34 1.06-5.66 1.28-0.57 0.09-1.45 0.3-1.95 0.47-0.51 0.17-1.57 0.42-2.36 0.55-0.79 0.14-2.31 0.48-3.39 0.76-1.07 0.29-2.92 0.74-4.1 1.01-4.52 1.01-9.29 2.43-9.65 2.86-0.14 0.17-0.2 0.44-0.14 0.61 0.2 0.51 1.77 1.42 2.46 1.42 0.75 0 4.8-0.55 7.23-0.99 2.82-0.5 6.47-0.95 6.67-0.83 0.37 0.23 0.21 0.73-0.3 0.92-0.27 0.1-2.23 0.42-4.36 0.71-7.47 1.01-7.66 1.05-7.66 1.65 0 0.29 1.82 1.93 2.61 2.34 0.35 0.18 1.24 0.18 3.7 0 3.63-0.27 5.34-0.3 5.54-0.1 0.35 0.35-0.55 0.58-3.59 0.93-1.82 0.21-3.4 0.45-3.52 0.52-0.13 0.08-0.22 0.28-0.22 0.45 0 0.41 0.74 1.45 1.2 1.7 0.19 0.1 2.34 0.43 4.76 0.72s5.14 0.62 6.04 0.73c0.91 0.12 2.2 0.21 2.87 0.21s1.73 0.09 2.36 0.19c1.33 0.23 3.95 0.56 7.58 0.95 3.4 0.36 9 1.1 9.76 1.29 0.73 0.18 1.14 0.73 0.8 1.07-0.27 0.27-2.93-0.02-5.92-0.64-1.01-0.21-2.95-0.53-4.31-0.71-1.35-0.17-2.97-0.41-3.59-0.52s-2.27-0.29-3.66-0.4c-1.4-0.11-2.61-0.25-2.71-0.31-0.09-0.06-1.35-0.2-2.8-0.3-1.45-0.11-3.94-0.31-5.54-0.44-1.59-0.13-3.05-0.19-3.23-0.12-0.58 0.22-0.37 0.74 1.08 2.67 0.78 1.04 1.9 2.76 2.49 3.84 0.6 1.07 1.38 2.41 1.76 2.97 1.24 1.89 3.01 6.55 3.9 10.27 0.58 2.43 0.14 5.07-0.95 5.65-1.32 0.71-2.12-0.29-2.47-3.11-0.4-3.24-1.19-6.11-2.26-8.25-0.55-1.11-1.01-2.1-1.01-2.2 0-0.11-0.37-0.73-0.82-1.38s-0.82-1.26-0.82-1.35c0-0.08-0.17-0.41-0.38-0.71-0.21-0.31-0.79-1.25-1.28-2.09-0.5-0.85-1.23-1.92-1.62-2.4-0.4-0.47-1.32-1.65-2.06-2.63-2.19-2.93-6.82-7.23-9.37-8.71-2.82-1.63-4.84-2.53-7.15-3.18-1.36-0.38-2.74-0.74-3.08-0.8s-0.98-0.2-1.44-0.32c-6.22-1.53-14.72-1.71-20.79-0.42-1.66 0.35-3.51 0.71-4.1 0.8-1.07 0.17-5.57 2.08-7.07 3.01-0.43 0.26-0.81 0.48-0.85 0.48-0.32 0-5.88 4.1-5.88 4.34 0 0.09-0.4 0.43-0.89 0.76-1.23 0.85-5.64 5.22-6.73 6.68-0.49 0.66-1.22 1.7-1.62 2.3-0.39 0.6-1.05 1.58-1.46 2.18-1.11 1.63-4.29 8.03-4.29 8.65 0 0.2-0.17 0.8-0.39 1.32-0.22 0.53-0.82 2.44-1.34 4.25-0.53 1.81-1.11 3.59-1.3 3.97-0.66 1.34-1.89 1.84-2.86 1.16zm-30.17-0.81c-2.147-0.93-1.311-3.43 1.35-4.03 0.486-0.11 1.02-0.11 1.306 0 0.696 0.26 1.794 1.59 1.794 2.17 0 0.76-1.072 1.68-2.267 1.94-1.286 0.27-1.379 0.27-2.183-0.08zm152.2-0.63c-1.42-0.97-1.84-2.74-0.88-3.7 0.63-0.63 1.3-0.64 2.54-0.01 1.15 0.59 1.42 0.87 1.68 1.79 0.58 2.01-1.48 3.18-3.34 1.92zm-37.93-3.11c-0.59-0.22-2.08-1.82-2.82-3.04-0.59-0.97-2.77-3.86-3.33-4.42-0.06-0.05-0.38-0.47-0.72-0.92-2.01-2.73-9.35-9.44-11.87-10.86-0.62-0.35-1.96-1.2-2.98-1.89-2.06-1.39-5.47-2.83-8.66-3.65-4.7-1.2-11.16-0.83-16.32 0.94-2.39 0.83-4.93 1.99-6.32 2.92-0.61 0.4-1.17 0.74-1.25 0.74-0.18 0-1.94 1.15-4.18 2.73-1.64 1.17-6.5 5.9-9.08 8.86-0.69 0.79-2.02 2.6-2.96 4.02s-1.95 2.73-2.24 2.92c-1.06 0.7-2.6 0.22-2.6-0.79 0-1.06 2.21-4.76 4.23-7.09 0.55-0.63 1.34-1.56 1.75-2.05 2.37-2.88 2.95-3.52 4.51-5.02 2.58-2.48 4.93-4.23 9.55-7.1 3.62-2.26 7.8-3.88 12.39-4.8 1.45-0.3 2.43-0.34 5.75-0.23 5.3 0.16 8.78 0.81 11.8 2.18 0.5 0.23 0.98 0.41 1.07 0.41 0.1 0 1.1 0.49 2.22 1.09 5.55 2.96 8.88 5.58 15.17 11.93 2.76 2.79 3.75 3.92 7.05 7.99 0.54 0.66 1.37 1.66 1.85 2.22 0.97 1.13 1.07 1.71 0.44 2.51-0.34 0.43-0.59 0.54-1.28 0.52-0.47-0.01-1-0.06-1.17-0.12zm-153.24-3.3c-0.189-0.65-0.423-1.73-0.52-2.41s-0.364-2.19-0.594-3.35c-0.748-3.79-0.764-4.73-0.111-6.55 0.325-0.91 0.845-1.89 1.209-2.28 0.804-0.87 2.378-1.58 4.071-1.84 2.377-0.37 3.884 0.17 5.526 1.98 0.627 0.69 1.201 1.26 1.276 1.26s0.344-0.43 0.596-0.96c0.253-0.52 0.691-1.12 0.974-1.33 0.5-0.36 2.434-0.89 5.132-1.39 0.733-0.13 1.91-0.51 2.615-0.84 1.054-0.48 1.339-0.72 1.615-1.37 0.548-1.28 0.626-1.4 0.909-1.4 0.339 0 0.558 0.79 0.794 2.85 0.346 3.02-0.405 3.77-4.649 4.66-5.147 1.07-5.679 1.25-6.382 2.14-0.464 0.6-0.563 1.24-0.262 1.72 0.215 0.34 1.8 0.2 4.744-0.43 1.072-0.22 2.38-0.48 2.905-0.58 1.681-0.29 2.72-1.04 3.023-2.17 0.16-0.6 0.735-0.89 1.084-0.54 0.106 0.11 0.325 0.97 0.485 1.92s0.477 2.6 0.705 3.67c0.502 2.37 0.511 2.65 0.09 2.81-0.218 0.09-0.56-0.12-1.009-0.61-0.772-0.84-1.432-1.07-2.522-0.88-0.417 0.08-1.544 0.27-2.503 0.42-0.96 0.15-2.706 0.52-3.88 0.81s-2.375 0.53-2.669 0.53c-0.293 0-1.134 0.14-1.868 0.3s-2.073 0.44-2.976 0.63c-0.904 0.18-2.058 0.46-2.566 0.61s-1.34 0.33-1.847 0.38c-1.133 0.14-1.747 0.77-1.954 2.02-0.293 1.78-0.957 1.88-1.441 0.22zm4.626-7.13c2.878-0.51 4.575-0.85 5.173-1.04 0.574-0.18 0.644-0.86 0.168-1.62-0.803-1.3-3.997-2.37-5.734-1.93-2.926 0.76-4.123 1.85-4.123 3.76 0 0.59 0.061 1.13 0.137 1.2 0.244 0.25 1.553 0.14 4.379-0.37zm31.991 7.58c-0.983-0.42-1.407-1.34-0.975-2.11 0.488-0.87 1.811-1.66 2.797-1.67 0.686 0 1.02 0.13 1.613 0.65 0.693 0.61 0.74 0.72 0.645 1.56-0.058 0.52-0.276 1.08-0.506 1.31-0.556 0.56-2.549 0.7-3.574 0.26zm156.56 0.13c-0.87-0.36-1.21-1-1.18-2.22 0.03-1.49 0.51-2.18 1.57-2.27 1.62-0.14 3.2 1.4 3.2 3.12 0 0.62-0.11 0.81-0.66 1.15-0.7 0.42-2.16 0.53-2.93 0.22zm-158.97-6.9c-0.587-0.67-0.742-1.13-0.652-1.94 0.019-0.17 0.336-0.6 0.706-0.95 1.27-1.2 3.452-1.09 4.307 0.21 0.401 0.61 0.443 1.76 0.082 2.22-0.541 0.69-1.679 1.19-2.75 1.19-0.953 0-1.119-0.07-1.693-0.73zm161.54 0.5c-0.66-0.12-1.12-0.38-1.59-0.89-0.9-0.97-0.92-1.95-0.07-2.8 0.7-0.7 1.39-0.76 2.58-0.21 1.21 0.55 1.64 1.13 1.64 2.19 0 1.46-0.86 2.04-2.56 1.71zm-161.25-6.7c-1.137-0.2-1.953-0.75-2.356-1.58-0.551-1.14-0.526-1.41 0.2-2.14 1.115-1.11 3.151-1.11 4.423 0.01 0.605 0.53 0.71 0.75 0.71 1.51 0 0.77-0.093 0.96-0.667 1.39-0.783 0.58-1.732 0.91-2.31 0.81zm162.25-0.08c-1.1-0.3-1.88-1.21-1.88-2.18 0-1.28 0.21-1.66 1.04-1.89 1.1-0.31 1.6-0.27 2.51 0.2 1.01 0.51 1.41 1.27 1.22 2.32-0.25 1.41-1.32 1.98-2.89 1.55zm10.39-0.39c-0.08-0.23-0.04-1.04 0.08-1.8s0.27-1.82 0.33-2.35c0.06-0.54 0.21-1.22 0.32-1.5 0.1-0.29 0.19-0.84 0.19-1.22s0.06-0.83 0.13-1.01c0.18-0.48 0.85-0.4 1.12 0.14 0.76 1.46 1.31 1.6 4.7 1.15 2.82-0.36 3.35-0.57 3.64-1.41 0.36-1.05 0.33-2.78-0.05-3.16-0.51-0.51-3.56-1.38-5.29-1.51-1.59-0.11-1.6-0.11-2.28 0.55-0.63 0.61-0.7 0.63-1.01 0.32-0.27-0.27-0.34-0.77-0.34-2.47 0-2.14 0.24-3.17 0.75-3.17 0.15 0 0.4 0.3 0.55 0.67 0.32 0.77 1.25 1.62 2.4 2.21 0.74 0.37 4.62 1.45 9.64 2.66 1.3 0.32 3.52 0.86 4.93 1.21s3.03 0.73 3.59 0.85c2.67 0.58 3.62 0.89 3.83 1.28 0.33 0.62 0.13 3.36-0.27 3.76-0.31 0.31-4.91 0.98-10.54 1.52-2.42 0.23-6.65 0.73-9.34 1.11-3.99 0.56-4.99 0.9-5.78 1.97-0.52 0.71-1.11 0.8-1.3 0.2zm15.19-7.7c5.54-1.05 5.77-1.43 1.49-2.42-3.25-0.76-3.67-0.77-3.99-0.14-0.33 0.65-0.35 2.31-0.02 2.63 0.31 0.31 0.52 0.31 2.52-0.07zm-25.49 1.04c-1.11-0.48-1.44-1.82-0.74-3 1-1.69 4.37-0.4 4.37 1.67 0 1.32-1.99 2.05-3.63 1.33zm-164.25-0.21c-0.884-0.39-1.399-1.54-1.146-2.57 0.217-0.87 1.189-1.43 2.498-1.43 2.872 0 4.058 3.22 1.499 4.07-0.932 0.32-2.028 0.29-2.851-0.07zm-30.831-1.66c-2.743-0.72-4.414-2.1-4.965-4.08-0.368-1.33-0.314-4.96 0.096-6.31 0.194-0.64 0.421-1.21 0.504-1.26 0.176-0.11 2.991-0.22 4.397-0.17 0.581 0.02 1.094 0.17 1.298 0.37 0.314 0.32 0.311 0.37-0.037 0.69-0.206 0.19-1.067 0.6-1.914 0.91-2.727 0.98-3.774 2.55-3.063 4.59 0.311 0.89 1.787 2.04 2.964 2.3 2.253 0.51 4.409-1.16 6.258-4.82 1.204-2.39 2.841-4.07 4.704-4.83 1.039-0.42 3.993-0.37 5.252 0.08 2.665 0.97 4.865 3.03 5.549 5.21 0.348 1.1 0.341 2.35-0.031 5.76-0.149 1.35-0.19 1.37-3.568 1.59-3.075 0.21-4.108 0.15-4.51-0.24-0.486-0.47 0.259-0.97 2.252-1.51 2.458-0.67 3.846-1.49 4.329-2.55 0.474-1.04 0.494-2.12 0.061-3.2-0.393-0.99-1.065-1.5-2.377-1.82-3.172-0.78-5.312 0.3-7.055 3.56-1.683 3.15-2.924 4.52-4.914 5.44-1.816 0.84-2.917 0.9-5.23 0.29zm168.08-2.14c-4.16-0.11-4.56-0.22-4.08-1.07 0.15-0.26 0.75-0.88 1.34-1.39 4.39-3.77 6.55-5.96 6.43-6.53-0.06-0.31-0.5-0.35-4.26-0.35-3.93 0-4.21-0.02-4.28-0.38-0.12-0.64 0.27-0.79 2.16-0.87 0.99-0.04 2-0.12 2.23-0.18 0.23-0.05 1.25-0.15 2.26-0.22s2.44-0.21 3.17-0.31 2.33-0.29 3.55-0.43c2.58-0.29 2.6-0.28 2.6 1.37 0 1-0.02 1.04-1.38 2.27-0.76 0.68-1.9 1.62-2.53 2.08-2.05 1.5-4.08 4.04-3.61 4.51 0.29 0.28 2.09 0.46 4.81 0.47 2.43 0 2.96 0.06 3.05 0.32 0.07 0.17 0 0.45-0.14 0.63-0.28 0.34-1.49 0.34-11.32 0.08zm-115.74-1.01l-3.592-0.12-0.063-0.86c-0.105-1.45 0.062-1.6 3.861-3.6 0.846-0.44 1.816-1.02 2.155-1.27 0.339-0.26 0.939-0.63 1.334-0.83 0.893-0.45 1.643-1.12 1.643-1.47 0-0.39-1.192-0.63-4.596-0.92-2.312-0.2-3.163-0.35-3.49-0.62-0.407-0.33-0.412-0.38-0.087-0.71 0.367-0.37 0.658-0.36 6.222 0.31 0.904 0.11 2.936 0.3 4.517 0.43 1.58 0.12 3.226 0.25 3.652 0.29 0.98 0.08 1.24 0.33 1.22 1.16-0.03 0.76-0.16 0.93-1.36 1.62-2.414 1.4-3.9 2.35-4.497 2.85-0.362 0.31-1.004 0.81-1.427 1.13-0.837 0.61-0.973 1.03-0.411 1.26 0.198 0.08 1.806 0.2 3.575 0.26s3.33 0.18 3.47 0.26c0.14 0.09 0.19 0.31 0.12 0.49-0.1 0.28-0.63 0.33-3.977 0.33-2.12 0-4.04 0.03-4.266 0.06-0.225 0.03-2.027 0.01-4.003-0.05zm142.78-1.36c-1.48-0.74-1.8-2.22-0.74-3.35 0.5-0.54 0.75-0.64 1.53-0.64 1.12 0 2.53 0.52 2.81 1.04 0.33 0.62 0.22 1.74-0.23 2.31-0.69 0.88-2.3 1.19-3.37 0.64zm-164.33-0.82c-1.677-0.75-2.22-2.65-1.041-3.64 1.14-0.96 3.201-0.88 4.246 0.17 0.723 0.72 0.687 2.13-0.074 2.97-0.707 0.77-2.045 0.99-3.131 0.5zm164.87-5.42c-0.78-0.19-1.84-1.13-2-1.77-0.16-0.61 0.4-1.85 0.97-2.16 1-0.53 2.94-0.14 3.66 0.73 0.15 0.18 0.27 0.7 0.27 1.16 0 1.46-1.35 2.41-2.9 2.04zm11.38-0.27c-0.17-0.25-0.4-1.43-0.53-2.61-0.13-1.19-0.32-2.61-0.43-3.16-0.51-2.72 0.05-3.59 1.23-1.87 0.56 0.82 1.11 1.03 2.62 0.99 1.04-0.02 1.69-0.12 5.95-0.91 1.15-0.22 2.39-0.39 2.77-0.39 0.58 0 2.41-0.31 4.23-0.73 0.53-0.12 0.63-0.8 0.14-0.99-0.17-0.07-0.93-0.22-1.67-0.34-0.75-0.12-1.9-0.4-2.55-0.62-0.66-0.22-1.77-0.49-2.48-0.6-3.03-0.48-4.14-0.74-4.21-0.97-0.05-0.14 1.45-1.27 3.37-2.53 1.9-1.26 3.56-2.44 3.71-2.62 0.41-0.53 0.31-0.93-0.21-0.81-0.25 0.06-1.75 0.4-3.34 0.75-1.58 0.36-3.33 0.75-3.9 0.87-3.43 0.74-4.71 1.38-5.23 2.63-0.51 1.24-1.36 0.62-1.68-1.23-0.08-0.5-0.27-1.48-0.4-2.17-0.38-1.94 0.04-2.53 0.85-1.21 1.11 1.8 2.19 1.76 10.78-0.3 1.8-0.44 4.39-1.04 5.74-1.33 3.13-0.69 4.2-1.03 5.39-1.73 0.78-0.46 1-0.73 1.28-1.56 0.19-0.56 0.43-1.04 0.55-1.08 0.41-0.14 0.87 0.69 1.29 2.34 0.64 2.51 0.56 2.92-0.71 3.63-0.34 0.19-0.85 0.51-1.15 0.7-0.29 0.19-1.47 0.91-2.62 1.59-5.53 3.26-6.67 4.23-5.61 4.8 0.78 0.41 4.86 1.28 7.89 1.67 3.86 0.51 4.05 0.56 4.27 1.13 0.1 0.25 0.28 1.42 0.41 2.58 0.13 1.17 0.27 2.18 0.32 2.26 0.18 0.3-0.33 1.21-0.68 1.2-0.2 0-0.72-0.36-1.15-0.8-0.46-0.47-1.06-0.85-1.46-0.92-0.58-0.11-4.33 0.13-5.86 0.38-0.81 0.13-4.02 0.52-6.16 0.75-6.23 0.66-7.54 0.95-8.76 1.95-0.48 0.39-0.92 0.88-0.99 1.09-0.19 0.6-0.68 0.68-1.01 0.17zm-176.2-1.18c-1.115-0.68-1.364-2.18-0.564-3.41 0.281-0.42 0.481-0.49 1.557-0.49 1.706 0 2.767 0.56 3.055 1.59 0.327 1.18 0.264 1.67-0.287 2.22-0.428 0.43-0.697 0.5-1.796 0.5-0.929 0-1.481-0.11-1.965-0.41zm-10.142-0.56c-0.168-0.2-0.428-0.67-0.577-1.05-0.545-1.37-2.1-1.94-7.084-2.59-1.355-0.18-3.433-0.46-4.619-0.63-1.878-0.26-3.951-0.46-8.666-0.83-1.577-0.13-2.54 0.28-2.942 1.24-0.356 0.85-0.827 0.94-1.158 0.21-0.239-0.52-0.145-1.42 0.757-7.27 0.382-2.48 0.878-2.91 1.517-1.33 0.685 1.69 1.44 2.21 3.536 2.45 0.609 0.07 1.507 0.21 1.998 0.32 1.134 0.25 13.037 2.07 15.397 2.35 1.374 0.16 2.147-0.14 2.714-1.06 0.477-0.77 0.64-0.83 1.006-0.39 0.192 0.23 0.198 0.63 0.028 1.7-0.123 0.76-0.326 2.59-0.451 4.06-0.125 1.46-0.322 2.78-0.438 2.92-0.292 0.36-0.658 0.32-1.018-0.1zm173.56-4.71c-0.25-0.05-0.74-0.43-1.08-0.84-0.7-0.85-0.82-1.92-0.32-2.64 0.71-1.01 3.48-1.01 4.35 0.01 0.57 0.66 0.85 2.25 0.47 2.7-0.64 0.78-1.91 1.06-3.42 0.77zm-161.88-0.82c-1.147-0.35-1.784-1.18-1.78-2.32 0.003-1.1 0.401-1.68 1.366-2 1.696-0.56 3.63 0.46 3.868 2.06 0.167 1.11-0.141 1.89-0.908 2.29-0.735 0.38-1.234 0.37-2.546-0.03zm129.66-1.28c-0.35-0.22-0.71-0.61-0.79-0.88-0.3-0.98-1.41-3.77-1.61-4.03-0.18-0.23-0.63-1.23-1.42-3.16-0.15-0.36-0.16-0.63-0.04-0.75 0.11-0.1 1.36-0.64 2.77-1.21s3.63-1.53 4.92-2.15c7.45-3.54 6.97-3.41 7.51-2 0.99 2.58 1.98 5.01 2.51 6.16 0.78 1.69 0.98 2.59 0.65 2.98-0.51 0.61-0.98 0.35-1.37-0.76-0.2-0.58-0.64-1.76-0.98-2.61l-0.62-1.56-1.08 0.04c-1.57 0.07-3.13 0.94-3.13 1.76 0 0.22 0.24 1.05 0.52 1.84 0.56 1.55 0.46 2.08-0.39 1.96-0.45-0.06-0.65-0.38-1.45-2.27-0.61-1.44-0.9-1.49-3.17-0.49-0.86 0.38-1.95 0.85-2.43 1.06-0.64 0.26-0.88 0.49-0.88 0.8 0 0.24 0.42 1.48 0.93 2.77 0.7 1.79 0.87 2.4 0.69 2.62-0.3 0.35-0.36 0.35-1.14-0.12zm-99.216-1.19c-0.734-0.17-2.351-0.62-3.593-1-1.242-0.37-2.997-0.91-3.9-1.18-0.903-0.28-1.966-0.57-2.361-0.65-1.567-0.32-1.747-1.01-0.86-3.28 0.685-1.76 0.972-1.85 3.026-0.92 3.2 1.45 7.86 3.34 8.924 3.62 1.88 0.51 2.37 0.54 3.04 0.19 0.76-0.39 1.06-0.89 1.06-1.74 0-0.95-0.36-1.54-1.41-2.34-0.97-0.74-6.091-3.43-6.529-3.43-0.134 0-1.097-0.42-2.141-0.93-1.044-0.5-2.015-0.92-2.158-0.92-0.363 0-0.891-0.81-0.757-1.16 0.305-0.79 0.763-0.67 4.789 1.34 6.496 3.23 8.196 4.4 9.206 6.32 0.44 0.84 0.28 2.7-0.33 3.91-0.73 1.45-1.21 1.87-2.54 2.22-1.32 0.36-1.73 0.35-3.466-0.05zm-28.72-4.22c-1.146-0.58-1.66-1.4-1.661-2.66-0.001-0.87 0.064-1 0.605-1.28 0.757-0.39 1.866-0.4 2.768-0.03 0.862 0.36 1.758 1.81 1.758 2.85 0 1.48-1.682 2.03-3.47 1.12zm158.33-0.03c-1.43-0.63-1.77-2.27-0.68-3.31 0.56-0.54 0.75-0.6 1.88-0.57 1.5 0.03 2.09 0.32 2.51 1.19 0.93 1.97-1.42 3.68-3.71 2.69zm-169.7-0.87c-0.076-0.08-0.137-0.31-0.137-0.52s-0.3-0.7-0.667-1.1c-0.671-0.72-0.965-0.83-7.75-3.06-1.036-0.34-4.458-1.3-7.37-2.08-1.062-0.28-2.016-0.56-2.12-0.63-0.104-0.06-0.76-0.2-1.457-0.3s-1.564-0.24-1.928-0.31c-0.964-0.18-1.233 0.49-0.937 2.34 0.371 2.32 0.818 3.29 1.728 3.76 0.518 0.26 0.794 0.54 0.794 0.81 0 0.75-0.92 0.52-4.677-1.14-0.37-0.17-0.731-0.45-0.802-0.64-0.129-0.34 0.145-1.57 0.947-4.28 0.234-0.79 0.882-3.06 1.44-5.03 1.748-6.2 1.911-6.64 2.538-6.94 0.468-0.23 0.835-0.22 2.236 0.04 0.922 0.18 1.766 0.41 1.877 0.52 0.289 0.29-0.179 0.78-1.288 1.35-1.319 0.67-3.096 2.54-3.151 3.3-0.042 0.57 0.028 0.62 1.393 1.08 3.853 1.31 6.826 2.2 9.443 2.84 1.581 0.39 3.382 0.84 4.003 1.01s1.452 0.38 1.847 0.47c0.396 0.09 1.042 0.3 1.437 0.47 0.396 0.16 1.265 0.42 1.933 0.58 1.193 0.28 1.233 0.28 2.233-0.28 1.68-0.94 1.696-0.81 0.463 3.87-0.885 3.36-1.132 4-1.532 4-0.198 0-0.421-0.06-0.496-0.13zm13.505-5.38c-1.357-0.62-2.036-2.09-1.528-3.32 0.333-0.8 0.76-1.02 2.009-1.02 1.615 0 2.71 1.15 2.71 2.84 0 1.72-1.327 2.34-3.191 1.5zm153.87-0.79c-0.88-0.32-1.42-1.42-1.13-2.31 0.19-0.62 1.74-1.44 2.71-1.44 0.64 0 0.99 0.14 1.47 0.59 0.91 0.85 0.88 1.7-0.09 2.62-0.63 0.59-0.87 0.68-1.69 0.67-0.53-0.01-1.1-0.07-1.27-0.13zm-118.59-3.5c-0.89-0.76-2.3-1.95-3.15-2.65-0.84-0.7-2.21-1.83-3.05-2.51-0.83-0.69-1.58-1.25-1.67-1.25-0.402 0-2.253-1.69-2.253-2.05 0-0.41 1.557-2.06 1.94-2.06 0.118 0.01 1.463 0.38 2.983 0.83 2.85 0.84 4.09 1.01 4.13 0.56 0.06-0.65-0.08-1.37-0.43-2.31-0.22-0.57-0.68-1.78-1.04-2.7-0.38-0.99-0.59-1.85-0.51-2.09 0.15-0.47 2.04-2.29 2.38-2.29 0.27 0 1.16 0.91 2.29 2.36 0.94 1.2 4.39 4.93 6.35 6.86 1.62 1.6 1.87 2 1.57 2.57-0.29 0.57-2.05 2.37-2.31 2.37-0.12-0.01-1.14-0.91-2.26-2.01-2.18-2.12-3.77-3.37-4.04-3.2-0.28 0.17-0.2 0.88 0.34 3.05 0.28 1.13 0.51 2.14 0.51 2.24s-0.48 0.12-1.07 0.04c-3.04-0.38-3.24-0.38-3.24-0.08 0 0.38 1.09 1.4 3.44 3.23 1.04 0.82 1.9 1.56 1.9 1.66 0 0.27-0.62 0.82-0.92 0.82-0.15 0-1-0.63-1.89-1.39zm82.62 0.93c-0.53-0.43-1.6-2.04-1.6-2.42 0-0.2 0.43-0.71 0.95-1.13 2.11-1.74 3.99-3.71 3.86-4.06-0.18-0.48-0.61-0.44-2.99 0.27-1.14 0.34-2.25 0.61-2.46 0.61-0.49 0-0.49-0.47 0-1.88 1.14-3.25 1.14-3.85 0-3.23-0.23 0.12-1.33 1.14-2.44 2.27-1.64 1.67-2.11 2.03-2.45 1.92-0.74-0.23-0.46-0.85 0.96-2.14 0.77-0.68 1.99-1.93 2.72-2.77 0.74-0.83 2.33-2.63 3.54-4 1.22-1.37 2.21-2.57 2.21-2.68s0.18-0.3 0.41-0.42c0.33-0.18 0.54-0.09 1.2 0.51 1.25 1.13 1.39 1.67 0.85 3.22-0.26 0.72-0.68 1.74-0.95 2.27-0.26 0.53-0.48 1.14-0.48 1.35s-0.14 0.67-0.31 1.01-0.26 0.77-0.19 0.96c0.25 0.64 1.05 0.58 3.92-0.3 4.04-1.24 4.15-1.25 5.07-0.17 0.41 0.48 0.75 0.95 0.75 1.05 0 0.25-0.75 0.93-2.28 2.06-2.35 1.75-3.94 3.04-6.2 5.03-2.23 1.98-3.4 2.92-3.64 2.92-0.07 0-0.27-0.11-0.45-0.25zm-115.52-2.68c-1.008-0.35-1.715-1.45-1.582-2.47 0.16-1.22 0.662-1.64 1.789-1.51 1.298 0.15 1.986 0.51 2.459 1.28 0.859 1.38 0.213 2.97-1.2 2.95-0.415 0-1.075-0.12-1.466-0.25zm148.84-1.05c-0.6-0.33-1.03-1.07-1.04-1.8-0.02-1.56 2.98-2.69 4.07-1.53 1.74 1.84-0.76 4.59-3.03 3.33zm25.21-0.99c-0.8-0.85-2.45-5.23-2.45-6.55 0-0.89 0.29-1.13 1.13-0.91 0.37 0.09 0.7 0.49 1.17 1.4 1.48 2.87 2.03 4.79 1.73 5.99-0.17 0.68-0.96 0.71-1.58 0.07zm-170.86-3.77c-2.13-0.78-2.799-2.83-1.325-4.07 0.702-0.6 0.802-0.61 1.866-0.32 0.475 0.14 1.033 0.53 1.488 1.07 0.608 0.71 0.729 1 0.729 1.8 0 1.64-0.97 2.18-2.758 1.52zm-13.434-0.35c-0.127-0.12-0.231-0.65-0.231-1.17s-0.115-1.09-0.256-1.27-1.319-0.8-2.618-1.38c-1.298-0.58-2.793-1.29-3.321-1.57-0.529-0.28-1.591-0.75-2.361-1.05-1.559-0.6-2.951-0.64-9.139-0.28-3.313 0.2-4.186 0.46-4.904 1.47-0.572 0.8-1.153 1.1-1.534 0.78-0.162-0.13-0.295-0.41-0.295-0.62s0.739-1.84 1.642-3.61c0.904-1.78 1.643-3.33 1.643-3.46 0-0.132 0.19-0.41 0.422-0.62 0.326-0.295 0.502-0.332 0.77-0.161 0.268 0.172 0.331 0.458 0.278 1.261-0.056 0.85 0.013 1.11 0.384 1.48 0.421 0.43 0.567 0.45 2.122 0.3 0.918-0.08 3.185-0.21 5.039-0.28 2.245-0.08 3.397-0.2 3.449-0.36 0.074-0.22-2.417-2.994-5.558-6.18-1.687-1.711-2.175-1.848-3.109-0.873-0.641 0.669-1.539 0.835-1.539 0.285 0-0.269 2.728-5.921 3.005-6.225 0.274-0.301 0.526 0.573 0.565 1.965 0.025 0.887 0.137 1.776 0.248 1.974s2.229 2.439 4.707 4.981c3.955 4.053 4.639 4.673 5.592 5.033 0.598 0.22 1.291 0.53 1.542 0.69 1.07 0.68 4.502 1.98 4.895 1.86 0.226-0.07 0.716-0.4 1.089-0.73 0.786-0.69 1.604-0.86 1.708-0.37 0.039 0.18-0.541 1.66-1.287 3.29-0.747 1.62-1.558 3.39-1.804 3.92-0.479 1.05-0.779 1.29-1.144 0.92zm155.78-0.5c-0.64-0.33-0.72-0.46-0.78-1.31-0.05-0.85 0.01-1.01 0.58-1.48 0.75-0.64 2.03-1.02 2.76-0.84 0.76 0.19 1.6 1.25 1.43 1.8-0.35 1.12-0.52 1.34-1.37 1.75-1.09 0.53-1.67 0.55-2.62 0.08zm-98.65-2.88c-0.21-0.31-0.52-0.82-0.7-1.14-0.66-1.23-3.24-5.16-4.41-6.73-1.93-2.587-2.98-4.097-2.98-4.275 0-0.336 4.73-3.684 6.65-4.708 1.4-0.75 1.97-0.803 2.48-0.234 0.36 0.396 0.36 0.425 0 0.821-0.2 0.226-0.46 0.41-0.58 0.41-0.11 0-0.97 0.369-1.9 0.82-1.08 0.525-1.74 0.973-1.83 1.243-0.17 0.538 1.44 3.42 2.01 3.602 0.26 0.08 0.95-0.144 1.87-0.603 1.84-0.917 2.26-0.993 2.34-0.416 0.07 0.471-0.36 0.878-2.11 2.002-1.33 0.858-1.32 1.278 0.11 3.718 1.92 3.3 2.11 3.36 4.83 1.55 1.97-1.32 2.45-1.47 2.65-0.83 0.24 0.75-0.1 1.22-1.29 1.8-0.64 0.31-2.3 1.23-3.68 2.05-1.39 0.82-2.65 1.49-2.8 1.49-0.16 0-0.46-0.26-0.66-0.57zm-40.394-1.49c-1.105-0.33-1.979-1.49-1.979-2.62 0-0.95 0.811-1.98 1.617-2.06 1.798-0.17 3.848 2.77 2.841 4.09-0.569 0.74-1.356 0.92-2.479 0.59zm92.014-0.41c-1.35-0.7-2.58-2.03-2.77-3.01-0.25-1.38 0.46-3.47 2.87-8.371 1.27-2.602 2.46-4.846 2.63-4.987 0.32-0.262 0.63-0.138 3.09 1.237 0.99 0.552 1.01 1.139 0.08 2.512-1.95 2.874-4.55 7.749-4.96 9.309-0.25 0.96-0.25 1.17 0.03 1.71 0.18 0.34 0.63 0.74 1.04 0.91 0.66 0.28 0.79 0.27 1.62-0.13 1.36-0.66 2.82-2.45 5.73-7.002 0.11-0.183 0.56-0.829 0.98-1.434 0.42-0.606 0.77-1.212 0.77-1.346 0-0.135 0.24-0.434 0.54-0.666 0.41-0.323 0.62-0.372 0.92-0.213 0.54 0.29 0.48 0.833-0.18 1.692-0.31 0.404-1.12 1.525-1.79 2.492-3.73 5.317-5.36 7.167-6.77 7.707-1.04 0.4-2.59 0.23-3.83-0.41zm43.35-0.73c-0.52-0.45-0.63-0.68-0.63-1.43 0-0.77 0.1-0.97 0.77-1.52 1.02-0.84 2.13-1.15 2.88-0.79 1.39 0.67 1.29 2.58-0.2 3.66-1.07 0.77-1.96 0.8-2.82 0.08zm14.84-0.25c-0.14-0.08-0.3-0.38-0.37-0.66-0.1-0.39 0.09-0.82 0.79-1.85 0.5-0.73 1.17-1.75 1.48-2.25 0.3-0.51 0.86-1.396 1.23-1.968s0.91-1.542 1.2-2.155c0.29-0.614 1.17-2.178 1.96-3.477 1.73-2.867 2.06-3.529 2.06-4.201 0-0.841-0.22-0.764-3.29 1.186-1.07 0.681-2.23 1.492-2.56 1.802-0.34 0.31-1.43 1.056-2.41 1.659-0.99 0.602-2.21 1.499-2.72 1.993-0.78 0.75-0.93 1.024-0.93 1.668 0 0.906-0.41 1.356-0.96 1.059-0.48-0.257-2.26-2.849-2.41-3.524-0.22-0.908 0.13-1.155 1.21-0.866 0.51 0.138 1.11 0.251 1.32 0.251 0.4 0 3.88-2.012 4.64-2.68 0.22-0.199 0.84-0.624 1.37-0.945 4.21-2.544 10.56-7.542 11.48-9.045 0.27-0.421 0.37-0.825 0.28-1.096-0.37-1.181 0.57-1.919 1.23-0.963 1.06 1.53 2.12 3.261 2.21 3.607 0.07 0.256-0.29 1.063-0.98 2.221-0.6 1-1.67 2.835-2.38 4.077-0.71 1.241-1.57 2.673-1.92 3.181-0.36 0.508-0.85 1.36-1.11 1.893-0.25 0.534-0.7 1.312-0.98 1.731-0.72 1.055-1.54 2.971-1.42 3.294 0.06 0.148 0.25 0.268 0.42 0.268 0.36 0 6.42-3.193 8.22-4.326 2.91-1.839 3.46-2.393 3.52-3.518 0.01-0.315 0.03-0.761 0.05-0.99 0.01-0.23 0.16-0.472 0.34-0.538 0.42-0.164 1.05 0.436 1.62 1.563 0.26 0.512 0.68 1.321 0.93 1.798s0.5 1.239 0.56 1.694c0.1 0.739 0.07 0.826-0.32 0.826-0.23 0-0.73-0.184-1.1-0.409-1.18-0.72-1.7-0.57-6.47 1.876-2.46 1.258-5.11 2.604-5.9 2.994-0.79 0.4-1.69 0.89-1.99 1.1-0.3 0.22-0.68 0.39-0.85 0.39s-0.95 0.43-1.72 0.95c-1.52 1.02-4.41 2.54-4.83 2.54-0.15 0-0.37-0.07-0.5-0.16zm-70.48-3.45c-0.85-0.15-2-0.37-2.57-0.48-0.56-0.12-1.47-0.26-2.02-0.33l-1-0.13 0.14-0.95c0.07-0.53 0.31-1.888 0.52-3.017 0.61-3.272 1.32-8.668 1.49-11.393l0.05-0.718 1.65 0.019c0.9 0.011 1.86 0.134 2.12 0.274 0.41 0.22 0.46 0.373 0.38 1.11-0.13 1.166-0.68 4.163-1.04 5.727-0.74 3.232-1.19 7.788-0.79 8.038 0.12 0.07 1.08 0.28 2.13 0.46 2.26 0.38 2.68 0.64 2.04 1.29-0.5 0.49-0.93 0.51-3.1 0.1zm-25.04-0.33c-0.25-0.59-1.1-3.691-1.54-5.603-0.18-0.791-0.59-2.269-0.91-3.285s-0.84-2.712-1.15-3.768c-0.65-2.187-0.67-2.125 1.09-2.522l1.08-0.244 3.05 3.113c1.67 1.712 3.19 3.113 3.38 3.113 0.56 0 0.59-0.483 0.2-3.022-0.2-1.33-0.37-2.879-0.37-3.444-0.01-0.963 0.02-1.03 0.54-1.09 0.48-0.056 0.58 0.033 0.77 0.718 0.12 0.431 0.31 1.753 0.43 2.938 0.12 1.186 0.35 2.941 0.51 3.9 0.16 0.96 0.39 2.438 0.52 3.285s0.32 2.041 0.42 2.655c0.1 0.613 0.19 1.426 0.19 1.796 0 0.57-0.08 0.68-0.47 0.68-0.34 0-0.76-0.38-1.49-1.36-0.56-0.742-1.25-1.533-1.53-1.754-0.29-0.221-1.35-1.212-2.37-2.204-2.1-2.054-2.71-2.467-2.89-1.976-0.19 0.493 0.07 1.619 1.07 4.578 1.05 3.086 1.09 3.816 0.24 3.906-0.43 0.05-0.62-0.04-0.77-0.41zm-51.223-0.14c-0.452-0.21-0.983-0.66-1.181-1-0.448-0.78-0.466-2.364-0.034-3.023 0.873-1.333 2.957-0.977 4.011 0.685 0.702 1.108 0.739 1.688 0.162 2.628-0.73 1.18-1.524 1.37-2.958 0.71zm128.61-1.08c-1.31-0.51-1.58-1.454-0.77-2.659 0.82-1.221 2.32-1.677 3.37-1.023 0.86 0.532 1.09 1.562 0.55 2.463-0.56 0.959-2.2 1.589-3.15 1.219zm-123.89-3.685c-0.735-0.219-1.724-1.538-1.882-2.511-0.133-0.824 0.544-2.301 1.143-2.491 1.727-0.549 3.999 2.273 3.304 4.102-0.284 0.747-1.568 1.198-2.565 0.9zm119.23-1.101c-0.36-0.157-0.81-0.584-1-0.949-0.46-0.892-0.14-1.977 0.84-2.837 1.48-1.301 3.58-0.619 3.58 1.162 0 1.014-0.89 2.427-1.71 2.714-0.77 0.265-0.91 0.258-1.71-0.09zm-114.96-3.578c-0.358-0.224-0.901-0.833-1.206-1.354-0.45-0.767-0.533-1.111-0.44-1.809 0.138-1.026 0.898-1.786 1.786-1.786 1.242 0 2.661 1.984 2.665 3.724 0.003 1.301-1.58 1.992-2.805 1.225zm127.43-1.218c-1.4-1.467-3.3-3.911-3.3-4.251 0-0.583 0.57-0.764 1.62-0.512 1.29 0.309 1.55 0.177 4.47-2.24 1.22-1.013 2.72-2.238 3.32-2.723s1.61-1.382 2.25-1.994c0.65-0.611 1.59-1.443 2.1-1.847 2.54-2.022 4.74-4.059 5.03-4.67 0.26-0.56 0.28-0.822 0.08-1.474-0.3-0.997 0-1.674 0.74-1.674 0.69 0 3.1 2.305 4.52 4.325 1.19 1.688 1.31 2.04 0.81 2.455-0.26 0.211-0.47 0.211-1.12-0.002-0.43-0.144-1.01-0.207-1.28-0.139-0.53 0.132-3.24 1.845-3.44 2.176-0.07 0.109-0.51 0.457-0.98 0.772-0.47 0.316-1.53 1.151-2.35 1.856-0.83 0.705-1.99 1.638-2.59 2.075-0.96 0.703-2.91 2.388-6.24 5.386-0.96 0.862-1.06 1.042-1.21 2.135-0.26 1.94-0.83 2.021-2.43 0.346zm-18.1-0.47c-0.61-0.603-0.46-2.105 0.29-3.096 0.68-0.884 1.95-1.369 2.7-1.028 1.16 0.53 1.59 2.325 0.8 3.399-0.84 1.156-2.96 1.56-3.79 0.725zm-105.06-2.698c-1.792-1.377-1.577-4.118 0.36-4.604 1.218-0.305 2.897 1.401 2.897 2.943 0 1.136-0.15 1.47-0.79 1.795-1.163 0.584-1.562 0.562-2.467-0.134zm100.77-0.708c-1.29-0.471-1.58-1.877-0.75-3.653 0.58-1.24 1.23-1.64 2.4-1.482 1.3 0.174 1.84 0.8 1.84 2.134 0 0.984-0.08 1.172-0.77 1.891-1.12 1.16-1.81 1.442-2.72 1.11zm-95.71-2.62c-0.8-0.754-1.25-1.721-1.25-2.676 0-1.031 0.33-1.655 1.07-2.041 1.72-0.888 3.7 1.37 3.11 3.549-0.26 0.97-0.77 1.454-1.67 1.594-0.56 0.085-0.81-0.002-1.26-0.426zm-24.995-0.345c-0.395-0.11-1.054-0.287-1.464-0.394-0.892-0.232-3.589-2.024-5.721-3.801-3.795-3.163-6.005-6.201-7.286-10.017-0.657-1.96-0.668-3.527-0.034-5.069 0.997-2.422 2.55-3.558 5.204-3.804 1.21-0.113 1.617-0.056 2.842 0.394 1.634 0.6 3.607 1.601 4.509 2.288 1.38 1.051 4.495 4.152 5.25 5.225 0.444 0.631 1.275 1.746 1.847 2.478 2.056 2.633 3.296 6.005 2.972 8.08-0.29 1.852-1.474 3.382-3.295 4.261-1.018 0.492-1.48 0.592-2.668 0.576-0.791-0.01-1.761-0.108-2.156-0.217zm5.764-2.827c0.72-0.72 0.76-1.357 0.163-2.539-1.059-2.093-2.711-3.902-8.288-9.072-5.52-5.119-7.888-6.433-9.414-5.226-0.522 0.413-0.577 0.563-0.488 1.346 0.104 0.929 0.874 2.569 1.77 3.774 0.832 1.118 6.096 6.287 7.334 7.202 0.612 0.451 1.558 1.21 2.104 1.685 2.342 2.039 4.613 3.391 5.741 3.418 0.266 0.007 0.744-0.254 1.078-0.588zm109.26 1.419c-1.21-0.484-1.38-2.013-0.39-3.497 0.85-1.287 2.32-1.482 3.45-0.458 0.91 0.822 0.06 2.962-1.48 3.751-0.9 0.456-0.94 0.462-1.58 0.204zm20.67-1.123c-1.69-0.487-3.21-1.502-4.61-3.066-0.79-0.879-1.35-1.687-1.35-1.95 0-0.515 0.48-1.509 0.99-2.055 0.19-0.205 0.67-0.775 1.06-1.267 1.43-1.772 2.53-2.854 2.91-2.854 0.32 0 0.36 0.101 0.25 0.565-0.07 0.31-0.25 0.795-0.39 1.077-0.54 1.087-1.12 3.376-1.12 4.431 0 2.007 0.87 3.277 2.73 3.974 1.79 0.673 4.1-0.354 5.07-2.257 0.84-1.635 0.78-2.716-0.39-6.969-0.29-1.051-0.43-2.164-0.43-3.51 0-1.868 0.03-2.044 0.74-3.387 1.82-3.476 5.07-5.315 8.12-4.594 1.7 0.402 3.13 1.112 4 1.977 0.91 0.918 2.02 3.326 1.85 4.022-0.18 0.709-2.77 3.439-3.26 3.439-0.38 0-0.41-0.09-0.3-0.975 0.06-0.536 0.22-1.437 0.34-2.001 0.13-0.565 0.17-1.442 0.11-1.95-0.29-2.152-1.39-3.079-3.65-3.079-1.23 0-1.34 0.04-2.05 0.769-0.41 0.424-0.95 1.221-1.19 1.771-0.57 1.278-0.45 2.617 0.56 6.252 0.61 2.209 0.7 2.839 0.63 4.184-0.17 3.139-2.02 5.546-5.38 7.006-1.92 0.831-3.46 0.963-5.24 0.447zm-105.35-0.501c-0.3-0.237-0.7-0.842-0.9-1.344-0.45-1.181-0.26-2.23 0.55-3.038 0.5-0.506 0.72-0.587 1.25-0.48 1.26 0.251 2.01 1.368 2.01 2.977 0 0.768-0.12 1.158-0.46 1.556-0.65 0.743-1.74 0.889-2.45 0.329zm77.99-1.858c-0.5-0.394-0.56-0.583-0.56-1.632 0-1.555 0.79-2.757 2.04-3.094 1-0.269 1.5-0.058 2.07 0.884 0.47 0.767 0.51 1.738 0.12 2.662-0.41 0.971-0.97 1.378-2.1 1.509-0.83 0.098-1.1 0.041-1.57-0.329zm-71.7-1.056c-1.31-0.641-1.88-3.157-0.93-4.164 1.03-1.105 2.84-0.788 3.42 0.602 0.61 1.471 0.22 2.88-0.96 3.494-0.66 0.339-0.94 0.352-1.53 0.068zm-25.476-1.721c-0.065-0.17 0.026-0.67 0.203-1.111 0.602-1.503-0.214-3.056-4.325-8.231-0.703-0.885-1.904-2.529-2.669-3.655-1.761-2.589-4.156-5.738-4.862-6.392-0.511-0.473-0.599-0.488-1.472-0.255-0.942 0.252-1.729 0.075-1.729-0.389 0-0.359 1.458-1.587 3.695-3.111 6.528-4.448 7.149-4.835 7.991-4.977 1.063-0.18 1.322 0.026 2.469 1.955 0.858 1.446 1.074 2.456 0.524 2.456-0.168 0-0.724-0.32-1.236-0.71-0.997-0.761-2.025-1.06-2.895-0.842-1.095 0.275-3.212 1.447-3.414 1.89-0.114 0.249-0.152 0.671-0.085 0.939 0.209 0.83 3.853 5.905 4.633 6.452 0.365 0.255 0.497 0.252 1.022-0.019 0.864-0.447 1.46-1.294 1.46-2.076 0-0.867 0.18-1.323 0.522-1.323 0.252 0 1.736 1.633 1.736 1.911 0 0.068 0.278 0.594 0.616 1.168 0.339 0.575 0.616 1.182 0.616 1.35 0 0.472-0.565 0.578-1.123 0.212-0.726-0.475-2.188-0.427-2.852 0.095-0.745 0.586-0.68 1.193 0.253 2.371 0.436 0.551 0.993 1.371 1.237 1.823 0.244 0.451 0.816 1.329 1.271 1.95 0.456 0.621 1.114 1.556 1.463 2.078s0.889 1.099 1.2 1.283c0.642 0.38 1.673 0.435 2.26 0.121 0.48-0.257 1.218 0.069 1.218 0.537 0 0.171-0.282 0.468-0.627 0.66-0.345 0.193-1.642 1.066-2.882 1.94-3.19 2.249-3.952 2.592-4.218 1.9zm91.166-0.196c-0.39-0.388-0.51-0.72-0.51-1.444 0-1.974 1-3.119 2.55-2.912 1.62 0.218 2.17 1.581 1.36 3.379-0.65 1.428-2.44 1.941-3.4 0.977zm-60.55-0.937c-0.5-0.518-0.61-0.828-0.68-1.899-0.07-1.074-0.01-1.369 0.36-1.839 0.55-0.694 1.82-1.08 2.52-0.763 0.94 0.429 1.5 1.951 1.16 3.174-0.53 1.91-2.18 2.562-3.36 1.327zm55.33-0.893c-1.57-0.51-1.64-2.829-0.13-4.336 0.63-0.631 1.9-0.704 2.58-0.148 0.67 0.541 0.79 1.992 0.25 3.049-0.7 1.361-1.54 1.812-2.7 1.435zm-48.45-0.795c-0.86-0.442-1.28-1.505-1.15-2.927 0.1-1.034 0.21-1.322 0.74-1.796 1.48-1.349 3.69 0.02 3.69 2.289 0 1.508-0.66 2.329-2.07 2.575-0.41 0.071-0.91 0.012-1.21-0.141zm76.19-0.515c-0.2-0.373-0.01-3.165 0.4-6.004 0.13-0.847 0.26-2.325 0.31-3.285s0.23-3.205 0.41-4.99c0.36-3.62 0.3-4.309-0.38-4.209-0.47 0.069-1.22 1.193-2.92 4.375-0.54 1.016-1.16 2.094-1.37 2.396-0.21 0.301-0.86 1.456-1.43 2.566-1.1 2.129-1.15 2.521-0.57 3.933 0.25 0.619 0.24 0.71-0.1 0.962-0.28 0.206-0.52 0.224-0.92 0.072-0.78-0.293-3.68-2.028-3.96-2.362-0.35-0.429 0.16-0.895 0.98-0.895 1.23 0 2-0.477 2.71-1.669 0.36-0.607 1.16-1.888 1.77-2.847 0.62-0.96 1.37-2.207 1.67-2.772 0.3-0.564 1.07-1.95 1.72-3.079 3.14-5.488 3.98-7.846 3.21-9.018-0.45-0.689-0.42-1.49 0.06-1.747 0.49-0.263 1.77 0.155 3.67 1.197l1.38 0.752-0.03 1.432c-0.03 1.582-0.24 3.953-0.39 4.364-0.45 1.301-1.51 12.199-1.25 12.887 0.22 0.562 0.75 0.027 2.84-2.833 4.58-6.283 5.64-8.2 5.23-9.522-0.15-0.498-0.14-0.839 0.03-1.226 0.21-0.45 0.34-0.514 0.8-0.397 0.63 0.158 2.79 1.649 3.51 2.428 0.6 0.641 0.52 1.251-0.17 1.335-1.94 0.236-2.97 0.98-4.75 3.427-0.5 0.678-1.59 2.11-2.44 3.182-0.85 1.073-1.93 2.52-2.41 3.217-1.41 2.043-3.44 4.798-4.5 6.115-0.54 0.672-1.2 1.527-1.46 1.898-0.52 0.757-1.34 0.913-1.65 0.317zm-34.34-0.725c-0.56-0.38-0.71-0.623-0.76-1.283-0.16-1.879 0.77-3.175 2.27-3.175 0.65 0 0.95 0.139 1.52 0.705 0.58 0.584 0.68 0.805 0.57 1.283-0.26 1.1-1.13 2.349-1.84 2.649-0.9 0.376-0.94 0.372-1.76-0.179zm-35.49-0.201c-0.69-0.356-1.09-1.242-1.19-2.635-0.08-1.099-0.05-1.18 0.66-1.876 1.22-1.18 2.25-1.166 3.27 0.047 0.94 1.116 0.73 3.463-0.37 4.185-0.7 0.456-1.78 0.584-2.37 0.279zm29.48-1.156c-0.57-0.624-0.69-1.442-0.37-2.423 0.59-1.796 2.57-2.567 3.51-1.369 0.77 0.978 0.42 2.854-0.7 3.735-0.72 0.568-1.95 0.597-2.44 0.057zm-23.14-0.135c-0.65-0.351-0.99-1.09-1-2.207 0-1.248 0.41-2.054 1.27-2.46 1.22-0.573 2.13-0.127 2.6 1.27 0.36 1.066 0.28 1.942-0.24 2.71-0.37 0.553-0.64 0.721-1.32 0.813-0.49 0.065-1.05 0.012-1.31-0.126zm17.06-0.45c-0.38-0.486-0.42-0.718-0.3-1.693 0.24-1.93 1.07-2.944 2.4-2.944 1.91 0 2.22 3.375 0.44 4.771-0.81 0.641-1.98 0.579-2.54-0.134zm-11.69-0.247c-0.74-0.746-0.81-2.772-0.12-3.821 0.35-0.534 1.44-0.83 2.28-0.619 0.98 0.246 1.45 2.358 0.81 3.605-0.63 1.216-2.16 1.646-2.97 0.835zm6.08-0.225c-0.67-0.528-0.88-1.578-0.55-2.761 0.3-1.052 0.67-1.442 1.58-1.634 1.92-0.409 2.85 1.699 1.65 3.738-0.68 1.153-1.72 1.409-2.68 0.657zm33.02-5.651c-2.49-1.034-3.61-2.848-3.9-6.349-0.13-1.452-0.07-1.907 0.48-3.926 1.62-5.896 3.68-9.727 6.84-12.695 1.08-1.018 2.14-1.789 3.15-2.289 1.47-0.727 1.59-0.75 3.07-0.625 0.85 0.072 1.89 0.275 2.31 0.451 1.13 0.468 2.28 1.667 2.95 3.072 0.5 1.027 0.6 1.493 0.6 2.808 0 2.143-0.36 4.575-0.86 5.814-1.48 3.654-2.4 5.399-4.27 8.108-0.19 0.282-0.5 0.79-0.68 1.129s-0.97 1.282-1.74 2.096c-1.07 1.118-1.79 1.657-2.93 2.207-1.9 0.906-3.19 0.957-5.02 0.199zm3.12-1.56c1.09-1.009 3.44-5.061 4.27-7.355 0.14-0.395 0.49-1.227 0.77-1.848 1.57-3.429 2.85-6.817 3.25-8.588 0.41-1.821 0.43-2.089 0.17-2.912-0.34-1.045-1.06-1.569-1.88-1.363-0.96 0.242-3.76 3.381-4.16 4.655-0.08 0.281-0.51 1.203-0.94 2.05-0.84 1.659-1.62 3.577-2.85 6.979-2 5.553-2.32 7.564-1.33 8.554 0.45 0.446 0.66 0.511 1.36 0.418 0.45-0.061 1.05-0.325 1.34-0.59zm-65.78-5.662c-0.92-1.778-2.14-4.064-2.71-5.08-0.58-1.017-1.56-2.853-2.18-4.082-0.62-1.23-1.3-2.477-1.51-2.772s-0.54-0.86-0.72-1.255c-1.32-2.802-2.27-4.05-3.3-4.332-1.43-0.391-1.75-0.572-1.75-0.986 0-0.437 0.8-1.159 1.51-1.361 0.87-0.249 3.34-1.164 4.78-1.771 2.4-1.008 3.12-0.513 2.01 1.378l-0.56 0.95 0.47 1.162c0.26 0.639 0.81 1.901 1.23 2.805 2.64 5.674 3.2 6.816 3.54 7.184 0.38 0.405 0.39 0.406 0.68 0.014 0.24-0.322 0.3-1.473 0.3-6.158 0-3.169 0.04-6.27 0.1-6.891 0.05-0.621 0.09-1.327 0.1-1.569 0.01-0.528 0.56-0.79 0.96-0.456 0.35 0.291 1.72 2.689 1.72 3.015 0 0.128 0.91 2.105 2.03 4.394 3.04 6.247 3.32 6.309 3.87 0.864 0.55-5.568 0.42-7.362-0.6-7.905-0.47-0.254-0.51-1.265-0.06-1.713 0.77-0.766 4.43-1.307 5.1-0.754 0.54 0.449 0.38 0.926-0.59 1.77-0.5 0.44-1.02 1.08-1.14 1.423-0.27 0.755-0.74 3.584-0.91 5.55-0.08 0.79-0.31 2.73-0.52 4.311-0.49 3.611-0.75 6.149-1.04 10.058-0.24 3.117-0.37 3.593-1.01 3.593-0.49 0-0.87-0.515-1.43-1.95-0.27-0.678-0.82-1.971-1.24-2.874s-0.93-2.058-1.14-2.566c-0.59-1.425-1.7-3.393-2.12-3.774-0.77-0.702-0.87-0.108-1.04 6.401-0.08 3.376-0.22 6.244-0.3 6.374-0.44 0.71-0.9 0.164-2.53-2.997zm48.6 2.959c-0.89-0.324-2.24-1.179-2.72-1.706-0.19-0.215-0.58-0.913-0.87-1.549-0.47-1.021-0.54-1.459-0.58-3.69-0.05-3.007 0.24-5.197 1.11-8.244 1.71-6.061 4.29-9.655 8.13-11.355 1.03-0.454 1.4-0.51 2.83-0.434 1.52 0.081 1.77 0.163 3.36 1.085 0.94 0.548 1.76 1.113 1.81 1.255 0.16 0.41-0.72 3.698-1.37 5.132-0.6 1.325-1.08 1.751-1.49 1.338-0.2-0.202-0.35-2.038-0.36-4.494 0-0.661-0.14-1.025-0.58-1.518-0.52-0.578-0.66-0.634-1.33-0.509-2.16 0.406-4.03 3.838-6.31 11.62-0.79 2.695-1.25 7.967-0.82 9.428 0.11 0.386 0.45 0.964 0.76 1.283 0.76 0.789 1.59 0.764 2.87-0.088 1.2-0.803 2.04-2.25 2.36-4.051 0.24-1.364 0.68-1.828 1.38-1.454 0.86 0.46 0.71 1.857-0.43 4.093-0.83 1.606-2.02 2.883-3.24 3.455-1.18 0.551-3.54 0.762-4.51 0.403zm-30.44-2.72c-0.32-0.323-0.13-0.925 0.47-1.46 1.27-1.13 1.46-1.673 1.43-4.11-0.04-3.177-0.12-4.732-0.49-9.792-0.52-7.025-0.77-7.945-2.48-8.83-0.84-0.432-1.06-0.828-0.76-1.307 0.29-0.444 2.43-0.815 5.61-0.969 2.88-0.139 3.02-0.128 3.44 0.289 0.58 0.584 0.55 0.725-0.31 1.507-1.32 1.204-1.31 1.072-1.19 8.169 0.05 3.533 0.14 6.489 0.19 6.568 0.05 0.08 0.09 1.29 0.1 2.688 0.02 3.024 0.32 4.161 1.34 5.089 0.39 0.355 0.71 0.73 0.71 0.832 0 0.334-0.64 0.83-1.09 0.852-0.63 0.031-4.32 0.359-5.69 0.505-0.62 0.067-1.19 0.053-1.28-0.031zm12.28-0.61c-1.02-0.279-1.93-0.591-2.03-0.693-0.2-0.197-0.2-7.21 0-7.721 0.14-0.372 0.56-0.386 0.86-0.028 0.12 0.149 0.45 1.142 0.74 2.207 0.84 3.159 2.26 4.717 4.43 4.874 1.81 0.131 2.93-0.245 3.6-1.214 0.57-0.827 1.1-2.666 1.11-3.836 0.01-1.546-1.35-3.038-3.9-4.294-2.64-1.3-4.09-2.332-4.93-3.5-1.38-1.935-1.71-3.662-1.1-5.78 0.86-2.968 2.1-4.624 4.23-5.631 0.82-0.387 1.91-0.756 2.42-0.82 0.96-0.121 3.29 0.298 4.47 0.806 0.37 0.16 0.8 0.29 0.96 0.29s0.43 0.145 0.61 0.323c0.44 0.437 0.45 4.094 0.02 5.123-0.34 0.813-0.86 0.929-1.12 0.25-0.71-1.838-1.05-2.435-1.93-3.378-1.11-1.183-1.93-1.547-3.54-1.57-2.07-0.03-3.79 1.867-3.49 3.862 0.24 1.551 1.08 2.435 3.45 3.622 1.16 0.579 2.55 1.365 3.08 1.747 0.54 0.383 1.06 0.696 1.17 0.696 0.39 0 1.67 1.753 2.08 2.848 0.49 1.306 0.6 4.657 0.21 6.115-0.27 0.997-1.36 2.676-2.56 3.935-2.04 2.147-5.19 2.775-8.84 1.767zm-62.698 220.97c1.941-0.41 8.114-3.25 8.335-3.82 0.209-0.55-0.331-1.23-1.482-1.88-2.42-1.37-6.381-1.35-10.172 0.04-2.128 0.77-5.811 1.94-6.456 2.04-0.483 0.07-0.651 0.67-0.306 1.09 0.485 0.58 3.04 2.12 4.021 2.43 1.209 0.37 4.552 0.43 6.06 0.1zm134.99-4.72c1.4-0.69 1.92-1.1 2.93-2.26 0.67-0.78 1.46-1.82 1.75-2.31 0.88-1.51 1.81-5.78 2.3-10.54l0.11-1.08h-0.72c-0.98 0-2.04 0.85-3.99 3.21-1.11 1.35-2.24 3.41-2.64 4.81-0.82 2.92-0.98 3.43-1.32 4.19-0.2 0.45-0.43 1.15-0.52 1.54-0.08 0.4-0.37 1.15-0.64 1.68-0.26 0.53-0.43 1.11-0.36 1.29 0.21 0.54 1.31 0.36 3.1-0.53zm-146.82-3.15c3.097-0.9 5.338-1.53 5.888-1.64 0.302-0.06 0.694-0.26 0.871-0.43 0.279-0.28 0.284-0.39 0.034-0.87-0.82-1.58-3.541-2.69-7.348-3.01-1.3-0.1-1.965-0.03-3.743 0.39-1.189 0.29-2.429 0.52-2.755 0.52s-0.986 0.14-1.466 0.31-1.277 0.31-1.77 0.31c-0.628 0-1.023 0.13-1.314 0.42-0.536 0.53-0.365 0.86 1.182 2.25 1.325 1.19 3.015 2.04 4.135 2.08 0.409 0.01 1.021 0.09 1.36 0.18 0.935 0.25 3.095 0.02 4.926-0.51zm158.25-4.53c1.17-0.55 2.18-1.55 3.39-3.35 2.56-3.82 2.98-5.36 3.86-14.35 0.11-1.03 0.09-1.08-0.38-1.08-0.7 0-2.99 1.56-3.67 2.5-0.92 1.27-2.37 4.27-2.72 5.61-0.17 0.68-0.46 2.07-0.64 3.08-0.18 1.02-0.47 2.68-0.65 3.7-0.18 1.01-0.47 2.23-0.64 2.71-0.53 1.43 0 1.87 1.45 1.18zm-167.41-4.53c3.801-0.63 3.718-0.6 3.718-1.28 0-0.67-1.514-2.76-2.524-3.48-0.819-0.58-2.865-1.23-4.736-1.49-1.653-0.23-9.715-0.26-11.523-0.03-1.156 0.14-1.228 0.18-1.173 0.66 0.136 1.2 0.905 2.26 2.58 3.57 0.92 0.71 1.974 1.45 2.342 1.64 2.006 1.03 6.641 1.19 11.316 0.41zm178.98-4.57c1.52-1.21 2.45-2.4 3.45-4.44 1.43-2.9 1.61-3.87 1.59-8.52 0-2.2-0.1-4.28-0.2-4.62-0.3-0.93-1.16-0.94-2.38 0-1.61 1.22-2.69 3.86-3.21 7.8-0.12 0.9-0.41 3.12-0.65 4.93-0.23 1.8-0.52 3.69-0.63 4.19s-0.15 1.03-0.09 1.18c0.19 0.5 1.1 0.28 2.12-0.52zm-187.92-6.22c0.298-0.48-0.321-1.64-1.507-2.83-0.892-0.9-3.687-2.68-4.21-2.68-0.141 0-0.597-0.14-1.014-0.32-0.804-0.33-1.897-0.59-3.911-0.91-0.677-0.11-1.693-0.3-2.258-0.41-2.536-0.51-3.996-0.71-5.235-0.71-1.23-0.01-1.339 0.03-1.4 0.45-0.09 0.64 1.214 2.72 2.498 3.99 0.646 0.63 1.743 1.38 2.817 1.92 3.152 1.58 4.979 1.91 10.433 1.87 3.097-0.02 3.599-0.07 3.787-0.37zm198.38-4.67c1.19-0.86 2.22-2.7 2.96-5.28 0.62-2.15 0.64-2.32 0.52-5-0.11-2.48-0.7-6.69-1.07-7.65-0.36-0.95-1.94 0.04-3.46 2.17-0.5 0.7-1.01 1.69-1.15 2.19-0.36 1.35-0.43 3.72-0.19 6.8 0.11 1.48 0.23 3.65 0.27 4.81 0.05 1.16 0.14 2.21 0.22 2.33 0.24 0.4 1.06 0.24 1.9-0.37zm-209.95-7.56c-0.009-1.02-0.197-1.31-2.249-3.52-1.534-1.65-4.939-4.33-5.507-4.33-0.103 0-0.407-0.17-0.677-0.38-0.426-0.32-3.864-1.51-7.058-2.43-0.565-0.16-1.49-0.48-2.057-0.7-1.245-0.48-1.918-0.5-2.081-0.08-0.206 0.54 0.87 3.09 2.057 4.87 2.499 3.76 5.645 5.59 11.216 6.51 0.846 0.14 2.14 0.37 2.874 0.52s1.819 0.28 2.412 0.29l1.077 0.02-0.007-0.77zm218.13-3.31c0.97-0.59 2.48-2.87 3.1-4.68 0.51-1.45 0.56-1.89 0.57-4.58 0.01-2.3-0.1-3.6-0.48-5.65-0.77-4.19-0.77-4.21-1.39-4.21-1.51 0-3.42 3.77-4.15 8.19-0.18 1.09-0.12 2.16 0.3 6.05 0.29 2.6 0.62 4.85 0.74 5 0.3 0.36 0.57 0.33 1.31-0.12zm-229.04-10.98c0.038-0.32-0.247-1.2-0.689-2.13-0.649-1.37-1.103-1.94-3.253-4.06l-2.498-2.46-5.024-2.51c-2.763-1.37-5.301-2.53-5.639-2.56-0.579-0.06-0.62-0.02-0.681 0.73-0.083 1.01 0.894 3.32 2.356 5.57 1.826 2.81 5.011 4.77 11.052 6.79 2.145 0.71 3.993 1.27 4.106 1.24s0.234-0.3 0.27-0.61zm238.07-2.55c0.64-0.55 1.18-1.39 2.44-3.84 0.99-1.92 1.17-2.43 1.18-3.39 0.03-2.77-0.7-6.81-1.67-9.24-1.27-3.18-1.54-3.73-1.88-3.91-0.59-0.32-1.13 0.16-2.01 1.76-2.22 4.04-2.43 8.65-0.62 14.07 0.32 0.96 0.65 2.3 0.72 2.98 0.08 0.67 0.22 1.38 0.33 1.58 0.23 0.45 0.97 0.45 1.51-0.01zm-247.39-12.07c0.223-0.58 0.134-1.18-0.44-3.01-0.557-1.76-1.413-3.21-2.92-4.93-1.022-1.17-3.86-3.34-5.529-4.22-0.785-0.42-2.325-1.29-3.421-1.95-1.097-0.65-2.119-1.14-2.272-1.08-0.414 0.16-0.349 1.9 0.123 3.27 0.53 1.54 1.617 3.56 2.149 3.99 0.234 0.19 0.646 0.67 0.916 1.07 0.575 0.84 2.453 2.27 4.334 3.29 0.734 0.4 1.835 1.08 2.446 1.51 1.268 0.9 3.904 2.38 4.255 2.38 0.129 0 0.291-0.14 0.359-0.32zm254.52-2.71c0.75-0.78 1.94-3.44 2.29-5.11 0.58-2.77 0.61-4.16 0.14-5.84-0.24-0.85-0.43-1.73-0.43-1.95 0-0.88-3.51-8.08-3.93-8.08-0.89 0-1.65 1.28-2.63 4.44-0.64 2.05-0.64 2.09-0.44 4.51 0.21 2.61 0.78 4.79 2.56 9.83 0.52 1.46 0.95 2.69 0.95 2.72s0.21 0.05 0.47 0.05 0.72-0.25 1.02-0.57zm-260.23-13.29c0.07-0.28 0.034-1.32-0.081-2.3-0.18-1.55-0.362-2.1-1.305-3.94-1.321-2.59-1.668-2.96-6.023-6.35-1.016-0.79-2.309-1.81-2.874-2.25-1.239-0.98-2.5699-1.89-2.7665-1.89-0.2908 0-0.6201 1.08-0.6171 2.01 0.0101 3.24 2.3946 7.79 5.4626 10.42 1.739 1.5 7.111 4.8 7.822 4.81 0.139 0 0.311-0.22 0.382-0.51zm266.48-3.25c0.67-1 1.26-2.7 1.7-4.94 0.29-1.44 0.13-3.35-0.44-5.35-0.46-1.59-2.19-5.02-3.58-7.09-0.9-1.34-2.26-2.87-2.55-2.87-0.87 0-1.85 3.77-1.85 7.13 0 2.77 0.37 4.24 1.75 7.02 1.3 2.62 2.6 5.38 3.05 6.44 0.45 1.08 1.04 0.98 1.92-0.34zm-269.96-12.38c0.07-0.28 0.083-1.5 0.029-2.7-0.089-1.99-0.175-2.38-0.942-4.2-1.115-2.65-3.687-6.09-6.032-8.07-0.927-0.78-2.1037-1.81-2.6149-2.29-0.5113-0.48-0.9957-0.87-1.0766-0.87s-0.4006 0.33-0.7104 0.73c-0.4252 0.56-0.5847 1.04-0.6503 1.94-0.1163 1.61 0.2992 5 0.7116 5.81 0.8038 1.57 2.8169 3.71 6.3206 6.71 1.122 0.96 2.529 2.18 3.126 2.71 1.161 1.04 1.621 1.09 1.839 0.23zm273.89-4.91c0.42-1.18 0.51-1.81 0.52-3.78 0.03-4.29-0.88-6.46-5.57-13.21-1.07-1.53-2.15-2.6-2.64-2.6-0.84 0-1.55 4.18-1.12 6.61 0.72 4.12 1.51 6.08 3.8 9.49 0.92 1.36 2.03 3.08 2.46 3.81 0.42 0.74 0.88 1.4 1.01 1.48 0.45 0.29 1.03-0.4 1.54-1.8zm-276.25-12.97c0.374-0.94 0.329-5.1-0.071-6.54-0.896-3.24-2.47-5.78-6.2151-10.03-0.4967-0.57-1.1342-1.31-1.4166-1.65-0.4211-0.5-0.5806-0.57-0.8853-0.39-0.5928 0.35-1.0789 1.54-1.4194 3.5-0.2863 1.64-0.2855 1.96 0.0086 3.46 0.6015 3.05 1.3796 4.24 5.5548 8.47 2.033 2.06 3.813 3.75 3.957 3.75s0.363-0.26 0.487-0.57zm277.77-3.25c0.3-0.97 0.36-1.66 0.28-3.47-0.1-2.55-0.6-4.43-1.61-6.13-0.34-0.58-0.95-1.61-1.36-2.29-0.4-0.68-1.43-2.03-2.28-3s-2.19-2.56-2.98-3.54c-0.78-0.97-1.48-1.77-1.56-1.77-0.58 0-1.07 2.22-0.9 4.08 0.15 1.68 1.4 5.73 2.06 6.71 0.28 0.4 0.67 1.07 0.88 1.49 0.22 0.41 0.75 1.17 1.2 1.68 0.44 0.51 1.09 1.34 1.44 1.86 0.35 0.51 0.79 1.06 0.97 1.21 0.19 0.16 0.81 1.08 1.38 2.04 1.16 1.99 1.58 2.52 1.89 2.42 0.11-0.04 0.38-0.62 0.59-1.29zm-277.92-13.68c0.519-0.81 1.007-3.78 0.867-5.29-0.164-1.77-1.257-4.7-2.351-6.31-0.472-0.69-0.858-1.32-0.858-1.39s-0.393-0.68-0.873-1.37c-0.48-0.68-1.288-1.85-1.796-2.59s-1.031-1.38-1.1621-1.42c-0.4054-0.13-1.0695 0.78-1.4441 1.98-0.2464 0.79-0.3596 1.85-0.364 3.4-0.0055 1.93 0.0612 2.4 0.4555 3.22 0.254 0.53 0.4619 1.05 0.4619 1.15 0 0.28 1.6038 2.86 2.6308 4.23 1.946 2.61 3.776 4.85 3.952 4.85 0.1 0 0.316-0.21 0.481-0.46zm277.53-3.96c0.38-2.08-0.55-5.67-2.03-7.84-0.86-1.25-5.06-5.96-5.86-6.56-0.17-0.13-0.88-0.8-1.58-1.49-0.73-0.72-1.44-1.25-1.69-1.25-0.62 0-0.88 0.89-0.73 2.47 0.25 2.68 1.2 4.5 3.81 7.28 0.85 0.91 1.86 2.06 2.25 2.57s1.12 1.36 1.62 1.89c0.5 0.54 1.14 1.32 1.42 1.75 0.78 1.18 1.95 2.33 2.3 2.27 0.19-0.04 0.38-0.45 0.49-1.09zm-275.74-11.95c0.861-1.03 1.431-3.14 1.512-5.6 0.09-2.73-0.321-4.16-2.459-8.56-1.487-3.06-2.76-4.99-3.292-4.99-0.351 0-1.172 1.12-1.741 2.37-0.693 1.52-0.668 4.81 0.057 7.43 0.482 1.75 1.927 4.93 2.813 6.2 0.201 0.29 0.79 1.2 1.308 2.02 0.975 1.54 1.292 1.74 1.802 1.13zm273.9-3.62c0.14-0.68 0.12-1.27-0.05-1.9-0.13-0.5-0.24-1.16-0.24-1.47 0-1.83-2.86-6.49-5.56-9.08-1.59-1.52-3.87-3.28-4.25-3.28-0.08 0-0.79-0.42-1.58-0.93-0.78-0.5-1.54-0.92-1.68-0.92-1.38 0-0.32 5.09 1.69 8.14 0.77 1.17 3.63 3.93 4.91 4.75 0.45 0.28 1.97 1.7 3.38 3.14 1.42 1.44 2.72 2.61 2.89 2.58 0.19-0.02 0.37-0.4 0.49-1.03zm-269.84-11.4c2.448-2.45 2.394-7.37-0.142-13.055-2.286-5.125-2.176-4.951-3-4.745-0.512 0.129-1.597 1.933-2.224 3.698-0.311 0.877-0.331 1.303-0.156 3.302 0.235 2.68 0.887 4.53 2.717 7.7 0.619 1.07 1.19 2.16 1.27 2.41 0.163 0.52 0.663 1.08 0.955 1.08 0.104 0 0.366-0.17 0.58-0.39zm265.41-6.06c0.1-1.21-0.28-2.43-1.5-4.94-0.96-1.977-1.3-2.453-2.71-3.8-2.28-2.176-3.24-2.825-6.84-4.622-1.75-0.873-3.6-1.804-4.11-2.069-1.12-0.588-1.36-0.603-1.63-0.105-0.28 0.538 0.23 2.193 1.28 4.127 1.22 2.252 4.14 5.171 6.69 6.699 2.4 1.44 5.01 3.2 6.79 4.6 0.73 0.57 1.47 1.01 1.64 0.97 0.21-0.04 0.34-0.33 0.39-0.86zm-260.02-7.548c1.496-1.602 2.016-3.505 2.016-7.387 0-2.893 0.098-2.448-1.795-8.175-1.059-3.205-1.095-3.284-1.493-3.284-0.542 0-1.504 1.209-2.391 3.006l-0.787 1.596 0.019 2.779 0.02 2.78 1.08 3.079c1.867 5.32 2.085 5.926 2.19 6.096 0.192 0.311 0.528 0.166 1.141-0.49zm254.22-8.325c-0.18-1.304-0.63-2.329-1.78-4.069-1.33-1.999-2.85-3.609-4.36-4.619-1.41-0.946-5.86-3.156-6.81-3.385-0.34-0.08-0.85-0.269-1.13-0.42-1.2-0.639-3.71-1.512-4.36-1.516-0.59-0.003-0.44 1.123 0.36 2.637 1.01 1.915 3.65 4.691 5.87 6.182 1.67 1.111 5.75 3.286 7.27 3.865 0.34 0.129 1.4 0.691 2.36 1.248s1.96 1.022 2.23 1.032c0.46 0.019 0.48-0.026 0.35-0.955zm-247.43-4.951c0.409-0.452 1.007-1.534 1.391-2.514 0.63-1.612 0.671-1.873 0.649-4.082-0.023-2.277-0.283-3.898-1.37-8.52-0.599-2.546-0.967-2.867-2.164-1.88-1.014 0.836-1.78 2.089-2.255 3.687-0.443 1.494-0.46 1.735-0.249 3.674 0.124 1.146 0.335 2.143 0.469 2.226 0.135 0.083 0.182 0.251 0.106 0.374-0.075 0.123 0.186 1.403 0.581 2.846 0.395 1.442 0.777 2.991 0.848 3.443 0.218 1.378 0.302 1.54 0.802 1.54 0.292 0 0.753-0.307 1.192-0.794zm240.16-9.778c-0.07-0.905-1.03-2.773-1.86-3.627-0.29-0.302-0.74-0.825-1-1.164-0.25-0.338-1.15-1.131-1.98-1.761-1.39-1.041-1.9-1.269-5.55-2.481-2.22-0.734-4.3-1.334-4.63-1.334-0.34 0-1.47-0.277-2.53-0.616-2.38-0.762-3.01-0.794-3-0.154 0 0.254 0.12 0.712 0.25 1.017 0.44 0.974 3.21 4.027 4.31 4.755 1.33 0.867 3.5 1.881 4.46 2.075 0.4 0.08 1.64 0.501 2.77 0.935 1.13 0.435 2.93 1.128 4.01 1.539 1.07 0.412 2.36 0.964 2.87 1.227s1.15 0.463 1.44 0.444c0.46-0.031 0.5-0.106 0.44-0.855zm-233.56-1.278c1.03-1 2.143-2.754 2.641-4.162 0.359-1.012 0.785-4.25 0.811-6.159 0.021-1.606-0.519-7.51-0.71-7.749-0.366-0.46-1.056-0.262-2.261 0.648-1.648 1.244-2.262 2.098-2.902 4.034-0.882 2.669-0.903 4.187-0.125 8.815 0.105 0.621 0.325 1.981 0.49 3.021 0.166 1.041 0.36 1.988 0.432 2.105 0.251 0.407 0.843 0.205 1.624-0.553zm9.09-12.143c0.448-0.325 1.02-0.856 1.269-1.18 1.65-2.143 2.061-2.787 2.534-3.977 0.634-1.592 1.191-4.407 1.191-6.017 0-1.384 0.294-3.465 0.847-5.999 0.565-2.585 0.283-3.059-1.258-2.12-2.77 1.687-4.706 4.084-5.687 7.038-0.538 1.619-0.551 1.78-0.562 6.893-0.007 2.879 0.054 5.396 0.135 5.593 0.209 0.507 0.592 0.449 1.531-0.231zm215.03-0.549c-0.03-0.313-0.23-0.901-0.44-1.306-0.41-0.775-2.85-3.243-4.17-4.206-1.33-0.971-3.84-1.706-7.43-2.175-1.81-0.237-3.8-0.519-4.43-0.626-0.63-0.108-1.85-0.195-2.72-0.195-1.91 0-1.96 0.112-0.74 1.981 0.63 0.964 1.18 1.502 2.15 2.118 1.42 0.894 4.47 2.185 6.76 2.857 3.36 0.984 4.38 1.255 4.75 1.253 0.21-0.001 0.98 0.137 1.72 0.307 3.28 0.759 3.82 0.849 4.21 0.71 0.3-0.108 0.39-0.298 0.34-0.718zm-204.5-10.047c1.04-0.538 3.014-2.307 3.687-3.303 0.954-1.414 2.473-4.521 2.473-5.059 0-0.256 0.18-0.939 0.399-1.517 0.22-0.578 0.544-1.872 0.72-2.874 0.176-1.003 0.503-2.562 0.727-3.465s0.408-1.905 0.409-2.226l0.003-0.584-1.078 0.145c-1.249 0.169-1.489 0.281-3.069 1.431-2.218 1.614-3.984 4.972-4.858 9.24-0.449 2.189-0.968 7.706-0.773 8.214 0.149 0.388 0.606 0.387 1.36-0.002zm193.34-1.907c0.15-1.059-1.79-3.514-4.17-5.281-1.85-1.375-2.36-1.624-4.13-2.021-1.93-0.435-3.96-0.457-8.19-0.089-1.92 0.168-3.95 0.296-4.51 0.285-0.79-0.016-1.04 0.056-1.09 0.311-0.1 0.535 0.87 1.506 2.67 2.657 3.69 2.368 7.33 3.58 11.76 3.909 1.36 0.1 3.16 0.314 4 0.474 0.85 0.16 2.01 0.276 2.57 0.258 0.9-0.03 1.03-0.091 1.09-0.503zm-179.55-9.093c0.755-0.442 1.838-1.324 2.406-1.961 1.264-1.419 3.626-5.938 4.664-8.927 0.407-1.172 0.816-2.223 0.908-2.336 0.373-0.456 1.448-3.47 1.339-3.753-0.284-0.741-4.027 0.502-5.742 1.906-1.725 1.415-3.814 4.862-4.602 7.595-0.967 3.356-2.082 8.016-1.981 8.279 0.173 0.45 1.444 0.11 3.008-0.803zm161.32-2.465c4.83-0.503 4.72-0.482 4.72-0.904 0-0.469-1.51-2.024-2.4-2.479-0.43-0.217-1.06-0.58-1.4-0.806-0.93-0.624-2.41-1.272-3.79-1.657-2.36-0.665-9.18 0.007-11.23 1.107-0.25 0.133-0.62 0.241-0.83 0.241s-0.58 0.141-0.82 0.314c-0.39 0.272-0.42 0.385-0.22 0.827 0.57 1.245 5.5 3.305 8.58 3.584 2.61 0.237 3.06 0.223 7.39-0.227zm-148.6-6.097c1.381-0.456 3.472-1.862 4.745-3.188 1.009-1.052 2.041-2.928 2.956-5.375 0.295-0.79 0.704-1.806 0.908-2.258 0.204-0.451 0.655-1.455 1.003-2.229 0.348-0.775 0.632-1.642 0.632-1.927 0-0.511-0.02-0.517-1.292-0.415-1.494 0.12-2.114 0.406-4.149 1.911-1.46 1.079-2.586 2.472-3.233 3.995-0.167 0.395-0.541 1.226-0.831 1.847-0.289 0.621-0.666 1.545-0.838 2.053-0.171 0.508-0.593 1.739-0.937 2.736-0.747 2.162-0.817 3.217-0.213 3.217 0.077 0 0.638-0.165 1.249-0.367zm128.49-1.559c0.62-0.157 1.97-0.438 3.01-0.626 1.05-0.187 2.43-0.525 3.08-0.749 0.66-0.225 2.04-0.466 3.07-0.534 2.16-0.143 2.54-0.286 2.21-0.829-0.37-0.589-2.15-1.891-3.34-2.43-2.16-0.979-3.66-1.322-5.75-1.321-2.62 0.002-4.04 0.252-7.06 1.242-3.9 1.277-4.67 1.631-4.67 2.147 0 0.756 2.67 2.285 5.16 2.953 1.82 0.489 2.81 0.523 4.29 0.147zm-113.89-5.018c1.39-0.489 3.41-1.862 4.71-3.203 0.78-0.805 1.42-1.886 2.83-4.77 1.83-3.73 2.28-4.873 2.11-5.354-0.06-0.171-0.54-0.257-1.46-0.257-1.56 0-3.17 0.508-4.26 1.342-0.93 0.703-2.87 3.045-3.4 4.098-0.23 0.452-0.6 1.013-0.81 1.248-0.22 0.235-0.81 1.603-1.312 3.039-0.507 1.437-1.066 2.893-1.243 3.235-0.496 0.959-0.26 1.282 0.83 1.132 0.501-0.068 1.405-0.298 2.005-0.51zm103.19-1.813c1.19-0.399 2.41-0.853 2.71-1.008 1.14-0.586 3.98-1.525 4.62-1.525 0.91 0 1.72-0.335 1.72-0.707 0-0.567-2.22-1.999-4.35-2.806-2.04-0.775-2.12-0.788-4.56-0.736-3.21 0.068-5.62 0.791-8.68 2.6-1.16 0.681-2.19 1.238-2.3 1.238s-0.48 0.242-0.83 0.537c-0.84 0.704-0.66 0.919 1.75 2.06 2.41 1.147 3.04 1.278 5.61 1.166 1.74-0.075 2.54-0.228 4.31-0.819zm-89.55-3.247c2.44-1.162 3.44-2.107 5.25-4.973 2.48-3.915 3.49-5.426 3.9-5.8317 0.51-0.509 0.82-1.2392 0.62-1.4437-0.62-0.6134-3.53-0.1522-5.76 0.9124-2.22 1.0561-4.11 3.613-6.02 8.15-0.26 0.62-0.77 1.597-1.13 2.169-0.65 1.019-0.77 1.343-0.72 1.908 0.04 0.491 1.83 0.079 3.86-0.891zm74.39-1.433c0.84-0.425 2.08-1.163 2.76-1.641 1.51-1.069 3.57-2.202 4.88-2.684 1.69-0.624 1.55-0.954-0.83-2.083-2.72-1.286-3.98-1.581-6.25-1.456-3.08 0.17-4.24 0.718-7.94 3.741-0.84 0.682-2.03 1.631-2.66 2.108-2.03 1.541-1.89 1.961 0.79 2.429 0.94 0.165 1.77 0.355 1.83 0.424 0.07 0.068 1.42 0.081 3.01 0.029 2.86-0.094 2.91-0.105 4.41-0.867zm-61.38-0.963c1.43-0.477 1.77-0.679 4.07-2.415 1.11-0.84 1.84-1.61 2.71-2.891 1.84-2.6862 2.33-3.3585 3.35-4.6078 1.06-1.2972 1.11-1.4497 0.55-1.745-1.39-0.7437-4.92-0.3636-6.28 0.6754-1.76 1.3446-3.96 3.6764-4.55 4.8184-0.34 0.641-0.93 1.674-1.31 2.295-0.39 0.621-0.84 1.374-1.01 1.673s-0.58 0.918-0.9 1.374c-0.32 0.457-0.52 0.928-0.45 1.047 0.23 0.37 2.42 0.241 3.82-0.224zm42.58-0.977c2.85-0.899 5.61-2.36 7.09-3.745 0.83-0.781 3.53-2.769 4.27-3.14 1.02-0.5128 0.79-0.9536-0.78-1.5057-1.16-0.4055-1.63-0.4563-3.49-0.3775-2.28 0.0961-4.31 0.5267-5.61 1.19-1.23 0.6249-3.42 2.1762-4.63 3.2812-0.61 0.554-1.69 1.428-2.41 1.942-2.05 1.462-1.79 1.946 1.31 2.428 2.44 0.381 2.84 0.374 4.25-0.073zm-29.25-0.693c2.53-0.868 4.04-1.898 6.67-4.545 2.64-2.6462 2.63-2.6421 4.82-4.2363 0.8-0.5757 1.44-1.1757 1.44-1.3334 0-0.8583-3.25-1.4715-5.64-1.0625-2.36 0.4039-5.64 2.6262-7.95 5.3802-2.43 2.901-3.92 5.07-3.82 5.575 0.15 0.778 2.52 0.896 4.48 0.222zm12.84-0.243c2.77-0.579 4.09-1.217 6.35-3.082 0.91-0.744 2.87-2.333 4.37-3.5328 1.49-1.1994 2.72-2.2935 2.72-2.4312 0-0.4815-0.66-0.7911-2.23-1.0414-1.47-0.2353-1.69-0.2189-3.36 0.2442-0.98 0.273-1.9 0.4964-2.04 0.4964-0.42 0-3.9 2.1732-4.83 3.0166-1.12 1.0202-4.4 4.7862-4.77 5.4772-0.34 0.63-0.27 0.737 0.64 0.952 1.04 0.245 1.58 0.228 3.15-0.099z"/>
 </g>
</svg>
