<svg fill="currentColor" fill-rule="evenodd" viewBox="0 0 24 24" xmlns="http://www.w3.org/2000/svg"><path d="M17.583 12.344L14.606 17.5H20.6c.22 0 .424-.117.535-.308l2.799-4.848h-6.351zM23.934 11.656l-2.799-4.848A.616.616 0 0020.6 6.5h-5.994l2.977 5.156h6.35zM8.653 6.5h5.953l-2.997-5.191A.616.616 0 0011.074 1H5.476l3.176 5.5zM4.881 1.343L2.083 6.191a.618.618 0 000 .617l2.997 5.191 2.976-5.156-3.175-5.5zM8.057 17.155L5.081 12l-2.998 5.192a.618.618 0 000 .617l2.798 4.848 3.175-5.5h.001zM5.476 23h5.598c.22 0 .424-.117.535-.308l2.997-5.192H8.653L5.477 23z"></path></svg>