<svg fill="currentColor" fill-rule="evenodd" viewBox="0 0 24 24" xmlns="http://www.w3.org/2000/svg"><path d="M7.754 3.248C9.483.97 12.144-.223 14.99.035c4.67.422 8.023 4.694 7.27 9.384-.266 1.667-1 3.125-2.203 4.374-.468.487-1.025.9-1.662 1.422-2.554 2.09-6.026 4.854-10.413 8.294-.224.176-.669.495-.94.49a.19.19 0 01-.137-.06.192.192 0 01-.05-.14c.01-.207.077-.473.202-.8.04-.108.44-.956 1.197-2.545a1.99 1.99 0 00.179-.577.143.143 0 00-.007-.068.142.142 0 00-.098-.09.144.144 0 00-.07 0 1.479 1.479 0 00-.505.237c-.414.288-.86.648-1.337 1.078-.506.453-1.137 1.025-1.895 1.716a8.873 8.873 0 01-1.252.977.155.155 0 01-.064.021.152.152 0 01-.123-.04.154.154 0 01-.037-.055c-.027-.067-.024-.165.01-.292.113-.423.283-.902.511-1.437.17-.396.52-1.206 1.051-2.428.17-.39.697-1.592.61-1.897a.167.167 0 00-.102-.111.166.166 0 00-.15.018c-.284.194-.593.485-.93.87-.782.895-1.569 1.78-2.358 2.657-.248.274-.477.388-.687.343v-.238c.058-.215.104-.438.178-.642C4.075 12.378 5.938 7.2 6.764 4.964c.198-.537.529-1.11.99-1.716zm6.49-1.771a6.641 6.641 0 100 13.283 6.641 6.641 0 000-13.283z"></path><path d="M14.244 3.104a5.017 5.017 0 11-.002 10.033 5.017 5.017 0 01.002-10.033zm2.049 1.695a3.087 3.087 0 00-4.363 1.187 1.583 1.583 0 00-.165.442c-.015.067-.027.13-.033.194a1.308 1.308 0 00.078.56c.025.07.056.137.091.203.287.529.884.944 1.43 1.288.135.086.269.167.393.245l.392.246c.343.212.72.43 1.102.568.305.112.613.173.908.142a1.34 1.34 0 00.535-.178c.103-.061.202-.14.298-.237.064-.065.127-.137.186-.22a3.133 3.133 0 00.445-.868 3.08 3.08 0 00.056-1.71A3.063 3.063 0 0016.293 4.8z"></path></svg>