<svg viewBox="0 0 670 380" fill="currentColor" xmlns="http://www.w3.org/2000/svg">
<path d="M669.358 41.7198C669.358 5.33456 625.406 -12.9309 599.618 12.7374L245.993 364.722C240.942 369.75 244.502 378.374 251.629 378.374H302.73C305.153 378.374 307.573 378.19 309.968 377.824L388.815 365.781C438.73 358.157 489.537 358.467 539.356 366.701L606.083 377.729C608.666 378.156 611.281 378.371 613.899 378.371H649.823C660.612 378.371 669.358 369.625 669.358 358.836V41.7198Z"/>
<path opacity="0.6" d="M122.769 378.256C115.654 378.256 112.088 369.656 117.116 364.622L361.637 119.745C375.933 105.427 399.132 105.419 413.438 119.726C427.738 134.025 427.738 157.209 413.438 171.508L217.784 367.163C210.682 374.265 201.05 378.255 191.006 378.255L122.769 378.256Z"/>
<path opacity="0.4" d="M18.9735 378.303C2.11297 378.303 -6.33968 357.926 5.57059 345.992L154.164 197.101C168.458 182.779 191.658 182.768 205.966 197.075C220.263 211.373 220.263 234.553 205.966 248.851L87.6062 367.21C80.5043 374.312 70.872 378.302 60.8284 378.302L18.9735 378.303Z"/>
</svg>
