<svg xmlns="http://www.w3.org/2000/svg" viewBox="0 0 24 24"><path fill="currentColor" d="M4.94 4.96a9.97 9.97 0 0 1 10.835-2.182a8.7 8.7 0 0 1 2.033 1.11l-3.006 1.39C12.003 4.101 8.797 4.9 6.84 6.86c-2.564 2.565-3.146 6.954-.36 9.922l.278.284L.124 23c1.875-1.973 3.771-4.427 2.636-7.19c-1.52-3.698-.635-8.03 2.18-10.85M23.9.1c-2.264 3.174-3.184 5.389-2.197 9.64l-.007-.007c.753 3.201-.052 6.75-2.653 9.355c-3.279 3.285-8.526 4.016-12.847 1.06L9.21 18.75c2.758 1.084 5.775.607 7.943-1.564c2.169-2.17 2.655-5.332 1.566-7.963c-.207-.5-.828-.625-1.263-.304L8.59 15.472l12.7-12.77v.01z"/></svg>