<svg fill="none" height="100%" width="100%" viewBox="0 0 640 640" xmlns="http://www.w3.org/2000/svg"><rect x="160" y="270" width="320" height="110" rx="55" fill="#f6f6f6" /><g transform="translate(0,0)"><animateTransform attributeName="transform" type="translate" values="0,0;0,0;210,0;210,0;0,0;0,0" keyTimes="0;0.26;0.36;0.74;0.84;1" dur="8s" begin="0s" repeatCount="indefinite" calcMode="spline" keySplines="0.4 0 0.2 1;0.4 0 0.2 1;0.4 0 0.2 1;0.4 0 0.2 1;0.4 0 0.2 1" /><circle cx="215" cy="325" r="45" fill="#515151" /></g><g transform="translate(215,325)" fill="#fecd49"><animate attributeName="fill" values="#fecd49;#fecd49;#727272;#727272;#fecd49;#fecd49" keyTimes="0;0.26;0.36;0.74;0.84;1" dur="8s" begin="0s" repeatCount="indefinite" /><rect x="-17" y="-17" width="34" height="34" rx="5" /><rect x="-13" y="-25" width="6" height="8" /><rect x="-3" y="-25" width="6" height="8" /><rect x="7" y="-25" width="6" height="8" /><rect x="-13" y="17" width="6" height="8" /><rect x="-3" y="17" width="6" height="8" /><rect x="7" y="17" width="6" height="8" /><rect x="-25" y="-13" width="8" height="6" /><rect x="-25" y="-3" width="8" height="6" /><rect x="-25" y="7" width="8" height="6" /><rect x="17" y="-13" width="8" height="6" /><rect x="17" y="-3" width="8" height="6" /><rect x="17" y="7" width="8" height="6" /></g><g transform="translate(425,325)" fill="#727272"><animate attributeName="fill" values="#727272;#727272;#fecd49;#fecd49;#727272;#727272" keyTimes="0;0.26;0.36;0.74;0.84;1" dur="8s" begin="0s" repeatCount="indefinite" /><path fill-rule="evenodd" d="M-28,0 A12,12 0 1 0 -4,0 A12,12 0 1 0 -28,0 Z M-22,0 A6,6 0 1 1 -10,0 A6,6 0 1 1 -22,0 Z" /><rect x="-6" y="-3" width="34" height="6" /><rect x="15" y="3" width="5" height="8" /><rect x="23" y="3" width="5" height="11" /></g><g transform="translate(560,520)"><animateTransform attributeName="transform" type="translate" values="560,520;560,520;440,340;440,340;440,340;510,470;510,470;230,340;230,340;230,340;560,520;560,520" keyTimes="0;0.05;0.2;0.22;0.38;0.5;0.55;0.68;0.7;0.86;0.98;1" dur="8s" begin="0s" repeatCount="indefinite" calcMode="spline" keySplines="0.4 0 0.2 1;0.4 0 0.2 1;0.4 0 0.2 1;0.4 0 0.2 1;0.4 0 0.2 1;0.4 0 0.2 1;0.4 0 0.2 1;0.4 0 0.2 1;0.4 0 0.2 1;0.4 0 0.2 1;0.4 0 0.2 1" /><g transform="scale(1)"><animateTransform attributeName="transform" type="scale" values="1;1;0.85;1;1;0.85;1;1" keyTimes="0;0.22;0.24;0.26;0.7;0.72;0.74;1" dur="8s" begin="0s" repeatCount="indefinite" /><path d="M0,0 L0,42 L11,32 L19,51 L27,48 L19,29 L32,29 Z" fill="#515151" stroke="#f6f6f6" stroke-width="5" stroke-linejoin="round" /></g></g></svg>
